# https://github.com/mikedh/trimesh
v 2.00000000 2.00000000 1.39999998
v 15.12250042 11.55000019 1.39999998
v 8.02250004 11.55000019 1.39999998
v 2.00000000 30.25000000 1.39999998
v 2.00000000 24.79999924 7.00000000
v 2.00000000 22.20000076 7.00000000
v 2.00000000 27.39999962 7.00000000
v 2.00000000 22.20000076 21.00000000
v 21.12249947 11.55000019 1.39999998
v 42.82249832 11.55000019 1.39999998
v 21.12249947 13.14999962 1.39999998
v 15.12250042 13.14999962 1.39999998
v 14.37250042 13.14999962 1.39999998
v 14.37250042 26.04999924 1.39999998
v 15.12250042 11.55000019 15.00000000
v 15.12250042 13.14999962 15.00000000
v 21.12249947 13.14999962 15.00000000
v 21.12249947 11.55000019 15.00000000
v 0.00000000 22.20000076 7.00000000
v 0.00000000 2.50000000 0.00000000
v 0.00000000 2.50000000 42.00000000
v 2.00000000 2.00000000 38.00000000
v 8.46000004 2.00000000 29.29999924
v 8.46000004 0.00000000 29.29999924
v 2.50000000 0.00000000 0.00000000
v 16.42250061 0.00000000 29.29999924
v 16.42250061 2.00000000 29.29999924
v 8.02250004 11.55000019 20.00000000
v 8.02250004 27.64999962 20.00000000
v 14.37250042 13.14999962 20.00000000
v 11.37250042 18.75000000 20.00000000
v 11.37250042 20.45000076 20.00000000
v 14.37250042 26.04999924 20.00000000
v 13.07250023 18.75000000 20.00000000
v 13.07250023 20.45000076 20.00000000
v 37.87250137 13.14999962 20.00000000
v 42.82249832 11.55000019 20.00000000
v 8.02250004 27.64999962 1.39999998
v 0.00000000 24.79999924 7.00000000
v 0.00000000 71.50000000 0.00000000
v 2.00000000 30.00000000 7.00000000
v 2.00000000 30.25000000 7.90000010
v 16.75000000 30.25000000 6.80000019
v 3.25000000 33.25000000 1.39999998
v 3.25000000 33.25000000 6.59999990
v 16.75000000 33.25000000 2.00000000
v 3.00000000 33.25000000 7.00000000
v 3.00000000 33.25000000 7.90000010
v 0.00000000 27.39999962 7.00000000
v 0.00000000 30.00000000 7.00000000
v 0.00000000 32.59999847 7.00000000
v 2.00000000 35.20000076 7.00000000
v 0.00000000 35.20000076 7.00000000
v 2.00000000 33.25000000 7.00000000
v 3.00000000 32.59999847 7.00000000
v 2.00000000 33.25000000 6.59999990
v 2.00000000 32.59999847 7.90000010
v 3.00000000 32.59999847 7.90000010
v 42.82249832 27.64999962 1.39999998
v 16.75000000 30.25000000 2.00000000
v 16.75000000 33.25000000 6.80000019
v 20.75000000 33.25000000 2.00000000
v 20.75000000 30.25000000 2.00000000
v 20.75000000 33.25000000 6.80000019
v 20.75000000 30.25000000 6.80000019
v 0.00000000 22.20000076 21.00000000
v 0.00000000 24.79999924 21.00000000
v 2.00000000 27.39999962 21.00000000
v 2.00000000 24.79999924 21.00000000
v 0.00000000 27.39999962 21.00000000
v 11.37250042 18.75000000 14.50000000
v 11.37250042 20.45000076 14.50000000
v 2.00000000 30.00000000 21.00000000
v 0.00000000 30.00000000 21.00000000
v 2.00000000 32.59999847 21.00000000
v 0.00000000 32.59999847 21.00000000
v 0.00000000 35.20000076 21.00000000
v 0.00000000 37.79999924 7.00000000
v 2.00000000 37.79999924 7.00000000
v 2.00000000 37.79999924 21.00000000
v 2.00000000 35.20000076 21.00000000
v 0.00000000 37.79999924 21.00000000
v 13.07250023 18.75000000 14.50000000
v 13.07250023 20.45000076 14.50000000
v 37.87250137 26.04999924 20.00000000
v 89.50000000 0.00000000 0.00000000
v 37.87250137 13.14999962 1.39999998
v 90.00000000 2.00000000 1.39999998
v 37.87250137 26.04999924 1.39999998
v 43.98246384 12.06589699 20.00000000
v 49.92250061 11.55000019 15.00000000
v 39.17250061 18.75000000 20.00000000
v 39.17250061 20.45000076 20.00000000
v 40.87250137 18.75000000 20.00000000
v 42.82249832 23.93059158 20.00000000
v 46.17250061 18.75000000 20.00000000
v 46.17250061 20.45000076 20.00000000
v 90.00000000 30.25000000 7.90000010
v 89.00000000 33.25000000 7.90000010
v 90.00000000 30.25000000 1.39999998
v 70.75000000 30.25000000 6.80000019
v 90.00000000 33.25000000 1.39999998
v 70.75000000 33.25000000 2.00000000
v 79.02249908 27.64999962 1.39999998
v 89.00000000 33.25000000 7.00000000
v 42.82249832 27.64999962 20.00000000
v 39.17250061 18.75000000 14.50000000
v 40.87250137 18.75000000 14.50000000
v 39.17250061 20.45000076 14.50000000
v 40.87250137 20.45000076 14.50000000
v 40.87250137 20.45000076 20.00000000
v 49.17250061 26.04999924 20.00000000
v 8.46000004 0.00000000 42.00000000
v 2.50000000 0.00000000 42.00000000
v 16.42250061 2.00000000 42.00000000
v 3.50000000 2.00000000 39.50000000
v 8.46000004 2.00000000 42.00000000
v 2.00000000 2.00000000 39.50000000
v 2.00000000 2.00000000 42.00000000
v 16.42250061 0.00000000 42.00000000
v 2.00000000 40.40000153 21.00000000
v 2.00000000 65.00000000 38.00000000
v 2.00000000 65.00000000 39.50000000
v 3.50000000 65.00000000 39.50000000
v 2.00000000 72.00000000 42.00000000
v 0.00000000 71.50000000 42.00000000
v 54.25999832 0.00000000 29.29999924
v 54.25999832 0.00000000 42.00000000
v 43.00000000 2.00000000 30.00000000
v 43.00000000 9.00000000 37.00000000
v 49.00000000 2.00000000 30.00000000
v 43.00000000 2.00000000 37.00000000
v 43.00000000 2.00000000 39.50000000
v 54.25999832 2.00000000 42.00000000
v 43.00000000 9.00000000 39.50000000
v 45.23904800 5.00830841 39.50000000
v 45.11611557 5.11611652 39.50000000
v 45.37500000 4.91746807 39.50000000
v 44.79259109 5.67647600 39.50000000
v 44.76069260 5.83684206 39.50000000
v 44.75000000 6.00000000 39.50000000
v 45.00830841 5.23904800 39.50000000
v 44.91746902 5.37500000 39.50000000
v 44.84514999 5.52164555 39.50000000
v 49.00000000 2.00000000 39.50000000
v 45.67647552 4.79259253 39.50000000
v 45.52164459 4.84515047 39.50000000
v 44.79259109 6.32352400 39.50000000
v 44.76069260 6.16315794 39.50000000
v 49.00000000 9.00000000 39.50000000
v 44.84514999 6.47835445 39.50000000
v 44.91746902 6.62500000 39.50000000
v 45.00830841 6.76095200 39.50000000
v 45.11611557 6.88388348 39.50000000
v 45.23904800 6.99169159 39.50000000
v 45.37500000 7.08253193 39.50000000
v 45.52164459 7.15484953 39.50000000
v 45.67647552 7.20740747 39.50000000
v 45.83684158 7.23930597 39.50000000
v 46.00000000 7.25000000 39.50000000
v 46.16315842 7.23930597 39.50000000
v 46.32352448 7.20740747 39.50000000
v 45.00830841 5.23904800 46.00000000
v 45.11611557 5.11611652 46.00000000
v 44.84514999 5.52164555 46.00000000
v 44.79259109 5.67647600 46.00000000
v 44.91746902 5.37500000 46.00000000
v 45.37500000 4.91746807 46.00000000
v 45.52164459 4.84515047 46.00000000
v 45.23904800 5.00830841 46.00000000
v 45.83684158 4.76069403 39.50000000
v 45.67647552 4.79259253 46.00000000
v 46.00000000 4.75000000 39.50000000
v 45.83684158 4.76069403 46.00000000
v 44.76069260 5.83684206 46.00000000
v 44.75000000 6.00000000 46.00000000
v 44.76069260 6.16315794 46.00000000
v 44.79259109 6.32352400 46.00000000
v 44.84514999 6.47835445 46.00000000
v 44.91746902 6.62500000 46.00000000
v 45.00830841 6.76095200 46.00000000
v 45.11611557 6.88388348 46.00000000
v 45.23904800 6.99169159 46.00000000
v 45.37500000 7.08253193 46.00000000
v 45.52164459 7.15484953 46.00000000
v 45.67647552 7.20740747 46.00000000
v 45.83684158 7.23930597 46.00000000
v 46.00000000 7.25000000 46.00000000
v 46.00000000 4.75000000 46.00000000
v 46.00000000 6.00000000 46.00000000
v 3.25000000 68.75000000 1.39999998
v 0.00000000 40.40000153 7.00000000
v 2.00000000 40.40000153 7.00000000
v 0.00000000 43.00000000 7.00000000
v 2.00000000 43.00000000 7.00000000
v 0.00000000 45.59999847 7.00000000
v 2.00000000 45.59999847 7.00000000
v 2.00000000 68.75000000 6.59999990
v 0.00000000 45.59999847 21.00000000
v 0.00000000 40.40000153 21.00000000
v 2.00000000 43.00000000 21.00000000
v 0.00000000 43.00000000 21.00000000
v 2.00000000 45.59999847 21.00000000
v 2.00000000 65.00000000 37.00000000
v 3.25000000 68.75000000 6.59999990
v 17.35000038 68.75000000 1.39999998
v 2.00000000 68.75000000 7.90000010
v 17.35000038 68.75000000 6.00000000
v 20.00000000 72.00000000 7.90000010
v 2.00000000 72.00000000 7.90000010
v 17.35000038 67.25000000 1.39999998
v 20.14999962 67.25000000 1.39999998
v 17.35000038 67.25000000 6.00000000
v 20.14999962 67.25000000 6.00000000
v 20.14999962 68.75000000 1.39999998
v 20.14999962 68.75000000 6.00000000
v 20.00000000 71.00000000 7.90000010
v 20.00000000 71.00000000 5.00000000
v 20.00000000 74.00000000 5.00000000
v 20.00000000 72.00000000 19.00000000
v 2.50000000 74.00000000 0.00000000
v 2.50000000 74.00000000 42.00000000
v 9.00000000 72.00000000 30.00000000
v 2.00000000 72.00000000 30.00000000
v 20.00000000 74.00000000 19.00000000
v 35.00000000 72.00000000 19.00000000
v 35.00000000 74.00000000 5.00000000
v 35.00000000 71.00000000 5.00000000
v 71.34999847 68.75000000 6.00000000
v 35.00000000 71.00000000 7.90000010
v 71.34999847 68.75000000 1.39999998
v 89.50000000 74.00000000 0.00000000
v 40.00000000 71.00000000 5.00000000
v 55.00000000 74.00000000 5.00000000
v 40.00000000 74.00000000 5.00000000
v 35.00000000 72.00000000 7.90000010
v 90.00000000 68.75000000 7.90000010
v 40.00000000 72.00000000 7.90000010
v 40.00000000 71.00000000 7.90000010
v 35.00000000 74.00000000 19.00000000
v 40.00000000 72.00000000 19.00000000
v 55.00000000 71.00000000 5.00000000
v 40.00000000 74.00000000 19.00000000
v 55.00000000 72.00000000 19.00000000
v 60.00000000 72.00000000 19.00000000
v 2.15000010 65.00000000 39.50000000
v 2.00000000 72.00000000 39.50000000
v 9.00000000 65.00000000 37.00000000
v 2.14685321 65.14685059 39.50000000
v 5.41746807 66.87500000 39.50000000
v 5.34515047 67.02164459 39.50000000
v 5.29259253 67.17647552 39.50000000
v 5.26069403 67.33684540 39.50000000
v 5.25000000 67.50000000 39.50000000
v 5.26069403 67.66315460 39.50000000
v 5.29259253 67.82352448 39.50000000
v 5.34515047 67.97835541 39.50000000
v 9.00000000 65.00000000 39.50000000
v 6.33684206 66.26069641 39.50000000
v 6.17647600 66.29259491 39.50000000
v 6.50000000 66.25000000 39.50000000
v 6.66315794 66.26069641 39.50000000
v 6.82352400 66.29259491 39.50000000
v 5.61611652 66.61611938 39.50000000
v 5.50830841 66.73905182 39.50000000
v 5.87500000 66.41746521 39.50000000
v 5.73904800 66.50830841 39.50000000
v 6.02164555 66.34515381 39.50000000
v 5.41746807 68.12500000 39.50000000
v 7.57061005 70.57061005 39.50000000
v 5.50830841 68.26094818 39.50000000
v 5.61611652 68.38388062 39.50000000
v 6.97835445 66.34515381 39.50000000
v 7.12500000 66.41746521 39.50000000
v 7.26095200 66.50830841 39.50000000
v 7.38388348 66.61611938 39.50000000
v 7.49169159 66.73905182 39.50000000
v 7.58253193 66.87500000 39.50000000
v 7.65484953 67.02164459 39.50000000
v 7.70740747 67.17647552 39.50000000
v 7.73930597 67.33684540 39.50000000
v 7.75000000 67.50000000 39.50000000
v 5.73904800 68.49169159 39.50000000
v 5.87500000 68.58253479 39.50000000
v 6.02164555 68.65484619 39.50000000
v 6.17647600 68.70740509 39.50000000
v 6.33684206 68.73930359 39.50000000
v 6.50000000 68.75000000 39.50000000
v 6.66315794 68.73930359 39.50000000
v 6.82352400 68.70740509 39.50000000
v 6.97835445 68.65484619 39.50000000
v 7.73930597 67.66315460 39.50000000
v 7.70740747 67.82352448 39.50000000
v 7.65484953 67.97835541 39.50000000
v 7.49169159 68.26094818 39.50000000
v 7.38388348 68.38388062 39.50000000
v 7.12500000 68.58253479 39.50000000
v 7.26095200 68.49169159 39.50000000
v 7.58253193 68.12500000 39.50000000
v 9.00000000 70.50000000 39.50000000
v 9.00000000 72.00000000 37.00000000
v 9.00000000 72.00000000 38.00000000
v 9.00000000 72.00000000 39.50000000
v 9.00000000 70.59540558 39.50000000
v 5.34515047 67.02164459 46.00000000
v 5.50830841 66.73905182 46.00000000
v 5.61611652 66.61611938 46.00000000
v 5.41746807 66.87500000 46.00000000
v 5.29259253 67.17647552 46.00000000
v 5.26069403 67.33684540 46.00000000
v 5.25000000 67.50000000 46.00000000
v 5.26069403 67.66315460 46.00000000
v 5.29259253 67.82352448 46.00000000
v 5.34515047 67.97835541 46.00000000
v 5.41746807 68.12500000 46.00000000
v 5.50830841 68.26094818 46.00000000
v 5.61611652 68.38388062 46.00000000
v 5.73904800 68.49169159 46.00000000
v 5.73904800 66.50830841 46.00000000
v 6.50000000 67.50000000 46.00000000
v 5.87500000 66.41746521 46.00000000
v 6.02164555 66.34515381 46.00000000
v 6.17647600 66.29259491 46.00000000
v 6.33684206 66.26069641 46.00000000
v 6.50000000 66.25000000 46.00000000
v 6.66315794 66.26069641 46.00000000
v 6.82352400 66.29259491 46.00000000
v 6.97835445 66.34515381 46.00000000
v 7.12500000 66.41746521 46.00000000
v 7.26095200 66.50830841 46.00000000
v 7.38388348 66.61611938 46.00000000
v 7.49169159 66.73905182 46.00000000
v 7.58253193 66.87500000 46.00000000
v 5.87500000 68.58253479 46.00000000
v 6.02164555 68.65484619 46.00000000
v 6.17647600 68.70740509 46.00000000
v 6.33684206 68.73930359 46.00000000
v 6.50000000 68.75000000 46.00000000
v 6.66315794 68.73930359 46.00000000
v 6.82352400 68.70740509 46.00000000
v 6.97835445 68.65484619 46.00000000
v 7.12500000 68.58253479 46.00000000
v 7.65484953 67.02164459 46.00000000
v 7.70740747 67.17647552 46.00000000
v 7.73930597 67.33684540 46.00000000
v 7.75000000 67.50000000 46.00000000
v 7.70740747 67.82352448 46.00000000
v 7.73930597 67.66315460 46.00000000
v 7.65484953 67.97835541 46.00000000
v 7.58253193 68.12500000 46.00000000
v 7.38388348 68.38388062 46.00000000
v 7.49169159 68.26094818 46.00000000
v 7.26095200 68.49169159 46.00000000
v 75.00000000 72.00000000 19.00000000
v 89.50000000 74.00000000 42.00000000
v 83.00000000 70.50000000 39.50000000
v 83.00000000 70.50659943 39.50000000
v 83.00000000 72.00000000 39.50000000
v 90.00000000 72.00000000 42.00000000
v 49.17250061 13.14999962 1.39999998
v 49.92250061 13.14999962 1.39999998
v 49.17250061 26.04999924 1.39999998
v 55.92250061 13.14999962 1.39999998
v 49.92250061 11.55000019 1.39999998
v 55.92250061 11.55000019 1.39999998
v 49.92250061 13.14999962 15.00000000
v 55.92250061 13.14999962 15.00000000
v 55.92250061 11.55000019 15.00000000
v 72.67250061 13.14999962 1.39999998
v 49.17250061 13.14999962 20.00000000
v 47.87250137 18.75000000 20.00000000
v 47.87250137 20.45000076 20.00000000
v 72.67250061 13.14999962 20.00000000
v 79.02249908 11.55000019 20.00000000
v 62.22249985 0.00000000 29.29999924
v 54.25999832 2.00000000 29.29999924
v 62.22249985 2.00000000 29.29999924
v 70.75000000 30.25000000 2.00000000
v 70.75000000 33.25000000 6.80000019
v 92.00000000 2.50000000 0.00000000
v 72.67250061 26.04999924 1.39999998
v 72.67250061 26.04999924 20.00000000
v 79.02249908 27.64999962 20.00000000
v 89.00000000 32.59999847 7.90000010
v 46.17250061 18.75000000 14.50000000
v 47.87250137 18.75000000 14.50000000
v 46.17250061 20.45000076 14.50000000
v 47.87250137 20.45000076 14.50000000
v 79.02249908 11.55000019 1.39999998
v 90.00000000 22.20000076 7.00000000
v 90.00000000 24.79999924 7.00000000
v 90.00000000 27.39999962 7.00000000
v 92.00000000 22.20000076 7.00000000
v 92.00000000 22.20000076 21.00000000
v 73.97250366 18.75000000 20.00000000
v 73.97250366 20.45000076 20.00000000
v 75.67250061 18.75000000 20.00000000
v 90.00000000 2.00000000 38.00000000
v 92.00000000 2.50000000 42.00000000
v 90.00000000 22.20000076 21.00000000
v 74.75000000 33.25000000 2.00000000
v 74.75000000 30.25000000 2.00000000
v 74.75000000 33.25000000 6.80000019
v 74.75000000 30.25000000 6.80000019
v 92.00000000 24.79999924 7.00000000
v 92.00000000 71.50000000 0.00000000
v 90.00000000 30.00000000 7.00000000
v 90.00000000 33.25000000 7.00000000
v 90.00000000 35.20000076 7.00000000
v 92.00000000 27.39999962 7.00000000
v 92.00000000 30.00000000 7.00000000
v 90.00000000 32.59999847 7.90000010
v 89.00000000 32.59999847 7.00000000
v 92.00000000 32.59999847 7.00000000
v 92.00000000 35.20000076 7.00000000
v 73.97250366 18.75000000 14.50000000
v 75.67250061 18.75000000 14.50000000
v 73.97250366 20.45000076 14.50000000
v 75.67250061 20.45000076 14.50000000
v 75.67250061 20.45000076 20.00000000
v 90.00000000 24.79999924 21.00000000
v 92.00000000 27.39999962 21.00000000
v 92.00000000 24.79999924 21.00000000
v 90.00000000 27.39999962 21.00000000
v 90.00000000 30.00000000 21.00000000
v 92.00000000 32.59999847 21.00000000
v 92.00000000 30.00000000 21.00000000
v 90.00000000 32.59999847 21.00000000
v 90.00000000 35.20000076 21.00000000
v 90.00000000 37.79999924 7.00000000
v 92.00000000 37.79999924 7.00000000
v 92.00000000 37.79999924 21.00000000
v 90.00000000 37.79999924 21.00000000
v 92.00000000 35.20000076 21.00000000
v 92.00000000 38.00000000 21.39999962
v 90.00000000 38.00000000 21.39999962
v 49.00000000 2.00000000 37.00000000
v 62.22249985 2.00000000 42.00000000
v 49.00000000 9.00000000 37.00000000
v 46.16315842 4.76069403 39.50000000
v 46.32352448 4.79259253 39.50000000
v 46.47835541 4.84515047 39.50000000
v 46.62500000 4.91746807 39.50000000
v 46.76095200 5.00830841 39.50000000
v 46.88388443 5.11611652 39.50000000
v 46.99169159 5.23904800 39.50000000
v 47.08253098 5.37500000 39.50000000
v 47.15485001 5.52164555 39.50000000
v 47.20740891 5.67647600 39.50000000
v 47.23930740 5.83684206 39.50000000
v 47.25000000 6.00000000 39.50000000
v 47.23930740 6.16315794 39.50000000
v 47.20740891 6.32352400 39.50000000
v 46.47835541 7.15484953 39.50000000
v 46.62500000 7.08253193 39.50000000
v 47.15485001 6.47835445 39.50000000
v 47.08253098 6.62500000 39.50000000
v 46.99169159 6.76095200 39.50000000
v 46.88388443 6.88388348 39.50000000
v 46.76095200 6.99169159 39.50000000
v 46.16315842 4.76069403 46.00000000
v 46.32352448 4.79259253 46.00000000
v 46.47835541 4.84515047 46.00000000
v 46.62500000 4.91746807 46.00000000
v 46.76095200 5.00830841 46.00000000
v 46.88388443 5.11611652 46.00000000
v 46.99169159 5.23904800 46.00000000
v 47.08253098 5.37500000 46.00000000
v 47.15485001 5.52164555 46.00000000
v 47.20740891 5.67647600 46.00000000
v 47.23930740 5.83684206 46.00000000
v 47.25000000 6.00000000 46.00000000
v 47.23930740 6.16315794 46.00000000
v 46.88388443 6.88388348 46.00000000
v 47.08253098 6.62500000 46.00000000
v 46.99169159 6.76095200 46.00000000
v 47.20740891 6.32352400 46.00000000
v 47.15485001 6.47835445 46.00000000
v 46.32352448 7.20740747 46.00000000
v 46.16315842 7.23930597 46.00000000
v 46.47835541 7.15484953 46.00000000
v 46.76095200 6.99169159 46.00000000
v 46.62500000 7.08253193 46.00000000
v 62.22249985 0.00000000 42.00000000
v 89.50000000 0.00000000 42.00000000
v 88.50000000 2.00000000 39.50000000
v 90.00000000 2.00000000 42.00000000
v 90.00000000 2.00000000 39.50000000
v 90.00000000 65.00000000 38.00000000
v 88.50000000 65.00000000 39.50000000
v 92.00000000 71.50000000 42.00000000
v 71.34999847 67.25000000 1.39999998
v 74.15000153 68.75000000 6.00000000
v 55.00000000 71.00000000 7.90000010
v 55.00000000 72.00000000 7.90000010
v 60.00000000 72.00000000 7.90000010
v 55.00000000 74.00000000 19.00000000
v 60.00000000 74.00000000 5.00000000
v 60.00000000 71.00000000 5.00000000
v 75.00000000 74.00000000 5.00000000
v 60.00000000 71.00000000 7.90000010
v 75.00000000 71.00000000 5.00000000
v 60.00000000 74.00000000 19.00000000
v 90.00000000 68.75000000 1.39999998
v 90.00000000 40.40000153 7.00000000
v 92.00000000 40.40000153 7.00000000
v 90.00000000 40.40000153 11.39999962
v 90.00000000 43.00000000 7.00000000
v 92.00000000 40.40000153 11.39999962
v 92.00000000 43.00000000 11.39999962
v 90.00000000 43.00000000 11.39999962
v 92.00000000 43.00000000 7.00000000
v 90.00000000 45.59999847 7.00000000
v 92.00000000 45.59999847 7.00000000
v 90.00000000 45.59999847 11.39999962
v 92.00000000 45.59999847 11.39999962
v 92.00000000 64.00000000 11.39999962
v 90.00000000 64.00000000 11.39999962
v 90.00000000 38.00000000 21.00000000
v 92.00000000 38.00000000 21.00000000
v 92.00000000 64.00000000 21.39999962
v 90.00000000 64.00000000 21.39999962
v 74.15000153 67.25000000 1.39999998
v 71.34999847 67.25000000 6.00000000
v 74.15000153 68.75000000 1.39999998
v 74.15000153 67.25000000 6.00000000
v 75.00000000 71.00000000 7.90000010
v 75.00000000 72.00000000 7.90000010
v 79.18403625 72.00000000 8.43597412
v 78.64885712 72.00000000 8.76393223
v 78.17156982 72.00000000 9.17157269
v 78.64885712 74.00000000 8.76393223
v 79.18403625 74.00000000 8.43597412
v 78.17156982 74.00000000 9.17157269
v 77.43597412 74.00000000 10.18403816
v 77.76393127 74.00000000 9.64885902
v 90.00000000 72.00000000 7.90000010
v 79.76393127 74.00000000 8.19577408
v 80.37425995 74.00000000 8.04924679
v 81.00000000 74.00000000 8.00000000
v 81.62574005 74.00000000 8.04924679
v 79.76393127 72.00000000 8.19577408
v 80.37425995 72.00000000 8.04924679
v 81.00000000 72.00000000 8.00000000
v 77.76393127 72.00000000 9.64885902
v 77.43597412 72.00000000 10.18403816
v 77.19577026 72.00000000 10.76393223
v 77.04924774 72.00000000 11.37426186
v 77.19577026 74.00000000 10.76393223
v 77.04924774 74.00000000 11.37426186
v 77.00000000 74.00000000 12.00000000
v 77.04924774 74.00000000 12.62573814
v 75.00000000 74.00000000 19.00000000
v 77.00000000 72.00000000 12.00000000
v 77.19577026 74.00000000 13.23606777
v 82.23606873 74.00000000 8.19577408
v 82.81596375 74.00000000 8.43597412
v 83.35114288 74.00000000 8.76393223
v 81.62574005 72.00000000 8.04924679
v 82.23606873 72.00000000 8.19577408
v 82.81596375 72.00000000 8.43597412
v 83.82843018 74.00000000 9.17157269
v 84.23606873 74.00000000 9.64885902
v 84.56402588 74.00000000 10.18403816
v 83.35114288 72.00000000 8.76393223
v 83.82843018 72.00000000 9.17157269
v 84.23606873 72.00000000 9.64885902
v 84.56402588 72.00000000 10.18403816
v 84.80422974 72.00000000 10.76393223
v 84.80422974 74.00000000 10.76393223
v 84.95075226 72.00000000 11.37426186
v 84.95075226 74.00000000 11.37426186
v 85.00000000 74.00000000 12.00000000
v 84.95075226 74.00000000 12.62573814
v 84.80422974 74.00000000 13.23606777
v 85.00000000 72.00000000 12.00000000
v 84.95075226 72.00000000 12.62573814
v 84.80422974 72.00000000 13.23606777
v 77.04924774 72.00000000 12.62573814
v 77.19577026 72.00000000 13.23606777
v 77.43597412 72.00000000 13.81596184
v 77.43597412 74.00000000 13.81596184
v 77.76393127 72.00000000 14.35114098
v 77.76393127 74.00000000 14.35114098
v 78.17156982 72.00000000 14.82842731
v 78.64885712 72.00000000 15.23606777
v 79.18403625 72.00000000 15.56402588
v 78.17156982 74.00000000 14.82842731
v 78.64885712 74.00000000 15.23606777
v 79.18403625 74.00000000 15.56402588
v 79.76393127 72.00000000 15.80422592
v 79.76393127 74.00000000 15.80422592
v 80.37425995 72.00000000 15.95075321
v 80.37425995 74.00000000 15.95075321
v 84.56402588 72.00000000 13.81596184
v 84.56402588 74.00000000 13.81596184
v 84.23606873 72.00000000 14.35114098
v 84.23606873 74.00000000 14.35114098
v 82.23606873 72.00000000 15.80422592
v 82.23606873 74.00000000 15.80422592
v 82.81596375 72.00000000 15.56402588
v 83.35114288 72.00000000 15.23606777
v 82.81596375 74.00000000 15.56402588
v 83.35114288 74.00000000 15.23606777
v 81.00000000 72.00000000 16.00000000
v 81.00000000 74.00000000 16.00000000
v 81.62574005 72.00000000 15.95075321
v 81.62574005 74.00000000 15.95075321
v 83.82843018 72.00000000 14.82842731
v 83.82843018 74.00000000 14.82842731
v 90.00000000 72.00000000 30.00000000
v 83.00000000 72.00000000 30.00000000
v 83.00000000 72.00000000 37.00000000
v 83.00000000 72.00000000 38.00000000
v 90.00000000 72.00000000 39.50000000
v 88.50000000 70.50000000 39.50000000
v 90.00000000 65.00000000 39.50000000
v 90.00000000 65.00000000 37.00000000
v 83.00000000 65.00000000 37.00000000
v 83.00000000 65.00000000 39.50000000
v 85.17647552 66.29259491 39.50000000
v 85.02164459 66.34515381 39.50000000
v 84.61611938 66.61611938 39.50000000
v 84.50830841 66.73905182 39.50000000
v 84.34515381 67.02164459 39.50000000
v 84.29259491 67.17647552 39.50000000
v 84.41746521 66.87500000 39.50000000
v 84.73905182 66.50830841 39.50000000
v 84.87500000 66.41746521 39.50000000
v 84.26069641 67.33684540 39.50000000
v 84.25000000 67.50000000 39.50000000
v 84.26069641 67.66315460 39.50000000
v 84.29259491 67.82352448 39.50000000
v 84.34515381 67.97835541 39.50000000
v 84.41746521 68.12500000 39.50000000
v 84.50830841 68.26094818 39.50000000
v 84.61611938 68.38388062 39.50000000
v 84.73905182 68.49169159 39.50000000
v 84.87500000 68.58253479 39.50000000
v 85.02164459 68.65484619 39.50000000
v 85.17647552 68.70740509 39.50000000
v 85.33684540 68.73930359 39.50000000
v 85.50000000 68.75000000 39.50000000
v 85.66315460 68.73930359 39.50000000
v 85.82352448 68.70740509 39.50000000
v 85.33684540 66.26069641 39.50000000
v 85.50000000 66.25000000 39.50000000
v 85.66315460 66.26069641 39.50000000
v 85.82352448 66.29259491 39.50000000
v 85.97835541 66.34515381 39.50000000
v 86.12500000 66.41746521 39.50000000
v 86.26094818 66.50830841 39.50000000
v 86.38388062 66.61611938 39.50000000
v 86.49169159 66.73905182 39.50000000
v 86.58253479 66.87500000 39.50000000
v 86.65484619 67.02164459 39.50000000
v 86.70740509 67.17647552 39.50000000
v 86.73930359 67.33684540 39.50000000
v 86.70740509 67.82352448 39.50000000
v 86.73930359 67.66315460 39.50000000
v 86.75000000 67.50000000 39.50000000
v 85.97835541 68.65484619 39.50000000
v 86.12500000 68.58253479 39.50000000
v 86.26094818 68.49169159 39.50000000
v 86.65484619 67.97835541 39.50000000
v 86.38388062 68.38388062 39.50000000
v 86.49169159 68.26094818 39.50000000
v 86.58253479 68.12500000 39.50000000
v 89.24369049 71.24369049 39.50000000
v 84.73905182 66.50830841 46.00000000
v 84.41746521 66.87500000 46.00000000
v 84.34515381 67.02164459 46.00000000
v 84.50830841 66.73905182 46.00000000
v 84.61611938 66.61611938 46.00000000
v 84.87500000 66.41746521 46.00000000
v 85.02164459 66.34515381 46.00000000
v 85.17647552 66.29259491 46.00000000
v 85.33684540 66.26069641 46.00000000
v 85.50000000 66.25000000 46.00000000
v 85.66315460 66.26069641 46.00000000
v 85.82352448 66.29259491 46.00000000
v 85.97835541 66.34515381 46.00000000
v 86.12500000 66.41746521 46.00000000
v 84.26069641 67.33684540 46.00000000
v 84.29259491 67.17647552 46.00000000
v 84.25000000 67.50000000 46.00000000
v 84.26069641 67.66315460 46.00000000
v 84.29259491 67.82352448 46.00000000
v 84.34515381 67.97835541 46.00000000
v 84.41746521 68.12500000 46.00000000
v 84.50830841 68.26094818 46.00000000
v 84.61611938 68.38388062 46.00000000
v 84.73905182 68.49169159 46.00000000
v 84.87500000 68.58253479 46.00000000
v 85.02164459 68.65484619 46.00000000
v 85.17647552 68.70740509 46.00000000
v 85.33684540 68.73930359 46.00000000
v 85.50000000 68.75000000 46.00000000
v 85.66315460 68.73930359 46.00000000
v 85.82352448 68.70740509 46.00000000
v 85.97835541 68.65484619 46.00000000
v 86.12500000 68.58253479 46.00000000
v 86.26094818 68.49169159 46.00000000
v 86.26094818 66.50830841 46.00000000
v 85.50000000 67.50000000 46.00000000
v 86.38388062 66.61611938 46.00000000
v 86.49169159 66.73905182 46.00000000
v 86.58253479 66.87500000 46.00000000
v 86.65484619 67.02164459 46.00000000
v 86.65484619 67.97835541 46.00000000
v 86.58253479 68.12500000 46.00000000
v 86.38388062 68.38388062 46.00000000
v 86.49169159 68.26094818 46.00000000
v 86.70740509 67.17647552 46.00000000
v 86.73930359 67.33684540 46.00000000
v 86.75000000 67.50000000 46.00000000
v 86.73930359 67.66315460 46.00000000
v 86.70740509 67.82352448 46.00000000
f 1 2 3
f 1 3 4
f 1 5 6
f 1 7 5
f 1 6 8
f 1 9 2
f 1 10 9
f 2 11 12
f 13 12 14
f 12 11 14
f 2 9 11
f 3 2 15
f 2 12 15
f 13 16 12
f 12 16 15
f 9 17 11
f 9 18 17
f 19 20 21
f 1 22 23
f 1 8 22
f 24 25 26
f 1 23 27
f 3 15 28
f 3 28 29
f 28 30 31
f 28 31 32
f 13 30 16
f 28 15 18
f 15 16 18
f 13 33 30
f 16 17 18
f 30 34 31
f 30 35 34
f 16 30 36
f 28 37 30
f 1 4 7
f 3 38 4
f 19 6 39
f 6 5 39
f 3 29 38
f 19 40 20
f 7 4 41
f 4 42 41
f 4 43 42
f 44 45 46
f 45 47 46
f 47 48 46
f 49 7 50
f 7 41 50
f 51 52 53
f 51 54 52
f 51 55 54
f 56 47 45
f 56 54 47
f 54 55 47
f 56 52 54
f 51 57 55
f 57 58 55
f 55 58 48
f 55 48 47
f 13 14 33
f 38 29 59
f 4 60 43
f 60 46 43
f 46 61 43
f 48 61 46
f 38 59 4
f 60 62 46
f 60 63 62
f 63 64 62
f 63 65 64
f 42 43 65
f 43 61 65
f 61 64 65
f 19 8 6
f 19 66 8
f 39 5 67
f 39 67 49
f 49 68 7
f 5 7 68
f 5 69 67
f 49 67 70
f 49 70 68
f 5 68 69
f 71 72 32
f 66 69 8
f 66 67 69
f 71 32 31
f 28 32 29
f 32 35 29
f 50 41 73
f 50 74 51
f 41 42 73
f 42 57 75
f 50 73 74
f 51 74 76
f 42 75 73
f 51 75 57
f 53 52 77
f 53 77 78
f 52 79 80
f 51 76 75
f 52 81 77
f 77 82 78
f 52 80 81
f 70 73 68
f 70 74 73
f 76 81 75
f 76 77 81
f 71 83 72
f 72 83 84
f 71 31 83
f 72 84 35
f 83 34 84
f 14 85 33
f 31 34 83
f 72 35 32
f 84 34 35
f 30 33 35
f 29 35 33
f 29 33 85
f 25 20 86
f 11 87 14
f 11 17 87
f 1 88 10
f 26 25 86
f 1 27 88
f 9 10 37
f 87 36 89
f 9 37 18
f 16 36 17
f 17 36 87
f 28 18 37
f 30 90 36
f 30 37 90
f 10 91 37
f 36 92 93
f 36 90 92
f 90 94 92
f 90 95 94
f 90 96 97
f 14 87 89
f 86 20 40
f 14 89 85
f 42 98 57
f 57 98 58
f 58 99 48
f 4 100 60
f 63 101 65
f 44 46 102
f 62 64 103
f 4 59 104
f 60 100 63
f 46 62 102
f 42 65 98
f 48 99 61
f 61 105 64
f 29 106 59
f 29 85 106
f 36 85 89
f 107 108 109
f 107 92 108
f 107 109 93
f 109 108 110
f 108 94 110
f 109 110 111
f 107 93 92
f 109 111 93
f 36 93 85
f 93 111 85
f 108 92 94
f 110 94 111
f 94 95 111
f 90 97 95
f 85 111 106
f 111 95 106
f 95 112 106
f 113 114 25
f 24 113 25
f 24 27 23
f 24 23 113
f 19 21 66
f 8 69 22
f 69 68 22
f 66 21 67
f 24 26 27
f 26 115 27
f 23 22 116
f 23 116 117
f 23 117 113
f 118 119 116
f 119 21 114
f 116 119 117
f 119 114 113
f 119 113 117
f 26 120 115
f 68 73 22
f 73 75 22
f 75 81 22
f 81 80 22
f 22 80 121
f 22 121 122
f 118 116 123
f 22 124 116
f 118 123 119
f 119 125 21
f 67 21 126
f 27 115 88
f 26 127 128
f 129 130 131
f 115 132 129
f 26 128 120
f 115 133 132
f 120 134 115
f 129 132 130
f 132 133 135
f 133 136 137
f 133 138 136
f 133 139 140
f 133 140 141
f 133 137 142
f 133 143 144
f 133 142 143
f 133 144 139
f 133 145 146
f 133 146 147
f 133 147 138
f 132 135 130
f 133 148 135
f 133 141 149
f 133 149 148
f 130 135 150
f 135 148 151
f 135 151 152
f 135 152 153
f 135 153 154
f 135 154 155
f 135 155 156
f 135 156 157
f 135 157 158
f 135 158 159
f 135 159 160
f 135 160 161
f 135 161 162
f 115 145 133
f 115 134 145
f 120 128 134
f 137 163 142
f 136 164 137
f 143 165 144
f 144 166 139
f 143 142 167
f 147 168 138
f 147 146 169
f 136 138 170
f 146 171 172
f 171 173 174
f 139 175 140
f 140 176 141
f 141 177 149
f 149 178 148
f 148 179 151
f 151 180 152
f 152 181 153
f 153 182 154
f 154 183 155
f 155 184 156
f 156 185 157
f 157 186 158
f 158 187 159
f 159 188 160
f 137 164 163
f 136 170 164
f 143 167 165
f 144 165 166
f 139 166 175
f 142 163 167
f 147 169 168
f 146 172 169
f 138 168 170
f 171 174 172
f 174 173 189
f 140 175 176
f 141 176 177
f 149 177 178
f 148 178 179
f 151 179 180
f 152 180 181
f 153 181 182
f 154 182 183
f 167 190 165
f 165 190 166
f 172 174 190
f 174 189 190
f 170 190 164
f 164 190 163
f 170 168 190
f 169 190 168
f 167 163 190
f 169 172 190
f 166 190 175
f 175 190 176
f 176 190 177
f 177 190 178
f 178 190 179
f 179 190 180
f 180 190 181
f 181 190 182
f 182 190 183
f 183 190 184
f 184 190 185
f 185 190 186
f 186 190 187
f 187 190 188
f 155 183 184
f 156 184 185
f 157 185 186
f 158 186 187
f 159 187 188
f 19 39 40
f 39 49 40
f 49 50 40
f 50 51 40
f 44 191 45
f 78 79 192
f 79 193 192
f 194 195 196
f 195 197 196
f 56 45 198
f 56 198 52
f 51 53 40
f 53 78 40
f 78 192 40
f 192 194 40
f 194 196 40
f 52 198 79
f 79 198 193
f 193 198 195
f 195 198 197
f 196 199 40
f 78 80 79
f 192 193 200
f 192 200 194
f 78 82 80
f 193 121 200
f 193 201 121
f 194 201 195
f 193 195 201
f 196 197 199
f 194 200 202
f 194 202 201
f 197 203 199
f 82 121 80
f 82 200 121
f 202 203 201
f 202 199 203
f 197 204 203
f 45 191 205
f 44 206 191
f 45 205 198
f 197 198 207
f 191 208 205
f 198 205 207
f 207 205 208
f 207 209 210
f 44 211 206
f 191 206 208
f 211 212 213
f 211 208 206
f 211 213 208
f 212 214 213
f 212 215 214
f 215 216 214
f 207 208 216
f 207 217 209
f 213 216 208
f 213 214 216
f 218 209 217
f 218 219 209
f 219 220 209
f 197 207 204
f 199 126 40
f 219 221 222
f 207 210 204
f 210 223 224
f 210 220 223
f 210 209 220
f 219 225 220
f 219 222 225
f 220 226 223
f 86 40 221
f 44 102 211
f 218 227 219
f 218 228 227
f 218 217 228
f 207 216 229
f 217 230 228
f 211 102 212
f 212 231 215
f 215 229 216
f 219 232 221
f 233 234 235
f 228 230 236
f 207 237 217
f 230 238 236
f 228 236 227
f 233 238 239
f 230 239 238
f 233 235 238
f 227 240 235
f 227 236 240
f 235 241 238
f 233 239 242
f 220 225 226
f 226 241 223
f 225 240 226
f 236 238 241
f 235 240 243
f 235 243 241
f 236 226 240
f 236 241 226
f 241 244 223
f 241 243 244
f 223 244 245
f 67 126 70
f 70 126 74
f 74 126 76
f 76 126 77
f 77 126 82
f 121 201 204
f 82 126 200
f 201 203 204
f 200 126 202
f 202 126 199
f 22 122 124
f 116 246 123
f 116 124 246
f 119 123 247
f 119 247 125
f 125 126 21
f 121 204 122
f 210 224 204
f 224 223 248
f 224 248 204
f 204 124 122
f 123 246 249
f 246 124 249
f 123 249 247
f 204 248 124
f 249 250 251
f 249 251 252
f 249 252 253
f 249 253 254
f 249 254 255
f 249 255 256
f 249 256 257
f 249 124 258
f 249 259 260
f 249 261 259
f 249 262 261
f 249 263 262
f 249 264 265
f 249 266 267
f 249 267 264
f 249 265 250
f 249 268 266
f 249 260 268
f 249 257 269
f 249 270 247
f 249 269 271
f 249 271 272
f 249 272 270
f 124 248 258
f 249 258 263
f 263 258 273
f 273 258 274
f 274 258 275
f 275 258 276
f 276 258 277
f 277 258 278
f 278 258 279
f 279 258 280
f 280 258 281
f 281 258 282
f 272 283 270
f 283 284 270
f 284 285 270
f 285 286 270
f 286 287 270
f 287 288 270
f 288 289 270
f 289 290 270
f 290 291 270
f 282 258 270
f 282 270 292
f 293 292 270
f 293 270 294
f 295 270 296
f 297 298 270
f 291 297 270
f 298 296 270
f 294 270 299
f 299 270 295
f 258 300 270
f 248 301 258
f 258 302 300
f 223 301 248
f 247 270 303
f 270 300 304
f 270 304 303
f 258 301 302
f 251 250 305
f 265 264 306
f 264 267 307
f 265 308 250
f 251 309 252
f 252 310 253
f 253 311 254
f 254 312 255
f 255 313 256
f 256 314 257
f 257 315 269
f 269 316 271
f 271 317 272
f 272 318 283
f 267 319 307
f 264 307 306
f 265 306 308
f 250 308 305
f 251 305 309
f 252 309 310
f 253 310 311
f 254 311 312
f 255 312 313
f 256 313 314
f 257 314 315
f 269 315 316
f 271 316 317
f 272 317 318
f 305 320 309
f 309 320 310
f 310 320 311
f 311 320 312
f 312 320 313
f 313 320 314
f 125 222 126
f 247 303 125
f 267 266 319
f 266 268 321
f 268 260 322
f 260 259 323
f 259 261 324
f 261 262 325
f 262 263 326
f 263 273 327
f 273 274 328
f 274 275 329
f 275 276 330
f 276 277 331
f 277 278 332
f 278 279 333
f 283 334 284
f 284 335 285
f 285 336 286
f 286 337 287
f 287 338 288
f 288 339 289
f 289 340 290
f 290 341 291
f 291 342 297
f 279 280 343
f 280 281 344
f 281 282 345
f 282 292 346
f 293 294 347
f 293 348 292
f 294 299 349
f 299 295 350
f 298 351 296
f 295 296 352
f 297 353 298
f 266 321 319
f 268 322 321
f 260 323 322
f 259 324 323
f 261 325 324
f 262 326 325
f 263 327 326
f 273 328 327
f 274 329 328
f 275 330 329
f 276 331 330
f 277 332 331
f 278 333 332
f 279 343 333
f 306 320 308
f 306 307 320
f 307 319 320
f 319 321 320
f 321 322 320
f 322 323 320
f 323 324 320
f 324 325 320
f 325 326 320
f 326 327 320
f 327 328 320
f 328 329 320
f 329 330 320
f 330 331 320
f 331 332 320
f 332 333 320
f 283 318 334
f 284 334 335
f 285 335 336
f 286 336 337
f 287 337 338
f 288 338 339
f 289 339 340
f 290 340 341
f 291 341 342
f 297 342 353
f 280 344 343
f 281 345 344
f 282 346 345
f 292 348 346
f 295 352 350
f 293 347 348
f 294 349 347
f 299 350 349
f 298 353 351
f 296 351 352
f 305 308 320
f 314 320 315
f 315 320 316
f 316 320 317
f 317 320 318
f 318 320 334
f 320 353 342
f 320 352 351
f 320 351 353
f 320 335 334
f 320 336 335
f 320 337 336
f 320 338 337
f 320 339 338
f 320 340 339
f 320 341 340
f 320 342 341
f 333 343 320
f 343 344 320
f 320 344 345
f 320 345 346
f 320 346 348
f 320 348 347
f 320 347 349
f 320 349 350
f 320 350 352
f 223 354 301
f 301 354 302
f 225 222 355
f 300 302 356
f 300 357 304
f 304 358 303
f 303 358 125
f 125 359 222
f 360 361 362
f 361 363 362
f 364 363 361
f 364 365 363
f 10 364 91
f 364 361 91
f 360 366 361
f 361 366 91
f 365 367 363
f 365 368 367
f 10 88 364
f 364 88 365
f 363 369 362
f 363 367 369
f 26 86 127
f 360 370 366
f 37 91 368
f 360 112 370
f 91 366 368
f 366 367 368
f 90 370 96
f 370 371 96
f 370 372 371
f 366 370 373
f 37 374 90
f 90 374 370
f 129 131 88
f 127 86 375
f 88 376 377
f 88 131 376
f 366 373 367
f 365 374 368
f 367 373 369
f 37 368 374
f 370 374 373
f 360 362 112
f 4 104 100
f 63 378 101
f 64 379 103
f 380 86 221
f 362 369 381
f 362 381 382
f 59 383 104
f 63 100 378
f 62 103 102
f 65 101 98
f 58 98 384
f 64 105 379
f 58 384 99
f 61 99 105
f 385 386 387
f 387 386 388
f 385 96 386
f 385 387 97
f 387 388 372
f 386 371 388
f 59 106 383
f 362 382 112
f 385 97 96
f 386 96 371
f 387 372 97
f 388 371 372
f 370 112 372
f 97 372 112
f 95 97 112
f 106 112 382
f 106 382 383
f 365 88 389
f 365 389 374
f 369 373 381
f 389 104 374
f 389 88 104
f 88 390 391
f 88 391 392
f 393 394 380
f 373 395 396
f 373 374 395
f 374 397 395
f 88 398 390
f 88 377 398
f 394 399 380
f 390 398 400
f 378 401 103
f 378 402 401
f 378 103 101
f 103 379 101
f 378 100 402
f 402 403 401
f 402 404 403
f 402 98 404
f 103 401 102
f 401 403 102
f 101 379 404
f 379 403 404
f 101 404 98
f 379 105 403
f 88 100 104
f 88 392 100
f 390 393 391
f 393 405 391
f 402 100 98
f 403 105 102
f 393 380 406
f 392 407 100
f 100 407 98
f 102 105 408
f 102 408 409
f 392 410 407
f 410 411 407
f 98 412 384
f 413 99 384
f 413 105 99
f 413 408 105
f 413 414 408
f 408 414 409
f 414 415 409
f 413 384 412
f 413 412 414
f 373 382 381
f 416 417 418
f 416 395 417
f 416 418 396
f 374 104 383
f 418 417 419
f 417 397 419
f 418 419 420
f 416 396 395
f 418 420 396
f 373 396 382
f 396 420 382
f 417 395 397
f 419 397 420
f 397 383 420
f 374 383 397
f 382 420 383
f 390 394 393
f 390 400 394
f 391 405 421
f 391 421 392
f 405 410 422
f 392 422 410
f 405 423 421
f 392 421 424
f 405 422 423
f 392 424 422
f 400 423 394
f 400 421 423
f 407 411 425
f 407 425 98
f 98 425 412
f 411 414 426
f 411 427 425
f 412 425 428
f 411 426 427
f 414 412 426
f 409 429 430
f 409 415 429
f 415 431 432
f 412 428 426
f 429 433 430
f 415 434 429
f 415 432 434
f 424 427 422
f 424 425 427
f 423 422 435
f 422 427 435
f 425 436 428
f 428 434 426
f 428 429 434
f 427 426 435
f 428 436 429
f 426 434 435
f 115 129 88
f 131 437 376
f 127 377 376
f 127 376 128
f 127 375 377
f 375 438 377
f 131 439 437
f 146 145 171
f 171 145 173
f 145 440 173
f 145 441 440
f 145 442 441
f 145 443 442
f 145 444 443
f 145 445 444
f 145 446 445
f 145 447 446
f 145 448 447
f 145 449 448
f 145 450 449
f 145 451 450
f 437 145 134
f 437 439 145
f 130 439 131
f 145 452 451
f 145 453 452
f 145 150 453
f 130 150 439
f 162 454 150
f 454 455 150
f 135 162 150
f 453 150 456
f 456 150 457
f 458 457 150
f 459 150 460
f 455 460 150
f 459 458 150
f 145 439 150
f 376 437 134
f 376 134 128
f 173 440 189
f 440 441 461
f 441 442 462
f 442 443 463
f 443 444 464
f 444 445 465
f 445 446 466
f 446 447 467
f 447 448 468
f 448 449 469
f 449 450 470
f 450 451 471
f 451 452 472
f 452 453 473
f 459 460 474
f 458 475 457
f 459 476 458
f 453 456 477
f 456 457 478
f 162 161 479
f 160 480 161
f 162 481 454
f 455 482 460
f 454 483 455
f 440 461 189
f 441 462 461
f 442 463 462
f 443 464 463
f 444 465 464
f 445 466 465
f 446 467 466
f 447 468 467
f 448 469 468
f 449 470 469
f 450 471 470
f 451 472 471
f 452 473 472
f 453 477 473
f 458 476 475
f 459 474 476
f 456 478 477
f 457 475 478
f 189 461 190
f 461 462 190
f 462 463 190
f 463 464 190
f 464 465 190
f 465 466 190
f 466 467 190
f 467 468 190
f 468 469 190
f 469 470 190
f 190 480 188
f 190 479 480
f 190 481 479
f 190 475 476
f 190 476 474
f 190 474 482
f 190 483 481
f 190 482 483
f 470 471 190
f 190 471 472
f 190 472 473
f 190 473 477
f 190 477 478
f 190 478 475
f 160 188 480
f 161 480 479
f 162 479 481
f 454 481 483
f 455 483 482
f 460 482 474
f 375 484 438
f 375 86 485
f 400 398 421
f 421 398 424
f 394 423 399
f 377 438 398
f 375 485 484
f 438 486 398
f 484 487 438
f 438 487 486
f 484 485 487
f 486 487 488
f 487 485 399
f 424 398 425
f 423 435 399
f 425 398 436
f 398 489 436
f 486 488 490
f 486 489 398
f 488 487 359
f 487 399 491
f 380 221 406
f 219 227 232
f 233 242 234
f 212 492 231
f 215 231 229
f 227 235 232
f 207 229 493
f 217 237 230
f 239 494 242
f 207 493 237
f 242 494 495
f 230 237 239
f 494 496 495
f 242 495 234
f 234 497 498
f 234 495 497
f 212 102 492
f 221 232 406
f 235 234 232
f 499 500 498
f 234 498 232
f 499 496 501
f 494 501 496
f 499 498 496
f 239 237 494
f 498 245 496
f 499 501 502
f 494 237 501
f 495 244 497
f 495 245 244
f 243 497 244
f 223 245 354
f 495 496 245
f 498 497 503
f 498 503 245
f 245 503 354
f 393 406 405
f 405 406 410
f 410 406 411
f 102 409 504
f 411 406 414
f 430 431 505
f 431 506 505
f 505 507 508
f 505 506 507
f 506 509 507
f 506 510 509
f 507 509 511
f 508 512 513
f 506 512 510
f 508 510 512
f 512 514 513
f 513 514 515
f 507 511 508
f 508 511 510
f 509 510 511
f 514 516 515
f 409 430 504
f 414 406 415
f 415 406 431
f 430 505 504
f 505 508 504
f 431 406 506
f 508 513 504
f 506 406 512
f 512 406 514
f 513 515 504
f 514 517 516
f 515 516 518
f 430 432 431
f 430 433 432
f 429 436 433
f 433 436 519
f 433 519 520
f 519 436 435
f 434 432 435
f 433 520 432
f 519 435 520
f 432 520 435
f 436 521 435
f 436 522 521
f 102 523 492
f 492 229 231
f 492 524 229
f 492 523 524
f 523 525 526
f 523 526 524
f 525 493 526
f 499 502 500
f 523 504 525
f 525 504 493
f 498 500 232
f 524 526 493
f 524 493 229
f 501 527 502
f 502 527 528
f 501 237 527
f 502 528 500
f 528 529 530
f 528 530 531
f 500 532 533
f 500 534 532
f 500 535 536
f 500 536 534
f 527 537 528
f 500 538 539
f 500 539 540
f 500 540 541
f 528 542 529
f 528 543 542
f 528 544 543
f 529 533 530
f 500 533 538
f 542 538 529
f 542 543 539
f 529 538 533
f 542 539 538
f 528 545 546
f 528 531 545
f 528 546 547
f 528 547 548
f 500 549 535
f 500 550 549
f 500 551 550
f 500 552 551
f 546 536 535
f 500 528 553
f 528 548 554
f 546 535 547
f 547 549 548
f 500 555 552
f 547 535 549
f 548 549 550
f 531 534 545
f 531 530 532
f 546 545 536
f 531 532 534
f 533 532 530
f 545 534 536
f 102 504 523
f 515 518 237
f 516 517 518
f 515 237 504
f 514 406 517
f 493 504 237
f 500 541 232
f 541 556 232
f 556 557 232
f 557 558 232
f 543 544 540
f 544 559 541
f 543 540 539
f 544 541 540
f 559 556 541
f 528 537 544
f 559 560 556
f 560 561 557
f 560 557 556
f 561 558 557
f 527 237 537
f 558 562 232
f 562 563 232
f 563 564 232
f 544 537 559
f 559 537 560
f 560 537 561
f 561 537 565
f 565 537 566
f 561 565 558
f 565 566 562
f 566 567 563
f 567 568 564
f 565 562 558
f 566 563 562
f 567 564 563
f 566 537 567
f 568 569 570
f 568 570 564
f 569 571 572
f 569 572 570
f 564 570 232
f 570 572 232
f 572 573 232
f 573 574 232
f 574 575 232
f 567 537 568
f 568 537 569
f 569 537 571
f 571 537 576
f 537 577 576
f 537 578 577
f 500 553 555
f 548 550 554
f 554 551 579
f 579 552 580
f 550 551 554
f 579 551 552
f 528 554 354
f 580 555 581
f 581 582 583
f 552 555 580
f 581 555 582
f 582 584 583
f 528 354 553
f 554 579 354
f 579 580 354
f 580 581 354
f 581 583 354
f 555 553 582
f 582 553 584
f 583 585 354
f 585 586 354
f 586 587 354
f 584 553 588
f 588 553 589
f 583 584 585
f 585 588 586
f 586 589 587
f 584 588 585
f 586 588 589
f 589 590 587
f 587 590 591
f 591 590 592
f 591 592 593
f 592 594 593
f 503 553 354
f 518 517 522
f 517 521 522
f 571 576 573
f 576 577 574
f 571 573 572
f 576 574 573
f 577 575 574
f 578 595 596
f 595 597 598
f 578 596 575
f 595 598 596
f 577 578 575
f 599 600 601
f 602 601 603
f 601 600 603
f 602 603 604
f 593 594 605
f 605 606 607
f 599 607 608
f 594 606 605
f 607 606 608
f 599 608 600
f 597 609 610
f 602 604 609
f 604 610 609
f 597 610 598
f 518 522 237
f 537 595 578
f 537 611 595
f 237 611 537
f 595 612 597
f 597 612 609
f 602 609 612
f 602 612 601
f 587 591 613
f 591 593 613
f 593 605 613
f 605 607 613
f 599 613 607
f 599 601 613
f 517 406 491
f 237 522 611
f 575 355 232
f 225 355 240
f 240 355 243
f 302 354 613
f 243 355 497
f 497 355 503
f 302 614 356
f 300 356 357
f 304 357 358
f 302 613 614
f 125 358 615
f 125 615 359
f 359 355 222
f 435 491 399
f 486 490 489
f 488 616 490
f 488 617 616
f 488 359 617
f 487 491 359
f 587 613 354
f 503 355 553
f 436 611 522
f 435 521 491
f 436 618 611
f 436 489 618
f 589 355 590
f 589 553 355
f 590 355 592
f 592 355 594
f 596 598 355
f 604 603 355
f 598 610 355
f 604 355 610
f 594 355 606
f 606 355 608
f 600 608 355
f 595 611 612
f 600 355 603
f 601 612 613
f 517 491 521
f 575 596 355
f 612 611 618
f 612 618 619
f 619 620 356
f 619 356 613
f 619 618 620
f 620 621 622
f 620 623 624
f 620 625 626
f 620 624 627
f 620 627 625
f 620 628 623
f 620 629 628
f 620 622 629
f 620 490 621
f 620 626 356
f 630 356 626
f 630 631 356
f 631 632 356
f 632 633 356
f 633 634 356
f 634 635 356
f 635 636 356
f 636 637 356
f 637 638 356
f 638 639 356
f 639 640 356
f 640 641 356
f 641 642 356
f 642 643 356
f 643 644 356
f 644 645 356
f 612 619 613
f 613 356 614
f 356 616 357
f 645 616 356
f 357 616 358
f 620 618 489
f 621 490 646
f 646 490 647
f 647 490 648
f 648 490 649
f 649 490 650
f 620 489 490
f 650 490 651
f 651 490 652
f 652 490 653
f 653 490 654
f 654 490 655
f 655 490 656
f 656 490 657
f 490 658 657
f 490 659 660
f 490 661 658
f 490 660 661
f 645 662 616
f 663 664 616
f 662 663 616
f 659 616 665
f 666 667 616
f 668 665 616
f 668 616 667
f 664 666 616
f 490 616 659
f 617 669 616
f 358 616 669
f 358 669 615
f 617 615 669
f 628 629 670
f 627 624 671
f 627 672 625
f 623 673 624
f 623 628 674
f 629 622 675
f 622 621 676
f 621 646 677
f 646 647 678
f 647 648 679
f 648 649 680
f 649 650 681
f 650 651 682
f 651 652 683
f 630 626 684
f 625 685 626
f 630 686 631
f 631 687 632
f 632 688 633
f 633 689 634
f 634 690 635
f 635 691 636
f 636 692 637
f 637 693 638
f 638 694 639
f 639 695 640
f 640 696 641
f 641 697 642
f 642 698 643
f 643 699 644
f 644 700 645
f 645 701 662
f 662 702 663
f 663 703 664
f 627 671 672
f 623 674 673
f 628 670 674
f 624 673 671
f 629 675 670
f 622 676 675
f 621 677 676
f 646 678 677
f 647 679 678
f 648 680 679
f 649 681 680
f 650 682 681
f 651 683 682
f 652 704 683
f 671 673 705
f 675 676 705
f 674 670 705
f 674 705 673
f 670 675 705
f 676 677 705
f 677 678 705
f 678 679 705
f 679 680 705
f 680 681 705
f 681 682 705
f 682 683 705
f 683 704 705
f 705 704 706
f 705 706 707
f 705 707 708
f 625 672 685
f 626 685 684
f 630 684 686
f 631 686 687
f 632 687 688
f 633 688 689
f 634 689 690
f 635 690 691
f 636 691 692
f 637 692 693
f 638 693 694
f 639 694 695
f 640 695 696
f 641 696 697
f 642 697 698
f 643 698 699
f 644 699 700
f 645 700 701
f 662 701 702
f 663 702 703
f 671 705 672
f 672 705 685
f 684 685 705
f 684 705 686
f 686 705 687
f 687 705 688
f 688 705 689
f 689 705 690
f 690 705 691
f 691 705 692
f 692 705 693
f 693 705 694
f 705 708 709
f 705 710 711
f 705 703 702
f 705 712 703
f 705 713 712
f 705 711 713
f 705 695 694
f 705 696 695
f 705 697 696
f 705 698 697
f 705 699 698
f 705 700 699
f 705 701 700
f 705 702 701
f 652 653 704
f 653 654 706
f 654 655 707
f 655 656 708
f 656 657 709
f 657 658 714
f 658 661 715
f 661 660 716
f 668 667 711
f 660 659 717
f 659 665 718
f 668 710 665
f 664 712 666
f 666 713 667
f 653 706 704
f 654 707 706
f 655 708 707
f 656 709 708
f 657 714 709
f 658 715 714
f 661 716 715
f 660 717 716
f 668 711 710
f 667 713 711
f 659 718 717
f 665 710 718
f 666 712 713
f 664 703 712
f 705 709 714
f 705 714 715
f 705 715 716
f 705 716 717
f 705 717 718
f 705 718 710
f 617 359 615
f 359 491 355
f 25 114 20
f 114 21 20
f 40 126 221
f 221 126 222
f 380 399 86
f 86 399 485
f 232 355 406
f 355 491 406

