# https://github.com/mikedh/trimesh
v -5.56847668 -4.51684093 0.00000000
v -5.38300133 -4.49065542 0.00000000
v -5.47504997 -4.50484991 0.00000000
v -6.05511808 -3.98723555 0.00000000
v -6.01652479 -3.90015531 0.00000000
v -5.97625017 -3.81500673 0.00000000
v -5.89069986 -3.65074897 0.00000000
v -5.93430567 -3.73184967 0.00000000
v -5.66322041 -4.52663565 0.00000000
v -5.02996206 -4.41150141 0.00000000
v -5.69966650 -3.34849358 0.00000000
v -5.84543657 -3.57177663 0.00000000
v -5.79851580 -3.49501276 0.00000000
v -5.20330048 -4.45560074 0.00000000
v -5.29239511 -4.47424459 0.00000000
v -5.11579466 -4.43469763 0.00000000
v -4.86372280 -4.35801888 0.00000000
v -4.94590044 -4.38596344 0.00000000
v -4.42350149 -4.12871647 0.00000000
v -4.70560551 -4.29450798 0.00000000
v -4.78356695 -4.32757711 0.00000000
v -4.55730152 -4.21960115 0.00000000
v -4.63007021 -4.25861931 0.00000000
v -4.48788929 -4.17687798 0.00000000
v -3.89711428 -2.25000000 -3.70000005
v -3.57009006 -2.73942637 -3.70000005
v -3.89711428 -2.25000000 0.00000000
v -4.15745783 -1.72207546 0.00000000
v -4.15745783 -1.72207546 -3.70000005
v -4.34666634 -1.16468573 -3.70000005
v -2.37898970 -0.98540986 -3.70000005
v -4.46150208 -0.58736789 -3.70000005
v -2.48725891 -0.66645902 -3.70000005
v -4.50000000 0.00000000 -3.70000005
v -2.55297041 -0.33610496 -3.70000005
v -4.34666634 -1.16468573 0.00000000
v -4.46150208 -0.58736789 0.00000000
v -4.50000000 0.00000000 0.00000000
v -5.74993086 -3.42054939 0.00000000
v -5.64769554 -3.27897358 0.00000000
v -5.59397364 -3.21214771 0.00000000
v -5.48095798 -3.08747268 0.00000000
v -5.53843212 -3.14822054 0.00000000
v -6.99448061 -0.46896759 0.00000000
v -6.82849503 -0.54623336 0.00000000
v -6.91153240 -0.50894839 0.00000000
v -6.66234016 -0.61244196 0.00000000
v -7.07729292 -0.42634642 0.00000000
v -7.15992451 -0.38113260 0.00000000
v -7.24233150 -0.33336776 0.00000000
v -7.24233150 0.33336776 0.00000000
v -6.74541473 -0.58075732 0.00000000
v -6.49641371 -0.66688681 0.00000000
v -6.57932234 -0.64119166 0.00000000
v -6.33116341 -0.70844460 0.00000000
v -6.41367292 -0.68937331 0.00000000
v -6.00548649 -0.74013311 0.00000000
v -6.16715384 -0.73501432 0.00000000
v -6.24895906 -0.72380847 0.00000000
v -6.08588600 -0.74125046 0.00000000
v -3.57009006 -2.73942637 0.00000000
v -4.10080528 -2.27069402 0.00000000
v -5.42136288 -3.03032303 0.00000000
v -5.35928106 -2.97750974 0.00000000
v -5.29358006 -2.93115616 0.00000000
v -3.42677689 -3.19841456 0.00000000
v -4.65230179 0.57336277 0.00000000
v -4.65230179 -0.57336277 0.00000000
v -2.73942637 -3.57009006 -3.70000005
v -2.25000000 -3.89711428 -3.70000005
v -2.73942637 -3.57009006 0.00000000
v -1.72207546 -4.15745783 -3.70000005
v -2.25000000 -3.89711428 0.00000000
v -0.66645902 -2.48725891 -3.70000005
v -1.16468573 -4.34666634 -3.70000005
v -0.33610496 -2.55297041 -3.70000005
v -0.58736789 -4.46150208 -3.70000005
v -0.00000000 -2.57500005 -3.70000005
v -0.00000000 -4.50000000 -3.70000005
v -1.16468573 -4.34666634 0.00000000
v -1.72207546 -4.15745783 0.00000000
v -0.58736789 -4.46150208 0.00000000
v -2.55505514 -6.78485012 0.00000000
v -2.57501698 -6.69171667 0.00000000
v -2.59248328 -6.59915733 0.00000000
v -2.61981964 -6.41598415 0.00000000
v -2.60742807 -6.50722742 0.00000000
v -2.64293194 -6.05916786 0.00000000
v -2.62961984 -6.32548904 0.00000000
v -2.63678074 -6.23580647 0.00000000
v -2.64124322 -6.14700699 0.00000000
v -1.85005975 -6.92726946 0.00000000
v -1.92095196 -6.99088287 0.00000000
v -1.71539867 -6.79706526 0.00000000
v -1.47630942 -6.52551699 0.00000000
v -2.64174938 -5.97237730 0.00000000
v -2.63756680 -5.88673735 0.00000000
v -2.61941719 -5.71944427 0.00000000
v -2.63020778 -5.80237246 0.00000000
v -1.98294067 -4.24742317 0.00000000
v -2.60479546 -5.63817978 0.00000000
v -2.58561325 -5.55896235 0.00000000
v -1.15188897 -5.94027090 0.00000000
v -2.55970573 -5.48284340 0.00000000
v -1.78152418 -6.86265373 0.00000000
v -1.59062219 -6.66308022 0.00000000
v -1.65174234 -6.73053169 0.00000000
v -1.53211474 -6.59473467 0.00000000
v -1.37325525 -6.38453627 0.00000000
v -1.42331290 -6.45544624 0.00000000
v -1.28266621 -6.24021530 0.00000000
v -1.32630098 -6.31279373 0.00000000
v -1.20671523 -6.09244394 0.00000000
v -1.24265182 -6.16678238 0.00000000
v -1.17567110 -6.01708031 0.00000000
v -0.00000000 -4.50000000 0.00000000
v -0.89233989 -4.60178089 0.00000000
v -2.04288483 -1.56756067 -3.70000005
v -2.23001552 -1.28750002 -3.70000005
v -3.18198061 -3.18198061 -3.70000005
v -1.82079995 -1.82079995 -3.70000005
v -1.56756067 -2.04288483 -3.70000005
v -1.28750002 -2.23001552 -3.70000005
v -3.18198061 -3.18198061 0.00000000
v -2.57500005 0.00000000 -3.70000005
v -2.37898970 -0.98540986 0.69999999
v -2.23001552 -1.28750002 0.69999999
v -2.04288483 -1.56756067 0.69999999
v -2.55297041 -0.33610496 0.69999999
v -2.48725891 -0.66645902 0.69999999
v -2.57500005 0.00000000 0.69999999
v -0.98540986 -2.37898970 -3.70000005
v -1.82079995 -1.82079995 0.69999999
v -1.56756067 -2.04288483 0.69999999
v -1.28750002 -2.23001552 0.69999999
v -0.98540986 -2.37898970 0.69999999
v -0.66645902 -2.48725891 0.69999999
v -0.33610496 -2.55297041 0.69999999
v -1.21243560 -0.69999999 0.69999999
v -1.29343140 -0.53575683 0.69999999
v -1.35229611 -0.36234665 0.69999999
v -1.38802278 -0.18273667 0.69999999
v -0.00000000 -2.57500005 0.69999999
v -0.69999999 -1.21243560 0.69999999
v -0.53575683 -1.29343140 0.69999999
v -0.36234665 -1.35229611 0.69999999
v -0.18273667 -1.38802278 0.69999999
v -0.00000000 -1.39999998 0.69999999
v -0.98994946 -0.98994946 0.69999999
v -0.85226601 -1.11069465 0.69999999
v -1.11069465 -0.85226601 0.69999999
v -1.39999998 0.00000000 0.69999999
v -5.66322041 -4.52663565 6.00000000
v -5.56847668 -4.51684093 6.00000000
v -5.47504997 -4.50484991 6.00000000
v -6.05511808 -3.98723555 6.00000000
v -6.01652479 -3.90015531 6.00000000
v -5.97625017 -3.81500673 6.00000000
v -5.93430567 -3.73184967 6.00000000
v -5.89069986 -3.65074897 6.00000000
v -5.84543657 -3.57177663 6.00000000
v -5.79851580 -3.49501276 6.00000000
v -5.38300133 -4.49065542 6.00000000
v -5.29239511 -4.47424459 6.00000000
v -5.20330048 -4.45560074 6.00000000
v -5.11579466 -4.43469763 6.00000000
v -5.02996206 -4.41150141 6.00000000
v -4.94590044 -4.38596344 6.00000000
v -4.86372280 -4.35801888 6.00000000
v -4.78356695 -4.32757711 6.00000000
v -4.70560551 -4.29450798 6.00000000
v -4.63007021 -4.25861931 6.00000000
v -4.55730152 -4.21960115 6.00000000
v -4.48788929 -4.17687798 6.00000000
v -4.42350149 -4.12871647 6.00000000
v -5.69966650 -3.34849358 6.00000000
v -3.42677689 -3.19841456 6.00000000
v -5.74993086 -3.42054939 6.00000000
v -5.64769554 -3.27897358 6.00000000
v -5.59397364 -3.21214771 6.00000000
v -5.53843212 -3.14822054 6.00000000
v -5.48095798 -3.08747268 6.00000000
v -5.42136288 -3.03032303 6.00000000
v -7.07729292 -0.42634642 6.00000000
v -6.99448061 -0.46896759 6.00000000
v -6.82849503 -0.54623336 6.00000000
v -6.91153240 -0.50894839 6.00000000
v -7.24233150 -0.33336776 6.00000000
v -7.15992451 -0.38113260 6.00000000
v -6.74541473 -0.58075732 6.00000000
v -6.66234016 -0.61244196 6.00000000
v -6.49641371 -0.66688681 6.00000000
v -6.41367292 -0.68937331 6.00000000
v -6.57932234 -0.64119166 6.00000000
v -6.33116341 -0.70844460 6.00000000
v -6.24895906 -0.72380847 6.00000000
v -6.16715384 -0.73501432 6.00000000
v -6.08588600 -0.74125046 6.00000000
v -6.00548649 -0.74013311 6.00000000
v -5.35928106 -2.97750974 6.00000000
v -5.29358006 -2.93115616 6.00000000
v -4.10080528 -2.27069402 6.00000000
v -4.65230179 -0.57336277 6.00000000
v -7.24233150 0.33336776 6.00000000
v -4.65230179 0.57336277 6.00000000
v -2.57501698 -6.69171667 6.00000000
v -2.59248328 -6.59915733 6.00000000
v -2.55505514 -6.78485012 6.00000000
v -2.61981964 -6.41598415 6.00000000
v -2.62961984 -6.32548904 6.00000000
v -2.60742807 -6.50722742 6.00000000
v -2.63678074 -6.23580647 6.00000000
v -2.64124322 -6.14700699 6.00000000
v -1.92095196 -6.99088287 6.00000000
v -1.85005975 -6.92726946 6.00000000
v -2.64293194 -6.05916786 6.00000000
v -2.64174938 -5.97237730 6.00000000
v -2.63756680 -5.88673735 6.00000000
v -2.63020778 -5.80237246 6.00000000
v -2.61941719 -5.71944427 6.00000000
v -2.60479546 -5.63817978 6.00000000
v -2.58561325 -5.55896235 6.00000000
v -2.55970573 -5.48284340 6.00000000
v -1.98294067 -4.24742317 6.00000000
v -1.78152418 -6.86265373 6.00000000
v -1.71539867 -6.79706526 6.00000000
v -1.65174234 -6.73053169 6.00000000
v -1.59062219 -6.66308022 6.00000000
v -1.53211474 -6.59473467 6.00000000
v -1.47630942 -6.52551699 6.00000000
v -1.42331290 -6.45544624 6.00000000
v -1.37325525 -6.38453627 6.00000000
v -1.32630098 -6.31279373 6.00000000
v -1.28266621 -6.24021530 6.00000000
v -1.24265182 -6.16678238 6.00000000
v -1.20671523 -6.09244394 6.00000000
v -1.17567110 -6.01708031 6.00000000
v -1.15188897 -5.94027090 6.00000000
v 0.89233989 -4.60178089 0.00000000
v -0.89233989 -4.60178089 6.00000000
v -0.98994946 -0.98994946 4.19999981
v -1.35229611 -0.36234665 4.19999981
v -1.38802278 -0.18273667 4.19999981
v -1.11069465 -0.85226601 4.19999981
v -1.29343140 -0.53575683 4.19999981
v -1.21243560 -0.69999999 4.19999981
v -0.69999999 -1.21243560 4.19999981
v -0.85226601 -1.11069465 4.19999981
v -0.53575683 -1.29343140 4.19999981
v -0.36234665 -1.35229611 4.19999981
v -0.18273667 -1.38802278 4.19999981
v -0.00000000 -1.39999998 4.19999981
v -1.39999998 0.00000000 4.19999981
v -2.25166607 -1.29999995 6.00000000
v -2.40208673 -0.99497694 6.00000000
v -2.51140714 -0.67292953 6.00000000
v -2.57775664 -0.33936810 6.00000000
v -2.59999990 0.00000000 6.00000000
v -2.57775664 0.33936810 6.00000000
v -1.83847761 -1.83847761 6.00000000
v -2.06271863 -1.58277977 6.00000000
v -1.58277977 -2.06271863 6.00000000
v -0.99497694 -2.40208673 6.00000000
v -1.29999995 -2.25166607 6.00000000
v -0.67292953 -2.51140714 6.00000000
v -0.33936810 -2.57775664 6.00000000
v -0.00000000 -2.59999990 6.00000000
v 0.33936810 -2.57775664 6.00000000
v -4.46150208 0.58736789 -3.70000005
v -4.34666634 1.16468573 -3.70000005
v -2.55297041 0.33610496 -3.70000005
v -4.15745783 1.72207546 -3.70000005
v -2.48725891 0.66645902 -3.70000005
v -4.46150208 0.58736789 0.00000000
v -4.34666634 1.16468573 0.00000000
v -4.15745783 1.72207546 0.00000000
v -3.89711428 2.25000000 0.00000000
v -3.89711428 2.25000000 -3.70000005
v -3.57009006 2.73942637 0.00000000
v -3.57009006 2.73942637 -3.70000005
v -7.15992451 0.38113260 0.00000000
v -7.07729292 0.42634642 0.00000000
v -6.91153240 0.50894839 0.00000000
v -6.99448061 0.46896759 0.00000000
v -6.57932234 0.64119166 0.00000000
v -6.82849503 0.54623336 0.00000000
v -6.74541473 0.58075732 0.00000000
v -6.66234016 0.61244196 0.00000000
v -6.49641371 0.66688681 0.00000000
v -6.41367292 0.68937331 0.00000000
v -6.24895906 0.72380847 0.00000000
v -6.33116341 0.70844460 0.00000000
v -6.16715384 0.73501432 0.00000000
v -6.08588600 0.74125046 0.00000000
v -6.00548649 0.74013311 0.00000000
v -5.69966650 3.34849358 0.00000000
v -5.74993086 3.42054939 0.00000000
v -5.64769554 3.27897358 0.00000000
v -5.59397364 3.21214771 0.00000000
v -5.53843212 3.14822054 0.00000000
v -5.29358006 2.93115616 0.00000000
v -5.42136288 3.03032303 0.00000000
v -5.48095798 3.08747268 0.00000000
v -4.10080528 2.27069402 0.00000000
v -5.35928106 2.97750974 0.00000000
v -3.42677689 3.19841456 0.00000000
v -5.89069986 3.65074897 0.00000000
v -5.93430567 3.73184967 0.00000000
v -5.84543657 3.57177663 0.00000000
v -6.01652479 3.90015531 0.00000000
v -5.97625017 3.81500673 0.00000000
v -6.05511808 3.98723555 0.00000000
v -5.66322041 4.52663565 0.00000000
v -5.79851580 3.49501276 0.00000000
v -5.56847668 4.51684093 0.00000000
v -5.47504997 4.50484991 0.00000000
v -5.29239511 4.47424459 0.00000000
v -4.86372280 4.35801888 0.00000000
v -4.78356695 4.32757711 0.00000000
v -4.94590044 4.38596344 0.00000000
v -4.63007021 4.25861931 0.00000000
v -4.70560551 4.29450798 0.00000000
v -4.55730152 4.21960115 0.00000000
v -4.48788929 4.17687798 0.00000000
v -5.38300133 4.49065542 0.00000000
v -5.20330048 4.45560074 0.00000000
v -5.11579466 4.43469763 0.00000000
v -5.02996206 4.41150141 0.00000000
v -4.42350149 4.12871647 0.00000000
v -2.37898970 0.98540986 -3.70000005
v -2.23001552 1.28750002 -3.70000005
v -2.55297041 0.33610496 0.69999999
v -2.48725891 0.66645902 0.69999999
v -2.37898970 0.98540986 0.69999999
v -2.23001552 1.28750002 0.69999999
v -2.04288483 1.56756067 -3.70000005
v -2.04288483 1.56756067 0.69999999
v -1.82079995 1.82079995 -3.70000005
v -1.82079995 1.82079995 0.69999999
v -3.18198061 3.18198061 -3.70000005
v -2.73942637 3.57009006 -3.70000005
v -1.56756067 2.04288483 -3.70000005
v -2.25000000 3.89711428 -3.70000005
v -3.18198061 3.18198061 0.00000000
v -2.73942637 3.57009006 0.00000000
v -1.28750002 2.23001552 -3.70000005
v -1.72207546 4.15745783 -3.70000005
v -0.98540986 2.37898970 -3.70000005
v -1.16468573 4.34666634 -3.70000005
v -0.66645902 2.48725891 -3.70000005
v -0.58736789 4.46150208 -3.70000005
v -0.33610496 2.55297041 -3.70000005
v 0.00000000 4.50000000 -3.70000005
v 0.00000000 2.57500005 -3.70000005
v -1.56756067 2.04288483 0.69999999
v -1.28750002 2.23001552 0.69999999
v -0.98540986 2.37898970 0.69999999
v -0.66645902 2.48725891 0.69999999
v -0.33610496 2.55297041 0.69999999
v 0.00000000 2.57500005 0.69999999
v -1.38802278 0.18273667 0.69999999
v -1.35229611 0.36234665 0.69999999
v -1.29343140 0.53575683 0.69999999
v -1.21243560 0.69999999 0.69999999
v -1.11069465 0.85226601 0.69999999
v -0.98994946 0.98994946 0.69999999
v -0.85226601 1.11069465 0.69999999
v -0.69999999 1.21243560 0.69999999
v -0.53575683 1.29343140 0.69999999
v -0.36234665 1.35229611 0.69999999
v -0.18273667 1.38802278 0.69999999
v 0.00000000 1.39999998 0.69999999
v -2.25000000 3.89711428 0.00000000
v -1.72207546 4.15745783 0.00000000
v -1.16468573 4.34666634 0.00000000
v -0.58736789 4.46150208 0.00000000
v 0.00000000 4.50000000 0.00000000
v -1.98294067 4.24742317 0.00000000
v -2.55970573 5.48284340 0.00000000
v -0.89233989 4.60178089 0.00000000
v -2.60479546 5.63817978 0.00000000
v -2.58561325 5.55896235 0.00000000
v -2.63020778 5.80237246 0.00000000
v -2.61941719 5.71944427 0.00000000
v -2.64124322 6.14700699 0.00000000
v -2.63756680 5.88673735 0.00000000
v -2.64174938 5.97237730 0.00000000
v -2.64293194 6.05916786 0.00000000
v -2.63678074 6.23580647 0.00000000
v -2.62961984 6.32548904 0.00000000
v -2.60742807 6.50722742 0.00000000
v -2.61981964 6.41598415 0.00000000
v -1.92095196 6.99088287 0.00000000
v -2.59248328 6.59915733 0.00000000
v -2.57501698 6.69171667 0.00000000
v -2.55505514 6.78485012 0.00000000
v -1.85005975 6.92726946 0.00000000
v -1.78152418 6.86265373 0.00000000
v -1.42331290 6.45544624 0.00000000
v -1.17567110 6.01708031 0.00000000
v -1.15188897 5.94027090 0.00000000
v -1.24265182 6.16678238 0.00000000
v -1.20671523 6.09244394 0.00000000
v -1.47630942 6.52551699 0.00000000
v -1.53211474 6.59473467 0.00000000
v -1.37325525 6.38453627 0.00000000
v -1.32630098 6.31279373 0.00000000
v -1.59062219 6.66308022 0.00000000
v -1.65174234 6.73053169 0.00000000
v -1.71539867 6.79706526 0.00000000
v -1.28266621 6.24021530 0.00000000
v -7.15992451 0.38113260 6.00000000
v -7.07729292 0.42634642 6.00000000
v -6.99448061 0.46896759 6.00000000
v -6.91153240 0.50894839 6.00000000
v -6.82849503 0.54623336 6.00000000
v -6.74541473 0.58075732 6.00000000
v -6.66234016 0.61244196 6.00000000
v -6.57932234 0.64119166 6.00000000
v -6.49641371 0.66688681 6.00000000
v -6.41367292 0.68937331 6.00000000
v -6.33116341 0.70844460 6.00000000
v -6.24895906 0.72380847 6.00000000
v -6.16715384 0.73501432 6.00000000
v -6.08588600 0.74125046 6.00000000
v -6.00548649 0.74013311 6.00000000
v -5.79851580 3.49501276 6.00000000
v -5.69966650 3.34849358 6.00000000
v -5.74993086 3.42054939 6.00000000
v -5.64769554 3.27897358 6.00000000
v -5.59397364 3.21214771 6.00000000
v -5.53843212 3.14822054 6.00000000
v -5.48095798 3.08747268 6.00000000
v -4.10080528 2.27069402 6.00000000
v -5.42136288 3.03032303 6.00000000
v -5.35928106 2.97750974 6.00000000
v -5.29358006 2.93115616 6.00000000
v -3.42677689 3.19841456 6.00000000
v -5.93430567 3.73184967 6.00000000
v -6.01652479 3.90015531 6.00000000
v -5.97625017 3.81500673 6.00000000
v -6.05511808 3.98723555 6.00000000
v -5.84543657 3.57177663 6.00000000
v -5.89069986 3.65074897 6.00000000
v -5.66322041 4.52663565 6.00000000
v -5.56847668 4.51684093 6.00000000
v -5.47504997 4.50484991 6.00000000
v -4.86372280 4.35801888 6.00000000
v -4.78356695 4.32757711 6.00000000
v -4.70560551 4.29450798 6.00000000
v -4.63007021 4.25861931 6.00000000
v -4.55730152 4.21960115 6.00000000
v -5.38300133 4.49065542 6.00000000
v -5.29239511 4.47424459 6.00000000
v -5.20330048 4.45560074 6.00000000
v -5.11579466 4.43469763 6.00000000
v -5.02996206 4.41150141 6.00000000
v -4.94590044 4.38596344 6.00000000
v -4.42350149 4.12871647 6.00000000
v -4.48788929 4.17687798 6.00000000
v -1.38802278 0.18273667 4.19999981
v -1.35229611 0.36234665 4.19999981
v -1.29343140 0.53575683 4.19999981
v -1.21243560 0.69999999 4.19999981
v -1.11069465 0.85226601 4.19999981
v -0.98994946 0.98994946 4.19999981
v -0.85226601 1.11069465 4.19999981
v -0.69999999 1.21243560 4.19999981
v -0.53575683 1.29343140 4.19999981
v -0.36234665 1.35229611 4.19999981
v -0.18273667 1.38802278 4.19999981
v 0.00000000 1.39999998 4.19999981
v -2.51140714 0.67292953 6.00000000
v -2.40208673 0.99497694 6.00000000
v -2.25166607 1.29999995 6.00000000
v -2.06271863 1.58277977 6.00000000
v -1.98294067 4.24742317 6.00000000
v -1.83847761 1.83847761 6.00000000
v -1.58277977 2.06271863 6.00000000
v -1.29999995 2.25166607 6.00000000
v -0.99497694 2.40208673 6.00000000
v -0.67292953 2.51140714 6.00000000
v -0.33936810 2.57775664 6.00000000
v 0.00000000 2.59999990 6.00000000
v 0.33936810 2.57775664 6.00000000
v 0.67292953 2.51140714 6.00000000
v 0.99497694 2.40208673 6.00000000
v -2.55970573 5.48284340 6.00000000
v -2.58561325 5.55896235 6.00000000
v -2.60479546 5.63817978 6.00000000
v -2.61941719 5.71944427 6.00000000
v -2.63020778 5.80237246 6.00000000
v -2.63756680 5.88673735 6.00000000
v -2.64174938 5.97237730 6.00000000
v -2.64293194 6.05916786 6.00000000
v -2.64124322 6.14700699 6.00000000
v -2.63678074 6.23580647 6.00000000
v -2.62961984 6.32548904 6.00000000
v -2.61981964 6.41598415 6.00000000
v -2.60742807 6.50722742 6.00000000
v -2.59248328 6.59915733 6.00000000
v -2.57501698 6.69171667 6.00000000
v -2.55505514 6.78485012 6.00000000
v -1.92095196 6.99088287 6.00000000
v -1.85005975 6.92726946 6.00000000
v -0.89233989 4.60178089 6.00000000
v -1.15188897 5.94027090 6.00000000
v -1.17567110 6.01708031 6.00000000
v -1.47630942 6.52551699 6.00000000
v -1.37325525 6.38453627 6.00000000
v -1.42331290 6.45544624 6.00000000
v -1.65174234 6.73053169 6.00000000
v -1.59062219 6.66308022 6.00000000
v -1.71539867 6.79706526 6.00000000
v -1.78152418 6.86265373 6.00000000
v -1.53211474 6.59473467 6.00000000
v -1.24265182 6.16678238 6.00000000
v -1.28266621 6.24021530 6.00000000
v -1.20671523 6.09244394 6.00000000
v -1.32630098 6.31279373 6.00000000
v 0.89233989 4.60178089 6.00000000
v 0.33610496 -2.55297041 -3.70000005
v 0.58736789 -4.46150208 -3.70000005
v 0.66645902 -2.48725891 -3.70000005
v 1.16468573 -4.34666634 -3.70000005
v 0.98540986 -2.37898970 -3.70000005
v 1.72207546 -4.15745783 -3.70000005
v 0.58736789 -4.46150208 0.00000000
v 1.16468573 -4.34666634 0.00000000
v 2.25000000 -3.89711428 -3.70000005
v 1.72207546 -4.15745783 0.00000000
v 2.73942637 -3.57009006 -3.70000005
v 2.25000000 -3.89711428 0.00000000
v 1.24265182 -6.16678238 0.00000000
v 1.32630098 -6.31279373 0.00000000
v 1.28266621 -6.24021530 0.00000000
v 1.42331290 -6.45544624 0.00000000
v 1.53211474 -6.59473467 0.00000000
v 1.65174234 -6.73053169 0.00000000
v 1.71539867 -6.79706526 0.00000000
v 1.78152418 -6.86265373 0.00000000
v 1.92095196 -6.99088287 0.00000000
v 1.59062219 -6.66308022 0.00000000
v 1.37325525 -6.38453627 0.00000000
v 1.47630942 -6.52551699 0.00000000
v 1.20671523 -6.09244394 0.00000000
v 1.17567110 -6.01708031 0.00000000
v 1.15188897 -5.94027090 0.00000000
v 2.55970573 -5.48284340 0.00000000
v 1.98294067 -4.24742317 0.00000000
v 1.85005975 -6.92726946 0.00000000
v 2.57501698 -6.69171667 0.00000000
v 2.55505514 -6.78485012 0.00000000
v 2.60742807 -6.50722742 0.00000000
v 2.59248328 -6.59915733 0.00000000
v 2.64124322 -6.14700699 0.00000000
v 2.62961984 -6.32548904 0.00000000
v 2.61981964 -6.41598415 0.00000000
v 2.63678074 -6.23580647 0.00000000
v 2.64174938 -5.97237730 0.00000000
v 2.64293194 -6.05916786 0.00000000
v 2.63020778 -5.80237246 0.00000000
v 2.63756680 -5.88673735 0.00000000
v 2.60479546 -5.63817978 0.00000000
v 2.61941719 -5.71944427 0.00000000
v 2.58561325 -5.55896235 0.00000000
v 2.73942637 -3.57009006 0.00000000
v 3.42677689 -3.19841456 0.00000000
v 1.28750002 -2.23001552 -3.70000005
v 1.56756067 -2.04288483 -3.70000005
v 0.33610496 -2.55297041 0.69999999
v 0.66645902 -2.48725891 0.69999999
v 0.98540986 -2.37898970 0.69999999
v 1.28750002 -2.23001552 0.69999999
v 1.56756067 -2.04288483 0.69999999
v 1.82079995 -1.82079995 -3.70000005
v 3.18198061 -3.18198061 -3.70000005
v 2.04288483 -1.56756067 -3.70000005
v 3.57009006 -2.73942637 -3.70000005
v 2.23001552 -1.28750002 -3.70000005
v 3.89711428 -2.25000000 -3.70000005
v 3.18198061 -3.18198061 0.00000000
v 2.37898970 -0.98540986 -3.70000005
v 2.48725891 -0.66645902 -3.70000005
v 4.15745783 -1.72207546 -3.70000005
v 2.55297041 -0.33610496 -3.70000005
v 4.34666634 -1.16468573 -3.70000005
v 2.57500005 0.00000000 -3.70000005
v 4.46150208 -0.58736789 -3.70000005
v 1.82079995 -1.82079995 0.69999999
v 2.04288483 -1.56756067 0.69999999
v 2.23001552 -1.28750002 0.69999999
v 2.37898970 -0.98540986 0.69999999
v 2.48725891 -0.66645902 0.69999999
v 2.55297041 -0.33610496 0.69999999
v 0.18273667 -1.38802278 0.69999999
v 0.36234665 -1.35229611 0.69999999
v 0.53575683 -1.29343140 0.69999999
v 0.69999999 -1.21243560 0.69999999
v 0.85226601 -1.11069465 0.69999999
v 0.98994946 -0.98994946 0.69999999
v 1.11069465 -0.85226601 0.69999999
v 1.21243560 -0.69999999 0.69999999
v 1.29343140 -0.53575683 0.69999999
v 1.35229611 -0.36234665 0.69999999
v 1.38802278 -0.18273667 0.69999999
v 1.39999998 0.00000000 0.69999999
v 3.57009006 -2.73942637 0.00000000
v 2.57500005 0.00000000 0.69999999
v 4.94590044 -4.38596344 0.00000000
v 4.63007021 -4.25861931 0.00000000
v 4.48788929 -4.17687798 0.00000000
v 4.42350149 -4.12871647 0.00000000
v 5.11579466 -4.43469763 0.00000000
v 5.02996206 -4.41150141 0.00000000
v 5.29239511 -4.47424459 0.00000000
v 5.20330048 -4.45560074 0.00000000
v 5.66322041 -4.52663565 0.00000000
v 5.47504997 -4.50484991 0.00000000
v 5.38300133 -4.49065542 0.00000000
v 4.55730152 -4.21960115 0.00000000
v 4.78356695 -4.32757711 0.00000000
v 4.70560551 -4.29450798 0.00000000
v 4.86372280 -4.35801888 0.00000000
v 5.29358006 -2.93115616 0.00000000
v 5.56847668 -4.51684093 0.00000000
v 5.93430567 -3.73184967 0.00000000
v 6.01652479 -3.90015531 0.00000000
v 5.74993086 -3.42054939 0.00000000
v 5.84543657 -3.57177663 0.00000000
v 5.79851580 -3.49501276 0.00000000
v 6.05511808 -3.98723555 0.00000000
v 5.97625017 -3.81500673 0.00000000
v 5.89069986 -3.65074897 0.00000000
v 3.89711428 -2.25000000 0.00000000
v 4.50000000 0.00000000 -3.70000005
v 4.15745783 -1.72207546 0.00000000
v 4.34666634 -1.16468573 0.00000000
v 4.46150208 -0.58736789 0.00000000
v 4.10080528 -2.27069402 0.00000000
v 5.35928106 -2.97750974 0.00000000
v 5.42136288 -3.03032303 0.00000000
v 5.53843212 -3.14822054 0.00000000
v 4.50000000 0.00000000 0.00000000
v 4.65230179 -0.57336277 0.00000000
v 5.64769554 -3.27897358 0.00000000
v 5.48095798 -3.08747268 0.00000000
v 5.59397364 -3.21214771 0.00000000
v 5.69966650 -3.34849358 0.00000000
v 6.08588600 -0.74125046 0.00000000
v 6.00548649 -0.74013311 0.00000000
v 6.24895906 -0.72380847 0.00000000
v 6.57932234 -0.64119166 0.00000000
v 6.16715384 -0.73501432 0.00000000
v 6.41367292 -0.68937331 0.00000000
v 6.33116341 -0.70844460 0.00000000
v 7.24233150 -0.33336776 0.00000000
v 6.00548649 0.74013311 0.00000000
v 6.49641371 -0.66688681 0.00000000
v 6.74541473 -0.58075732 0.00000000
v 6.66234016 -0.61244196 0.00000000
v 6.91153240 -0.50894839 0.00000000
v 6.82849503 -0.54623336 0.00000000
v 7.07729292 -0.42634642 0.00000000
v 6.99448061 -0.46896759 0.00000000
v 7.15992451 -0.38113260 0.00000000
v 1.32630098 -6.31279373 6.00000000
v 1.20671523 -6.09244394 6.00000000
v 1.28266621 -6.24021530 6.00000000
v 1.24265182 -6.16678238 6.00000000
v 1.53211474 -6.59473467 6.00000000
v 1.78152418 -6.86265373 6.00000000
v 1.71539867 -6.79706526 6.00000000
v 1.59062219 -6.66308022 6.00000000
v 1.65174234 -6.73053169 6.00000000
v 1.42331290 -6.45544624 6.00000000
v 1.37325525 -6.38453627 6.00000000
v 1.47630942 -6.52551699 6.00000000
v 1.17567110 -6.01708031 6.00000000
v 1.15188897 -5.94027090 6.00000000
v 0.89233989 -4.60178089 6.00000000
v 1.85005975 -6.92726946 6.00000000
v 1.92095196 -6.99088287 6.00000000
v 2.55505514 -6.78485012 6.00000000
v 2.57501698 -6.69171667 6.00000000
v 2.59248328 -6.59915733 6.00000000
v 2.60742807 -6.50722742 6.00000000
v 2.61981964 -6.41598415 6.00000000
v 2.62961984 -6.32548904 6.00000000
v 2.63678074 -6.23580647 6.00000000
v 2.64124322 -6.14700699 6.00000000
v 2.64293194 -6.05916786 6.00000000
v 2.64174938 -5.97237730 6.00000000
v 2.63756680 -5.88673735 6.00000000
v 2.63020778 -5.80237246 6.00000000
v 2.61941719 -5.71944427 6.00000000
v 2.60479546 -5.63817978 6.00000000
v 2.58561325 -5.55896235 6.00000000
v 2.55970573 -5.48284340 6.00000000
v 1.98294067 -4.24742317 6.00000000
v 4.10080528 -2.27069402 6.00000000
v 3.42677689 -3.19841456 6.00000000
v 0.18273667 -1.38802278 4.19999981
v 0.36234665 -1.35229611 4.19999981
v 0.53575683 -1.29343140 4.19999981
v 0.69999999 -1.21243560 4.19999981
v 0.85226601 -1.11069465 4.19999981
v 0.98994946 -0.98994946 4.19999981
v 1.11069465 -0.85226601 4.19999981
v 1.21243560 -0.69999999 4.19999981
v 1.29343140 -0.53575683 4.19999981
v 1.35229611 -0.36234665 4.19999981
v 1.38802278 -0.18273667 4.19999981
v 1.39999998 0.00000000 4.19999981
v 0.67292953 -2.51140714 6.00000000
v 0.99497694 -2.40208673 6.00000000
v 1.29999995 -2.25166607 6.00000000
v 1.58277977 -2.06271863 6.00000000
v 1.83847761 -1.83847761 6.00000000
v 2.06271863 -1.58277977 6.00000000
v 2.25166607 -1.29999995 6.00000000
v 2.40208673 -0.99497694 6.00000000
v 2.51140714 -0.67292953 6.00000000
v 2.57775664 -0.33936810 6.00000000
v 2.59999990 0.00000000 6.00000000
v 4.48788929 -4.17687798 6.00000000
v 4.42350149 -4.12871647 6.00000000
v 4.94590044 -4.38596344 6.00000000
v 5.02996206 -4.41150141 6.00000000
v 5.11579466 -4.43469763 6.00000000
v 5.20330048 -4.45560074 6.00000000
v 5.29239511 -4.47424459 6.00000000
v 5.38300133 -4.49065542 6.00000000
v 4.55730152 -4.21960115 6.00000000
v 4.63007021 -4.25861931 6.00000000
v 4.70560551 -4.29450798 6.00000000
v 4.78356695 -4.32757711 6.00000000
v 4.86372280 -4.35801888 6.00000000
v 5.47504997 -4.50484991 6.00000000
v 5.56847668 -4.51684093 6.00000000
v 5.66322041 -4.52663565 6.00000000
v 5.89069986 -3.65074897 6.00000000
v 5.84543657 -3.57177663 6.00000000
v 6.05511808 -3.98723555 6.00000000
v 5.97625017 -3.81500673 6.00000000
v 6.01652479 -3.90015531 6.00000000
v 5.93430567 -3.73184967 6.00000000
v 5.29358006 -2.93115616 6.00000000
v 5.79851580 -3.49501276 6.00000000
v 5.74993086 -3.42054939 6.00000000
v 5.35928106 -2.97750974 6.00000000
v 5.42136288 -3.03032303 6.00000000
v 4.65230179 -0.57336277 6.00000000
v 5.48095798 -3.08747268 6.00000000
v 5.53843212 -3.14822054 6.00000000
v 5.59397364 -3.21214771 6.00000000
v 5.64769554 -3.27897358 6.00000000
v 5.69966650 -3.34849358 6.00000000
v 6.00548649 -0.74013311 6.00000000
v 6.08588600 -0.74125046 6.00000000
v 6.16715384 -0.73501432 6.00000000
v 6.24895906 -0.72380847 6.00000000
v 6.33116341 -0.70844460 6.00000000
v 6.41367292 -0.68937331 6.00000000
v 6.49641371 -0.66688681 6.00000000
v 6.57932234 -0.64119166 6.00000000
v 6.66234016 -0.61244196 6.00000000
v 6.74541473 -0.58075732 6.00000000
v 6.82849503 -0.54623336 6.00000000
v 6.91153240 -0.50894839 6.00000000
v 6.99448061 -0.46896759 6.00000000
v 7.07729292 -0.42634642 6.00000000
v 7.15992451 -0.38113260 6.00000000
v 7.24233150 0.33336776 0.00000000
v 7.24233150 -0.33336776 6.00000000
v 4.65230179 0.57336277 6.00000000
v 6.00548649 0.74013311 6.00000000
v 0.58736789 4.46150208 -3.70000005
v 0.33610496 2.55297041 -3.70000005
v 1.16468573 4.34666634 -3.70000005
v 0.66645902 2.48725891 -3.70000005
v 1.72207546 4.15745783 -3.70000005
v 0.98540986 2.37898970 -3.70000005
v 2.25000000 3.89711428 -3.70000005
v 1.28750002 2.23001552 -3.70000005
v 0.33610496 2.55297041 0.69999999
v 0.66645902 2.48725891 0.69999999
v 0.98540986 2.37898970 0.69999999
v 1.28750002 2.23001552 0.69999999
v 1.56756067 2.04288483 -3.70000005
v 1.56756067 2.04288483 0.69999999
v 1.82079995 1.82079995 -3.70000005
v 1.82079995 1.82079995 0.69999999
v 2.55297041 0.33610496 -3.70000005
v 2.48725891 0.66645902 -3.70000005
v 4.46150208 0.58736789 -3.70000005
v 2.37898970 0.98540986 -3.70000005
v 4.34666634 1.16468573 -3.70000005
v 2.23001552 1.28750002 -3.70000005
v 4.15745783 1.72207546 -3.70000005
v 2.04288483 1.56756067 -3.70000005
v 3.89711428 2.25000000 -3.70000005
v 2.48725891 0.66645902 0.69999999
v 2.55297041 0.33610496 0.69999999
v 2.04288483 1.56756067 0.69999999
v 2.23001552 1.28750002 0.69999999
v 2.37898970 0.98540986 0.69999999
v 2.73942637 3.57009006 -3.70000005
v 3.18198061 3.18198061 -3.70000005
v 3.57009006 2.73942637 -3.70000005
v 3.18198061 3.18198061 0.00000000
v 3.57009006 2.73942637 0.00000000
v 0.18273667 1.38802278 0.69999999
v 0.36234665 1.35229611 0.69999999
v 0.53575683 1.29343140 0.69999999
v 0.69999999 1.21243560 0.69999999
v 1.38802278 0.18273667 0.69999999
v 1.35229611 0.36234665 0.69999999
v 1.29343140 0.53575683 0.69999999
v 1.21243560 0.69999999 0.69999999
v 0.85226601 1.11069465 0.69999999
v 0.98994946 0.98994946 0.69999999
v 1.11069465 0.85226601 0.69999999
v 2.73942637 3.57009006 0.00000000
v 3.42677689 3.19841456 0.00000000
v 0.58736789 4.46150208 0.00000000
v 1.72207546 4.15745783 0.00000000
v 1.16468573 4.34666634 0.00000000
v 2.25000000 3.89711428 0.00000000
v 0.89233989 4.60178089 0.00000000
v 1.98294067 4.24742317 0.00000000
v 1.15188897 5.94027090 0.00000000
v 1.17567110 6.01708031 0.00000000
v 1.20671523 6.09244394 0.00000000
v 1.28266621 6.24021530 0.00000000
v 1.24265182 6.16678238 0.00000000
v 1.47630942 6.52551699 0.00000000
v 1.32630098 6.31279373 0.00000000
v 1.37325525 6.38453627 0.00000000
v 1.42331290 6.45544624 0.00000000
v 2.55505514 6.78485012 0.00000000
v 1.53211474 6.59473467 0.00000000
v 1.59062219 6.66308022 0.00000000
v 1.71539867 6.79706526 0.00000000
v 1.65174234 6.73053169 0.00000000
v 1.78152418 6.86265373 0.00000000
v 1.85005975 6.92726946 0.00000000
v 2.58561325 5.55896235 0.00000000
v 2.55970573 5.48284340 0.00000000
v 2.61941719 5.71944427 0.00000000
v 2.64293194 6.05916786 0.00000000
v 2.60479546 5.63817978 0.00000000
v 2.63756680 5.88673735 0.00000000
v 2.63020778 5.80237246 0.00000000
v 2.64174938 5.97237730 0.00000000
v 1.92095196 6.99088287 0.00000000
v 2.63678074 6.23580647 0.00000000
v 2.64124322 6.14700699 0.00000000
v 2.61981964 6.41598415 0.00000000
v 2.62961984 6.32548904 0.00000000
v 2.59248328 6.59915733 0.00000000
v 2.60742807 6.50722742 0.00000000
v 2.57501698 6.69171667 0.00000000
v 4.46150208 0.58736789 0.00000000
v 4.34666634 1.16468573 0.00000000
v 4.15745783 1.72207546 0.00000000
v 3.89711428 2.25000000 0.00000000
v 4.65230179 0.57336277 0.00000000
v 4.10080528 2.27069402 0.00000000
v 4.42350149 4.12871647 0.00000000
v 5.35928106 2.97750974 0.00000000
v 5.29358006 2.93115616 0.00000000
v 6.05511808 3.98723555 0.00000000
v 5.48095798 3.08747268 0.00000000
v 5.69966650 3.34849358 0.00000000
v 5.42136288 3.03032303 0.00000000
v 6.08588600 0.74125046 0.00000000
v 6.16715384 0.73501432 0.00000000
v 6.33116341 0.70844460 0.00000000
v 6.24895906 0.72380847 0.00000000
v 6.66234016 0.61244196 0.00000000
v 6.41367292 0.68937331 0.00000000
v 6.49641371 0.66688681 0.00000000
v 6.57932234 0.64119166 0.00000000
v 6.74541473 0.58075732 0.00000000
v 6.82849503 0.54623336 0.00000000
v 6.99448061 0.46896759 0.00000000
v 7.15992451 0.38113260 0.00000000
v 7.07729292 0.42634642 0.00000000
v 6.91153240 0.50894839 0.00000000
v 5.59397364 3.21214771 0.00000000
v 5.53843212 3.14822054 0.00000000
v 5.64769554 3.27897358 0.00000000
v 5.79851580 3.49501276 0.00000000
v 5.74993086 3.42054939 0.00000000
v 4.48788929 4.17687798 0.00000000
v 4.55730152 4.21960115 0.00000000
v 4.70560551 4.29450798 0.00000000
v 4.63007021 4.25861931 0.00000000
v 5.02996206 4.41150141 0.00000000
v 4.78356695 4.32757711 0.00000000
v 4.86372280 4.35801888 0.00000000
v 4.94590044 4.38596344 0.00000000
v 5.11579466 4.43469763 0.00000000
v 5.20330048 4.45560074 0.00000000
v 5.38300133 4.49065542 0.00000000
v 5.29239511 4.47424459 0.00000000
v 5.89069986 3.65074897 0.00000000
v 5.84543657 3.57177663 0.00000000
v 5.56847668 4.51684093 0.00000000
v 5.66322041 4.52663565 0.00000000
v 5.97625017 3.81500673 0.00000000
v 5.93430567 3.73184967 0.00000000
v 6.01652479 3.90015531 0.00000000
v 5.47504997 4.50484991 0.00000000
v 0.18273667 1.38802278 4.19999981
v 0.36234665 1.35229611 4.19999981
v 0.53575683 1.29343140 4.19999981
v 0.85226601 1.11069465 4.19999981
v 0.69999999 1.21243560 4.19999981
v 1.21243560 0.69999999 4.19999981
v 1.29343140 0.53575683 4.19999981
v 1.11069465 0.85226601 4.19999981
v 1.38802278 0.18273667 4.19999981
v 1.35229611 0.36234665 4.19999981
v 0.98994946 0.98994946 4.19999981
v 3.42677689 3.19841456 6.00000000
v 2.57775664 0.33936810 6.00000000
v 2.51140714 0.67292953 6.00000000
v 2.40208673 0.99497694 6.00000000
v 1.29999995 2.25166607 6.00000000
v 1.58277977 2.06271863 6.00000000
v 2.25166607 1.29999995 6.00000000
v 2.06271863 1.58277977 6.00000000
v 1.83847761 1.83847761 6.00000000
v 1.15188897 5.94027090 6.00000000
v 1.17567110 6.01708031 6.00000000
v 1.20671523 6.09244394 6.00000000
v 1.24265182 6.16678238 6.00000000
v 1.28266621 6.24021530 6.00000000
v 1.32630098 6.31279373 6.00000000
v 1.37325525 6.38453627 6.00000000
v 1.42331290 6.45544624 6.00000000
v 1.47630942 6.52551699 6.00000000
v 1.53211474 6.59473467 6.00000000
v 1.59062219 6.66308022 6.00000000
v 1.65174234 6.73053169 6.00000000
v 1.71539867 6.79706526 6.00000000
v 1.78152418 6.86265373 6.00000000
v 1.98294067 4.24742317 6.00000000
v 2.55970573 5.48284340 6.00000000
v 2.58561325 5.55896235 6.00000000
v 2.60479546 5.63817978 6.00000000
v 2.61941719 5.71944427 6.00000000
v 2.63020778 5.80237246 6.00000000
v 2.63756680 5.88673735 6.00000000
v 2.64174938 5.97237730 6.00000000
v 2.64293194 6.05916786 6.00000000
v 1.85005975 6.92726946 6.00000000
v 1.92095196 6.99088287 6.00000000
v 2.64124322 6.14700699 6.00000000
v 2.63678074 6.23580647 6.00000000
v 2.60742807 6.50722742 6.00000000
v 2.62961984 6.32548904 6.00000000
v 2.61981964 6.41598415 6.00000000
v 2.55505514 6.78485012 6.00000000
v 2.59248328 6.59915733 6.00000000
v 2.57501698 6.69171667 6.00000000
v 4.10080528 2.27069402 6.00000000
v 5.29358006 2.93115616 6.00000000
v 5.35928106 2.97750974 6.00000000
v 6.08588600 0.74125046 6.00000000
v 6.16715384 0.73501432 6.00000000
v 6.24895906 0.72380847 6.00000000
v 6.33116341 0.70844460 6.00000000
v 6.57932234 0.64119166 6.00000000
v 6.41367292 0.68937331 6.00000000
v 6.49641371 0.66688681 6.00000000
v 6.66234016 0.61244196 6.00000000
v 6.74541473 0.58075732 6.00000000
v 7.15992451 0.38113260 6.00000000
v 7.24233150 0.33336776 6.00000000
v 6.91153240 0.50894839 6.00000000
v 6.82849503 0.54623336 6.00000000
v 6.99448061 0.46896759 6.00000000
v 7.07729292 0.42634642 6.00000000
v 5.42136288 3.03032303 6.00000000
v 5.48095798 3.08747268 6.00000000
v 5.53843212 3.14822054 6.00000000
v 5.59397364 3.21214771 6.00000000
v 5.64769554 3.27897358 6.00000000
v 5.69966650 3.34849358 6.00000000
v 5.74993086 3.42054939 6.00000000
v 4.42350149 4.12871647 6.00000000
v 6.05511808 3.98723555 6.00000000
v 5.79851580 3.49501276 6.00000000
v 4.48788929 4.17687798 6.00000000
v 4.55730152 4.21960115 6.00000000
v 4.63007021 4.25861931 6.00000000
v 4.70560551 4.29450798 6.00000000
v 4.78356695 4.32757711 6.00000000
v 4.86372280 4.35801888 6.00000000
v 4.94590044 4.38596344 6.00000000
v 5.02996206 4.41150141 6.00000000
v 5.11579466 4.43469763 6.00000000
v 5.20330048 4.45560074 6.00000000
v 5.29239511 4.47424459 6.00000000
v 5.38300133 4.49065542 6.00000000
v 5.84543657 3.57177663 6.00000000
v 5.89069986 3.65074897 6.00000000
v 5.93430567 3.73184967 6.00000000
v 5.97625017 3.81500673 6.00000000
v 6.01652479 3.90015531 6.00000000
v 5.47504997 4.50484991 6.00000000
v 5.56847668 4.51684093 6.00000000
v 5.66322041 4.52663565 6.00000000
v -1.83847761 -1.83847761 4.19999981
v -2.40208673 -0.99497694 4.19999981
v -2.25166607 -1.29999995 4.19999981
v -2.51140714 -0.67292953 4.19999981
v -2.57775664 -0.33936810 4.19999981
v -2.59999990 0.00000000 4.19999981
v -2.06271863 -1.58277977 4.19999981
v -1.58277977 -2.06271863 4.19999981
v -1.29999995 -2.25166607 4.19999981
v -0.99497694 -2.40208673 4.19999981
v -0.67292953 -2.51140714 4.19999981
v -0.33936810 -2.57775664 4.19999981
v -0.00000000 -2.59999990 4.19999981
v -2.57775664 0.33936810 4.19999981
v -2.51140714 0.67292953 4.19999981
v -2.40208673 0.99497694 4.19999981
v -2.25166607 1.29999995 4.19999981
v -2.06271863 1.58277977 4.19999981
v -1.83847761 1.83847761 4.19999981
v -1.58277977 2.06271863 4.19999981
v -1.29999995 2.25166607 4.19999981
v -0.99497694 2.40208673 4.19999981
v -0.67292953 2.51140714 4.19999981
v -0.33936810 2.57775664 4.19999981
v 0.00000000 2.59999990 4.19999981
v 0.33936810 -2.57775664 4.19999981
v 0.67292953 -2.51140714 4.19999981
v 0.99497694 -2.40208673 4.19999981
v 1.29999995 -2.25166607 4.19999981
v 1.58277977 -2.06271863 4.19999981
v 1.83847761 -1.83847761 4.19999981
v 2.06271863 -1.58277977 4.19999981
v 2.25166607 -1.29999995 4.19999981
v 2.40208673 -0.99497694 4.19999981
v 2.51140714 -0.67292953 4.19999981
v 2.57775664 -0.33936810 4.19999981
v 2.59999990 0.00000000 4.19999981
v 0.67292953 2.51140714 4.19999981
v 0.99497694 2.40208673 4.19999981
v 2.57775664 0.33936810 4.19999981
v 2.51140714 0.67292953 4.19999981
v 2.40208673 0.99497694 4.19999981
v 1.29999995 2.25166607 4.19999981
v 1.58277977 2.06271863 4.19999981
v 2.25166607 1.29999995 4.19999981
v 2.06271863 1.58277977 4.19999981
v 1.83847761 1.83847761 4.19999981
v 0.33936810 2.57775664 4.19999981
f 1 2 3
f 4 5 6
f 4 6 7
f 6 8 7
f 9 4 1
f 1 4 2
f 4 10 2
f 4 7 11
f 7 12 13
f 7 13 11
f 2 14 15
f 2 10 14
f 14 10 16
f 10 17 18
f 4 19 10
f 10 20 17
f 17 20 21
f 10 19 20
f 20 22 23
f 20 19 22
f 22 19 24
f 25 26 27
f 25 28 29
f 29 30 31
f 30 32 33
f 32 34 35
f 29 36 30
f 30 37 32
f 32 38 34
f 13 39 11
f 11 40 41
f 11 41 42
f 41 43 42
f 44 45 46
f 44 47 45
f 44 48 49
f 50 51 49
f 44 49 51
f 44 51 47
f 45 47 52
f 47 53 54
f 47 55 53
f 53 55 56
f 47 51 57
f 47 57 55
f 55 58 59
f 55 57 58
f 58 57 60
f 27 26 61
f 25 27 28
f 4 11 62
f 42 63 64
f 11 42 62
f 42 64 62
f 4 62 19
f 64 65 62
f 19 62 66
f 62 61 66
f 62 27 61
f 62 28 27
f 29 28 36
f 30 36 37
f 32 37 38
f 57 67 68
f 68 38 37
f 62 68 28
f 68 36 28
f 68 37 36
f 69 70 71
f 70 72 73
f 72 74 75
f 75 76 77
f 77 78 79
f 75 77 80
f 72 75 81
f 77 79 82
f 83 84 85
f 83 85 86
f 85 87 86
f 83 86 88
f 86 89 90
f 86 90 88
f 90 91 88
f 83 92 93
f 83 94 92
f 83 95 94
f 88 96 97
f 88 97 98
f 97 99 98
f 83 88 100
f 98 101 102
f 88 98 100
f 83 100 103
f 70 73 71
f 72 81 73
f 71 73 66
f 98 102 100
f 102 104 100
f 100 66 73
f 100 73 81
f 92 94 105
f 94 106 107
f 94 95 106
f 106 95 108
f 83 103 95
f 95 109 110
f 95 111 109
f 109 111 112
f 95 103 111
f 111 113 114
f 111 103 113
f 113 103 115
f 75 80 81
f 77 82 80
f 79 116 82
f 100 117 103
f 100 80 117
f 100 81 80
f 80 82 117
f 117 82 116
f 25 118 26
f 25 29 119
f 120 26 121
f 69 120 122
f 69 123 70
f 26 118 121
f 120 121 122
f 69 122 123
f 120 61 26
f 69 124 120
f 25 119 118
f 29 31 119
f 30 33 31
f 35 34 125
f 32 35 33
f 31 126 119
f 118 119 127
f 121 118 128
f 33 35 129
f 31 33 130
f 35 125 131
f 70 132 72
f 70 123 132
f 72 132 74
f 75 74 76
f 77 76 78
f 121 133 122
f 122 134 123
f 123 135 132
f 132 136 74
f 74 137 76
f 76 138 78
f 120 124 61
f 69 71 124
f 66 61 124
f 71 66 124
f 119 126 127
f 31 130 126
f 118 127 128
f 121 128 133
f 33 129 130
f 35 131 129
f 126 139 127
f 126 130 140
f 130 129 141
f 129 131 142
f 122 133 134
f 123 134 135
f 132 135 136
f 74 136 137
f 76 137 138
f 78 138 143
f 134 144 135
f 135 145 136
f 136 146 137
f 137 147 138
f 138 148 143
f 138 147 148
f 133 128 149
f 133 150 134
f 128 127 151
f 128 151 149
f 127 139 151
f 134 150 144
f 133 149 150
f 126 140 139
f 130 141 140
f 129 142 141
f 142 131 152
f 135 144 145
f 136 145 146
f 137 146 147
f 9 1 153
f 1 3 154
f 3 2 155
f 9 156 4
f 4 157 5
f 5 158 6
f 6 159 8
f 8 160 7
f 7 161 12
f 12 162 13
f 2 15 163
f 15 14 164
f 14 16 165
f 16 10 166
f 10 18 167
f 18 17 168
f 17 21 169
f 21 20 170
f 20 23 171
f 23 22 172
f 22 24 173
f 24 19 174
f 19 66 175
f 1 154 153
f 3 155 154
f 4 156 157
f 5 157 158
f 6 158 159
f 8 159 160
f 9 153 156
f 7 160 161
f 12 161 162
f 154 155 163
f 156 158 157
f 156 160 158
f 158 160 159
f 153 154 156
f 154 163 156
f 156 163 167
f 156 176 160
f 160 162 161
f 160 176 162
f 2 163 155
f 15 164 163
f 14 165 164
f 16 166 165
f 10 167 166
f 18 168 167
f 17 169 168
f 21 170 169
f 20 171 170
f 23 172 171
f 22 173 172
f 24 174 173
f 19 175 174
f 66 177 175
f 163 164 165
f 163 165 167
f 165 166 167
f 167 168 169
f 156 167 175
f 167 169 171
f 169 170 171
f 167 171 175
f 171 172 173
f 171 173 175
f 173 174 175
f 13 178 39
f 39 176 11
f 11 179 40
f 40 180 41
f 41 181 43
f 43 182 42
f 42 183 63
f 44 184 48
f 44 46 185
f 45 52 186
f 46 45 187
f 50 49 188
f 49 48 189
f 52 47 190
f 47 54 191
f 53 56 192
f 56 55 193
f 54 53 194
f 55 59 195
f 59 58 196
f 58 60 197
f 60 57 198
f 57 68 199
f 63 200 64
f 64 201 65
f 65 202 62
f 62 203 68
f 13 162 178
f 39 178 176
f 11 176 179
f 40 179 180
f 41 180 181
f 43 181 182
f 42 182 183
f 162 176 178
f 176 180 179
f 176 182 180
f 180 182 181
f 44 185 184
f 46 187 185
f 45 186 187
f 49 189 188
f 48 184 189
f 50 188 204
f 52 190 186
f 47 191 190
f 54 194 191
f 53 192 194
f 56 193 192
f 55 195 193
f 59 196 195
f 58 197 196
f 60 198 197
f 57 199 198
f 185 187 186
f 185 186 191
f 185 189 184
f 188 189 204
f 185 204 189
f 185 191 204
f 186 190 191
f 191 194 192
f 191 192 195
f 192 193 195
f 191 199 204
f 191 195 199
f 195 196 197
f 195 197 199
f 197 198 199
f 63 183 200
f 64 200 201
f 65 201 202
f 156 202 176
f 182 200 183
f 176 202 182
f 182 202 200
f 156 175 202
f 200 202 201
f 175 177 202
f 202 177 203
f 68 203 199
f 62 202 203
f 199 203 205
f 83 206 84
f 84 207 85
f 83 93 208
f 87 209 86
f 86 210 89
f 85 211 87
f 89 212 90
f 90 213 91
f 93 92 214
f 92 105 215
f 91 216 88
f 88 217 96
f 96 218 97
f 97 219 99
f 99 220 98
f 98 221 101
f 101 222 102
f 102 223 104
f 100 177 66
f 104 224 100
f 105 94 225
f 94 107 226
f 107 106 227
f 106 108 228
f 108 95 229
f 95 110 230
f 110 109 231
f 109 112 232
f 112 111 233
f 111 114 234
f 114 113 235
f 113 115 236
f 115 103 237
f 103 117 238
f 117 239 240
f 83 208 206
f 84 206 207
f 85 207 211
f 87 211 209
f 86 209 210
f 89 210 212
f 90 212 213
f 91 213 216
f 93 214 208
f 92 215 214
f 88 216 217
f 96 217 218
f 97 218 219
f 99 219 220
f 98 220 221
f 101 221 222
f 102 222 223
f 208 207 206
f 208 209 207
f 207 209 211
f 208 216 209
f 209 212 210
f 209 216 212
f 212 216 213
f 208 214 215
f 208 215 226
f 208 226 230
f 216 218 217
f 216 220 218
f 218 220 219
f 208 224 216
f 220 222 221
f 216 224 220
f 208 238 224
f 104 223 224
f 100 224 177
f 220 224 222
f 222 224 223
f 224 240 177
f 105 225 215
f 94 226 225
f 107 227 226
f 106 228 227
f 108 229 228
f 95 230 229
f 110 231 230
f 109 232 231
f 112 233 232
f 111 234 233
f 114 235 234
f 113 236 235
f 115 237 236
f 103 238 237
f 215 225 226
f 226 227 228
f 226 228 230
f 228 229 230
f 208 230 238
f 230 231 232
f 230 232 234
f 232 233 234
f 230 234 238
f 234 235 236
f 234 236 238
f 236 237 238
f 117 240 238
f 224 238 240
f 149 151 241
f 142 242 141
f 142 152 243
f 139 244 151
f 140 141 245
f 139 140 246
f 150 247 144
f 149 248 150
f 144 249 145
f 145 250 146
f 146 251 147
f 147 252 148
f 151 244 241
f 149 241 248
f 142 243 242
f 152 253 243
f 139 246 244
f 140 245 246
f 141 242 245
f 145 249 250
f 150 248 247
f 144 247 249
f 146 250 251
f 147 251 252
f 203 177 240
f 203 240 254
f 203 254 255
f 203 255 256
f 203 256 257
f 203 257 258
f 203 258 259
f 240 260 261
f 240 262 260
f 240 263 264
f 240 264 262
f 240 261 254
f 240 265 263
f 240 266 265
f 240 267 266
f 240 268 267
f 34 269 125
f 269 270 271
f 270 272 273
f 34 274 269
f 269 275 270
f 270 276 272
f 272 277 278
f 278 279 280
f 51 281 282
f 51 282 283
f 282 284 283
f 51 283 285
f 283 286 287
f 283 287 285
f 287 288 285
f 285 289 290
f 285 290 291
f 57 51 67
f 51 285 67
f 290 292 291
f 291 293 294
f 285 291 67
f 291 294 67
f 294 295 67
f 296 297 298
f 299 298 300
f 297 301 300
f 300 302 303
f 297 300 298
f 34 38 274
f 269 274 275
f 270 275 276
f 68 67 38
f 67 274 38
f 67 275 274
f 67 304 275
f 275 304 276
f 272 276 277
f 278 277 279
f 300 301 302
f 302 301 305
f 276 304 277
f 304 279 277
f 301 306 304
f 304 306 279
f 307 308 309
f 310 308 311
f 310 312 313
f 297 309 308
f 314 309 297
f 297 308 313
f 297 313 301
f 310 313 308
f 313 315 316
f 313 316 317
f 301 313 306
f 318 319 320
f 319 321 320
f 313 320 306
f 319 322 321
f 321 323 324
f 316 325 317
f 313 317 320
f 317 326 327
f 317 327 320
f 327 328 320
f 321 324 306
f 329 306 324
f 321 306 320
f 269 271 125
f 270 273 271
f 272 278 330
f 272 330 273
f 278 331 330
f 125 271 332
f 271 273 333
f 273 330 334
f 330 331 335
f 331 336 337
f 336 338 339
f 278 280 331
f 336 280 340
f 331 280 336
f 336 340 338
f 338 341 342
f 340 341 338
f 342 341 343
f 280 344 340
f 340 345 341
f 342 343 346
f 346 343 347
f 346 347 348
f 348 349 350
f 350 351 352
f 352 353 354
f 338 342 355
f 342 346 356
f 346 348 357
f 348 350 358
f 350 352 359
f 352 354 360
f 125 332 131
f 271 333 332
f 273 334 333
f 330 335 334
f 331 337 335
f 336 339 337
f 131 332 152
f 332 333 361
f 333 334 362
f 334 335 363
f 335 337 364
f 280 279 344
f 340 344 345
f 279 306 344
f 306 345 344
f 332 361 152
f 333 362 361
f 334 363 362
f 335 364 363
f 337 365 364
f 337 339 365
f 339 355 366
f 339 366 365
f 366 355 367
f 367 356 368
f 368 357 369
f 369 358 370
f 338 355 339
f 342 356 355
f 346 357 356
f 348 358 357
f 350 359 358
f 352 360 359
f 367 355 356
f 368 356 357
f 369 357 358
f 370 358 359
f 370 359 371
f 371 360 372
f 371 359 360
f 341 373 343
f 343 374 347
f 348 347 349
f 350 349 351
f 352 351 353
f 347 375 349
f 349 376 351
f 351 377 353
f 341 345 373
f 343 373 374
f 306 378 345
f 345 378 373
f 373 378 374
f 378 379 380
f 381 379 382
f 381 383 379
f 381 384 383
f 379 383 385
f 383 386 387
f 383 387 385
f 387 388 385
f 385 389 390
f 385 390 391
f 390 392 391
f 379 385 393
f 385 391 393
f 391 394 395
f 391 395 393
f 395 396 393
f 393 397 398
f 347 374 375
f 349 375 376
f 351 376 377
f 378 375 374
f 378 380 375
f 375 380 376
f 380 377 376
f 379 393 380
f 393 399 380
f 380 400 401
f 380 402 400
f 380 399 402
f 403 400 402
f 404 399 405
f 406 407 399
f 408 405 409
f 393 409 399
f 393 398 409
f 409 398 410
f 399 409 405
f 399 407 402
f 407 411 402
f 50 204 51
f 51 412 281
f 281 413 282
f 282 414 284
f 284 415 283
f 283 416 286
f 286 417 287
f 287 418 288
f 288 419 285
f 285 420 289
f 289 421 290
f 290 422 292
f 292 423 291
f 291 424 293
f 293 425 294
f 294 426 295
f 314 297 427
f 296 298 428
f 296 429 297
f 299 430 298
f 299 300 431
f 300 303 432
f 303 302 433
f 295 205 67
f 67 434 304
f 302 305 435
f 305 301 436
f 301 304 437
f 51 204 412
f 281 412 413
f 282 413 414
f 284 414 415
f 283 415 416
f 286 416 417
f 287 417 418
f 288 418 419
f 285 419 420
f 289 420 421
f 290 421 422
f 292 422 423
f 291 423 424
f 293 424 425
f 294 425 426
f 295 426 205
f 204 413 412
f 204 415 413
f 413 415 414
f 204 419 415
f 415 417 416
f 415 419 417
f 417 419 418
f 419 421 420
f 419 423 421
f 199 205 204
f 204 205 419
f 421 423 422
f 423 425 424
f 419 205 423
f 423 205 425
f 425 205 426
f 302 435 433
f 296 428 429
f 298 430 428
f 297 429 427
f 299 431 430
f 300 432 431
f 303 433 432
f 428 430 429
f 431 432 430
f 429 432 437
f 432 433 435
f 429 430 432
f 67 205 434
f 203 434 205
f 305 436 435
f 301 437 436
f 304 434 437
f 432 435 437
f 435 436 437
f 437 434 438
f 307 439 308
f 310 311 440
f 311 308 441
f 310 442 312
f 314 443 309
f 307 309 444
f 312 445 313
f 313 446 315
f 315 447 316
f 318 320 448
f 318 449 319
f 319 450 322
f 322 451 321
f 321 452 323
f 316 453 325
f 325 454 317
f 317 455 326
f 326 456 327
f 327 457 328
f 328 458 320
f 329 324 459
f 323 460 324
f 329 438 306
f 307 444 439
f 310 440 442
f 308 439 441
f 311 441 440
f 312 442 445
f 309 443 444
f 314 427 443
f 313 445 446
f 315 446 447
f 316 447 453
f 444 443 439
f 440 441 439
f 440 445 442
f 429 439 443
f 427 429 443
f 429 445 439
f 429 437 445
f 440 439 445
f 445 447 446
f 445 454 447
f 318 448 449
f 319 449 450
f 322 450 451
f 321 451 452
f 323 452 460
f 325 453 454
f 317 454 455
f 326 455 456
f 327 456 457
f 328 457 458
f 320 458 448
f 329 459 438
f 324 460 459
f 437 438 445
f 448 458 449
f 449 458 451
f 445 438 458
f 449 451 450
f 451 460 452
f 447 454 453
f 445 458 454
f 454 456 455
f 454 458 456
f 456 458 457
f 451 438 460
f 459 460 438
f 451 458 438
f 152 361 253
f 361 362 461
f 362 363 462
f 363 364 463
f 364 365 464
f 365 366 465
f 366 367 466
f 367 368 467
f 368 369 468
f 369 370 469
f 370 371 470
f 371 372 471
f 361 461 253
f 362 462 461
f 363 463 462
f 364 464 463
f 365 465 464
f 366 466 465
f 367 467 466
f 368 468 467
f 369 469 468
f 370 470 469
f 371 471 470
f 372 472 471
f 203 259 473
f 203 473 474
f 203 474 475
f 203 475 476
f 203 477 434
f 203 476 477
f 434 477 438
f 477 476 478
f 477 478 479
f 477 479 480
f 477 480 481
f 477 481 482
f 477 482 483
f 477 483 484
f 477 484 485
f 477 486 487
f 477 485 486
f 306 477 378
f 378 488 379
f 379 489 382
f 381 382 490
f 381 491 384
f 384 492 383
f 383 493 386
f 386 494 387
f 387 495 388
f 388 496 385
f 385 497 389
f 389 498 390
f 390 499 392
f 392 500 391
f 391 501 394
f 394 502 395
f 395 503 396
f 396 504 393
f 393 505 397
f 380 401 506
f 401 400 507
f 403 508 400
f 404 405 509
f 406 399 510
f 404 511 399
f 409 410 512
f 408 409 513
f 398 514 410
f 397 515 398
f 408 516 405
f 411 517 402
f 407 518 411
f 403 402 519
f 406 520 407
f 306 438 477
f 378 477 488
f 477 506 488
f 381 490 491
f 379 488 489
f 382 489 490
f 384 491 492
f 383 492 493
f 386 493 494
f 387 494 495
f 388 495 496
f 385 496 497
f 389 497 498
f 390 498 499
f 392 499 500
f 391 500 501
f 394 501 502
f 395 502 503
f 396 503 504
f 393 504 505
f 397 505 515
f 490 489 488
f 490 488 492
f 490 492 491
f 488 496 492
f 492 494 493
f 492 496 494
f 494 496 495
f 496 498 497
f 496 500 498
f 498 500 499
f 488 504 496
f 496 504 500
f 500 502 501
f 500 504 502
f 502 504 503
f 504 515 505
f 380 506 521
f 477 521 506
f 401 507 506
f 400 508 507
f 403 519 508
f 399 511 510
f 404 509 511
f 409 512 513
f 398 515 514
f 410 514 512
f 408 513 516
f 405 516 509
f 411 518 517
f 407 520 518
f 402 517 519
f 406 510 520
f 488 506 504
f 504 506 511
f 506 507 508
f 506 508 517
f 506 517 511
f 519 517 508
f 509 516 511
f 510 511 520
f 513 512 516
f 504 511 512
f 504 512 515
f 512 514 515
f 511 516 512
f 511 517 520
f 520 517 518
f 79 522 523
f 523 524 525
f 525 526 527
f 79 523 116
f 523 525 528
f 525 527 529
f 527 530 531
f 530 532 533
f 534 535 536
f 534 537 535
f 538 537 539
f 540 539 541
f 541 539 542
f 539 537 542
f 538 539 543
f 535 537 544
f 538 545 537
f 534 546 547
f 534 239 537
f 534 547 239
f 547 548 239
f 537 239 542
f 239 549 542
f 116 523 528
f 525 529 528
f 527 531 529
f 117 116 239
f 116 528 239
f 528 529 239
f 239 529 550
f 529 531 550
f 541 542 551
f 542 552 553
f 542 554 552
f 552 554 555
f 542 556 554
f 542 549 556
f 554 557 558
f 554 556 557
f 557 556 559
f 556 560 561
f 556 562 560
f 560 562 563
f 556 549 562
f 562 564 565
f 562 549 564
f 566 564 549
f 530 533 531
f 532 567 533
f 239 550 549
f 531 533 550
f 550 533 567
f 550 567 568
f 79 78 522
f 523 522 524
f 525 524 526
f 527 526 569
f 527 569 530
f 530 569 570
f 78 143 522
f 522 571 524
f 524 572 526
f 526 573 569
f 569 574 570
f 570 575 576
f 530 570 532
f 532 576 577
f 532 570 576
f 576 578 577
f 579 578 580
f 577 578 579
f 579 580 581
f 532 577 567
f 577 579 582
f 580 583 581
f 583 584 585
f 583 585 581
f 584 586 587
f 586 588 589
f 576 590 578
f 578 591 580
f 580 592 583
f 583 593 584
f 584 594 586
f 586 595 588
f 143 571 522
f 524 571 572
f 526 572 573
f 569 573 574
f 570 574 575
f 576 575 590
f 143 596 571
f 143 148 596
f 571 596 597
f 571 597 572
f 572 598 573
f 573 599 574
f 574 600 575
f 572 597 598
f 573 598 599
f 574 599 600
f 575 600 601
f 601 602 590
f 575 601 590
f 602 591 590
f 602 603 591
f 603 604 592
f 604 605 593
f 605 606 594
f 606 607 595
f 567 577 582
f 579 608 582
f 567 582 568
f 582 608 568
f 578 590 591
f 580 591 592
f 583 592 593
f 584 593 594
f 586 594 595
f 595 609 588
f 603 592 591
f 604 593 592
f 605 594 593
f 606 595 594
f 595 607 609
f 568 610 611
f 568 612 613
f 568 611 612
f 610 614 615
f 610 616 614
f 614 616 617
f 610 618 616
f 616 619 620
f 612 611 621
f 611 622 623
f 568 618 610
f 610 622 611
f 610 624 622
f 568 625 618
f 616 618 619
f 619 618 626
f 618 627 628
f 618 625 629
f 618 629 627
f 630 629 631
f 630 627 629
f 618 628 632
f 627 633 628
f 630 634 627
f 579 581 608
f 581 585 635
f 584 587 585
f 586 589 587
f 589 588 636
f 585 587 637
f 587 589 638
f 589 636 639
f 608 581 635
f 585 637 635
f 568 608 640
f 568 640 625
f 608 635 640
f 635 637 640
f 625 641 642
f 625 642 643
f 587 638 637
f 589 639 638
f 639 636 644
f 640 637 638
f 640 638 645
f 638 639 645
f 639 644 645
f 646 629 643
f 642 647 643
f 625 643 629
f 646 643 648
f 646 649 629
f 645 650 651
f 645 652 650
f 645 653 652
f 650 652 654
f 652 655 656
f 645 657 653
f 645 658 657
f 652 653 655
f 655 653 659
f 653 660 661
f 653 662 660
f 660 662 663
f 653 657 662
f 662 664 665
f 662 657 664
f 664 657 666
f 535 544 667
f 534 668 546
f 536 535 669
f 534 536 670
f 538 543 671
f 541 551 672
f 540 541 673
f 539 674 543
f 540 675 539
f 537 545 676
f 537 677 544
f 538 678 545
f 547 546 679
f 547 680 548
f 548 681 239
f 551 542 682
f 542 553 683
f 553 552 684
f 552 555 685
f 555 554 686
f 554 558 687
f 558 557 688
f 557 559 689
f 559 556 690
f 556 561 691
f 561 560 692
f 560 563 693
f 563 562 694
f 562 565 695
f 565 564 696
f 566 697 564
f 566 549 698
f 549 550 699
f 550 568 700
f 544 677 667
f 534 670 668
f 535 667 669
f 536 669 670
f 538 671 678
f 543 674 671
f 540 673 675
f 541 672 673
f 539 675 674
f 545 678 676
f 537 676 677
f 546 668 679
f 547 679 680
f 548 680 681
f 670 669 667
f 670 667 676
f 671 675 676
f 673 672 675
f 672 683 675
f 675 683 676
f 671 674 675
f 667 677 676
f 671 676 678
f 670 679 668
f 670 676 681
f 670 681 679
f 679 681 680
f 676 683 681
f 681 683 699
f 240 239 681
f 240 681 700
f 240 700 701
f 551 682 672
f 542 683 682
f 553 684 683
f 552 685 684
f 555 686 685
f 554 687 686
f 558 688 687
f 557 689 688
f 559 690 689
f 556 691 690
f 561 692 691
f 560 693 692
f 563 694 693
f 562 695 694
f 565 696 695
f 566 698 697
f 549 699 698
f 564 697 696
f 672 682 683
f 683 684 685
f 683 685 687
f 685 686 687
f 683 687 691
f 683 691 699
f 687 688 689
f 687 689 691
f 689 690 691
f 691 692 693
f 691 693 695
f 693 694 695
f 691 695 699
f 695 696 697
f 695 697 699
f 698 699 697
f 550 700 699
f 568 702 700
f 681 699 700
f 148 703 596
f 596 704 597
f 597 705 598
f 598 706 599
f 599 707 600
f 600 708 601
f 601 709 602
f 602 710 603
f 603 711 604
f 604 712 605
f 605 713 606
f 606 714 607
f 148 252 703
f 596 703 704
f 597 704 705
f 598 705 706
f 599 706 707
f 600 707 708
f 601 708 709
f 602 709 710
f 603 710 711
f 604 711 712
f 605 712 713
f 606 713 714
f 240 715 268
f 240 701 715
f 701 716 715
f 701 717 716
f 701 718 717
f 701 719 718
f 701 720 719
f 700 702 701
f 701 721 720
f 701 722 721
f 701 723 722
f 701 724 723
f 701 725 724
f 568 613 702
f 612 621 726
f 612 727 613
f 610 615 728
f 615 614 729
f 614 617 730
f 617 616 731
f 616 620 732
f 620 619 733
f 621 611 734
f 611 623 735
f 623 622 736
f 622 624 737
f 610 738 624
f 619 626 739
f 626 618 740
f 618 632 741
f 630 742 634
f 630 631 743
f 632 628 744
f 627 745 633
f 633 746 628
f 627 634 747
f 612 726 727
f 613 727 702
f 610 728 738
f 615 729 728
f 614 730 729
f 617 731 730
f 616 732 731
f 620 733 732
f 621 734 726
f 611 735 734
f 623 736 735
f 622 737 736
f 624 738 737
f 702 735 728
f 702 727 726
f 702 726 735
f 728 729 730
f 728 730 732
f 730 731 732
f 728 732 741
f 732 733 739
f 726 734 735
f 735 736 737
f 702 728 741
f 728 735 737
f 728 737 738
f 702 741 748
f 619 739 733
f 626 740 739
f 618 741 740
f 631 749 743
f 630 743 742
f 632 744 741
f 633 745 746
f 627 747 745
f 628 746 744
f 634 742 747
f 732 739 741
f 739 740 741
f 741 746 747
f 741 750 748
f 741 747 750
f 743 749 750
f 743 750 747
f 741 744 746
f 747 746 745
f 743 747 742
f 640 748 625
f 625 751 641
f 641 752 642
f 640 645 701
f 645 651 753
f 642 754 647
f 647 755 643
f 643 756 648
f 646 648 757
f 629 649 750
f 646 758 649
f 629 749 631
f 651 650 759
f 650 654 760
f 654 652 761
f 652 656 762
f 656 655 763
f 655 659 764
f 659 653 765
f 653 661 766
f 661 660 767
f 660 663 768
f 663 662 769
f 662 665 770
f 665 664 771
f 664 666 772
f 666 657 773
f 657 774 775
f 640 701 748
f 625 748 751
f 641 751 752
f 702 748 701
f 748 752 751
f 748 755 752
f 645 753 701
f 701 753 776
f 647 754 755
f 643 755 756
f 648 756 757
f 629 750 749
f 646 757 758
f 649 758 750
f 642 752 754
f 757 755 750
f 752 755 754
f 748 750 755
f 757 756 755
f 757 750 758
f 651 759 753
f 650 760 759
f 654 761 760
f 652 762 761
f 656 763 762
f 655 764 763
f 659 765 764
f 653 766 765
f 661 767 766
f 660 768 767
f 663 769 768
f 662 770 769
f 665 771 770
f 664 772 771
f 666 773 772
f 657 775 773
f 753 759 760
f 753 760 762
f 753 762 766
f 760 761 762
f 762 763 764
f 753 766 775
f 753 775 777
f 762 764 766
f 764 765 766
f 766 767 768
f 766 768 770
f 768 769 770
f 766 770 775
f 770 771 772
f 770 772 775
f 772 773 775
f 354 778 779
f 779 780 781
f 781 782 783
f 783 784 785
f 783 782 784
f 354 779 786
f 779 781 787
f 781 783 788
f 783 785 789
f 785 790 791
f 790 792 793
f 794 795 796
f 588 794 636
f 795 797 798
f 799 800 797
f 799 801 802
f 588 609 794
f 795 803 797
f 794 804 795
f 801 805 792
f 799 806 801
f 799 797 807
f 785 808 790
f 790 809 792
f 801 792 810
f 785 784 808
f 790 808 809
f 792 809 810
f 799 802 800
f 801 810 802
f 809 808 811
f 810 809 812
f 813 787 814
f 814 788 815
f 815 789 816
f 607 817 609
f 818 804 817
f 818 819 803
f 819 820 807
f 821 793 822
f 816 791 821
f 823 806 820
f 823 822 805
f 823 805 806
f 821 791 793
f 822 793 805
f 354 786 360
f 779 787 786
f 781 788 787
f 783 789 788
f 785 791 789
f 790 793 791
f 372 786 813
f 372 360 786
f 813 786 787
f 814 787 788
f 815 788 789
f 816 789 791
f 794 609 804
f 795 804 803
f 792 805 793
f 801 806 805
f 797 803 807
f 799 807 806
f 817 804 609
f 818 803 804
f 819 807 803
f 820 806 807
f 811 808 824
f 809 811 812
f 811 824 825
f 812 811 825
f 354 353 778
f 779 778 780
f 781 780 782
f 353 826 778
f 780 827 782
f 778 828 780
f 782 829 784
f 784 824 808
f 353 377 826
f 778 826 828
f 780 828 827
f 380 830 377
f 377 830 826
f 826 830 828
f 828 831 827
f 830 831 828
f 830 832 831
f 832 833 834
f 832 834 835
f 834 836 835
f 832 835 837
f 835 838 839
f 835 839 837
f 839 840 837
f 832 837 841
f 837 842 843
f 837 843 844
f 843 845 844
f 844 846 847
f 782 827 829
f 784 829 824
f 827 831 829
f 825 829 831
f 831 848 849
f 831 850 848
f 825 824 829
f 832 841 831
f 831 851 850
f 848 850 852
f 831 841 851
f 850 853 854
f 850 851 853
f 853 851 855
f 837 844 841
f 844 847 841
f 847 856 841
f 851 857 858
f 851 859 857
f 857 859 860
f 851 841 859
f 859 861 862
f 859 841 861
f 861 841 863
f 794 796 636
f 795 798 796
f 797 800 798
f 636 796 644
f 796 798 864
f 798 800 865
f 800 802 866
f 810 867 802
f 796 864 644
f 798 865 864
f 800 866 865
f 864 865 868
f 865 866 868
f 866 869 868
f 645 644 868
f 644 864 868
f 645 868 658
f 802 867 866
f 810 812 867
f 866 867 869
f 812 869 867
f 812 825 869
f 825 870 869
f 869 871 872
f 869 870 873
f 869 874 871
f 869 875 874
f 871 874 876
f 869 873 875
f 658 877 878
f 658 878 879
f 878 880 879
f 658 879 881
f 657 658 881
f 879 882 883
f 879 883 881
f 883 884 881
f 881 885 886
f 657 881 887
f 657 887 888
f 657 888 774
f 889 888 887
f 881 886 887
f 886 890 887
f 874 891 892
f 874 875 891
f 891 875 893
f 875 894 895
f 870 896 897
f 870 897 898
f 897 899 898
f 870 898 900
f 898 901 902
f 898 902 900
f 870 900 873
f 902 903 900
f 900 904 905
f 900 905 906
f 905 907 906
f 875 908 894
f 894 908 909
f 875 873 908
f 900 906 873
f 906 910 873
f 873 910 911
f 908 912 913
f 908 873 912
f 912 873 914
f 906 915 910
f 372 813 472
f 813 814 916
f 814 815 917
f 815 816 918
f 821 822 919
f 816 821 920
f 819 921 820
f 818 922 819
f 823 820 923
f 607 924 817
f 818 817 925
f 823 926 822
f 813 916 472
f 814 917 916
f 816 920 918
f 821 919 920
f 815 918 917
f 818 925 922
f 819 922 921
f 820 921 923
f 607 714 924
f 817 924 925
f 822 926 919
f 823 923 926
f 477 487 927
f 701 927 725
f 927 928 725
f 927 929 928
f 927 930 929
f 927 487 931
f 927 931 932
f 927 933 930
f 927 934 933
f 927 932 935
f 927 935 934
f 380 521 830
f 830 936 832
f 832 937 833
f 833 938 834
f 834 939 836
f 836 940 835
f 835 941 838
f 838 942 839
f 839 943 840
f 840 944 837
f 837 945 842
f 842 946 843
f 843 947 845
f 845 948 844
f 844 949 846
f 831 849 950
f 825 831 927
f 849 848 951
f 848 852 952
f 852 850 953
f 850 854 954
f 854 853 955
f 853 855 956
f 855 851 957
f 851 858 958
f 846 959 847
f 847 960 856
f 858 857 961
f 857 860 962
f 862 861 963
f 860 859 964
f 859 862 965
f 856 966 841
f 861 863 967
f 863 841 968
f 830 521 936
f 477 927 521
f 521 950 936
f 832 936 937
f 833 937 938
f 834 938 939
f 836 939 940
f 835 940 941
f 838 941 942
f 839 942 943
f 840 943 944
f 837 944 945
f 842 945 946
f 843 946 947
f 845 947 948
f 844 948 949
f 846 949 959
f 936 938 937
f 936 940 938
f 938 940 939
f 936 944 940
f 940 942 941
f 940 944 942
f 942 944 943
f 936 966 944
f 944 946 945
f 944 948 946
f 946 948 947
f 948 959 949
f 831 950 927
f 849 951 950
f 927 950 521
f 950 951 952
f 950 952 954
f 848 952 951
f 852 953 952
f 850 954 953
f 854 955 954
f 853 956 955
f 855 957 956
f 851 958 957
f 847 959 960
f 856 960 966
f 858 961 958
f 857 962 961
f 860 964 962
f 859 965 964
f 862 963 965
f 861 967 963
f 863 968 967
f 841 966 968
f 936 950 966
f 950 954 958
f 952 953 954
f 950 958 966
f 954 955 956
f 954 956 958
f 956 957 958
f 944 966 948
f 948 966 959
f 959 966 960
f 958 961 962
f 958 962 965
f 962 964 965
f 958 965 966
f 965 963 967
f 965 967 966
f 967 968 966
f 868 869 776
f 869 872 969
f 872 871 970
f 871 876 971
f 868 777 658
f 658 972 877
f 877 973 878
f 878 974 880
f 880 975 879
f 883 976 884
f 879 977 882
f 882 978 883
f 884 979 881
f 881 980 885
f 889 981 888
f 888 982 774
f 886 983 890
f 885 984 886
f 890 985 887
f 889 887 986
f 876 874 987
f 874 892 988
f 892 891 989
f 891 893 990
f 893 875 991
f 875 895 992
f 895 894 993
f 869 969 776
f 868 776 777
f 701 776 927
f 753 777 776
f 872 970 969
f 871 971 970
f 876 987 971
f 927 776 969
f 927 969 994
f 969 970 971
f 969 995 994
f 969 971 988
f 969 988 992
f 971 987 988
f 969 992 995
f 658 777 972
f 877 972 973
f 878 973 974
f 880 974 975
f 879 975 977
f 882 977 978
f 883 978 976
f 884 976 979
f 881 979 980
f 885 980 984
f 775 774 982
f 889 986 981
f 888 981 982
f 886 984 983
f 890 983 985
f 887 985 986
f 777 973 972
f 777 975 973
f 973 975 974
f 777 979 975
f 775 979 777
f 975 978 977
f 975 979 978
f 978 979 976
f 979 984 980
f 775 985 979
f 775 981 985
f 775 982 981
f 986 985 981
f 979 985 984
f 984 985 983
f 874 988 987
f 892 989 988
f 891 990 989
f 893 991 990
f 875 992 991
f 895 993 992
f 894 996 993
f 988 989 990
f 988 990 992
f 990 991 992
f 992 993 996
f 825 994 870
f 870 997 896
f 896 998 897
f 897 999 899
f 899 1000 898
f 898 1001 901
f 901 1002 902
f 902 1003 903
f 903 1004 900
f 900 1005 904
f 904 1006 905
f 905 1007 907
f 907 1008 906
f 894 909 996
f 909 908 1009
f 908 913 1010
f 913 912 1011
f 912 914 1012
f 914 873 1013
f 873 911 995
f 906 1014 915
f 915 1015 910
f 910 1016 911
f 825 927 994
f 870 994 997
f 896 997 998
f 897 998 999
f 899 999 1000
f 898 1000 1001
f 901 1001 1002
f 902 1002 1003
f 903 1003 1004
f 900 1004 1005
f 904 1005 1006
f 905 1006 1007
f 907 1007 1008
f 906 1008 1014
f 994 998 997
f 994 1000 998
f 998 1000 999
f 994 1004 1000
f 1000 1002 1001
f 1000 1004 1002
f 994 995 1004
f 1002 1004 1003
f 1004 1006 1005
f 1004 1008 1006
f 1006 1008 1007
f 909 1009 996
f 908 1010 1009
f 911 1016 995
f 913 1011 1010
f 912 1012 1011
f 914 1013 1012
f 873 995 1013
f 915 1014 1015
f 910 1015 1016
f 992 996 1010
f 996 1009 1010
f 992 1010 995
f 1004 995 1008
f 1008 995 1015
f 995 1016 1015
f 1010 1011 1012
f 1010 1012 995
f 1012 1013 995
f 1008 1015 1014
f 1017 261 260
f 1018 1019 246
f 1018 245 1020
f 1020 242 1021
f 1021 253 1022
f 1018 255 1019
f 1023 1019 254
f 1023 261 1017
f 1019 255 254
f 1018 256 255
f 1023 254 261
f 1020 1021 257
f 1018 1020 256
f 1021 1022 258
f 1020 257 256
f 1021 258 257
f 1024 1025 248
f 1026 247 1025
f 1026 1027 249
f 1027 1028 250
f 1028 1029 251
f 1028 251 250
f 1029 252 251
f 1024 1017 260
f 1024 262 1025
f 1026 1025 264
f 1025 262 264
f 1024 260 262
f 1026 264 263
f 1026 263 1027
f 1027 265 1028
f 1028 266 1029
f 1027 263 265
f 1028 265 266
f 1029 266 267
f 1023 1017 241
f 1024 241 1017
f 1023 244 1019
f 1023 241 244
f 1019 244 246
f 1024 248 241
f 1025 247 248
f 1018 246 245
f 1020 245 242
f 1021 242 243
f 1021 243 253
f 1026 249 247
f 1027 250 249
f 1022 461 1030
f 1030 462 1031
f 1031 463 1032
f 1032 464 1033
f 1022 1030 259
f 1030 1031 473
f 1022 259 258
f 1030 473 259
f 1031 474 473
f 1031 1032 474
f 1032 1033 475
f 1033 1034 476
f 1032 475 474
f 1033 476 475
f 1034 478 476
f 1034 1035 478
f 1022 253 461
f 1030 461 462
f 1031 462 463
f 1032 463 464
f 1033 465 1034
f 1033 464 465
f 1034 465 466
f 1034 466 1035
f 1035 466 1036
f 1036 466 467
f 1037 467 468
f 1038 468 469
f 1039 469 470
f 1036 467 1037
f 1037 468 1038
f 1038 469 1039
f 1039 470 1040
f 1040 470 471
f 1040 471 472
f 1040 472 1041
f 1035 1036 479
f 1036 1037 480
f 1037 1038 481
f 1035 479 478
f 1036 480 479
f 1037 481 480
f 1038 1039 482
f 1039 1040 483
f 1040 1041 484
f 1038 482 481
f 1039 483 482
f 1040 484 483
f 1029 1042 252
f 1042 703 252
f 1042 704 703
f 1042 1043 704
f 1043 1044 705
f 1044 1045 706
f 1045 1046 707
f 1029 267 1042
f 1042 268 1043
f 1043 715 1044
f 1042 267 268
f 1043 268 715
f 1044 715 716
f 1044 716 1045
f 1045 717 1046
f 1046 718 1047
f 1045 716 717
f 1046 717 718
f 1047 718 719
f 1043 705 704
f 1044 706 705
f 1045 707 706
f 1046 708 707
f 1046 1047 708
f 1047 1048 708
f 1048 709 708
f 1049 710 709
f 1048 1049 709
f 1050 711 710
f 1051 712 711
f 1052 713 712
f 1053 714 713
f 1047 719 1048
f 1049 1050 710
f 1050 1051 711
f 1051 1052 712
f 1052 1053 713
f 1048 720 1049
f 1049 721 1050
f 1050 722 1051
f 1048 719 720
f 1049 720 721
f 1050 721 722
f 1051 723 1052
f 1052 724 1053
f 1051 722 723
f 1052 723 724
f 1053 724 725
f 1054 917 918
f 1055 918 920
f 1056 924 714
f 1056 925 924
f 1057 922 925
f 1058 921 922
f 1059 920 919
f 1060 919 926
f 1061 923 921
f 1062 926 923
f 1062 923 1061
f 1063 1060 926
f 1063 926 1062
f 1041 472 916
f 1064 916 917
f 1041 916 1064
f 1064 917 1054
f 1054 918 1055
f 1055 920 1059
f 1059 919 1060
f 1041 1064 485
f 1064 1054 486
f 1054 1055 487
f 1041 485 484
f 1064 486 485
f 1054 487 486
f 1055 1059 931
f 1059 1060 932
f 1063 935 1060
f 1055 931 487
f 1060 935 932
f 1059 932 931
f 1053 1056 714
f 1056 1057 925
f 1057 1058 922
f 1058 1061 921
f 1053 725 1056
f 1057 929 1058
f 1056 928 1057
f 1056 725 928
f 1057 928 929
f 1063 1062 934
f 1062 1061 933
f 1058 930 1061
f 1062 933 934
f 1058 929 930
f 1061 930 933
f 1063 934 935

