# https://github.com/mikedh/trimesh
v 7.00000000 52.17234039 15.00000000
v 7.00000000 49.90066528 15.00000000
v 9.56250000 51.50963593 15.00000000
v 7.00000000 48.24534988 15.00000000
v 7.00000000 45.97367477 15.00000000
v 9.56250000 47.58264542 15.00000000
v 7.00000000 44.31835938 15.00000000
v 7.00000000 42.04668427 15.00000000
v 9.56250000 43.65565491 15.00000000
v 4.00000000 53.00000000 15.00000000
v 7.00000000 53.00000000 15.00000000
v 4.00000000 53.00000000 2.00000000
v 7.00000000 53.00000000 2.00000000
v 7.00000000 49.90066528 2.00000000
v 7.00000000 52.17234039 2.00000000
v 7.00000000 48.24534988 2.00000000
v 7.00000000 45.97367477 2.00000000
v 7.00000000 40.39136887 15.00000000
v 7.00000000 42.04668427 2.00000000
v 7.00000000 44.31835938 2.00000000
v 9.56250000 39.72866058 15.00000000
v 7.00000000 40.39136887 2.00000000
v 4.00000000 0.00000000 15.00000000
v 7.00000000 38.11969376 15.00000000
v 7.00000000 36.46437836 15.00000000
v 7.00000000 34.19270325 15.00000000
v 9.56250000 35.80167389 15.00000000
v 7.00000000 32.53738785 15.00000000
v 7.00000000 30.26571274 15.00000000
v 9.56250000 31.87468147 15.00000000
v 7.00000000 28.61039734 15.00000000
v 7.00000000 26.33872223 15.00000000
v 9.56250000 27.94768906 15.00000000
v 7.00000000 38.11969376 2.00000000
v 7.00000000 34.19270325 2.00000000
v 7.00000000 36.46437836 2.00000000
v 7.00000000 30.26571274 2.00000000
v 7.00000000 32.53738785 2.00000000
v 7.00000000 28.61039734 2.00000000
v 4.00000000 52.70000076 2.00000000
v 0.00000000 52.70000076 2.00000000
v 0.00000000 52.70000076 0.00000000
v 7.00000000 52.70000076 2.00000000
v 4.00000000 0.29999924 2.00000000
v 0.00000000 0.29999924 2.00000000
v 0.00000000 0.29999924 0.00000000
v 9.56250000 50.56337357 2.00000000
v 9.56250000 46.63638306 2.00000000
v 9.56250000 42.70939255 2.00000000
v 9.56250000 51.50963593 2.00000000
v 9.56250000 47.58264542 2.00000000
v 16.50000000 52.70000076 2.00000000
v 9.56250000 38.78240204 2.00000000
v 9.56250000 34.85541153 2.00000000
v 9.56250000 30.92842102 2.00000000
v 7.00000000 26.33872223 2.00000000
v 9.56250000 27.00143051 2.00000000
v 9.56250000 35.80167389 2.00000000
v 9.56250000 31.87468147 2.00000000
v 4.00000000 0.00000000 2.00000000
v 7.00000000 24.68340683 15.00000000
v 7.00000000 22.41173172 15.00000000
v 7.00000000 20.75641632 15.00000000
v 9.56250000 24.02069855 15.00000000
v 7.00000000 18.48474121 15.00000000
v 9.56250000 20.09370804 15.00000000
v 7.00000000 16.82942581 15.00000000
v 7.00000000 14.55775070 15.00000000
v 9.56250000 16.16671753 15.00000000
v 7.00000000 22.41173172 2.00000000
v 7.00000000 24.68340683 2.00000000
v 7.00000000 20.75641632 2.00000000
v 7.00000000 18.48474121 2.00000000
v 7.00000000 12.90243530 15.00000000
v 7.00000000 14.55775070 2.00000000
v 7.00000000 16.82942581 2.00000000
v 7.00000000 10.63076019 15.00000000
v 7.00000000 8.97544479 15.00000000
v 7.00000000 6.70376968 15.00000000
v 7.00000000 5.04845428 15.00000000
v 7.00000000 2.77677536 15.00000000
v 7.00000000 0.00000000 15.00000000
v 9.56250000 12.23972702 15.00000000
v 9.56250000 8.31273651 15.00000000
v 9.56250000 4.38574600 15.00000000
v 7.00000000 0.00000000 2.00000000
v 7.00000000 10.63076019 2.00000000
v 7.00000000 12.90243530 2.00000000
v 7.00000000 8.97544479 2.00000000
v 7.00000000 6.70376968 2.00000000
v 7.00000000 2.77677536 2.00000000
v 7.00000000 5.04845428 2.00000000
v 9.56250000 23.07443810 2.00000000
v 9.56250000 19.14744949 2.00000000
v 9.56250000 15.22045898 2.00000000
v 16.50000000 0.29999924 0.00000000
v 9.56250000 24.02069855 2.00000000
v 9.56250000 11.29346466 2.00000000
v 9.56250000 7.36647415 2.00000000
v 7.00000000 0.29999924 2.00000000
v 9.56250000 3.43948364 2.00000000
v 9.56250000 50.56337357 15.00000000
v 9.56250000 46.63638306 15.00000000
v 9.56250000 42.70939255 15.00000000
v 9.56250000 43.65565491 2.00000000
v 9.56250000 38.78240204 15.00000000
v 9.56250000 34.85541153 15.00000000
v 9.56250000 30.92842102 15.00000000
v 9.56250000 27.00143051 15.00000000
v 9.56250000 39.72866058 2.00000000
v 9.56250000 27.94768906 2.00000000
v 12.01283264 48.19578934 2.00000000
v 12.05111122 48.38822937 2.00000000
v 12.00000000 48.00000000 2.00000000
v 12.01283264 47.80421066 2.00000000
v 12.05111122 47.61177063 2.00000000
v 12.11418056 48.57402420 2.00000000
v 12.20096207 48.75000000 2.00000000
v 12.11418056 47.42597580 2.00000000
v 12.20096207 47.25000000 2.00000000
v 12.11418056 48.57402420 3.79999995
v 12.05111122 48.38822937 3.79999995
v 12.01283264 48.19578934 3.79999995
v 12.00000000 48.00000000 3.79999995
v 12.30996990 48.91314316 3.79999995
v 12.43933964 49.06066132 3.79999995
v 12.30996990 48.91314316 2.00000000
v 12.20096207 48.75000000 3.79999995
v 12.01283264 47.80421066 3.79999995
v 12.05111122 47.61177063 3.79999995
v 12.11418056 47.42597580 3.79999995
v 12.20096207 47.25000000 3.79999995
v 12.30996990 47.08685684 2.00000000
v 12.30996990 47.08685684 3.79999995
v 12.43933964 49.06066132 2.00000000
v 12.43933964 46.93933868 2.00000000
v 16.50000000 52.70000076 0.00000000
v 13.11177158 46.55110931 2.00000000
v 13.30421066 46.51283264 2.00000000
v 13.88822842 46.55110931 2.00000000
v 12.58685780 46.80997086 2.00000000
v 12.75000000 46.70096207 2.00000000
v 12.92597485 46.61418152 2.00000000
v 13.50000000 46.50000000 2.00000000
v 13.69578934 46.51283264 2.00000000
v 14.07402515 46.61418152 2.00000000
v 14.56066036 46.93933868 2.00000000
v 14.69003010 47.08685684 2.00000000
v 9.56250000 20.09370804 2.00000000
v 9.56250000 16.16671753 2.00000000
v 13.50000000 48.00000000 3.79999995
v 12.58685780 49.19002914 3.79999995
v 12.43933964 46.93933868 3.79999995
v 12.58685780 46.80997086 3.79999995
v 12.75000000 49.29903793 3.79999995
v 12.92597485 49.38581848 3.79999995
v 13.11177158 49.44889069 3.79999995
v 13.30421066 49.48716736 3.79999995
v 12.75000000 46.70096207 3.79999995
v 12.92597485 46.61418152 3.79999995
v 13.11177158 46.55110931 3.79999995
v 13.30421066 46.51283264 3.79999995
v 13.50000000 49.50000000 3.79999995
v 13.69578934 49.48716736 3.79999995
v 13.88822842 49.44889069 3.79999995
v 14.07402515 49.38581848 3.79999995
v 13.50000000 46.50000000 3.79999995
v 13.69578934 46.51283264 3.79999995
v 13.88822842 46.55110931 3.79999995
v 14.07402515 46.61418152 3.79999995
v 14.25000000 49.29903793 3.79999995
v 14.41314220 49.19002914 3.79999995
v 14.56066036 49.06066132 3.79999995
v 14.69003010 48.91314316 3.79999995
v 14.79903793 48.75000000 3.79999995
v 14.88581944 48.57402420 3.79999995
v 14.41314220 46.80997086 3.79999995
v 14.56066036 46.93933868 3.79999995
v 14.25000000 46.70096207 3.79999995
v 14.69003010 47.08685684 3.79999995
v 14.79903793 47.25000000 3.79999995
v 14.88581944 47.42597580 3.79999995
v 14.94888878 48.38822937 3.79999995
v 14.98716736 48.19578934 3.79999995
v 15.00000000 48.00000000 3.79999995
v 14.98716736 47.80421066 3.79999995
v 14.94888878 47.61177063 3.79999995
v 12.58685780 49.19002914 2.00000000
v 12.75000000 49.29903793 2.00000000
v 12.92597485 49.38581848 2.00000000
v 13.11177158 49.44889069 2.00000000
v 13.30421066 49.48716736 2.00000000
v 13.50000000 49.50000000 2.00000000
v 13.69578934 49.48716736 2.00000000
v 13.88822842 49.44889069 2.00000000
v 14.07402515 49.38581848 2.00000000
v 14.25000000 49.29903793 2.00000000
v 14.25000000 46.70096207 2.00000000
v 14.41314220 46.80997086 2.00000000
v 14.41314220 49.19002914 2.00000000
v 14.79903793 47.25000000 2.00000000
v 14.94888878 47.61177063 2.00000000
v 14.88581944 47.42597580 2.00000000
v 14.56066036 49.06066132 2.00000000
v 14.69003010 48.91314316 2.00000000
v 14.79903793 48.75000000 2.00000000
v 14.88581944 48.57402420 2.00000000
v 14.94888878 48.38822937 2.00000000
v 14.98716736 48.19578934 2.00000000
v 15.00000000 48.00000000 2.00000000
v 14.98716736 47.80421066 2.00000000
v 16.50000000 0.29999924 2.00000000
v 9.56250000 23.07443810 15.00000000
v 9.56250000 19.14744949 15.00000000
v 9.56250000 15.22045898 15.00000000
v 9.56250000 11.29346466 15.00000000
v 9.56250000 7.36647415 15.00000000
v 9.56250000 3.43948364 15.00000000
v 9.56250000 12.23972702 2.00000000
v 9.56250000 8.31273651 2.00000000
v 9.56250000 4.38574600 2.00000000
v 13.11177158 6.44888687 2.00000000
v 13.69578934 6.48716736 2.00000000
v 12.75000000 6.29903793 2.00000000
v 12.11418056 5.57402420 2.00000000
v 12.20096207 5.75000000 2.00000000
v 12.30996990 5.91314316 2.00000000
v 12.43933964 6.06066132 2.00000000
v 12.58685780 6.19002914 2.00000000
v 12.92597485 6.38581848 2.00000000
v 13.30421066 6.48716736 2.00000000
v 13.50000000 6.50000000 2.00000000
v 12.00000000 5.00000000 2.00000000
v 12.01283264 5.19578934 2.00000000
v 12.05111122 5.38822937 2.00000000
v 12.01283264 4.80421066 2.00000000
v 12.05111122 4.61177063 2.00000000
v 12.11418056 4.42597580 2.00000000
v 12.20096207 4.25000000 2.00000000
v 12.30996990 4.08685684 2.00000000
v 12.43933964 3.93933868 2.00000000
v 14.07402515 6.38581848 2.00000000
v 14.25000000 6.29903793 2.00000000
v 14.41314220 6.19002914 2.00000000
v 14.56066036 6.06066132 2.00000000
v 14.69003010 5.91314316 2.00000000
v 14.79903793 5.75000000 2.00000000
v 14.88581944 5.57402420 2.00000000
v 14.94888878 5.38822937 2.00000000
v 14.98716736 5.19578934 2.00000000
v 15.00000000 5.00000000 2.00000000
v 13.88822842 6.44888687 2.00000000
v 12.58685780 3.80997086 2.00000000
v 12.75000000 3.70096207 2.00000000
v 12.92597485 3.61418152 2.00000000
v 13.11177158 3.55111313 2.00000000
v 13.30421066 3.51283264 2.00000000
v 13.50000000 3.50000000 2.00000000
v 13.69578934 3.51283264 2.00000000
v 13.88822842 3.55111313 2.00000000
v 14.07402515 3.61418152 2.00000000
v 14.25000000 3.70096207 2.00000000
v 14.41314220 3.80997086 2.00000000
v 14.56066036 3.93933868 2.00000000
v 14.69003010 4.08685684 2.00000000
v 14.79903793 4.25000000 2.00000000
v 14.88581944 4.42597580 2.00000000
v 14.94888878 4.61177063 2.00000000
v 14.98716736 4.80421066 2.00000000
v 12.11418056 5.57402420 3.79999995
v 12.05111122 5.38822937 3.79999995
v 12.01283264 5.19578934 3.79999995
v 12.00000000 5.00000000 3.79999995
v 12.30996990 5.91314316 3.79999995
v 12.20096207 5.75000000 3.79999995
v 12.43933964 6.06066132 3.79999995
v 12.01283264 4.80421066 3.79999995
v 12.05111122 4.61177063 3.79999995
v 12.11418056 4.42597580 3.79999995
v 12.20096207 4.25000000 3.79999995
v 12.30996990 4.08685684 3.79999995
v 13.50000000 5.00000000 3.79999995
v 12.58685780 6.19002914 3.79999995
v 12.43933964 3.93933868 3.79999995
v 12.58685780 3.80997086 3.79999995
v 12.75000000 6.29903793 3.79999995
v 12.92597485 6.38581848 3.79999995
v 13.11177158 6.44888687 3.79999995
v 13.30421066 6.48716736 3.79999995
v 12.75000000 3.70096207 3.79999995
v 12.92597485 3.61418152 3.79999995
v 13.11177158 3.55111313 3.79999995
v 13.30421066 3.51283264 3.79999995
v 13.50000000 6.50000000 3.79999995
v 13.69578934 6.48716736 3.79999995
v 13.88822842 6.44888687 3.79999995
v 14.07402515 6.38581848 3.79999995
v 13.50000000 3.50000000 3.79999995
v 13.69578934 3.51283264 3.79999995
v 13.88822842 3.55111313 3.79999995
v 14.07402515 3.61418152 3.79999995
v 14.25000000 6.29903793 3.79999995
v 14.41314220 6.19002914 3.79999995
v 14.56066036 6.06066132 3.79999995
v 14.69003010 5.91314316 3.79999995
v 14.79903793 5.75000000 3.79999995
v 14.88581944 5.57402420 3.79999995
v 14.25000000 3.70096207 3.79999995
v 14.41314220 3.80997086 3.79999995
v 14.56066036 3.93933868 3.79999995
v 14.69003010 4.08685684 3.79999995
v 14.79903793 4.25000000 3.79999995
v 14.88581944 4.42597580 3.79999995
v 14.94888878 5.38822937 3.79999995
v 14.98716736 5.19578934 3.79999995
v 15.00000000 5.00000000 3.79999995
v 14.98716736 4.80421066 3.79999995
v 14.94888878 4.61177063 3.79999995
f 1 2 3
f 4 5 6
f 7 8 9
f 10 11 12
f 11 1 13
f 2 4 14
f 1 3 15
f 4 6 16
f 5 7 17
f 8 18 19
f 7 9 20
f 18 21 22
f 10 23 11
f 11 23 1
f 1 23 2
f 2 23 4
f 4 23 5
f 5 23 7
f 7 23 8
f 8 23 18
f 18 24 21
f 25 26 27
f 28 29 30
f 31 32 33
f 24 25 34
f 26 28 35
f 25 27 36
f 29 31 37
f 28 30 38
f 31 33 39
f 10 12 40
f 41 40 42
f 42 40 43
f 10 40 44
f 41 45 40
f 41 42 46
f 11 13 12
f 1 43 13
f 1 15 43
f 4 16 14
f 2 14 47
f 7 20 17
f 18 22 19
f 5 17 48
f 8 19 49
f 12 43 40
f 12 13 43
f 43 15 50
f 14 16 51
f 42 43 52
f 17 20 48
f 19 22 49
f 25 36 34
f 24 34 53
f 26 35 54
f 28 38 35
f 31 39 37
f 29 37 55
f 32 56 57
f 34 36 58
f 35 38 59
f 37 39 55
f 10 60 23
f 18 23 24
f 24 23 25
f 25 23 26
f 26 23 28
f 28 23 29
f 29 23 31
f 31 23 32
f 23 61 32
f 23 62 61
f 23 63 62
f 61 62 64
f 63 65 66
f 67 68 69
f 32 61 56
f 62 63 70
f 61 64 71
f 63 66 72
f 65 67 73
f 68 74 75
f 67 69 76
f 23 65 63
f 23 67 65
f 23 68 67
f 23 74 68
f 23 77 74
f 23 78 77
f 23 79 78
f 23 80 79
f 23 81 80
f 23 82 81
f 74 77 83
f 78 79 84
f 80 81 85
f 23 86 82
f 77 78 87
f 74 83 88
f 78 84 89
f 79 80 90
f 81 82 91
f 80 85 92
f 10 44 60
f 41 46 45
f 40 45 44
f 61 71 56
f 63 72 70
f 62 70 93
f 67 76 73
f 74 88 75
f 65 73 94
f 68 75 95
f 42 96 46
f 56 71 97
f 70 72 93
f 73 76 94
f 75 88 95
f 23 60 86
f 78 89 87
f 77 87 98
f 79 90 99
f 80 92 90
f 82 100 91
f 82 86 100
f 81 91 101
f 44 86 60
f 44 100 86
f 45 46 96
f 87 89 98
f 90 92 99
f 91 100 101
f 45 96 44
f 2 102 3
f 5 103 6
f 8 104 9
f 2 47 102
f 5 48 103
f 3 102 50
f 6 103 51
f 8 49 104
f 9 104 105
f 24 106 21
f 26 107 27
f 29 108 30
f 32 109 33
f 24 53 106
f 26 54 107
f 21 106 110
f 27 107 58
f 29 55 108
f 32 57 109
f 30 108 59
f 33 109 111
f 15 3 50
f 16 6 51
f 102 47 50
f 103 48 51
f 20 9 105
f 22 21 110
f 104 49 105
f 14 51 47
f 20 105 48
f 22 110 49
f 43 50 52
f 48 112 113
f 48 114 112
f 48 115 114
f 48 116 115
f 48 113 117
f 48 117 118
f 48 119 116
f 48 120 119
f 50 47 52
f 47 51 52
f 121 113 122
f 122 112 123
f 123 114 124
f 125 126 127
f 121 128 117
f 125 118 128
f 124 115 129
f 129 116 130
f 130 119 131
f 131 120 132
f 132 133 134
f 48 118 127
f 48 127 135
f 121 117 113
f 122 113 112
f 123 112 114
f 128 118 117
f 125 127 118
f 51 48 52
f 124 114 115
f 129 115 116
f 130 116 119
f 131 119 120
f 132 120 133
f 134 133 136
f 42 52 137
f 48 105 120
f 105 49 136
f 49 110 138
f 110 53 139
f 53 58 140
f 105 133 120
f 105 136 133
f 49 141 136
f 49 142 141
f 49 143 142
f 49 138 143
f 110 139 138
f 53 144 139
f 53 145 144
f 36 27 58
f 106 53 110
f 107 54 58
f 38 30 59
f 39 33 111
f 108 55 59
f 109 57 111
f 34 58 53
f 35 59 54
f 39 111 55
f 58 54 146
f 54 59 147
f 59 55 148
f 55 111 148
f 111 57 52
f 57 97 52
f 52 97 93
f 42 137 96
f 52 93 149
f 52 149 94
f 52 94 150
f 52 150 95
f 121 122 151
f 122 123 151
f 123 124 151
f 121 151 128
f 125 128 151
f 125 151 126
f 126 151 152
f 124 129 151
f 129 130 151
f 130 131 151
f 131 132 151
f 132 134 151
f 134 153 151
f 153 154 151
f 155 151 156
f 152 151 155
f 156 151 157
f 157 151 158
f 154 159 151
f 159 160 151
f 160 161 151
f 161 162 151
f 158 151 163
f 163 151 164
f 164 151 165
f 165 151 166
f 162 167 151
f 151 167 168
f 151 168 169
f 151 169 170
f 151 171 166
f 151 172 171
f 151 173 172
f 151 174 173
f 151 175 174
f 151 176 175
f 151 177 178
f 151 170 179
f 151 179 177
f 151 178 180
f 151 180 181
f 151 181 182
f 151 183 176
f 151 184 183
f 151 185 184
f 151 186 185
f 151 182 187
f 151 187 186
f 126 152 135
f 152 155 188
f 155 156 189
f 134 136 153
f 153 141 154
f 154 142 159
f 159 143 160
f 156 157 190
f 157 158 191
f 158 163 192
f 160 138 161
f 161 139 162
f 127 126 135
f 152 188 135
f 155 189 188
f 156 190 189
f 48 135 52
f 153 136 141
f 154 141 142
f 159 142 143
f 157 191 190
f 158 192 191
f 160 143 138
f 161 138 139
f 162 139 144
f 135 188 52
f 188 189 52
f 189 190 52
f 190 191 52
f 191 192 52
f 192 193 52
f 163 164 193
f 164 165 194
f 162 144 167
f 167 145 168
f 168 140 169
f 165 166 195
f 166 171 196
f 171 172 197
f 169 146 170
f 170 198 179
f 179 199 177
f 163 193 192
f 164 194 193
f 165 195 194
f 167 144 145
f 168 145 140
f 166 196 195
f 171 197 196
f 172 200 197
f 169 140 146
f 170 146 198
f 179 198 199
f 53 140 145
f 58 146 140
f 54 198 146
f 54 199 198
f 54 147 199
f 59 148 147
f 111 201 148
f 111 202 203
f 111 203 201
f 111 52 202
f 193 194 52
f 194 195 52
f 195 196 52
f 196 197 52
f 197 200 52
f 200 204 52
f 204 205 52
f 205 206 52
f 206 207 52
f 207 208 52
f 172 173 200
f 173 174 204
f 174 175 205
f 175 176 206
f 176 183 207
f 177 147 178
f 178 148 180
f 181 203 182
f 182 202 187
f 180 201 181
f 183 184 208
f 184 185 209
f 185 186 210
f 187 211 186
f 173 204 200
f 174 205 204
f 175 206 205
f 176 207 206
f 183 208 207
f 177 199 147
f 178 147 148
f 181 201 203
f 182 203 202
f 180 148 201
f 184 209 208
f 185 210 209
f 186 211 210
f 187 202 211
f 208 209 52
f 209 210 52
f 210 211 52
f 202 52 211
f 52 212 137
f 62 213 64
f 65 214 66
f 68 215 69
f 62 93 213
f 64 213 97
f 65 94 214
f 68 95 215
f 66 214 149
f 69 215 150
f 77 216 83
f 79 217 84
f 81 218 85
f 77 98 216
f 79 99 217
f 83 216 219
f 84 217 220
f 81 101 218
f 85 218 221
f 71 64 97
f 72 66 149
f 213 93 97
f 76 69 150
f 214 94 149
f 215 95 150
f 56 97 57
f 72 149 93
f 76 150 94
f 88 219 95
f 88 83 219
f 89 84 220
f 216 98 219
f 217 99 220
f 92 85 221
f 218 101 221
f 89 220 98
f 92 221 99
f 44 96 100
f 219 98 222
f 95 219 223
f 98 220 224
f 220 99 225
f 220 226 227
f 220 227 228
f 220 228 229
f 98 224 230
f 220 229 224
f 219 222 231
f 219 231 232
f 219 232 223
f 98 230 222
f 99 221 233
f 99 234 235
f 99 233 234
f 220 225 226
f 99 235 225
f 221 236 233
f 221 237 236
f 221 238 237
f 221 239 238
f 100 212 101
f 221 240 239
f 221 241 240
f 221 101 212
f 52 95 242
f 52 242 243
f 52 243 244
f 52 244 245
f 52 245 246
f 52 246 247
f 52 247 248
f 52 248 249
f 52 249 250
f 52 250 251
f 52 251 212
f 137 212 96
f 95 223 252
f 95 252 242
f 221 212 241
f 212 253 241
f 212 254 253
f 212 255 254
f 212 256 255
f 212 257 256
f 212 258 257
f 100 96 212
f 212 259 258
f 212 260 259
f 212 261 260
f 212 262 261
f 212 263 262
f 212 264 263
f 212 265 264
f 212 266 265
f 212 267 266
f 212 268 267
f 212 251 269
f 212 269 268
f 270 235 271
f 271 234 272
f 272 233 273
f 274 226 275
f 274 276 227
f 270 275 225
f 273 236 277
f 277 237 278
f 278 238 279
f 279 239 280
f 280 240 281
f 270 225 235
f 271 235 234
f 272 234 233
f 274 227 226
f 275 226 225
f 273 233 236
f 277 236 237
f 278 237 238
f 279 238 239
f 280 239 240
f 281 240 241
f 270 282 275
f 271 272 282
f 270 271 282
f 272 273 282
f 274 275 282
f 274 282 276
f 283 276 282
f 273 277 282
f 277 278 282
f 278 279 282
f 279 280 282
f 280 281 282
f 281 284 282
f 284 285 282
f 283 282 286
f 287 286 282
f 287 282 288
f 288 282 289
f 285 290 282
f 290 291 282
f 291 292 282
f 292 293 282
f 289 282 294
f 294 282 295
f 295 282 296
f 296 282 297
f 293 298 282
f 282 298 299
f 282 299 300
f 282 300 301
f 297 282 302
f 302 282 303
f 303 282 304
f 304 282 305
f 305 282 306
f 306 282 307
f 282 308 309
f 282 309 310
f 282 301 308
f 282 310 311
f 282 312 313
f 282 311 312
f 307 282 314
f 314 282 315
f 315 282 316
f 282 317 316
f 282 318 317
f 282 313 318
f 283 228 276
f 283 286 229
f 287 224 286
f 281 241 284
f 284 253 285
f 285 254 290
f 290 255 291
f 287 288 230
f 288 289 222
f 289 294 231
f 291 256 292
f 292 257 293
f 276 228 227
f 283 229 228
f 286 224 229
f 287 230 224
f 284 241 253
f 285 253 254
f 290 254 255
f 288 222 230
f 289 231 222
f 291 255 256
f 292 256 257
f 293 257 258
f 294 295 232
f 295 296 223
f 293 258 298
f 298 259 299
f 299 260 300
f 296 297 252
f 297 302 242
f 302 303 243
f 300 261 301
f 301 262 308
f 308 263 309
f 294 232 231
f 295 223 232
f 296 252 223
f 298 258 259
f 299 259 260
f 297 242 252
f 302 243 242
f 303 244 243
f 300 260 261
f 301 261 262
f 308 262 263
f 303 304 244
f 304 305 245
f 305 306 246
f 306 307 247
f 307 314 248
f 310 309 264
f 310 265 311
f 311 266 312
f 313 312 267
f 318 313 268
f 314 315 249
f 315 316 250
f 316 317 251
f 317 318 269
f 304 245 244
f 305 246 245
f 306 247 246
f 307 248 247
f 314 249 248
f 309 263 264
f 310 264 265
f 311 265 266
f 312 266 267
f 313 267 268
f 315 250 249
f 316 251 250
f 317 269 251
f 318 268 269

