# https://github.com/mikedh/trimesh
v 0.00000000 0.00000000 0.00000000
v 3.93933988 5.08933973 0.00000000
v 4.08685780 4.95997000 0.00000000
v 3.80996990 5.23685789 0.00000000
v 4.25000000 4.85096169 0.00000000
v 3.70096183 5.40000010 0.00000000
v 3.61418080 5.57597494 0.00000000
v 3.55111122 5.76177120 0.00000000
v 3.51283264 5.95421076 0.00000000
v 3.50000000 6.15000010 0.00000000
v 4.42597485 4.76418066 0.00000000
v 4.61177158 4.70111132 0.00000000
v 4.08685780 4.95997000 4.59999990
v 3.80996990 5.23685789 4.59999990
v 3.70096183 5.40000010 4.59999990
v 3.93933988 5.08933973 4.59999990
v 3.55111122 5.76177120 4.59999990
v 3.51283264 5.95421076 4.59999990
v 3.50000000 6.15000010 4.59999990
v 3.61418080 5.57597494 4.59999990
v 4.42597485 4.76418066 4.59999990
v 4.25000000 4.85096169 4.59999990
v 4.61177158 4.70111132 4.59999990
v 4.80421066 4.66283274 0.00000000
v 4.80421066 4.66283274 4.59999990
v 5.00000000 4.65000010 0.00000000
v 5.00000000 4.65000010 4.59999990
v 5.19578934 4.66283274 0.00000000
v 5.19578934 4.66283274 4.59999990
v 5.38822842 4.70111132 0.00000000
v 5.38822842 4.70111132 4.59999990
v 5.57402515 4.76418066 0.00000000
v 5.57402515 4.76418066 4.59999990
v 5.75000000 4.85096169 0.00000000
v 22.89999962 0.00000000 0.00000000
v 0.00000000 0.00000000 4.59999990
v 5.57402515 7.53581953 0.00000000
v 5.75000000 7.44903803 0.00000000
v 5.75000000 4.85096169 4.59999990
v 5.91314220 4.95997000 0.00000000
v 5.91314220 4.95997000 4.59999990
v 6.06066036 5.08933973 0.00000000
v 6.06066036 5.08933973 4.59999990
v 6.19003010 5.23685789 0.00000000
v 6.19003010 5.23685789 4.59999990
v 6.29903793 5.40000010 0.00000000
v 6.29903793 5.40000010 4.59999990
v 6.38581944 5.57597494 0.00000000
v 6.38581944 5.57597494 4.59999990
v 6.44888878 5.76177120 0.00000000
v 6.44888878 5.76177120 4.59999990
v 6.48716736 5.95421076 0.00000000
v 6.48716736 5.95421076 4.59999990
v 6.50000000 6.15000010 0.00000000
v 0.00000000 12.30000019 4.59999990
v 3.51283264 6.34578943 4.59999990
v 3.55111122 6.53822851 4.59999990
v 3.61418080 6.72402525 4.59999990
v 6.50000000 6.15000010 4.59999990
v 16.83934021 5.08933973 4.59999990
v 16.70997047 5.23685789 4.59999990
v 16.98685837 4.95997000 4.59999990
v 17.14999962 4.85096169 4.59999990
v 16.60096169 5.40000010 4.59999990
v 16.51418114 5.57597494 4.59999990
v 16.45111084 5.76177120 4.59999990
v 16.41283226 5.95421076 4.59999990
v 16.39999962 6.15000010 4.59999990
v 16.41283226 6.34578943 4.59999990
v 16.45111084 6.53822851 4.59999990
v 16.51418114 6.72402525 4.59999990
v 16.60096169 6.90000010 4.59999990
v 22.89999962 12.30000019 4.59999990
v 16.70997047 7.06314230 4.59999990
v 16.83934021 7.21065998 4.59999990
v 16.98685837 7.34003019 4.59999990
v 17.14999962 7.44903803 4.59999990
v 0.00000000 12.30000019 0.00000000
v 3.51283264 6.34578943 0.00000000
v 3.55111122 6.53822851 0.00000000
v 3.61418080 6.72402525 0.00000000
v 3.70096183 6.90000010 0.00000000
v 3.80996990 7.06314230 0.00000000
v 3.93933988 7.21065998 0.00000000
v 4.08685780 7.34003019 0.00000000
v 4.25000000 7.44903803 0.00000000
v 4.42597485 7.53581953 0.00000000
v 4.61177158 7.59888887 0.00000000
v 4.80421066 7.63716745 0.00000000
v 5.00000000 7.65000010 0.00000000
v 5.19578934 7.63716745 0.00000000
v 5.38822842 7.59888887 0.00000000
v 3.70096183 6.90000010 4.59999990
v 3.80996990 7.06314230 4.59999990
v 3.93933988 7.21065998 4.59999990
v 4.08685780 7.34003019 4.59999990
v 4.25000000 7.44903803 4.59999990
v 4.42597485 7.53581953 4.59999990
v 4.61177158 7.59888887 4.59999990
v 4.80421066 7.63716745 4.59999990
v 5.00000000 7.65000010 4.59999990
v 5.19578934 7.63716745 4.59999990
v 5.38822842 7.59888887 4.59999990
v 5.75000000 7.44903803 4.59999990
v 5.57402515 7.53581953 4.59999990
v 16.98685837 4.95997000 0.00000000
v 17.14999962 4.85096169 0.00000000
v 16.83934021 5.08933973 0.00000000
v 16.70997047 5.23685789 0.00000000
v 16.60096169 5.40000010 0.00000000
v 16.51418114 5.57597494 0.00000000
v 16.45111084 5.76177120 0.00000000
v 16.41283226 5.95421076 0.00000000
v 16.39999962 6.15000010 0.00000000
v 16.41283226 6.34578943 0.00000000
v 16.45111084 6.53822851 0.00000000
v 16.51418114 6.72402525 0.00000000
v 16.60096169 6.90000010 0.00000000
v 16.70997047 7.06314230 0.00000000
v 16.83934021 7.21065998 0.00000000
v 16.98685837 7.34003019 0.00000000
v 6.38581944 6.72402525 0.00000000
v 6.44888878 6.53822851 0.00000000
v 6.44888878 6.53822851 4.59999990
v 6.38581944 6.72402525 4.59999990
v 6.29903793 6.90000010 0.00000000
v 6.48716736 6.34578943 0.00000000
v 6.48716736 6.34578943 4.59999990
v 6.06066036 7.21065998 0.00000000
v 6.06066036 7.21065998 4.59999990
v 5.91314220 7.34003019 0.00000000
v 6.29903793 6.90000010 4.59999990
v 6.19003010 7.06314230 0.00000000
v 6.19003010 7.06314230 4.59999990
v 5.91314220 7.34003019 4.59999990
v 17.32597542 4.76418066 0.00000000
v 17.51177216 4.70111132 0.00000000
v 17.70421028 4.66283274 0.00000000
v 17.89999962 4.65000010 0.00000000
v 18.09578896 4.66283274 0.00000000
v 18.28822899 4.70111132 0.00000000
v 18.47402573 4.76418066 0.00000000
v 18.64999962 4.85096169 0.00000000
v 18.81314278 4.95997000 0.00000000
v 18.96066093 5.08933973 0.00000000
v 19.09003067 5.23685789 0.00000000
v 19.19903755 5.40000010 0.00000000
v 19.28582001 5.57597494 0.00000000
v 19.34888840 5.76177120 0.00000000
v 19.38716698 5.95421076 0.00000000
v 19.39999962 6.15000010 0.00000000
v 19.38716698 6.34578943 0.00000000
v 19.34888840 6.53822851 0.00000000
v 19.28582001 6.72402525 0.00000000
v 22.89999962 12.30000019 0.00000000
v 22.89999962 0.00000000 4.59999990
v 18.28822899 4.70111132 4.59999990
v 17.51177216 4.70111132 4.59999990
v 17.32597542 4.76418066 4.59999990
v 17.70421028 4.66283274 4.59999990
v 17.89999962 4.65000010 4.59999990
v 18.09578896 4.66283274 4.59999990
v 17.32597542 7.53581953 4.59999990
v 18.47402573 4.76418066 4.59999990
v 18.64999962 4.85096169 4.59999990
v 18.81314278 4.95997000 4.59999990
v 18.96066093 5.08933973 4.59999990
v 19.09003067 5.23685789 4.59999990
v 19.19903755 5.40000010 4.59999990
v 19.28582001 5.57597494 4.59999990
v 19.34888840 5.76177120 4.59999990
v 19.38716698 5.95421076 4.59999990
v 19.39999962 6.15000010 4.59999990
v 17.14999962 7.44903803 0.00000000
v 17.32597542 7.53581953 0.00000000
v 17.51177216 7.59888887 0.00000000
v 17.70421028 7.63716745 0.00000000
v 17.89999962 7.65000010 0.00000000
v 18.09578896 7.63716745 0.00000000
v 18.28822899 7.59888887 0.00000000
v 18.64999962 7.44903803 0.00000000
v 18.47402573 7.53581953 0.00000000
v 19.19903755 6.90000010 0.00000000
v 19.09003067 7.06314230 0.00000000
v 18.81314278 7.34003019 0.00000000
v 18.96066093 7.21065998 0.00000000
v 17.51177216 7.59888887 4.59999990
v 17.70421028 7.63716745 4.59999990
v 17.89999962 7.65000010 4.59999990
v 18.09578896 7.63716745 4.59999990
v 18.28822899 7.59888887 4.59999990
v 18.47402573 7.53581953 4.59999990
v 18.64999962 7.44903803 4.59999990
v 19.38716698 6.34578943 4.59999990
v 19.34888840 6.53822851 4.59999990
v 19.28582001 6.72402525 4.59999990
v 19.19903755 6.90000010 4.59999990
v 19.09003067 7.06314230 4.59999990
v 18.81314278 7.34003019 4.59999990
v 18.96066093 7.21065998 4.59999990
f 1 2 3
f 1 4 2
f 1 3 5
f 1 6 4
f 1 7 6
f 1 8 7
f 1 9 8
f 1 10 9
f 1 11 12
f 1 5 11
f 3 13 5
f 4 14 2
f 4 6 15
f 3 2 16
f 8 17 7
f 8 9 18
f 9 10 19
f 6 7 20
f 11 21 12
f 5 22 11
f 12 23 24
f 24 25 26
f 26 27 28
f 28 29 30
f 30 31 32
f 32 33 34
f 1 12 35
f 1 35 36
f 12 24 35
f 24 26 35
f 26 28 35
f 28 30 35
f 30 32 35
f 32 34 35
f 37 35 38
f 34 39 40
f 40 41 42
f 42 43 44
f 44 45 46
f 46 47 48
f 48 49 50
f 50 51 52
f 52 53 54
f 1 36 55
f 5 13 22
f 2 14 16
f 4 15 14
f 3 16 13
f 8 18 17
f 9 19 18
f 6 20 15
f 7 17 20
f 11 22 21
f 12 21 23
f 24 23 25
f 26 25 27
f 28 27 29
f 30 29 31
f 32 31 33
f 34 33 39
f 36 13 16
f 36 16 14
f 36 22 13
f 36 14 15
f 36 15 20
f 36 20 17
f 36 17 18
f 36 18 19
f 36 19 56
f 36 56 57
f 36 57 58
f 36 23 21
f 36 21 22
f 36 25 23
f 36 27 25
f 36 29 27
f 36 31 29
f 36 33 31
f 40 39 41
f 42 41 43
f 44 43 45
f 46 45 47
f 48 47 49
f 50 49 51
f 52 51 53
f 53 59 54
f 36 60 61
f 36 62 60
f 36 63 62
f 36 64 65
f 36 65 66
f 36 61 64
f 36 66 67
f 36 67 68
f 36 68 69
f 36 69 70
f 36 70 71
f 36 71 72
f 36 73 33
f 36 72 74
f 36 74 75
f 36 75 76
f 36 76 77
f 1 78 10
f 10 78 79
f 79 78 80
f 80 78 81
f 81 78 82
f 82 78 83
f 83 78 84
f 84 78 85
f 85 78 86
f 86 78 87
f 87 78 88
f 88 78 89
f 89 78 90
f 90 78 91
f 91 78 92
f 92 78 37
f 1 55 78
f 10 79 56
f 79 80 57
f 80 81 58
f 81 82 93
f 82 83 94
f 83 84 95
f 84 85 96
f 85 86 97
f 86 87 98
f 87 88 99
f 88 89 100
f 89 90 101
f 90 91 102
f 91 92 103
f 37 38 104
f 92 37 105
f 37 78 35
f 78 106 107
f 78 108 106
f 78 109 108
f 78 110 109
f 78 111 110
f 78 112 111
f 78 113 112
f 78 114 113
f 78 115 114
f 78 116 115
f 78 117 116
f 78 118 117
f 78 119 118
f 78 120 119
f 78 121 120
f 122 123 124
f 122 125 126
f 54 59 127
f 127 128 123
f 129 130 131
f 126 132 133
f 129 133 134
f 38 131 135
f 10 56 19
f 79 57 56
f 80 58 57
f 81 93 58
f 82 94 93
f 83 95 94
f 84 96 95
f 85 97 96
f 86 98 97
f 87 99 98
f 88 100 99
f 89 101 100
f 90 102 101
f 91 103 102
f 92 105 103
f 37 104 105
f 36 58 55
f 58 93 55
f 93 94 55
f 94 95 55
f 95 96 55
f 96 97 55
f 97 98 55
f 98 99 55
f 99 100 55
f 100 101 55
f 101 102 55
f 102 103 55
f 55 104 135
f 103 105 55
f 105 104 55
f 122 124 125
f 126 125 132
f 127 59 128
f 123 128 124
f 131 130 135
f 133 132 134
f 129 134 130
f 38 135 104
f 33 73 39
f 78 55 73
f 55 135 73
f 34 40 35
f 40 42 35
f 42 44 35
f 44 46 35
f 46 48 35
f 48 50 35
f 50 52 35
f 52 54 35
f 54 127 35
f 127 123 35
f 122 35 123
f 122 126 35
f 126 133 35
f 129 35 133
f 129 131 35
f 38 35 131
f 78 136 35
f 35 136 137
f 35 137 138
f 35 138 139
f 35 139 140
f 35 140 141
f 35 141 142
f 35 142 143
f 35 143 144
f 35 144 145
f 35 145 146
f 35 146 147
f 35 147 148
f 35 148 149
f 35 149 150
f 35 150 151
f 35 151 152
f 35 152 153
f 35 153 154
f 35 155 156
f 36 35 156
f 36 156 157
f 36 158 159
f 36 159 63
f 36 160 158
f 36 161 160
f 36 162 161
f 36 157 162
f 36 77 163
f 156 164 157
f 156 165 164
f 156 166 165
f 156 167 166
f 156 168 167
f 156 169 168
f 156 170 169
f 156 171 170
f 156 172 171
f 156 173 172
f 78 107 136
f 78 155 121
f 78 73 155
f 155 174 121
f 155 175 174
f 155 176 175
f 155 177 176
f 155 178 177
f 155 179 178
f 155 180 179
f 155 181 182
f 155 182 180
f 35 154 155
f 155 154 183
f 155 183 184
f 155 185 181
f 155 184 186
f 155 186 185
f 39 73 41
f 41 73 43
f 43 73 45
f 45 73 47
f 36 163 73
f 47 73 49
f 49 73 51
f 51 73 53
f 53 73 59
f 59 73 128
f 128 73 124
f 132 73 134
f 125 124 73
f 125 73 132
f 130 73 135
f 130 134 73
f 156 155 73
f 73 163 187
f 73 187 188
f 73 188 189
f 73 189 190
f 73 190 191
f 73 192 193
f 73 191 192
f 156 73 173
f 73 194 173
f 73 195 194
f 73 196 195
f 73 197 196
f 73 198 197
f 73 193 199
f 73 200 198
f 73 199 200
f 62 107 106
f 61 108 109
f 64 109 110
f 60 106 108
f 67 112 113
f 68 113 114
f 65 110 111
f 66 111 112
f 159 137 136
f 63 136 107
f 158 138 137
f 138 160 139
f 139 161 140
f 162 141 140
f 157 142 141
f 164 143 142
f 165 144 143
f 166 145 144
f 167 146 145
f 168 147 146
f 169 148 147
f 170 149 148
f 171 150 149
f 150 172 151
f 62 63 107
f 61 60 108
f 64 61 109
f 60 62 106
f 67 66 112
f 68 67 113
f 65 64 110
f 66 65 111
f 63 159 136
f 159 158 137
f 158 160 138
f 160 161 139
f 161 162 140
f 162 157 141
f 157 164 142
f 164 165 143
f 165 166 144
f 166 167 145
f 167 168 146
f 168 169 147
f 169 170 148
f 170 171 149
f 171 172 150
f 172 173 151
f 69 114 115
f 70 115 116
f 71 116 117
f 72 117 118
f 74 118 119
f 75 119 120
f 76 120 121
f 77 121 174
f 163 174 175
f 187 175 176
f 188 176 177
f 189 177 178
f 190 178 179
f 191 179 180
f 193 182 181
f 192 180 182
f 196 183 154
f 151 173 152
f 194 153 152
f 195 154 153
f 200 185 186
f 197 184 183
f 198 186 184
f 199 181 185
f 69 68 114
f 70 69 115
f 71 70 116
f 72 71 117
f 74 72 118
f 75 74 119
f 76 75 120
f 77 76 121
f 163 77 174
f 187 163 175
f 188 187 176
f 189 188 177
f 190 189 178
f 191 190 179
f 192 191 180
f 193 192 182
f 195 196 154
f 196 197 183
f 173 194 152
f 194 195 153
f 200 199 185
f 197 198 184
f 198 200 186
f 199 193 181

