# https://github.com/mikedh/trimesh
v 14.12250042 -0.00000005 0.00000000
v 14.12250042 9.91412544 0.00000000
v 15.06968975 9.44702339 0.00000000
v 16.12253952 9.08963013 0.00000000
v 17.21302795 8.87271881 0.00000000
v 18.32250023 8.80000019 0.00000000
v -0.00000005 -0.00000005 0.00000000
v 6.15999985 -0.00000005 0.00000000
v 6.15999985 -0.00000005 2.50000000
v 14.12250042 -0.00000005 2.50000000
v 14.12250042 9.91412544 2.50000000
v 15.06968975 9.44702339 2.50000000
v 16.12253952 9.08963013 2.50000000
v 17.21302795 8.87271881 2.50000000
v 18.32250023 8.80000019 2.50000000
v 19.43197250 8.87271881 0.00000000
v 19.43197250 8.87271881 2.50000000
v 20.52246284 9.08963013 0.00000000
v 20.52246284 9.08963013 2.50000000
v 21.57530975 9.44702339 0.00000000
v 6.15999985 58.20000076 0.00000000
v 14.12250042 24.68587494 0.00000000
v 15.06968975 25.15297699 0.00000000
v 15.06968975 25.15297699 2.50000000
v 16.12253952 25.51037025 0.00000000
v 16.12253952 25.51037025 2.50000000
v 17.21302795 25.72728157 0.00000000
v 17.21302795 25.72728157 2.50000000
v 18.32250023 25.80000114 0.00000000
v 18.32250023 25.80000114 2.50000000
v 19.43197250 25.72728157 0.00000000
v 19.43197250 25.72728157 2.50000000
v 20.52246284 25.51037025 0.00000000
v 20.52246284 25.51037025 2.50000000
v 21.57530975 25.15297699 0.00000000
v 21.57530975 25.15297699 2.50000000
v 43.31177139 2.25111127 0.00000000
v 42.95000076 2.40096211 0.00000000
v 42.63933945 2.63933969 0.00000000
v 22.57250023 9.93878365 0.00000000
v 42.40096283 2.95000005 0.00000000
v 23.49697304 10.55649662 0.00000000
v 42.31418228 3.12597489 0.00000000
v 24.33290863 11.28959179 0.00000000
v 42.21283340 3.50421071 0.00000000
v 25.06600380 12.12552738 0.00000000
v 42.21283340 3.89578938 0.00000000
v 25.68371582 13.05000019 0.00000000
v 42.31418228 4.27402496 0.00000000
v 26.17547607 14.04719067 0.00000000
v 42.50997162 4.61314201 0.00000000
v 26.53286934 15.10003757 0.00000000
v 43.12597656 5.08581924 0.00000000
v 26.74978256 16.19052887 0.00000000
v 43.70000076 5.19999981 0.00000000
v 26.82250023 17.30000114 0.00000000
v 43.50421143 2.21283269 0.00000000
v 51.95999908 -0.00000005 0.00000000
v 43.12597656 2.31418061 0.00000000
v 42.78685760 2.50996995 0.00000000
v 42.50997162 2.78685784 0.00000000
v 42.25111389 3.31177163 0.00000000
v 42.20000076 3.70000005 0.00000000
v 42.25111389 4.08822823 0.00000000
v 42.40096283 4.44999981 0.00000000
v 42.63933945 4.76066017 0.00000000
v 42.78685760 4.89002991 0.00000000
v 42.95000076 4.99903774 0.00000000
v 43.31177139 5.14888859 0.00000000
v 43.50421143 5.18716717 0.00000000
v 44.45000076 4.99903774 0.00000000
v 26.74978256 18.40947342 0.00000000
v 26.53286934 19.49996185 0.00000000
v 43.89579010 5.18716717 0.00000000
v 44.08823013 5.14888859 0.00000000
v 44.27402496 5.08581924 0.00000000
v 21.57530975 9.44702339 2.50000000
v 22.57250023 9.93878365 2.50000000
v 23.49697304 10.55649662 2.50000000
v 24.33290863 11.28959179 2.50000000
v 25.06600380 12.12552738 2.50000000
v 25.68371582 13.05000019 2.50000000
v 26.17547607 14.04719067 2.50000000
v 26.53286934 15.10003757 2.50000000
v 26.74978256 16.19052887 2.50000000
v 51.95999908 -0.00000005 2.50000000
v 51.95999908 58.20000076 0.00000000
v 24.33290863 23.31040764 0.00000000
v 25.06600380 22.47447205 0.00000000
v 25.68371582 21.55000114 0.00000000
v 26.17547607 20.55281067 0.00000000
v 26.82250023 17.30000114 2.50000000
v 26.74978256 18.40947342 2.50000000
v 26.53286934 19.49996185 2.50000000
v 26.17547607 20.55281067 2.50000000
v 24.33290863 23.31040764 2.50000000
v 23.49697304 24.04350471 0.00000000
v 22.57250023 24.66121674 0.00000000
v 22.57250023 24.66121674 2.50000000
v 23.49697304 24.04350471 2.50000000
v 25.06600380 22.47447205 2.50000000
v 25.68371582 21.55000114 2.50000000
v -0.00000005 -0.00000005 2.50000000
v -0.00000005 69.39999390 2.50000000
v 6.15999985 58.20000076 2.50000000
v 14.12250042 24.68587494 2.50000000
v 42.20000076 3.70000005 2.50000000
v 42.25111389 4.08822823 2.50000000
v 42.40096283 4.44999981 2.50000000
v 42.63933945 4.76066017 2.50000000
v 43.12597656 5.08581924 2.50000000
v 43.70000076 5.19999981 2.50000000
v 43.89579010 5.18716717 2.50000000
v 43.12597656 2.31418061 2.50000000
v 42.95000076 2.40096211 2.50000000
v 42.63933945 2.63933969 2.50000000
v 42.50997162 2.78685784 2.50000000
v 42.31418228 3.12597489 2.50000000
v 42.25111389 3.31177163 2.50000000
v 42.40096283 2.95000005 2.50000000
v 42.78685760 2.50996995 2.50000000
v 43.31177139 2.25111127 2.50000000
v 43.50421143 2.21283269 2.50000000
v 43.70000076 2.20000005 2.50000000
v 43.89579010 2.21283269 2.50000000
v 42.21283340 3.50421071 2.50000000
v 42.21283340 3.89578938 2.50000000
v 42.31418228 4.27402496 2.50000000
v 42.50997162 4.61314201 2.50000000
v 42.78685760 4.89002991 2.50000000
v 42.95000076 4.99903774 2.50000000
v 43.31177139 5.14888859 2.50000000
v 43.50421143 5.18716717 2.50000000
v 44.45000076 4.99903774 2.50000000
v 44.08823013 5.14888859 2.50000000
v 44.27402496 5.08581924 2.50000000
v 51.95999908 58.20000076 2.50000000
v -0.00000005 69.39999390 0.00000000
v 14.12250042 58.20000076 0.00000000
v 2.90096211 64.44999695 0.00000000
v 3.00996995 64.28685760 0.00000000
v 3.28685784 64.00996399 0.00000000
v 3.45000005 63.90095901 0.00000000
v 3.62597489 63.81418228 0.00000000
v 3.13933969 64.13933563 0.00000000
v 3.81177163 63.75111008 0.00000000
v 4.00421047 63.71283340 0.00000000
v 4.19999981 63.70000076 0.00000000
v 4.39578915 63.71283340 0.00000000
v 4.58822823 63.75111008 0.00000000
v 4.77402496 63.81418228 0.00000000
v 4.94999981 63.90095901 0.00000000
v 5.11314201 64.00996399 0.00000000
v 2.81418061 64.62596893 0.00000000
v 2.75111127 64.81176758 0.00000000
v 2.71283269 65.00421143 0.00000000
v 2.70000005 65.19999695 0.00000000
v 2.71283269 65.39578247 0.00000000
v 2.75111127 65.58822632 0.00000000
v 2.81418061 65.77402496 0.00000000
v 2.90096211 65.94999695 0.00000000
v 3.00996995 66.11313629 0.00000000
v 3.13933969 66.26065826 0.00000000
v 3.28685784 66.39002991 0.00000000
v 3.45000005 66.49903870 0.00000000
v 3.62597489 66.58581543 0.00000000
v 3.81177163 66.64888763 0.00000000
v 4.00421047 66.68716431 0.00000000
v 4.19999981 66.69999695 0.00000000
v 5.26066017 64.13933563 0.00000000
v 5.39002991 64.28685760 0.00000000
v 5.49903774 64.44999695 0.00000000
v 5.58581924 64.62596893 0.00000000
v 2.71283269 65.00421143 2.50000000
v 3.28685784 64.00996399 2.50000000
v 3.45000005 63.90095901 2.50000000
v 3.62597489 63.81418228 2.50000000
v 3.81177163 63.75111008 2.50000000
v 4.00421047 63.71283340 2.50000000
v 3.00996995 64.28685760 2.50000000
v 2.90096211 64.44999695 2.50000000
v 3.13933969 64.13933563 2.50000000
v 2.81418061 64.62596893 2.50000000
v 2.75111127 64.81176758 2.50000000
v 4.19999981 63.70000076 2.50000000
v 4.39578915 63.71283340 2.50000000
v 4.58822823 63.75111008 2.50000000
v 4.77402496 63.81418228 2.50000000
v 4.94999981 63.90095901 2.50000000
v 5.11314201 64.00996399 2.50000000
v 5.26066017 64.13933563 2.50000000
v 5.39002991 64.28685760 2.50000000
v 2.70000005 65.19999695 2.50000000
v 2.71283269 65.39578247 2.50000000
v 2.75111127 65.58822632 2.50000000
v 2.81418061 65.77402496 2.50000000
v 2.90096211 65.94999695 2.50000000
v 3.00996995 66.11313629 2.50000000
v 3.13933969 66.26065826 2.50000000
v 3.28685784 66.39002991 2.50000000
v 3.45000005 66.49903870 2.50000000
v 3.62597489 66.58581543 2.50000000
v 3.81177163 66.64888763 2.50000000
v 4.00421047 66.68716431 2.50000000
v 4.39578915 66.68716431 0.00000000
v 4.58822823 66.64888763 0.00000000
v 4.58822823 66.64888763 2.50000000
v 4.77402496 66.58581543 0.00000000
v 4.77402496 66.58581543 2.50000000
v 4.19999981 66.69999695 2.50000000
v 4.39578915 66.68716431 2.50000000
v 4.94999981 66.49903870 0.00000000
v 4.94999981 66.49903870 2.50000000
v 5.11314201 66.39002991 0.00000000
v 5.11314201 66.39002991 2.50000000
v 5.26066017 66.26065826 0.00000000
v 5.26066017 66.26065826 2.50000000
v 5.39002991 66.11313629 0.00000000
v 5.39002991 66.11313629 2.50000000
v 5.49903774 64.44999695 2.50000000
v 5.58581924 64.62596893 2.50000000
v 5.64888859 64.81176758 0.00000000
v 5.64888859 64.81176758 2.50000000
v 5.68716717 65.00421143 0.00000000
v 5.68716717 65.00421143 2.50000000
v 5.69999981 65.19999695 0.00000000
v 5.69999981 65.19999695 2.50000000
v 5.68716717 65.39578247 0.00000000
v 5.68716717 65.39578247 2.50000000
v 5.64888859 65.58822632 0.00000000
v 5.64888859 65.58822632 2.50000000
v 5.58581924 65.77402496 0.00000000
v 5.58581924 65.77402496 2.50000000
v 5.49903774 65.94999695 0.00000000
v 5.49903774 65.94999695 2.50000000
v 14.12250042 58.20000076 2.50000000
v 87.39999390 69.39999390 0.00000000
v 87.39999390 69.39999390 2.50000000
v 43.70000076 2.20000005 0.00000000
v 43.89579010 2.21283269 0.00000000
v 44.08823013 2.25111127 0.00000000
v 44.27402496 2.31418061 0.00000000
v 44.45000076 2.40096211 0.00000000
v 44.61314392 2.50996995 0.00000000
v 44.76066208 2.63933969 0.00000000
v 44.89002991 2.78685784 0.00000000
v 44.99903870 2.95000005 0.00000000
v 45.08581924 3.12597489 0.00000000
v 45.14888763 3.31177163 0.00000000
v 44.76066208 4.76066017 0.00000000
v 44.61314392 4.89002991 0.00000000
v 45.18716812 3.50421071 0.00000000
v 45.20000076 3.70000005 0.00000000
v 45.18716812 3.89578938 0.00000000
v 45.14888763 4.08822823 0.00000000
v 45.08581924 4.27402496 0.00000000
v 44.99903870 4.44999981 0.00000000
v 44.89002991 4.61314201 0.00000000
v 59.92250061 -0.00000005 0.00000000
v 59.92250061 9.91412640 0.00000000
v 60.86968994 9.44702339 0.00000000
v 61.92254257 9.08963013 0.00000000
v 63.01302719 8.87271881 0.00000000
v 64.12249756 8.80000019 0.00000000
v 65.23197174 8.87271881 0.00000000
v 59.92250061 -0.00000005 2.50000000
v 59.92250061 9.91412640 2.50000000
v 60.86968994 9.44702339 2.50000000
v 61.92254257 9.08963013 2.50000000
v 63.01302719 8.87271881 2.50000000
v 64.12249756 8.80000019 2.50000000
v 59.92250061 24.68587303 0.00000000
v 60.86968994 25.15297699 0.00000000
v 60.86968994 25.15297699 2.50000000
v 61.92254257 25.51037025 0.00000000
v 61.92254257 25.51037025 2.50000000
v 63.01302719 25.72728157 0.00000000
v 63.01302719 25.72728157 2.50000000
v 64.12249756 25.80000114 0.00000000
v 64.12249756 25.80000114 2.50000000
v 65.23197174 25.72728157 0.00000000
v 65.23197174 25.72728157 2.50000000
v 87.39999390 -0.00000005 0.00000000
v 66.32245636 9.08963013 0.00000000
v 67.37530518 9.44702339 0.00000000
v 68.37249756 9.93878365 0.00000000
v 69.29696655 10.55649662 0.00000000
v 70.13290405 11.28959179 0.00000000
v 70.86599731 12.12552738 0.00000000
v 71.48371124 13.05000019 0.00000000
v 71.97547150 14.04719067 0.00000000
v 72.33286285 15.10003757 0.00000000
v 72.54978180 16.19052887 0.00000000
v 72.62249756 17.30000114 0.00000000
v 72.54978180 18.40947342 0.00000000
v 72.33286285 19.49996185 0.00000000
v 65.23197174 8.87271881 2.50000000
v 66.32245636 9.08963013 2.50000000
v 67.37530518 9.44702339 2.50000000
v 68.37249756 9.93878365 2.50000000
v 69.29696655 10.55649662 2.50000000
v 70.13290405 11.28959179 2.50000000
v 70.86599731 12.12552738 2.50000000
v 71.48371124 13.05000019 2.50000000
v 71.97547150 14.04719067 2.50000000
v 72.33286285 15.10003757 2.50000000
v 72.54978180 16.19052887 2.50000000
v 87.39999390 -0.00000005 2.50000000
v 59.92250061 58.20000076 0.00000000
v 71.97547150 20.55281067 0.00000000
v 71.48371124 21.55000114 0.00000000
v 70.86599731 22.47447205 0.00000000
v 70.13290405 23.31040764 0.00000000
v 66.32245636 25.51037025 0.00000000
v 66.32245636 25.51037025 2.50000000
v 67.37530518 25.15297699 0.00000000
v 68.37249756 24.66121674 0.00000000
v 68.37249756 24.66121674 2.50000000
v 67.37530518 25.15297699 2.50000000
v 70.86599731 22.47447205 2.50000000
v 70.13290405 23.31040764 2.50000000
v 69.29696655 24.04350471 0.00000000
v 69.29696655 24.04350471 2.50000000
v 72.62249756 17.30000114 2.50000000
v 72.54978180 18.40947342 2.50000000
v 72.33286285 19.49996185 2.50000000
v 71.97547150 20.55281067 2.50000000
v 71.48371124 21.55000114 2.50000000
v 44.08823013 2.25111127 2.50000000
v 44.27402496 2.31418061 2.50000000
v 44.45000076 2.40096211 2.50000000
v 44.61314392 2.50996995 2.50000000
v 44.76066208 2.63933969 2.50000000
v 44.89002991 2.78685784 2.50000000
v 44.99903870 2.95000005 2.50000000
v 45.08581924 3.12597489 2.50000000
v 45.14888763 3.31177163 2.50000000
v 44.61314392 4.89002991 2.50000000
v 44.76066208 4.76066017 2.50000000
v 45.18716812 3.50421071 2.50000000
v 45.20000076 3.70000005 2.50000000
v 45.18716812 3.89578938 2.50000000
v 45.14888763 4.08822823 2.50000000
v 45.08581924 4.27402496 2.50000000
v 44.99903870 4.44999981 2.50000000
v 44.89002991 4.61314201 2.50000000
v 59.92250061 24.68587303 2.50000000
v 59.92250061 58.20000076 2.50000000
v 81.81417847 64.62596893 0.00000000
v 82.00996399 64.28685760 0.00000000
v 82.13933563 64.13933563 0.00000000
v 82.28685760 64.00996399 0.00000000
v 81.90095520 64.44999695 0.00000000
v 82.62596893 63.81418228 0.00000000
v 82.81176758 63.75111008 0.00000000
v 82.44999695 63.90095901 0.00000000
v 83.00421143 63.71283340 0.00000000
v 83.19999695 63.70000076 0.00000000
v 83.39578247 63.71283340 0.00000000
v 83.58822632 63.75111008 0.00000000
v 83.77402496 63.81418228 0.00000000
v 83.94999695 63.90095901 0.00000000
v 84.11313629 64.00996399 0.00000000
v 84.26065826 64.13933563 0.00000000
v 84.39002991 64.28685760 0.00000000
v 84.49903870 64.44999695 0.00000000
v 81.75110626 64.81176758 0.00000000
v 81.71282959 65.00421143 0.00000000
v 81.69999695 65.19999695 0.00000000
v 81.71282959 65.39578247 0.00000000
v 81.75110626 65.58822632 0.00000000
v 81.81417847 65.77402496 0.00000000
v 81.90095520 65.94999695 0.00000000
v 82.00996399 66.11313629 0.00000000
v 82.13933563 66.26065826 0.00000000
v 82.28685760 66.39002991 0.00000000
v 82.44999695 66.49903870 0.00000000
v 82.62596893 66.58581543 0.00000000
v 82.81176758 66.64888763 0.00000000
v 83.00421143 66.68716431 0.00000000
v 83.19999695 66.69999695 0.00000000
v 83.39578247 66.68716431 0.00000000
v 84.58581543 64.62596893 0.00000000
v 84.64888763 64.81176758 0.00000000
v 84.68716431 65.00421143 0.00000000
v 84.69999695 65.19999695 0.00000000
v 84.68716431 65.39578247 0.00000000
v 84.64888763 65.58822632 0.00000000
v 84.58581543 65.77402496 0.00000000
v 84.49903870 65.94999695 0.00000000
v 84.39002991 66.11313629 0.00000000
v 83.58822632 66.64888763 0.00000000
v 83.77402496 66.58581543 0.00000000
v 83.94999695 66.49903870 0.00000000
v 84.11313629 66.39002991 0.00000000
v 84.26065826 66.26065826 0.00000000
v 81.90095520 64.44999695 2.50000000
v 81.81417847 64.62596893 2.50000000
v 81.75110626 64.81176758 2.50000000
v 81.71282959 65.00421143 2.50000000
v 81.69999695 65.19999695 2.50000000
v 81.71282959 65.39578247 2.50000000
v 81.75110626 65.58822632 2.50000000
v 81.81417847 65.77402496 2.50000000
v 81.90095520 65.94999695 2.50000000
v 82.28685760 64.00996399 2.50000000
v 82.44999695 63.90095901 2.50000000
v 82.62596893 63.81418228 2.50000000
v 82.81176758 63.75111008 2.50000000
v 83.19999695 63.70000076 2.50000000
v 83.00421143 63.71283340 2.50000000
v 82.00996399 64.28685760 2.50000000
v 82.13933563 64.13933563 2.50000000
v 83.39578247 63.71283340 2.50000000
v 83.58822632 63.75111008 2.50000000
v 83.77402496 63.81418228 2.50000000
v 83.94999695 63.90095901 2.50000000
v 84.11313629 64.00996399 2.50000000
v 84.26065826 64.13933563 2.50000000
v 84.39002991 64.28685760 2.50000000
v 84.49903870 64.44999695 2.50000000
v 84.58581543 64.62596893 2.50000000
v 84.64888763 64.81176758 2.50000000
v 82.00996399 66.11313629 2.50000000
v 82.13933563 66.26065826 2.50000000
v 82.28685760 66.39002991 2.50000000
v 82.44999695 66.49903870 2.50000000
v 82.62596893 66.58581543 2.50000000
v 82.81176758 66.64888763 2.50000000
v 83.00421143 66.68716431 2.50000000
v 83.19999695 66.69999695 2.50000000
v 84.64888763 65.58822632 2.50000000
v 84.58581543 65.77402496 2.50000000
v 84.49903870 65.94999695 2.50000000
v 83.58822632 66.64888763 2.50000000
v 83.77402496 66.58581543 2.50000000
v 83.94999695 66.49903870 2.50000000
v 83.39578247 66.68716431 2.50000000
v 84.26065826 66.26065826 2.50000000
v 84.11313629 66.39002991 2.50000000
v 84.39002991 66.11313629 2.50000000
v 84.68716431 65.00421143 2.50000000
v 84.69999695 65.19999695 2.50000000
v 84.68716431 65.39578247 2.50000000
f 1 2 3
f 1 3 4
f 1 4 5
f 1 5 6
f 7 8 9
f 1 10 2
f 2 11 3
f 3 12 4
f 4 13 5
f 5 14 6
f 6 15 16
f 16 17 18
f 18 19 20
f 7 21 8
f 22 23 24
f 23 25 26
f 25 27 28
f 27 29 30
f 29 31 32
f 31 33 34
f 33 35 36
f 1 6 37
f 6 16 37
f 16 18 38
f 18 20 39
f 20 40 41
f 40 42 43
f 42 44 45
f 44 46 47
f 46 48 49
f 48 50 51
f 50 52 53
f 52 54 55
f 54 56 55
f 1 37 57
f 1 57 58
f 16 38 59
f 16 59 37
f 18 39 60
f 18 60 38
f 20 41 61
f 20 61 39
f 40 43 41
f 42 62 43
f 42 45 62
f 44 63 45
f 44 47 63
f 46 64 47
f 46 49 64
f 48 65 49
f 48 51 65
f 50 66 51
f 50 67 66
f 50 68 67
f 50 53 68
f 52 69 53
f 52 70 69
f 52 55 70
f 56 58 71
f 56 72 58
f 72 73 58
f 56 74 55
f 56 75 74
f 56 76 75
f 56 71 76
f 20 77 40
f 40 78 42
f 42 79 44
f 44 80 46
f 46 81 48
f 48 82 50
f 50 83 52
f 52 84 54
f 54 85 56
f 1 58 86
f 73 87 58
f 88 87 89
f 90 87 91
f 73 91 87
f 90 89 87
f 56 92 72
f 72 93 73
f 73 94 91
f 90 91 95
f 88 96 97
f 35 98 99
f 98 97 100
f 88 89 101
f 90 102 89
f 7 9 103
f 2 10 11
f 3 11 12
f 4 12 13
f 5 13 14
f 6 14 15
f 16 15 17
f 18 17 19
f 20 19 77
f 10 12 11
f 10 13 12
f 10 14 13
f 10 15 14
f 10 17 15
f 10 19 17
f 10 77 19
f 10 78 77
f 10 79 78
f 10 80 79
f 7 103 104
f 8 105 9
f 22 24 106
f 23 26 24
f 25 28 26
f 27 30 28
f 29 32 30
f 31 34 32
f 33 36 34
f 103 9 105
f 1 86 10
f 40 77 78
f 42 78 79
f 44 79 80
f 46 80 81
f 48 81 82
f 50 82 83
f 52 83 84
f 54 84 85
f 56 85 92
f 10 107 80
f 80 108 81
f 81 109 82
f 82 110 83
f 83 111 84
f 84 112 85
f 85 113 92
f 10 114 115
f 10 116 117
f 10 118 119
f 10 117 120
f 10 120 118
f 10 121 116
f 10 115 121
f 10 122 114
f 10 123 122
f 10 124 123
f 10 125 124
f 10 119 126
f 10 126 107
f 10 86 125
f 80 107 127
f 80 127 108
f 81 108 128
f 81 128 109
f 82 109 129
f 82 129 110
f 83 110 130
f 83 130 131
f 83 131 111
f 84 111 132
f 84 132 133
f 84 133 112
f 92 134 86
f 92 86 93
f 93 86 94
f 85 112 113
f 94 86 95
f 92 113 135
f 92 135 136
f 92 136 134
f 72 92 93
f 73 93 94
f 90 95 102
f 91 94 95
f 97 96 100
f 88 101 96
f 98 100 99
f 35 99 36
f 89 102 101
f 96 101 137
f 102 95 137
f 102 137 101
f 95 86 137
f 7 138 21
f 22 139 23
f 23 139 25
f 25 139 27
f 27 139 29
f 29 139 31
f 31 139 33
f 33 139 35
f 8 21 105
f 7 104 138
f 22 106 139
f 21 140 141
f 21 142 143
f 21 143 144
f 21 141 145
f 21 145 142
f 21 144 146
f 21 146 147
f 21 147 148
f 21 148 149
f 21 149 150
f 21 150 151
f 21 151 152
f 21 152 153
f 21 138 140
f 154 138 155
f 156 155 138
f 140 138 154
f 156 138 157
f 157 138 158
f 158 138 159
f 138 160 159
f 138 161 160
f 138 162 161
f 138 163 162
f 138 164 163
f 138 165 164
f 138 166 165
f 138 167 166
f 138 168 167
f 138 169 168
f 21 153 170
f 21 170 171
f 21 171 172
f 21 172 173
f 156 174 155
f 143 142 175
f 143 176 144
f 144 177 146
f 146 178 147
f 147 179 148
f 141 180 145
f 140 181 141
f 145 182 142
f 140 154 183
f 154 155 184
f 148 185 149
f 149 186 150
f 150 187 151
f 151 188 152
f 152 189 153
f 153 190 170
f 170 191 171
f 171 192 172
f 156 157 193
f 157 158 194
f 158 159 195
f 159 160 196
f 160 161 197
f 161 162 198
f 162 163 199
f 163 164 200
f 164 165 201
f 165 166 202
f 166 167 203
f 167 168 204
f 205 206 207
f 206 208 209
f 168 169 210
f 205 211 169
f 208 212 213
f 214 215 212
f 214 216 217
f 218 219 216
f 172 220 173
f 173 221 222
f 222 223 224
f 224 225 226
f 226 227 228
f 228 229 230
f 230 231 232
f 232 233 234
f 218 234 235
f 21 139 236
f 98 87 97
f 35 87 98
f 35 139 87
f 88 97 87
f 218 237 234
f 138 237 169
f 205 169 237
f 208 237 212
f 205 237 206
f 206 237 208
f 214 237 216
f 214 212 237
f 218 216 237
f 21 173 237
f 21 237 139
f 173 222 237
f 222 224 237
f 224 226 237
f 226 228 237
f 228 230 237
f 230 232 237
f 232 234 237
f 106 236 139
f 103 105 104
f 106 24 236
f 24 26 236
f 26 28 236
f 28 30 236
f 21 236 105
f 143 175 176
f 144 176 177
f 146 177 178
f 147 178 179
f 140 183 181
f 141 181 180
f 142 182 175
f 145 180 182
f 154 184 183
f 155 174 184
f 148 179 185
f 149 185 186
f 150 186 187
f 151 187 188
f 152 188 189
f 153 189 190
f 170 190 191
f 171 191 192
f 156 193 174
f 157 194 193
f 158 195 194
f 159 196 195
f 160 197 196
f 161 198 197
f 162 199 198
f 163 200 199
f 164 201 200
f 165 202 201
f 166 203 202
f 167 204 203
f 168 210 204
f 218 235 219
f 205 207 211
f 206 209 207
f 169 211 210
f 208 213 209
f 212 215 213
f 214 217 215
f 216 219 217
f 172 192 220
f 173 220 221
f 222 221 223
f 224 223 225
f 226 225 227
f 228 227 229
f 230 229 231
f 232 231 233
f 234 233 235
f 105 236 192
f 105 180 181
f 105 176 175
f 105 177 176
f 105 182 180
f 105 175 182
f 105 178 177
f 105 179 178
f 105 185 179
f 105 186 185
f 105 187 186
f 105 188 187
f 105 189 188
f 105 190 189
f 105 181 104
f 183 184 104
f 174 104 184
f 181 183 104
f 174 193 104
f 193 194 104
f 194 195 104
f 104 195 196
f 104 196 197
f 104 197 198
f 104 198 199
f 104 199 200
f 104 200 201
f 104 201 202
f 104 202 203
f 104 203 204
f 104 204 210
f 105 191 190
f 105 192 191
f 192 236 220
f 220 236 221
f 221 236 223
f 223 236 225
f 225 236 227
f 30 32 137
f 32 34 137
f 34 36 137
f 99 100 137
f 36 99 137
f 30 137 236
f 96 137 100
f 138 104 238
f 219 235 238
f 104 210 238
f 211 238 210
f 209 213 238
f 211 207 238
f 207 209 238
f 215 217 238
f 215 238 213
f 219 238 217
f 227 236 238
f 227 238 229
f 229 238 231
f 231 238 233
f 233 238 235
f 58 57 239
f 58 239 240
f 58 240 241
f 58 241 242
f 58 242 243
f 58 243 244
f 58 244 245
f 58 245 246
f 58 246 247
f 58 247 248
f 58 248 249
f 58 250 251
f 58 249 252
f 58 252 253
f 58 253 254
f 58 254 255
f 58 255 256
f 58 256 257
f 58 257 258
f 58 258 250
f 58 251 71
f 259 260 261
f 259 261 262
f 259 262 263
f 259 263 264
f 259 264 265
f 259 266 260
f 260 267 261
f 261 268 262
f 262 269 263
f 263 270 264
f 264 271 265
f 272 273 274
f 273 275 276
f 275 277 278
f 277 279 280
f 279 281 282
f 259 265 283
f 265 284 283
f 284 285 283
f 285 286 283
f 286 287 283
f 287 288 283
f 288 289 283
f 289 290 283
f 290 291 283
f 291 292 283
f 292 293 283
f 293 294 283
f 294 295 283
f 283 295 296
f 265 297 284
f 284 298 285
f 285 299 286
f 286 300 287
f 287 301 288
f 288 302 289
f 289 303 290
f 290 304 291
f 291 305 292
f 292 306 293
f 293 307 294
f 259 283 308
f 283 296 309
f 296 310 309
f 310 311 309
f 312 309 311
f 312 313 309
f 281 314 315
f 316 317 318
f 314 316 319
f 312 320 313
f 313 321 322
f 317 322 323
f 294 324 295
f 296 295 325
f 296 326 310
f 310 327 311
f 312 311 328
f 283 237 308
f 260 266 267
f 261 267 268
f 262 268 269
f 263 269 270
f 264 270 271
f 265 271 297
f 86 329 125
f 86 330 329
f 86 331 330
f 86 332 331
f 86 333 332
f 86 334 333
f 86 335 334
f 86 336 335
f 86 337 336
f 86 338 339
f 86 340 337
f 86 341 340
f 86 342 341
f 86 343 342
f 86 344 343
f 86 345 344
f 86 346 345
f 86 339 346
f 86 134 338
f 266 268 267
f 266 269 268
f 266 270 269
f 266 271 270
f 58 137 86
f 272 274 347
f 273 276 274
f 275 278 276
f 277 280 278
f 279 282 280
f 259 308 266
f 284 297 298
f 285 298 299
f 286 299 300
f 287 300 301
f 288 301 302
f 289 302 303
f 290 303 304
f 291 304 305
f 292 305 306
f 293 306 307
f 294 307 324
f 266 308 271
f 271 308 297
f 297 308 298
f 298 308 299
f 299 308 300
f 300 308 301
f 301 308 302
f 302 308 303
f 303 308 304
f 304 308 305
f 305 308 306
f 281 315 282
f 314 319 315
f 316 318 319
f 322 321 323
f 313 320 321
f 317 323 318
f 295 324 325
f 296 325 326
f 310 326 327
f 311 327 328
f 312 328 320
f 306 238 307
f 307 238 324
f 306 308 238
f 272 309 273
f 273 309 275
f 275 309 277
f 277 309 279
f 279 309 281
f 281 309 314
f 314 309 316
f 316 309 317
f 58 87 137
f 272 347 309
f 139 237 87
f 87 309 348
f 138 238 237
f 317 309 322
f 313 322 309
f 283 309 349
f 283 350 351
f 283 351 352
f 283 353 350
f 283 349 353
f 283 354 355
f 283 352 356
f 283 356 354
f 283 355 357
f 283 357 358
f 283 358 359
f 283 359 360
f 283 360 361
f 283 361 362
f 283 362 363
f 283 363 364
f 283 364 365
f 283 365 366
f 283 366 237
f 87 237 309
f 309 367 349
f 309 368 367
f 309 369 368
f 309 370 369
f 309 371 370
f 309 372 371
f 309 373 372
f 309 374 373
f 309 375 374
f 309 376 375
f 309 377 376
f 309 237 377
f 377 237 378
f 378 237 379
f 379 237 380
f 380 237 381
f 381 237 382
f 366 383 237
f 383 384 237
f 384 385 237
f 385 386 237
f 386 387 237
f 388 237 387
f 388 389 237
f 389 390 237
f 391 237 390
f 382 237 392
f 392 237 393
f 393 237 394
f 394 237 395
f 395 237 396
f 391 396 237
f 353 397 350
f 353 349 398
f 349 367 399
f 367 368 400
f 368 369 401
f 369 370 402
f 370 371 403
f 371 372 404
f 372 373 405
f 356 352 406
f 356 407 354
f 354 408 355
f 355 409 357
f 358 410 359
f 358 357 411
f 351 350 412
f 351 413 352
f 359 414 360
f 360 415 361
f 361 416 362
f 362 417 363
f 363 418 364
f 364 419 365
f 365 420 366
f 366 421 383
f 383 422 384
f 384 423 385
f 373 374 424
f 374 375 425
f 375 376 426
f 376 377 427
f 377 378 428
f 378 379 429
f 379 380 430
f 380 381 431
f 388 432 389
f 389 433 390
f 391 390 434
f 382 392 435
f 392 393 436
f 393 394 437
f 381 382 438
f 395 396 439
f 394 395 440
f 391 441 396
f 385 442 386
f 386 443 387
f 388 387 444
f 347 348 309
f 347 274 348
f 274 276 348
f 276 278 348
f 278 280 348
f 280 282 348
f 87 348 137
f 236 137 238
f 308 237 238
f 321 238 323
f 320 238 321
f 315 319 238
f 282 315 238
f 319 318 238
f 318 323 238
f 282 398 348
f 282 412 397
f 282 413 412
f 282 397 398
f 324 238 325
f 326 325 238
f 326 238 327
f 327 238 328
f 320 328 238
f 282 407 406
f 282 408 407
f 282 406 413
f 282 409 408
f 282 411 409
f 282 410 411
f 282 414 410
f 282 415 414
f 282 416 415
f 282 417 416
f 282 418 417
f 282 419 418
f 282 420 419
f 282 421 420
f 353 398 397
f 349 399 398
f 367 400 399
f 368 401 400
f 369 402 401
f 370 403 402
f 371 404 403
f 372 405 404
f 373 424 405
f 356 406 407
f 354 407 408
f 355 408 409
f 357 409 411
f 358 411 410
f 351 412 413
f 352 413 406
f 350 397 412
f 359 410 414
f 360 414 415
f 361 415 416
f 362 416 417
f 363 417 418
f 364 418 419
f 365 419 420
f 366 420 421
f 383 421 422
f 384 422 423
f 385 423 442
f 374 425 424
f 375 426 425
f 376 427 426
f 377 428 427
f 378 429 428
f 379 430 429
f 380 431 430
f 381 438 431
f 388 444 432
f 389 432 433
f 391 434 441
f 390 433 434
f 382 435 438
f 392 436 435
f 393 437 436
f 396 441 439
f 395 439 440
f 394 440 437
f 386 442 443
f 387 443 444
f 137 348 238
f 348 398 399
f 348 399 400
f 348 400 401
f 348 401 402
f 348 402 403
f 348 403 404
f 348 404 405
f 348 405 424
f 348 424 425
f 348 425 426
f 348 426 427
f 348 427 428
f 282 238 421
f 348 428 238
f 428 429 238
f 429 430 238
f 430 431 238
f 431 438 238
f 421 238 422
f 422 238 423
f 423 238 442
f 442 238 443
f 443 238 444
f 432 444 238
f 432 238 433
f 433 238 434
f 441 434 238
f 438 435 238
f 435 436 238
f 436 437 238
f 437 440 238
f 440 439 238
f 441 238 439
f 43 62 119
f 62 45 126
f 45 63 107
f 63 47 127
f 47 64 108
f 64 49 128
f 59 38 115
f 38 60 121
f 60 39 116
f 61 41 120
f 39 61 117
f 41 43 118
f 37 59 114
f 57 37 122
f 57 123 239
f 49 65 109
f 65 51 129
f 51 66 110
f 66 67 130
f 67 68 131
f 68 53 111
f 53 69 132
f 69 70 133
f 70 55 112
f 43 119 118
f 62 126 119
f 45 107 126
f 63 127 107
f 108 127 47
f 64 128 108
f 39 117 116
f 38 121 115
f 60 116 121
f 61 120 117
f 41 118 120
f 59 115 114
f 37 114 122
f 57 122 123
f 239 123 124
f 109 128 49
f 65 129 109
f 110 129 51
f 66 130 110
f 131 130 67
f 68 111 131
f 53 132 111
f 69 133 132
f 70 112 133
f 239 124 240
f 241 240 125
f 242 241 329
f 243 242 330
f 244 243 331
f 245 244 332
f 246 245 333
f 247 246 334
f 248 247 335
f 257 256 344
f 249 248 336
f 252 249 337
f 252 340 253
f 253 341 254
f 255 254 342
f 256 255 343
f 55 74 113
f 74 75 135
f 75 76 136
f 251 250 339
f 258 257 345
f 250 258 346
f 76 71 134
f 71 251 338
f 240 124 125
f 241 125 329
f 242 329 330
f 243 330 331
f 244 331 332
f 245 332 333
f 246 333 334
f 334 335 247
f 335 336 248
f 249 336 337
f 337 340 252
f 340 341 253
f 254 341 342
f 342 343 255
f 256 343 344
f 55 113 112
f 74 135 113
f 75 136 135
f 76 134 136
f 251 339 338
f 257 344 345
f 258 345 346
f 250 346 339
f 71 338 134

