# https://github.com/mikedh/trimesh
v 6.46000004 3.00000000 -11.19999981
v 9.46000004 3.00000000 -11.19999981
v 9.46000004 3.00000000 0.00000000
v 9.46000004 3.82765770 -11.19999981
v 9.46000004 3.82765770 0.00000000
v 9.46000004 6.09933281 -11.19999981
v 9.46000004 7.75464869 -11.19999981
v 9.46000004 7.75464869 0.00000000
v 6.46000004 3.00000000 0.00000000
v 9.46000004 6.09933281 0.00000000
v 9.46000004 10.02632332 -11.19999981
v 9.46000004 11.68163967 -11.19999981
v 9.46000004 11.68163967 0.00000000
v 9.46000004 10.02632332 0.00000000
v 9.46000004 13.95331478 -11.19999981
v 9.46000004 15.60863018 0.00000000
v 9.46000004 13.95331478 0.00000000
v 1.79999995 3.00000000 1.79999995
v 7.11782312 14.62154388 1.79999995
v 1.79999995 16.68971062 1.79999995
v 0.00000000 0.00000000 0.00000000
v 6.46000004 3.00000000 1.79999995
v 9.39993286 13.73400402 1.79999995
v 6.46000004 56.00000000 -11.19999981
v 9.46000004 15.60863018 -11.19999981
v 9.46000004 17.88030624 -11.19999981
v 9.46000004 19.53562164 -11.19999981
v 9.46000004 19.53562164 0.00000000
v 9.46000004 17.88030624 0.00000000
v 9.46000004 21.80729675 -11.19999981
v 9.46000004 23.46261215 -11.19999981
v 9.46000004 23.46261215 0.00000000
v 9.46000004 25.73428726 -11.19999981
v 9.46000004 27.38960266 -11.19999981
v 9.46000004 27.38960266 0.00000000
v 9.46000004 21.80729675 0.00000000
v 9.46000004 25.73428726 0.00000000
v 0.00000000 59.00000000 0.00000000
v 1.79999995 18.48971176 1.79999995
v 6.46000004 18.48971176 1.79999995
v 9.07506275 49.19944000 1.79999995
v 7.51552773 18.48971176 1.79999995
v 9.42853832 48.81071472 1.79999995
v 12.02250004 4.49036503 -11.19999981
v 12.02250004 5.43662548 -11.19999981
v 12.02250004 4.49036503 0.00000000
v 12.02250004 5.43662548 0.00000000
v 12.02250004 8.41735649 -11.19999981
v 12.02250004 9.36361694 -11.19999981
v 12.02250004 8.41735649 0.00000000
v 12.02250004 9.36361694 0.00000000
v 12.02250004 12.34434700 -11.19999981
v 12.02250004 13.29060745 -11.19999981
v 12.02250004 12.34434700 0.00000000
v 12.02250004 13.29060745 0.00000000
v 12.02250004 16.27133751 0.00000000
v 38.79999924 0.00000000 0.00000000
v 10.39999962 0.00000000 11.18340397
v 37.00000000 3.00000000 1.79999995
v 12.02250004 16.27133751 -11.19999981
v 12.02250004 17.21759796 -11.19999981
v 12.02250004 17.21759796 0.00000000
v 12.02250004 20.19832802 -11.19999981
v 12.02250004 21.14458847 -11.19999981
v 12.02250004 20.19832802 0.00000000
v 12.02250004 21.14458847 0.00000000
v 12.02250004 24.12531853 -11.19999981
v 12.02250004 25.07157898 -11.19999981
v 12.02250004 24.12531853 0.00000000
v 12.02250004 25.07157898 0.00000000
v 9.46000004 29.66127777 -11.19999981
v 12.02250004 28.05231094 -11.19999981
v 12.02250004 28.99856949 -11.19999981
v 9.46000004 29.66127777 0.00000000
v 12.02250004 28.05231094 0.00000000
v 12.02250004 28.99856949 0.00000000
v 37.00000000 16.68971062 1.79999995
v 37.00000000 18.48971176 1.79999995
v 1.79999995 3.00000000 18.00000000
v 10.39999962 0.00000000 18.00000000
v 0.00000000 0.00000000 18.00000000
v 1.79999995 16.68971062 18.00000000
v 10.39999962 0.00000000 16.79999924
v 10.39999962 3.00000000 11.18340397
v 10.39999962 3.00000000 18.00000000
v 1.79999995 18.48971176 18.00000000
v 0.00000000 57.20000076 18.00000000
v 28.39999962 3.00000000 11.18340397
v 28.39999962 0.40495875 11.08618164
v 10.39999962 0.40495875 11.08618164
v 10.39999962 1.50000000 11.00000000
v 28.39999962 1.50000000 11.00000000
v 10.39999962 2.59504128 11.08618164
v 10.39999962 0.07028689 16.79999924
v 37.00000000 16.68971062 18.00000000
v 9.46000004 31.31659317 -11.19999981
v 9.46000004 31.31659317 0.00000000
v 9.46000004 33.58826828 -11.19999981
v 9.46000004 35.24358368 -11.19999981
v 9.46000004 35.24358368 0.00000000
v 9.46000004 33.58826828 0.00000000
v 9.46000004 37.51525879 -11.19999981
v 9.46000004 39.17057419 -11.19999981
v 9.46000004 39.17057419 0.00000000
v 9.46000004 41.44224930 -11.19999981
v 9.46000004 43.09756470 -11.19999981
v 9.46000004 43.09756470 0.00000000
v 6.46000004 56.00000000 0.00000000
v 9.46000004 37.51525879 0.00000000
v 9.46000004 41.44224930 0.00000000
v 1.79999995 57.20000076 1.79999995
v 9.46000004 45.36923981 -11.19999981
v 9.46000004 47.02455521 -11.19999981
v 9.46000004 47.02455521 0.00000000
v 9.46000004 49.29623032 -11.19999981
v 9.46000004 50.95154572 -11.19999981
v 9.46000004 50.95154572 0.00000000
v 9.46000004 45.36923981 0.00000000
v 9.46000004 49.29623032 0.00000000
v 9.46000004 53.22322464 -11.19999981
v 9.46000004 56.00000000 -11.19999981
v 9.46000004 56.00000000 0.00000000
v 9.46000004 53.22322464 0.00000000
v 12.02250004 31.97930145 -11.19999981
v 12.02250004 32.92556000 -11.19999981
v 12.02250004 31.97930145 0.00000000
v 12.02250004 32.92556000 0.00000000
v 12.02250004 35.90629196 -11.19999981
v 12.02250004 36.85255051 -11.19999981
v 12.02250004 35.90629196 0.00000000
v 12.02250004 36.85255051 0.00000000
v 12.02250004 39.83328247 -11.19999981
v 12.02250004 39.83328247 0.00000000
v 12.02250004 40.77954102 -11.19999981
v 12.02250004 40.77954102 0.00000000
v 12.02250004 43.76027298 -11.19999981
v 12.02250004 43.76027298 0.00000000
v 12.02250004 44.70653534 0.00000000
v 12.02250004 44.70653534 -11.19999981
v 12.02250004 47.68726349 -11.19999981
v 12.02250004 47.68726349 0.00000000
v 12.02250004 48.63352585 -11.19999981
v 12.02250004 48.63352585 0.00000000
v 12.02250004 51.61425400 -11.19999981
v 12.02250004 51.61425400 0.00000000
v 12.02250004 52.56051636 -11.19999981
v 12.02250004 52.56051636 0.00000000
v 38.79999924 59.00000000 0.00000000
v 37.00000000 57.20000076 1.79999995
v 0.00000000 59.00000000 18.00000000
v 1.79999995 57.20000076 18.00000000
v 10.19999981 59.00000000 18.00000000
v 15.80000019 59.00000000 18.00000000
v 10.19999981 57.20000076 18.00000000
v 0.00000000 57.20000076 20.00000000
v 0.00000000 59.00000000 20.00000000
v 10.19999981 59.00000000 20.00000000
v 15.80000019 57.20000076 18.00000000
v 10.19999981 57.20000076 20.00000000
v 24.00000000 59.00000000 18.00000000
v 29.60000038 59.00000000 18.00000000
v 24.00000000 57.20000076 18.00000000
v 29.60000038 57.20000076 18.00000000
v 15.80000019 59.00000000 20.00000000
v 15.80000019 57.20000076 20.00000000
v 24.00000000 59.00000000 20.00000000
v 28.39999962 0.00000000 11.18340397
v 28.39999962 2.59504128 11.08618164
v 28.39999962 0.00000000 18.00000000
v 28.39999962 3.00000000 18.00000000
v 37.00000000 18.48971176 18.00000000
v 38.79999924 0.00000000 18.00000000
v 37.00000000 3.00000000 18.00000000
v 38.79999924 57.20000076 18.00000000
v 38.79999924 59.00000000 18.00000000
v 37.00000000 57.20000076 18.00000000
v 24.00000000 57.20000076 20.00000000
v 29.60000038 59.00000000 20.00000000
v 29.60000038 57.20000076 20.00000000
v 38.79999924 59.00000000 20.00000000
v 38.79999924 57.20000076 20.00000000
f 1 2 3
f 2 4 5
f 6 7 8
f 1 3 9
f 2 5 3
f 6 8 10
f 11 12 13
f 11 13 14
f 15 16 17
f 18 19 20
f 21 9 3
f 18 22 19
f 22 23 19
f 1 9 24
f 15 25 16
f 1 24 2
f 2 24 4
f 4 24 6
f 26 27 28
f 26 28 29
f 6 24 7
f 7 24 11
f 30 31 32
f 11 24 12
f 12 24 15
f 15 24 25
f 33 34 35
f 30 32 36
f 33 35 37
f 21 38 9
f 39 40 41
f 40 42 43
f 4 6 44
f 6 45 44
f 6 10 45
f 4 44 46
f 44 45 47
f 4 46 5
f 44 47 46
f 10 47 45
f 7 11 48
f 11 49 48
f 11 14 49
f 7 48 50
f 48 49 51
f 12 15 52
f 15 53 52
f 15 17 53
f 12 52 54
f 52 53 55
f 7 50 8
f 48 51 50
f 14 51 49
f 12 54 13
f 52 55 54
f 17 55 53
f 3 5 46
f 10 50 47
f 10 8 50
f 14 54 51
f 14 13 54
f 17 56 55
f 21 3 57
f 21 57 58
f 22 59 23
f 25 26 60
f 26 61 60
f 26 29 61
f 25 60 56
f 60 61 62
f 27 30 63
f 30 64 63
f 30 36 64
f 27 63 65
f 63 64 66
f 25 56 16
f 60 62 56
f 29 62 61
f 27 65 28
f 36 66 64
f 63 66 65
f 31 33 67
f 33 68 67
f 33 37 68
f 31 67 69
f 67 68 70
f 34 71 72
f 72 71 73
f 73 71 74
f 34 72 75
f 72 73 76
f 31 69 32
f 37 70 68
f 67 70 69
f 34 75 35
f 73 74 76
f 72 76 75
f 17 16 56
f 29 65 62
f 29 28 65
f 36 32 69
f 36 69 66
f 37 35 75
f 37 75 70
f 19 77 20
f 19 23 77
f 42 78 43
f 18 79 22
f 21 80 81
f 18 20 82
f 21 58 83
f 21 83 80
f 22 79 84
f 81 79 82
f 81 80 79
f 18 82 79
f 79 85 84
f 79 80 85
f 39 86 40
f 21 81 87
f 40 86 42
f 81 82 87
f 22 84 88
f 58 89 90
f 90 89 91
f 91 92 93
f 93 88 84
f 58 90 94
f 90 91 85
f 91 93 85
f 93 84 85
f 58 94 83
f 90 85 94
f 83 94 80
f 94 85 80
f 42 86 78
f 20 95 82
f 82 95 86
f 25 24 26
f 26 24 27
f 27 24 30
f 71 96 97
f 30 24 31
f 31 24 33
f 33 24 34
f 98 99 100
f 71 97 74
f 98 100 101
f 34 24 71
f 71 24 96
f 96 24 98
f 102 103 104
f 98 24 99
f 99 24 102
f 102 24 103
f 105 106 107
f 9 108 24
f 102 104 109
f 105 107 110
f 9 38 108
f 39 41 111
f 40 43 41
f 103 24 105
f 105 24 106
f 112 113 114
f 106 24 112
f 112 24 113
f 113 24 115
f 115 116 117
f 112 114 118
f 115 117 119
f 115 24 116
f 116 24 120
f 24 121 120
f 120 121 122
f 24 108 121
f 120 122 123
f 121 108 122
f 96 98 124
f 98 125 124
f 96 124 126
f 124 125 127
f 99 102 128
f 102 129 128
f 98 101 125
f 99 128 130
f 128 129 131
f 96 126 97
f 101 127 125
f 124 127 126
f 99 130 100
f 128 131 130
f 103 105 132
f 102 109 129
f 103 132 133
f 132 134 135
f 106 112 136
f 105 134 132
f 105 110 134
f 106 136 137
f 103 133 104
f 109 131 129
f 132 135 133
f 106 137 107
f 110 135 134
f 136 138 137
f 74 97 126
f 76 74 126
f 101 100 130
f 101 130 127
f 109 104 133
f 109 133 131
f 110 107 137
f 110 137 135
f 112 139 136
f 112 118 139
f 136 139 138
f 113 140 141
f 113 115 140
f 115 142 140
f 115 119 142
f 140 142 143
f 116 144 145
f 113 141 114
f 118 138 139
f 116 145 117
f 119 143 142
f 140 143 141
f 116 120 144
f 120 146 144
f 120 123 146
f 144 146 147
f 123 147 146
f 144 147 145
f 118 114 141
f 118 141 138
f 119 117 145
f 119 145 143
f 38 148 108
f 108 148 122
f 123 122 148
f 111 41 149
f 41 43 149
f 21 150 38
f 21 87 150
f 39 151 86
f 82 86 87
f 39 111 151
f 38 150 152
f 38 152 153
f 86 151 87
f 111 154 151
f 87 151 155
f 87 156 150
f 87 155 156
f 150 156 157
f 155 157 156
f 151 154 155
f 111 158 154
f 150 157 152
f 155 154 159
f 155 159 157
f 38 153 160
f 160 161 38
f 111 162 158
f 154 153 152
f 154 152 159
f 152 157 159
f 154 158 153
f 111 163 162
f 158 164 153
f 158 165 164
f 158 162 165
f 153 164 166
f 165 166 164
f 3 46 57
f 46 47 57
f 47 50 57
f 50 51 57
f 51 54 57
f 54 55 57
f 55 56 57
f 56 62 57
f 62 65 57
f 65 66 57
f 23 59 77
f 66 69 57
f 69 70 57
f 70 75 57
f 75 76 57
f 76 126 57
f 126 127 57
f 127 130 57
f 130 131 57
f 131 133 57
f 133 135 57
f 22 88 59
f 58 167 89
f 91 89 92
f 93 92 168
f 93 168 88
f 58 57 167
f 167 169 89
f 89 169 92
f 92 169 168
f 168 170 88
f 168 169 170
f 20 77 95
f 86 171 78
f 86 95 171
f 59 88 170
f 57 172 167
f 59 173 77
f 167 172 169
f 169 173 170
f 59 170 173
f 169 172 173
f 173 172 95
f 77 173 95
f 57 148 172
f 172 174 95
f 43 78 149
f 135 137 148
f 137 138 148
f 138 141 148
f 123 148 147
f 141 143 148
f 143 145 148
f 145 147 148
f 135 148 57
f 38 161 175
f 38 175 148
f 111 149 176
f 111 176 163
f 153 166 160
f 165 162 177
f 165 177 166
f 162 160 177
f 160 166 177
f 162 161 160
f 162 163 161
f 78 171 149
f 172 148 174
f 95 174 171
f 148 175 174
f 171 176 149
f 174 176 171
f 178 161 163
f 179 178 163
f 179 163 176
f 178 180 161
f 179 180 178
f 179 176 174
f 180 175 161
f 179 174 181
f 179 181 180
f 181 174 175
f 181 175 180

