# https://github.com/mikedh/trimesh
v 5.50000000 0.00000000 0.00000000
v 0.00000000 0.00000000 0.00000000
v 5.47351599 0.53909427 0.00000000
v 5.50000000 0.00000000 4.00000000
v 5.47351599 0.53909427 4.00000000
v 3.00000000 0.00000000 7.00000000
v 2.98555422 0.29405141 7.00000000
v 1.95000005 0.00000000 7.59999990
v 1.94061017 0.19113342 7.59999990
v 1.95000005 0.00000000 13.00000000
v 1.94061017 0.19113342 13.00000000
v 0.00000000 0.00000000 13.00000000
v 5.39431906 1.07299674 0.00000000
v 5.39431906 1.07299674 4.00000000
v 2.94235587 0.58527094 7.00000000
v 1.91253126 0.38042614 7.59999990
v 1.91253126 0.38042614 13.00000000
v 5.26317167 1.59656572 0.00000000
v 5.26317167 1.59656572 4.00000000
v 2.87082100 0.87085402 7.00000000
v 1.86603367 0.56605512 7.59999990
v 1.86603367 0.56605512 13.00000000
v 5.08133745 2.10475898 0.00000000
v 5.08133745 2.10475898 4.00000000
v 2.77163863 1.14805031 7.00000000
v 1.80156505 0.74623269 7.59999990
v 1.80156505 0.74623269 13.00000000
v 4.85056686 2.59268212 0.00000000
v 4.85056686 2.59268212 4.00000000
v 2.64576387 1.41419017 7.00000000
v 1.71974647 0.91922367 7.59999990
v 1.71974647 0.91922367 13.00000000
v 4.57308292 3.05563617 0.00000000
v 4.57308292 3.05563617 4.00000000
v 2.49440885 1.66671073 7.00000000
v 1.62136579 1.08336198 7.59999990
v 1.62136579 1.08336198 13.00000000
v 4.25155735 3.48916316 0.00000000
v 4.25155735 3.48916316 4.00000000
v 2.31903148 1.90317988 7.00000000
v 1.50737035 1.23706686 7.59999990
v 1.50737035 1.23706686 13.00000000
v 3.88908720 3.88908720 0.00000000
v 3.88908720 3.88908720 4.00000000
v 2.12132025 2.12132025 7.00000000
v 1.37885821 1.37885821 7.59999990
v 1.37885821 1.37885821 13.00000000
v 3.48916316 4.25155735 0.00000000
v 3.48916316 4.25155735 4.00000000
v 1.90317988 2.31903148 7.00000000
v 1.23706686 1.50737035 7.59999990
v 1.23706686 1.50737035 13.00000000
v 3.05563617 4.57308292 0.00000000
v 3.05563617 4.57308292 4.00000000
v 1.66671073 2.49440885 7.00000000
v 1.08336198 1.62136579 7.59999990
v 1.08336198 1.62136579 13.00000000
v 2.59268212 4.85056686 0.00000000
v 2.59268212 4.85056686 4.00000000
v 1.41419017 2.64576387 7.00000000
v 0.91922367 1.71974647 7.59999990
v 0.91922367 1.71974647 13.00000000
v 2.10475898 5.08133745 0.00000000
v 2.10475898 5.08133745 4.00000000
v 1.14805031 2.77163863 7.00000000
v 0.74623269 1.80156505 7.59999990
v 0.74623269 1.80156505 13.00000000
v 1.59656572 5.26317167 0.00000000
v 1.59656572 5.26317167 4.00000000
v 0.87085402 2.87082100 7.00000000
v 0.56605512 1.86603367 7.59999990
v 0.56605512 1.86603367 13.00000000
v 1.07299674 5.39431906 0.00000000
v 1.07299674 5.39431906 4.00000000
v 0.58527094 2.94235587 7.00000000
v 0.38042614 1.91253126 7.59999990
v 0.38042614 1.91253126 13.00000000
v 0.53909427 5.47351599 0.00000000
v 0.53909427 5.47351599 4.00000000
v 0.29405141 2.98555422 7.00000000
v 0.19113342 1.94061017 7.59999990
v 0.19113342 1.94061017 13.00000000
v 0.00000000 5.50000000 0.00000000
v 0.00000000 5.50000000 4.00000000
v 0.00000000 3.00000000 7.00000000
v 0.00000000 1.95000005 7.59999990
v 0.00000000 1.95000005 13.00000000
v -0.53909427 5.47351599 0.00000000
v -0.53909427 5.47351599 4.00000000
v -0.29405141 2.98555422 7.00000000
v -0.19113342 1.94061017 7.59999990
v -0.19113342 1.94061017 13.00000000
v -1.07299674 5.39431906 0.00000000
v -1.07299674 5.39431906 4.00000000
v -0.58527094 2.94235587 7.00000000
v -0.38042614 1.91253126 7.59999990
v -0.38042614 1.91253126 13.00000000
v -1.59656572 5.26317167 0.00000000
v -1.59656572 5.26317167 4.00000000
v -0.87085402 2.87082100 7.00000000
v -0.56605512 1.86603367 7.59999990
v -0.56605512 1.86603367 13.00000000
v -2.10475898 5.08133745 0.00000000
v -2.10475898 5.08133745 4.00000000
v -1.14805031 2.77163863 7.00000000
v -0.74623269 1.80156505 7.59999990
v -0.74623269 1.80156505 13.00000000
v -2.59268212 4.85056686 0.00000000
v -2.59268212 4.85056686 4.00000000
v -1.41419017 2.64576387 7.00000000
v -0.91922367 1.71974647 7.59999990
v -0.91922367 1.71974647 13.00000000
v -3.05563617 4.57308292 0.00000000
v -3.05563617 4.57308292 4.00000000
v -1.66671073 2.49440885 7.00000000
v -1.08336198 1.62136579 7.59999990
v -1.08336198 1.62136579 13.00000000
v -3.48916316 4.25155735 0.00000000
v -3.48916316 4.25155735 4.00000000
v -1.90317988 2.31903148 7.00000000
v -1.23706686 1.50737035 7.59999990
v -1.23706686 1.50737035 13.00000000
v -3.88908720 3.88908720 0.00000000
v -3.88908720 3.88908720 4.00000000
v -2.12132025 2.12132025 7.00000000
v -1.37885821 1.37885821 7.59999990
v -1.37885821 1.37885821 13.00000000
v -4.25155735 3.48916316 0.00000000
v -4.25155735 3.48916316 4.00000000
v -2.31903148 1.90317988 7.00000000
v -1.50737035 1.23706686 7.59999990
v -1.50737035 1.23706686 13.00000000
v -4.57308292 3.05563617 0.00000000
v -4.57308292 3.05563617 4.00000000
v -2.49440885 1.66671073 7.00000000
v -1.62136579 1.08336198 7.59999990
v -1.62136579 1.08336198 13.00000000
v -4.85056686 2.59268212 0.00000000
v -4.85056686 2.59268212 4.00000000
v -2.64576387 1.41419017 7.00000000
v -1.71974647 0.91922367 7.59999990
v -1.71974647 0.91922367 13.00000000
v -5.08133745 2.10475898 0.00000000
v -5.08133745 2.10475898 4.00000000
v -2.77163863 1.14805031 7.00000000
v -1.80156505 0.74623269 7.59999990
v -1.80156505 0.74623269 13.00000000
v -5.26317167 1.59656572 0.00000000
v -5.26317167 1.59656572 4.00000000
v -2.87082100 0.87085402 7.00000000
v -1.86603367 0.56605512 7.59999990
v -1.86603367 0.56605512 13.00000000
v -5.39431906 1.07299674 0.00000000
v -5.39431906 1.07299674 4.00000000
v -2.94235587 0.58527094 7.00000000
v -1.91253126 0.38042614 7.59999990
v -1.91253126 0.38042614 13.00000000
v -5.47351599 0.53909427 0.00000000
v -5.47351599 0.53909427 4.00000000
v -2.98555422 0.29405141 7.00000000
v -1.94061017 0.19113342 7.59999990
v -1.94061017 0.19113342 13.00000000
v -5.50000000 0.00000000 0.00000000
v -5.50000000 0.00000000 4.00000000
v -3.00000000 0.00000000 7.00000000
v -1.95000005 0.00000000 7.59999990
v -1.95000005 0.00000000 13.00000000
v -5.47351599 -0.53909427 0.00000000
v -5.47351599 -0.53909427 4.00000000
v -2.98555422 -0.29405141 7.00000000
v -1.94061017 -0.19113342 7.59999990
v -1.94061017 -0.19113342 13.00000000
v -5.39431906 -1.07299674 0.00000000
v -5.39431906 -1.07299674 4.00000000
v -2.94235587 -0.58527094 7.00000000
v -1.91253126 -0.38042614 7.59999990
v -1.91253126 -0.38042614 13.00000000
v -5.26317167 -1.59656572 0.00000000
v -5.26317167 -1.59656572 4.00000000
v -2.87082100 -0.87085402 7.00000000
v -1.86603367 -0.56605512 7.59999990
v -1.86603367 -0.56605512 13.00000000
v -5.08133745 -2.10475898 0.00000000
v -5.08133745 -2.10475898 4.00000000
v -2.77163863 -1.14805031 7.00000000
v -1.80156505 -0.74623269 7.59999990
v -1.80156505 -0.74623269 13.00000000
v -4.85056686 -2.59268212 0.00000000
v -4.85056686 -2.59268212 4.00000000
v -2.64576387 -1.41419017 7.00000000
v -1.71974647 -0.91922367 7.59999990
v -1.71974647 -0.91922367 13.00000000
v -4.57308292 -3.05563617 0.00000000
v -4.57308292 -3.05563617 4.00000000
v -2.49440885 -1.66671073 7.00000000
v -1.62136579 -1.08336198 7.59999990
v -1.62136579 -1.08336198 13.00000000
v -4.25155735 -3.48916316 0.00000000
v -4.25155735 -3.48916316 4.00000000
v -2.31903148 -1.90317988 7.00000000
v -1.50737035 -1.23706686 7.59999990
v -1.50737035 -1.23706686 13.00000000
v -3.88908720 -3.88908720 0.00000000
v -3.88908720 -3.88908720 4.00000000
v -2.12132025 -2.12132025 7.00000000
v -1.37885821 -1.37885821 7.59999990
v -1.37885821 -1.37885821 13.00000000
v -3.48916316 -4.25155735 0.00000000
v -3.48916316 -4.25155735 4.00000000
v -1.90317988 -2.31903148 7.00000000
v -1.23706686 -1.50737035 7.59999990
v -1.23706686 -1.50737035 13.00000000
v -3.05563617 -4.57308292 0.00000000
v -3.05563617 -4.57308292 4.00000000
v -1.66671073 -2.49440885 7.00000000
v -1.08336198 -1.62136579 7.59999990
v -1.08336198 -1.62136579 13.00000000
v -2.59268212 -4.85056686 0.00000000
v -2.59268212 -4.85056686 4.00000000
v -1.41419017 -2.64576387 7.00000000
v -0.91922367 -1.71974647 7.59999990
v -0.91922367 -1.71974647 13.00000000
v -2.10475898 -5.08133745 0.00000000
v -2.10475898 -5.08133745 4.00000000
v -1.14805031 -2.77163863 7.00000000
v -0.74623269 -1.80156505 7.59999990
v -0.74623269 -1.80156505 13.00000000
v -1.59656572 -5.26317167 0.00000000
v -1.59656572 -5.26317167 4.00000000
v -0.87085402 -2.87082100 7.00000000
v -0.56605512 -1.86603367 7.59999990
v -0.56605512 -1.86603367 13.00000000
v -1.07299674 -5.39431906 0.00000000
v -1.07299674 -5.39431906 4.00000000
v -0.58527094 -2.94235587 7.00000000
v -0.38042614 -1.91253126 7.59999990
v -0.38042614 -1.91253126 13.00000000
v -0.53909427 -5.47351599 0.00000000
v -0.53909427 -5.47351599 4.00000000
v -0.29405141 -2.98555422 7.00000000
v -0.19113342 -1.94061017 7.59999990
v -0.19113342 -1.94061017 13.00000000
v -0.00000000 -5.50000000 0.00000000
v -0.00000000 -5.50000000 4.00000000
v -0.00000000 -3.00000000 7.00000000
v -0.00000000 -1.95000005 7.59999990
v -0.00000000 -1.95000005 13.00000000
v 0.53909427 -5.47351599 0.00000000
v 0.53909427 -5.47351599 4.00000000
v 0.29405141 -2.98555422 7.00000000
v 0.19113342 -1.94061017 7.59999990
v 0.19113342 -1.94061017 13.00000000
v 1.07299674 -5.39431906 0.00000000
v 1.07299674 -5.39431906 4.00000000
v 0.58527094 -2.94235587 7.00000000
v 0.38042614 -1.91253126 7.59999990
v 0.38042614 -1.91253126 13.00000000
v 1.59656572 -5.26317167 0.00000000
v 1.59656572 -5.26317167 4.00000000
v 0.87085402 -2.87082100 7.00000000
v 0.56605512 -1.86603367 7.59999990
v 0.56605512 -1.86603367 13.00000000
v 2.10475898 -5.08133745 0.00000000
v 2.10475898 -5.08133745 4.00000000
v 1.14805031 -2.77163863 7.00000000
v 0.74623269 -1.80156505 7.59999990
v 0.74623269 -1.80156505 13.00000000
v 2.59268212 -4.85056686 0.00000000
v 2.59268212 -4.85056686 4.00000000
v 1.41419017 -2.64576387 7.00000000
v 0.91922367 -1.71974647 7.59999990
v 0.91922367 -1.71974647 13.00000000
v 3.05563617 -4.57308292 0.00000000
v 3.05563617 -4.57308292 4.00000000
v 1.66671073 -2.49440885 7.00000000
v 1.08336198 -1.62136579 7.59999990
v 1.08336198 -1.62136579 13.00000000
v 3.48916316 -4.25155735 0.00000000
v 3.48916316 -4.25155735 4.00000000
v 1.90317988 -2.31903148 7.00000000
v 1.23706686 -1.50737035 7.59999990
v 1.23706686 -1.50737035 13.00000000
v 3.88908720 -3.88908720 0.00000000
v 3.88908720 -3.88908720 4.00000000
v 2.12132025 -2.12132025 7.00000000
v 1.37885821 -1.37885821 7.59999990
v 1.37885821 -1.37885821 13.00000000
v 4.25155735 -3.48916316 0.00000000
v 4.25155735 -3.48916316 4.00000000
v 2.31903148 -1.90317988 7.00000000
v 1.50737035 -1.23706686 7.59999990
v 1.50737035 -1.23706686 13.00000000
v 4.57308292 -3.05563617 0.00000000
v 4.57308292 -3.05563617 4.00000000
v 2.49440885 -1.66671073 7.00000000
v 1.62136579 -1.08336198 7.59999990
v 1.62136579 -1.08336198 13.00000000
v 4.85056686 -2.59268212 0.00000000
v 4.85056686 -2.59268212 4.00000000
v 2.64576387 -1.41419017 7.00000000
v 1.71974647 -0.91922367 7.59999990
v 1.71974647 -0.91922367 13.00000000
v 5.08133745 -2.10475898 0.00000000
v 5.08133745 -2.10475898 4.00000000
v 2.77163863 -1.14805031 7.00000000
v 1.80156505 -0.74623269 7.59999990
v 1.80156505 -0.74623269 13.00000000
v 5.26317167 -1.59656572 0.00000000
v 5.26317167 -1.59656572 4.00000000
v 2.87082100 -0.87085402 7.00000000
v 1.86603367 -0.56605512 7.59999990
v 1.86603367 -0.56605512 13.00000000
v 5.39431906 -1.07299674 0.00000000
v 5.39431906 -1.07299674 4.00000000
v 2.94235587 -0.58527094 7.00000000
v 1.91253126 -0.38042614 7.59999990
v 1.91253126 -0.38042614 13.00000000
v 5.47351599 -0.53909427 0.00000000
v 5.47351599 -0.53909427 4.00000000
v 2.98555422 -0.29405141 7.00000000
v 1.94061017 -0.19113342 7.59999990
v 1.94061017 -0.19113342 13.00000000
f 1 2 3
f 1 3 4
f 4 3 5
f 4 5 6
f 6 5 7
f 6 7 8
f 8 7 9
f 8 9 10
f 10 9 11
f 10 11 12
f 3 2 13
f 3 13 5
f 5 13 14
f 5 14 7
f 7 14 15
f 7 15 9
f 9 15 16
f 9 16 11
f 11 16 17
f 11 17 12
f 13 2 18
f 13 18 14
f 14 18 19
f 14 19 15
f 15 19 20
f 15 20 16
f 16 20 21
f 16 21 17
f 17 21 22
f 17 22 12
f 18 2 23
f 18 23 19
f 19 23 24
f 19 24 20
f 20 24 25
f 20 25 21
f 21 25 26
f 21 26 22
f 22 26 27
f 22 27 12
f 23 2 28
f 23 28 24
f 24 28 29
f 24 29 25
f 25 29 30
f 25 30 26
f 26 30 31
f 26 31 27
f 27 31 32
f 27 32 12
f 28 2 33
f 28 33 29
f 29 33 34
f 29 34 30
f 30 34 35
f 30 35 31
f 31 35 36
f 31 36 32
f 32 36 37
f 32 37 12
f 33 2 38
f 33 38 34
f 34 38 39
f 34 39 35
f 35 39 40
f 35 40 36
f 36 40 41
f 36 41 37
f 37 41 42
f 37 42 12
f 38 2 43
f 38 43 39
f 39 43 44
f 39 44 40
f 40 44 45
f 40 45 41
f 41 45 46
f 41 46 42
f 42 46 47
f 42 47 12
f 43 2 48
f 43 48 44
f 44 48 49
f 44 49 45
f 45 49 50
f 45 50 46
f 46 50 51
f 46 51 47
f 47 51 52
f 47 52 12
f 48 2 53
f 48 53 49
f 49 53 54
f 49 54 50
f 50 54 55
f 50 55 51
f 51 55 56
f 51 56 52
f 52 56 57
f 52 57 12
f 53 2 58
f 53 58 54
f 54 58 59
f 54 59 55
f 55 59 60
f 55 60 56
f 56 60 61
f 56 61 57
f 57 61 62
f 57 62 12
f 58 2 63
f 58 63 59
f 59 63 64
f 59 64 60
f 60 64 65
f 60 65 61
f 61 65 66
f 61 66 62
f 62 66 67
f 62 67 12
f 63 2 68
f 63 68 64
f 64 68 69
f 64 69 65
f 65 69 70
f 65 70 66
f 66 70 71
f 66 71 67
f 67 71 72
f 67 72 12
f 68 2 73
f 68 73 69
f 69 73 74
f 69 74 70
f 70 74 75
f 70 75 71
f 71 75 76
f 71 76 72
f 72 76 77
f 72 77 12
f 73 2 78
f 73 78 74
f 74 78 79
f 74 79 75
f 75 79 80
f 75 80 76
f 76 80 81
f 76 81 77
f 77 81 82
f 77 82 12
f 78 2 83
f 78 83 79
f 79 83 84
f 79 84 80
f 80 84 85
f 80 85 81
f 81 85 86
f 81 86 82
f 82 86 87
f 82 87 12
f 83 2 88
f 83 88 84
f 84 88 89
f 84 89 85
f 85 89 90
f 85 90 86
f 86 90 91
f 86 91 87
f 87 91 92
f 87 92 12
f 88 2 93
f 88 93 89
f 89 93 94
f 89 94 90
f 90 94 95
f 90 95 91
f 91 95 96
f 91 96 92
f 92 96 97
f 92 97 12
f 93 2 98
f 93 98 94
f 94 98 99
f 94 99 95
f 95 99 100
f 95 100 96
f 96 100 101
f 96 101 97
f 97 101 102
f 97 102 12
f 98 2 103
f 98 103 99
f 99 103 104
f 99 104 100
f 100 104 105
f 100 105 101
f 101 105 106
f 101 106 102
f 102 106 107
f 102 107 12
f 103 2 108
f 103 108 104
f 104 108 109
f 104 109 105
f 105 109 110
f 105 110 106
f 106 110 111
f 106 111 107
f 107 111 112
f 107 112 12
f 108 2 113
f 108 113 109
f 109 113 114
f 109 114 110
f 110 114 115
f 110 115 111
f 111 115 116
f 111 116 112
f 112 116 117
f 112 117 12
f 113 2 118
f 113 118 114
f 114 118 119
f 114 119 115
f 115 119 120
f 115 120 116
f 116 120 121
f 116 121 117
f 117 121 122
f 117 122 12
f 118 2 123
f 118 123 119
f 119 123 124
f 119 124 120
f 120 124 125
f 120 125 121
f 121 125 126
f 121 126 122
f 122 126 127
f 122 127 12
f 123 2 128
f 123 128 124
f 124 128 129
f 124 129 125
f 125 129 130
f 125 130 126
f 126 130 131
f 126 131 127
f 127 131 132
f 127 132 12
f 128 2 133
f 128 133 129
f 129 133 134
f 129 134 130
f 130 134 135
f 130 135 131
f 131 135 136
f 131 136 132
f 132 136 137
f 132 137 12
f 133 2 138
f 133 138 134
f 134 138 139
f 134 139 135
f 135 139 140
f 135 140 136
f 136 140 141
f 136 141 137
f 137 141 142
f 137 142 12
f 138 2 143
f 138 143 139
f 139 143 144
f 139 144 140
f 140 144 145
f 140 145 141
f 141 145 146
f 141 146 142
f 142 146 147
f 142 147 12
f 143 2 148
f 143 148 144
f 144 148 149
f 144 149 145
f 145 149 150
f 145 150 146
f 146 150 151
f 146 151 147
f 147 151 152
f 147 152 12
f 148 2 153
f 148 153 149
f 149 153 154
f 149 154 150
f 150 154 155
f 150 155 151
f 151 155 156
f 151 156 152
f 152 156 157
f 152 157 12
f 153 2 158
f 153 158 154
f 154 158 159
f 154 159 155
f 155 159 160
f 155 160 156
f 156 160 161
f 156 161 157
f 157 161 162
f 157 162 12
f 158 2 163
f 158 163 159
f 159 163 164
f 159 164 160
f 160 164 165
f 160 165 161
f 161 165 166
f 161 166 162
f 162 166 167
f 162 167 12
f 163 2 168
f 163 168 164
f 164 168 169
f 164 169 165
f 165 169 170
f 165 170 166
f 166 170 171
f 166 171 167
f 167 171 172
f 167 172 12
f 168 2 173
f 168 173 169
f 169 173 174
f 169 174 170
f 170 174 175
f 170 175 171
f 171 175 176
f 171 176 172
f 172 176 177
f 172 177 12
f 173 2 178
f 173 178 174
f 174 178 179
f 174 179 175
f 175 179 180
f 175 180 176
f 176 180 181
f 176 181 177
f 177 181 182
f 177 182 12
f 178 2 183
f 178 183 179
f 179 183 184
f 179 184 180
f 180 184 185
f 180 185 181
f 181 185 186
f 181 186 182
f 182 186 187
f 182 187 12
f 183 2 188
f 183 188 184
f 184 188 189
f 184 189 185
f 185 189 190
f 185 190 186
f 186 190 191
f 186 191 187
f 187 191 192
f 187 192 12
f 188 2 193
f 188 193 189
f 189 193 194
f 189 194 190
f 190 194 195
f 190 195 191
f 191 195 196
f 191 196 192
f 192 196 197
f 192 197 12
f 193 2 198
f 193 198 194
f 194 198 199
f 194 199 195
f 195 199 200
f 195 200 196
f 196 200 201
f 196 201 197
f 197 201 202
f 197 202 12
f 198 2 203
f 198 203 199
f 199 203 204
f 199 204 200
f 200 204 205
f 200 205 201
f 201 205 206
f 201 206 202
f 202 206 207
f 202 207 12
f 203 2 208
f 203 208 204
f 204 208 209
f 204 209 205
f 205 209 210
f 205 210 206
f 206 210 211
f 206 211 207
f 207 211 212
f 207 212 12
f 208 2 213
f 208 213 209
f 209 213 214
f 209 214 210
f 210 214 215
f 210 215 211
f 211 215 216
f 211 216 212
f 212 216 217
f 212 217 12
f 213 2 218
f 213 218 214
f 214 218 219
f 214 219 215
f 215 219 220
f 215 220 216
f 216 220 221
f 216 221 217
f 217 221 222
f 217 222 12
f 218 2 223
f 218 223 219
f 219 223 224
f 219 224 220
f 220 224 225
f 220 225 221
f 221 225 226
f 221 226 222
f 222 226 227
f 222 227 12
f 223 2 228
f 223 228 224
f 224 228 229
f 224 229 225
f 225 229 230
f 225 230 226
f 226 230 231
f 226 231 227
f 227 231 232
f 227 232 12
f 228 2 233
f 228 233 229
f 229 233 234
f 229 234 230
f 230 234 235
f 230 235 231
f 231 235 236
f 231 236 232
f 232 236 237
f 232 237 12
f 233 2 238
f 233 238 234
f 234 238 239
f 234 239 235
f 235 239 240
f 235 240 236
f 236 240 241
f 236 241 237
f 237 241 242
f 237 242 12
f 238 2 243
f 238 243 239
f 239 243 244
f 239 244 240
f 240 244 245
f 240 245 241
f 241 245 246
f 241 246 242
f 242 246 247
f 242 247 12
f 243 2 248
f 243 248 244
f 244 248 249
f 244 249 245
f 245 249 250
f 245 250 246
f 246 250 251
f 246 251 247
f 247 251 252
f 247 252 12
f 248 2 253
f 248 253 249
f 249 253 254
f 249 254 250
f 250 254 255
f 250 255 251
f 251 255 256
f 251 256 252
f 252 256 257
f 252 257 12
f 253 2 258
f 253 258 254
f 254 258 259
f 254 259 255
f 255 259 260
f 255 260 256
f 256 260 261
f 256 261 257
f 257 261 262
f 257 262 12
f 258 2 263
f 258 263 259
f 259 263 264
f 259 264 260
f 260 264 265
f 260 265 261
f 261 265 266
f 261 266 262
f 262 266 267
f 262 267 12
f 263 2 268
f 263 268 264
f 264 268 269
f 264 269 265
f 265 269 270
f 265 270 266
f 266 270 271
f 266 271 267
f 267 271 272
f 267 272 12
f 268 2 273
f 268 273 269
f 269 273 274
f 269 274 270
f 270 274 275
f 270 275 271
f 271 275 276
f 271 276 272
f 272 276 277
f 272 277 12
f 273 2 278
f 273 278 274
f 274 278 279
f 274 279 275
f 275 279 280
f 275 280 276
f 276 280 281
f 276 281 277
f 277 281 282
f 277 282 12
f 278 2 283
f 278 283 279
f 279 283 284
f 279 284 280
f 280 284 285
f 280 285 281
f 281 285 286
f 281 286 282
f 282 286 287
f 282 287 12
f 283 2 288
f 283 288 284
f 284 288 289
f 284 289 285
f 285 289 290
f 285 290 286
f 286 290 291
f 286 291 287
f 287 291 292
f 287 292 12
f 288 2 293
f 288 293 289
f 289 293 294
f 289 294 290
f 290 294 295
f 290 295 291
f 291 295 296
f 291 296 292
f 292 296 297
f 292 297 12
f 293 2 298
f 293 298 294
f 294 298 299
f 294 299 295
f 295 299 300
f 295 300 296
f 296 300 301
f 296 301 297
f 297 301 302
f 297 302 12
f 298 2 303
f 298 303 299
f 299 303 304
f 299 304 300
f 300 304 305
f 300 305 301
f 301 305 306
f 301 306 302
f 302 306 307
f 302 307 12
f 303 2 308
f 303 308 304
f 304 308 309
f 304 309 305
f 305 309 310
f 305 310 306
f 306 310 311
f 306 311 307
f 307 311 312
f 307 312 12
f 308 2 313
f 308 313 309
f 309 313 314
f 309 314 310
f 310 314 315
f 310 315 311
f 311 315 316
f 311 316 312
f 312 316 317
f 312 317 12
f 313 2 318
f 313 318 314
f 314 318 319
f 314 319 315
f 315 319 320
f 315 320 316
f 316 320 321
f 316 321 317
f 317 321 322
f 317 322 12
f 318 2 1
f 318 1 319
f 319 1 4
f 319 4 320
f 320 4 6
f 320 6 321
f 321 6 8
f 321 8 322
f 322 8 10
f 322 10 12

