# https://github.com/mikedh/trimesh
v 0.00000000 0.00000000 0.00000000
v 6.37365437 4.87365437 0.00000000
v 6.59984875 4.67528725 0.00000000
v 7.40471601 4.27837038 0.00000000
v 7.69978952 4.21967697 0.00000000
v 7.11982822 4.37507725 0.00000000
v 6.84999990 4.50814152 0.00000000
v 6.17528725 5.09984875 0.00000000
v 6.00814152 5.34999990 0.00000000
v 5.87507725 5.61982822 0.00000000
v 5.77837038 5.90471601 0.00000000
v 5.71967697 6.19978952 0.00000000
v 5.69999981 6.50000000 0.00000000
v 9.62634563 4.87365437 0.00000000
v 9.82471275 5.09984875 0.00000000
v 18.10069466 4.32888317 0.00000000
v 18.39177513 4.23007441 0.00000000
v 17.82500076 4.46484041 0.00000000
v 17.56941032 4.63561964 0.00000000
v 18.69326401 4.17010450 0.00000000
v 9.99185848 5.34999990 0.00000000
v 17.33829880 4.83829927 0.00000000
v 10.12492275 5.61982822 0.00000000
v 10.22162914 5.90471601 0.00000000
v 17.13562012 5.06941080 0.00000000
v 10.28032303 6.19978952 0.00000000
v 16.96483994 5.32499981 0.00000000
v 10.30000019 6.50000000 0.00000000
v 16.82888222 5.60069370 0.00000000
v 16.73007393 5.89177513 0.00000000
v 10.28032303 6.80021048 0.00000000
v 16.67010498 6.19326353 0.00000000
v 6.37365437 4.87365437 5.59999990
v 7.40471601 4.27837038 5.59999990
v 6.84999990 4.50814152 5.59999990
v 7.11982822 4.37507725 5.59999990
v 7.69978952 4.21967697 5.59999990
v 8.00000000 4.19999981 0.00000000
v 8.00000000 4.19999981 5.59999990
v 8.30021000 4.21967697 0.00000000
v 8.30021000 4.21967697 5.59999990
v 8.59528351 4.27837038 0.00000000
v 8.59528351 4.27837038 5.59999990
v 8.88017178 4.37507725 0.00000000
v 6.59984875 4.67528725 5.59999990
v 6.17528725 5.09984875 5.59999990
v 6.00814152 5.34999990 5.59999990
v 5.87507725 5.61982822 5.59999990
v 5.77837038 5.90471601 5.59999990
v 5.71967697 6.19978952 5.59999990
v 5.69999981 6.50000000 5.59999990
v 8.88017178 4.37507725 5.59999990
v 9.14999962 4.50814152 0.00000000
v 9.14999962 4.50814152 5.59999990
v 9.40015125 4.67528725 0.00000000
v 9.40015125 4.67528725 5.59999990
v 17.56941032 4.63561964 5.59999990
v 17.33829880 4.83829927 5.59999990
v 9.62634563 4.87365437 5.59999990
v 9.82471275 5.09984875 5.59999990
v 9.99185848 5.34999990 5.59999990
v 10.12492275 5.61982822 5.59999990
v 10.22162914 5.90471601 5.59999990
v 10.28032303 6.19978952 5.59999990
v 17.13562012 5.06941080 5.59999990
v 16.96483994 5.32499981 5.59999990
v 16.82888222 5.60069370 5.59999990
v 16.73007393 5.89177513 5.59999990
v 16.67010498 6.19326353 5.59999990
v 16.64999962 6.50000000 0.00000000
v 16.64999962 6.50000000 5.59999990
v 71.00000000 0.00000000 0.00000000
v 7.55000019 0.00000000 4.59999990
v 20.66170120 4.83829927 0.00000000
v 20.86437988 5.06941080 0.00000000
v 29.37883377 4.18177795 0.00000000
v 29.68673706 4.12053251 0.00000000
v 29.08156013 4.28268909 0.00000000
v 28.79999924 4.42153883 0.00000000
v 21.03516006 5.32499981 0.00000000
v 28.53897285 4.59595203 0.00000000
v 21.17111778 5.60069370 0.00000000
v 21.26992607 5.89177513 0.00000000
v 28.09595108 5.03897238 0.00000000
v 28.30294418 4.80294371 0.00000000
v 27.92153931 5.30000019 0.00000000
v 21.32989502 6.19326353 0.00000000
v 21.35000038 6.50000000 0.00000000
v 27.78269005 5.58155966 0.00000000
v 27.68177795 5.87883425 0.00000000
v 21.32989502 6.80673647 0.00000000
v 27.62053299 6.18673706 0.00000000
v 31.90404892 5.03897238 0.00000000
v 32.07846069 5.30000019 0.00000000
v 40.36589432 4.13348150 0.00000000
v 32.21731186 5.58155966 0.00000000
v 39.77500153 4.37823772 0.00000000
v 32.31822205 5.87883425 0.00000000
v 39.26758957 4.76758862 0.00000000
v 32.37946701 6.18673706 0.00000000
v 39.05628586 5.00853443 0.00000000
v 32.40000153 6.50000000 0.00000000
v 38.87823868 5.27500010 0.00000000
v 32.37946701 6.81326294 0.00000000
v 38.73649597 5.56242561 0.00000000
v 18.69326401 4.17010450 5.59999990
v 19.00000000 4.15000010 0.00000000
v 18.39177513 4.23007441 5.59999990
v 18.10069466 4.32888317 5.59999990
v 17.82500076 4.46484041 5.59999990
v 19.00000000 4.15000010 5.59999990
v 19.30673599 4.17010450 0.00000000
v 19.30673599 4.17010450 5.59999990
v 19.60822487 4.23007441 0.00000000
v 19.60822487 4.23007441 5.59999990
v 19.89930534 4.32888317 0.00000000
v 19.89930534 4.32888317 5.59999990
v 20.17499924 4.46484041 0.00000000
v 20.17499924 4.46484041 5.59999990
v 20.43058968 4.63561964 0.00000000
v 20.43058968 4.63561964 5.59999990
v 20.66170120 4.83829927 5.59999990
v 20.86437988 5.06941080 5.59999990
v 21.03516006 5.32499981 5.59999990
v 21.17111778 5.60069370 5.59999990
v 21.26992607 5.89177513 5.59999990
v 21.32989502 6.19326353 5.59999990
v 28.53897285 4.59595203 5.59999990
v 28.30294418 4.80294371 5.59999990
v 29.08156013 4.28268909 5.59999990
v 29.37883377 4.18177795 5.59999990
v 29.68673706 4.12053251 5.59999990
v 30.00000000 4.09999990 0.00000000
v 28.79999924 4.42153883 5.59999990
v 30.00000000 4.09999990 5.59999990
v 30.31326294 4.12053251 0.00000000
v 30.31326294 4.12053251 5.59999990
v 30.62116623 4.18177795 0.00000000
v 30.62116623 4.18177795 5.59999990
v 30.91843987 4.28268909 0.00000000
v 30.91843987 4.28268909 5.59999990
v 31.20000076 4.42153883 0.00000000
v 31.20000076 4.42153883 5.59999990
v 31.46102715 4.59595203 0.00000000
v 31.46102715 4.59595203 5.59999990
v 31.69705582 4.80294371 0.00000000
v 28.09595108 5.03897238 5.59999990
v 27.92153931 5.30000019 5.59999990
v 27.78269005 5.58155966 5.59999990
v 27.68177795 5.87883425 5.59999990
v 27.62053299 6.18673706 5.59999990
v 27.60000038 6.50000000 0.00000000
v 27.60000038 6.50000000 5.59999990
v 31.69705582 4.80294371 5.59999990
v 31.90404892 5.03897238 5.59999990
v 32.07846069 5.30000019 5.59999990
v 32.21731186 5.58155966 5.59999990
v 32.31822205 5.87883425 5.59999990
v 32.37946701 6.18673706 5.59999990
v 7.55000019 0.00000000 5.59999990
v 0.00000000 0.00000000 5.59999990
v 8.44999981 0.00000000 4.59999990
v 8.44999981 1.39999998 4.59999990
v 7.55000019 1.39999998 4.59999990
v 8.44999981 0.00000000 5.59999990
v 7.55000019 1.39999998 5.59999990
v 8.44999981 1.39999998 5.59999990
v 17.64999962 0.00000000 5.59999990
v 17.64999962 0.00000000 4.59999990
v 17.64999962 1.39999998 4.59999990
v 17.64999962 1.39999998 5.59999990
v 0.00000000 13.00000000 5.59999990
v 10.30000019 6.50000000 5.59999990
v 5.71967697 6.80021048 5.59999990
v 5.77837038 7.09528399 5.59999990
v 16.67010498 6.80673647 5.59999990
v 18.54999924 0.00000000 4.59999990
v 18.54999924 1.39999998 4.59999990
v 19.45000076 0.00000000 4.59999990
v 20.35000038 0.00000000 4.59999990
v 20.35000038 1.39999998 4.59999990
v 19.45000076 1.39999998 4.59999990
v 19.45000076 0.00000000 5.59999990
v 18.54999924 0.00000000 5.59999990
v 20.35000038 0.00000000 5.59999990
v 19.45000076 1.39999998 5.59999990
v 18.54999924 1.39999998 5.59999990
v 20.35000038 1.39999998 5.59999990
v 27.75000000 0.00000000 4.59999990
v 27.75000000 0.00000000 5.59999990
v 27.75000000 1.39999998 5.59999990
v 39.05628586 5.00853443 5.59999990
v 38.63348007 5.86589336 5.59999990
v 28.64999962 0.00000000 4.59999990
v 28.64999962 1.39999998 4.59999990
v 29.54999924 0.00000000 4.59999990
v 30.45000076 0.00000000 4.59999990
v 30.45000076 1.39999998 4.59999990
v 27.75000000 1.39999998 4.59999990
v 29.54999924 1.39999998 4.59999990
v 31.35000038 0.00000000 4.59999990
v 32.25000000 0.00000000 4.59999990
v 32.25000000 1.39999998 4.59999990
v 31.35000038 1.39999998 4.59999990
v 28.64999962 0.00000000 5.59999990
v 29.54999924 0.00000000 5.59999990
v 31.35000038 0.00000000 5.59999990
v 30.45000076 0.00000000 5.59999990
v 29.54999924 1.39999998 5.59999990
v 31.35000038 1.39999998 5.59999990
v 28.64999962 1.39999998 5.59999990
v 30.45000076 1.39999998 5.59999990
v 32.25000000 0.00000000 5.59999990
v 37.84999847 0.00000000 5.59999990
v 32.25000000 1.39999998 5.59999990
v 39.77500153 4.37823772 5.59999990
v 41.00000000 4.05000019 5.59999990
v 40.06242371 4.23649502 5.59999990
v 40.36589432 4.13348150 5.59999990
v 39.50853348 4.55628443 5.59999990
v 21.35000038 6.50000000 5.59999990
v 32.40000153 6.50000000 5.59999990
v 27.62053299 6.81326294 5.59999990
v 38.87823868 5.27500010 5.59999990
v 39.26758957 4.76758862 5.59999990
v 38.73649597 5.56242561 5.59999990
v 38.57096100 6.18021107 5.59999990
v 38.54999924 6.50000000 5.59999990
v 38.57096100 6.81978893 5.59999990
v 38.63348007 7.13410664 5.59999990
v 0.00000000 13.00000000 0.00000000
v 5.71967697 6.80021048 0.00000000
v 5.77837038 7.09528399 0.00000000
v 5.87507725 7.38017178 0.00000000
v 6.00814152 7.65000010 0.00000000
v 6.17528725 7.90015125 0.00000000
v 6.37365437 8.12634563 0.00000000
v 10.22162914 7.09528399 0.00000000
v 10.12492275 7.38017178 0.00000000
v 9.99185848 7.65000010 0.00000000
v 16.67010498 6.80673647 0.00000000
v 9.82471275 7.90015125 0.00000000
v 9.62634563 8.12634563 0.00000000
v 16.73007393 7.10822487 0.00000000
v 9.40015125 8.32471275 0.00000000
v 16.82888222 7.39930630 0.00000000
v 9.14999962 8.49185848 0.00000000
v 8.30021000 8.78032303 0.00000000
v 16.96483994 7.67500019 0.00000000
v 8.88017178 8.62492275 0.00000000
v 8.59528351 8.72162914 0.00000000
v 17.13562012 7.93058920 0.00000000
v 17.33829880 8.16170120 0.00000000
v 17.56941032 8.36437988 0.00000000
v 17.82500076 8.53516006 0.00000000
v 18.10069466 8.67111683 0.00000000
v 5.87507725 7.38017178 5.59999990
v 6.00814152 7.65000010 5.59999990
v 6.17528725 7.90015125 5.59999990
v 6.37365437 8.12634563 5.59999990
v 6.59984875 8.32471275 0.00000000
v 6.59984875 8.32471275 5.59999990
v 6.84999990 8.49185848 0.00000000
v 6.84999990 8.49185848 5.59999990
v 7.11982822 8.62492275 0.00000000
v 7.11982822 8.62492275 5.59999990
v 7.40471601 8.72162914 0.00000000
v 7.40471601 8.72162914 5.59999990
v 7.69978952 8.78032303 0.00000000
v 7.69978952 8.78032303 5.59999990
v 8.88017178 8.62492275 5.59999990
v 8.00000000 8.80000019 0.00000000
v 8.00000000 8.80000019 5.59999990
v 8.30021000 8.78032303 5.59999990
v 8.59528351 8.72162914 5.59999990
v 10.28032303 6.80021048 5.59999990
v 10.22162914 7.09528399 5.59999990
v 10.12492275 7.38017178 5.59999990
v 9.99185848 7.65000010 5.59999990
v 9.82471275 7.90015125 5.59999990
v 16.73007393 7.10822487 5.59999990
v 16.82888222 7.39930630 5.59999990
v 16.96483994 7.67500019 5.59999990
v 17.13562012 7.93058920 5.59999990
v 17.33829880 8.16170120 5.59999990
v 9.62634563 8.12634563 5.59999990
v 9.40015125 8.32471275 5.59999990
v 9.14999962 8.49185848 5.59999990
v 17.56941032 8.36437988 5.59999990
v 17.82500076 8.53516006 5.59999990
v 18.39177513 8.76992607 0.00000000
v 18.69326401 8.82989502 0.00000000
v 19.00000000 8.85000038 0.00000000
v 19.60822487 8.76992607 0.00000000
v 19.30673599 8.82989502 0.00000000
v 27.92153931 7.69999981 0.00000000
v 21.26992607 7.10822487 0.00000000
v 21.17111778 7.39930630 0.00000000
v 21.03516006 7.67500019 0.00000000
v 27.62053299 6.81326294 0.00000000
v 20.86437988 7.93058920 0.00000000
v 20.66170120 8.16170120 0.00000000
v 20.43058968 8.36437988 0.00000000
v 27.68177795 7.12116575 0.00000000
v 19.89930534 8.67111683 0.00000000
v 20.17499924 8.53516006 0.00000000
v 27.78269005 7.41844034 0.00000000
v 28.09595108 7.96102762 0.00000000
v 28.30294418 8.19705582 0.00000000
v 32.31822205 7.12116575 0.00000000
v 38.63348007 5.86589336 0.00000000
v 32.21731186 7.41844034 0.00000000
v 39.05628586 7.99146557 0.00000000
v 32.07846069 7.69999981 0.00000000
v 39.50853348 8.44371605 0.00000000
v 31.90404892 7.96102762 0.00000000
v 40.06242371 8.76350498 0.00000000
v 21.32989502 6.80673647 5.59999990
v 21.26992607 7.10822487 5.59999990
v 21.17111778 7.39930630 5.59999990
v 21.03516006 7.67500019 5.59999990
v 20.86437988 7.93058920 5.59999990
v 18.10069466 8.67111683 5.59999990
v 18.39177513 8.76992607 5.59999990
v 18.69326401 8.82989502 5.59999990
v 19.89930534 8.67111683 5.59999990
v 19.00000000 8.85000038 5.59999990
v 19.30673599 8.82989502 5.59999990
v 19.60822487 8.76992607 5.59999990
v 20.66170120 8.16170120 5.59999990
v 20.43058968 8.36437988 5.59999990
v 20.17499924 8.53516006 5.59999990
v 27.68177795 7.12116575 5.59999990
v 27.78269005 7.41844034 5.59999990
v 27.92153931 7.69999981 5.59999990
v 28.09595108 7.96102762 5.59999990
v 28.30294418 8.19705582 5.59999990
v 32.37946701 6.81326294 5.59999990
v 32.31822205 7.12116575 5.59999990
v 32.21731186 7.41844034 5.59999990
v 32.07846069 7.69999981 5.59999990
v 31.90404892 7.96102762 5.59999990
v 31.69705582 8.19705582 0.00000000
v 28.53897285 8.40404797 0.00000000
v 28.53897285 8.40404797 5.59999990
v 28.79999924 8.57846069 0.00000000
v 28.79999924 8.57846069 5.59999990
v 29.08156013 8.71731091 0.00000000
v 29.08156013 8.71731091 5.59999990
v 29.37883377 8.81822205 0.00000000
v 29.37883377 8.81822205 5.59999990
v 29.68673706 8.87946796 0.00000000
v 29.68673706 8.87946796 5.59999990
v 30.00000000 8.89999962 0.00000000
v 30.00000000 8.89999962 5.59999990
v 30.31326294 8.87946796 0.00000000
v 30.31326294 8.87946796 5.59999990
v 30.91843987 8.71731091 0.00000000
v 30.91843987 8.71731091 5.59999990
v 30.62116623 8.81822205 0.00000000
v 30.62116623 8.81822205 5.59999990
v 31.69705582 8.19705582 5.59999990
v 31.46102715 8.40404797 0.00000000
v 31.46102715 8.40404797 5.59999990
v 31.20000076 8.57846069 0.00000000
v 31.20000076 8.57846069 5.59999990
v 71.00000000 13.00000000 0.00000000
v 38.73649597 7.43757439 5.59999990
v 38.87823868 7.72499990 5.59999990
v 39.05628586 7.99146557 5.59999990
v 39.26758957 8.23241138 5.59999990
v 39.77500153 8.62176228 5.59999990
v 40.36589432 8.86651802 5.59999990
v 71.00000000 13.00000000 5.59999990
v 40.68021011 4.07096004 0.00000000
v 41.00000000 4.05000019 0.00000000
v 41.31978989 4.07096004 0.00000000
v 41.63410568 4.13348150 0.00000000
v 41.93757629 4.23649502 0.00000000
v 42.22499847 4.37823772 0.00000000
v 42.49146652 4.55628443 0.00000000
v 42.73241043 4.76758862 0.00000000
v 40.06242371 4.23649502 0.00000000
v 39.50853348 4.55628443 0.00000000
v 38.57096100 6.18021107 0.00000000
v 43.26350403 5.56242561 0.00000000
v 51.04329300 4.19030094 0.00000000
v 51.35295105 4.08518553 0.00000000
v 43.36651993 5.86589336 0.00000000
v 50.75000000 4.33493662 0.00000000
v 42.94371414 5.00853443 0.00000000
v 43.12176132 5.27500010 0.00000000
v 43.42903900 6.18021107 0.00000000
v 50.47809601 4.51661682 0.00000000
v 50.23223114 4.73223305 0.00000000
v 49.69029999 5.54329157 0.00000000
v 49.83493805 5.25000000 0.00000000
v 50.01661682 4.97809649 0.00000000
v 49.58518600 5.85295248 0.00000000
v 49.52138901 6.17368460 0.00000000
v 49.50000000 6.50000000 0.00000000
v 40.68021011 4.07096004 5.59999990
v 41.31978989 4.07096004 5.59999990
v 41.63410568 4.13348150 5.59999990
v 41.93757629 4.23649502 5.59999990
v 42.22499847 4.37823772 5.59999990
v 42.49146652 4.55628443 5.59999990
v 42.73241043 4.76758862 5.59999990
v 38.54999924 6.50000000 0.00000000
v 42.94371414 5.00853443 5.59999990
v 43.12176132 5.27500010 5.59999990
v 43.26350403 5.56242561 5.59999990
v 43.36651993 5.86589336 5.59999990
v 43.42903900 6.18021107 5.59999990
v 43.45000076 6.50000000 0.00000000
v 51.67368317 4.02138805 0.00000000
v 51.67368317 4.02138805 5.59999990
v 52.00000000 4.00000000 0.00000000
v 52.00000000 4.00000000 5.59999990
v 52.32631683 4.02138805 0.00000000
v 52.32631683 4.02138805 5.59999990
v 52.64704895 4.08518553 0.00000000
v 50.75000000 4.33493662 5.59999990
v 50.47809601 4.51661682 5.59999990
v 50.23223114 4.73223305 5.59999990
v 51.04329300 4.19030094 5.59999990
v 51.35295105 4.08518553 5.59999990
v 52.64704895 4.08518553 5.59999990
v 52.95670700 4.19030094 0.00000000
v 52.95670700 4.19030094 5.59999990
v 53.25000000 4.33493662 0.00000000
v 49.83493805 5.25000000 5.59999990
v 50.01661682 4.97809649 5.59999990
v 49.69029999 5.54329157 5.59999990
v 49.58518600 5.85295248 5.59999990
v 49.52138901 6.17368460 5.59999990
v 49.50000000 6.50000000 5.59999990
v 53.52190399 4.51661682 0.00000000
v 53.76776886 4.73223305 0.00000000
v 53.98338318 4.97809649 0.00000000
v 62.02415848 4.14410734 0.00000000
v 62.34001160 4.03688908 0.00000000
v 62.66716003 3.97181559 0.00000000
v 63.00000000 3.95000005 0.00000000
v 63.33283997 3.97181559 0.00000000
v 63.65998840 4.03688908 0.00000000
v 63.97584152 4.14410734 0.00000000
v 64.27500153 4.29163504 0.00000000
v 64.55234528 4.47694921 0.00000000
v 64.80312347 4.69687748 0.00000000
v 65.02304840 4.94765854 0.00000000
v 54.16506195 5.25000000 0.00000000
v 54.30970001 5.54329157 0.00000000
v 54.41481400 5.85295248 0.00000000
v 54.47861099 6.17368460 0.00000000
v 54.50000000 6.50000000 0.00000000
v 54.47861099 6.82631540 0.00000000
v 54.41481400 7.14704752 0.00000000
v 61.72499847 4.29163504 0.00000000
v 61.44765854 4.47694921 0.00000000
v 61.19687653 4.69687748 0.00000000
v 60.97694778 4.94765854 0.00000000
v 60.79163361 5.22499990 0.00000000
v 60.64410782 5.52415705 0.00000000
v 60.53688812 5.84001160 0.00000000
v 60.47181702 6.16715813 0.00000000
v 65.20836639 5.22499990 0.00000000
v 65.35589600 5.52415705 0.00000000
v 65.46311188 5.84001160 0.00000000
v 65.52818298 6.16715813 0.00000000
v 65.55000305 6.50000000 0.00000000
v 65.52818298 6.83284187 0.00000000
v 65.46311188 7.15998840 0.00000000
v 53.25000000 4.33493662 5.59999990
v 53.52190399 4.51661682 5.59999990
v 53.76776886 4.73223305 5.59999990
v 61.72499847 4.29163504 5.59999990
v 61.44765854 4.47694921 5.59999990
v 61.19687653 4.69687748 5.59999990
v 60.97694778 4.94765854 5.59999990
v 53.98338318 4.97809649 5.59999990
v 54.16506195 5.25000000 5.59999990
v 54.30970001 5.54329157 5.59999990
v 54.41481400 5.85295248 5.59999990
v 54.47861099 6.17368460 5.59999990
v 60.79163361 5.22499990 5.59999990
v 60.64410782 5.52415705 5.59999990
v 60.53688812 5.84001160 5.59999990
v 60.47181702 6.16715813 5.59999990
v 60.45000076 6.50000000 0.00000000
v 60.45000076 6.50000000 5.59999990
v 62.34001160 4.03688908 5.59999990
v 63.00000000 3.95000005 5.59999990
v 62.66716003 3.97181559 5.59999990
v 63.33283997 3.97181559 5.59999990
v 62.02415848 4.14410734 5.59999990
v 63.65998840 4.03688908 5.59999990
v 63.97584152 4.14410734 5.59999990
v 64.27500153 4.29163504 5.59999990
v 64.55234528 4.47694921 5.59999990
v 64.80312347 4.69687748 5.59999990
v 71.00000000 0.00000000 5.59999990
v 65.02304840 4.94765854 5.59999990
v 65.20836639 5.22499990 5.59999990
v 65.35589600 5.52415705 5.59999990
v 65.46311188 5.84001160 5.59999990
v 65.52818298 6.16715813 5.59999990
v 37.84999847 0.00000000 4.59999990
v 38.75000000 0.00000000 4.59999990
v 39.65000153 0.00000000 4.59999990
v 40.54999924 0.00000000 4.59999990
v 41.45000076 0.00000000 4.59999990
v 42.34999847 0.00000000 4.59999990
v 43.25000000 0.00000000 4.59999990
v 44.15000153 0.00000000 4.59999990
v 38.75000000 1.39999998 4.59999990
v 37.84999847 1.39999998 4.59999990
v 40.54999924 1.39999998 4.59999990
v 42.34999847 1.39999998 4.59999990
v 44.15000153 1.39999998 4.59999990
v 39.65000153 1.39999998 4.59999990
v 41.45000076 1.39999998 4.59999990
v 43.25000000 1.39999998 4.59999990
v 39.65000153 0.00000000 5.59999990
v 38.75000000 0.00000000 5.59999990
v 37.84999847 1.39999998 5.59999990
v 39.65000153 1.39999998 5.59999990
v 38.75000000 1.39999998 5.59999990
v 41.45000076 0.00000000 5.59999990
v 40.54999924 0.00000000 5.59999990
v 43.25000000 0.00000000 5.59999990
v 42.34999847 0.00000000 5.59999990
v 44.15000153 0.00000000 5.59999990
v 41.45000076 1.39999998 5.59999990
v 43.25000000 1.39999998 5.59999990
v 40.54999924 1.39999998 5.59999990
v 42.34999847 1.39999998 5.59999990
v 44.15000153 1.39999998 5.59999990
v 47.95000076 0.00000000 4.59999990
v 48.84999847 0.00000000 4.59999990
v 48.84999847 1.39999998 4.59999990
v 47.95000076 1.39999998 4.59999990
v 49.75000000 0.00000000 4.59999990
v 50.65000153 0.00000000 4.59999990
v 50.65000153 1.39999998 4.59999990
v 51.54999924 0.00000000 4.59999990
v 52.45000076 0.00000000 4.59999990
v 52.45000076 1.39999998 4.59999990
v 49.75000000 1.39999998 4.59999990
v 51.54999924 1.39999998 4.59999990
v 47.95000076 0.00000000 5.59999990
v 47.95000076 1.39999998 5.59999990
v 48.84999847 1.39999998 5.59999990
v 49.75000000 0.00000000 5.59999990
v 48.84999847 0.00000000 5.59999990
v 50.65000153 0.00000000 5.59999990
v 51.54999924 0.00000000 5.59999990
v 53.34999847 0.00000000 4.59999990
v 53.34999847 0.00000000 5.59999990
v 52.45000076 0.00000000 5.59999990
v 49.75000000 1.39999998 5.59999990
v 51.54999924 1.39999998 5.59999990
v 53.34999847 1.39999998 5.59999990
v 50.65000153 1.39999998 5.59999990
v 52.45000076 1.39999998 5.59999990
v 43.45000076 6.50000000 5.59999990
v 49.58518600 7.14704752 5.59999990
v 49.69029999 7.45670843 5.59999990
v 49.52138901 6.82631540 5.59999990
v 54.25000000 0.00000000 4.59999990
v 55.15000153 0.00000000 4.59999990
v 56.04999924 0.00000000 4.59999990
v 58.04999924 0.00000000 4.59999990
v 58.95000076 0.00000000 4.59999990
v 59.84999847 0.00000000 4.59999990
v 60.75000000 0.00000000 4.59999990
v 61.65000153 0.00000000 4.59999990
v 62.54999924 0.00000000 4.59999990
v 63.45000076 0.00000000 4.59999990
v 64.34999847 0.00000000 4.59999990
v 65.25000000 0.00000000 4.59999990
v 66.15000153 0.00000000 4.59999990
v 67.05000305 0.00000000 4.59999990
v 67.94999695 0.00000000 4.59999990
v 54.25000000 1.39999998 4.59999990
v 56.04999924 1.39999998 4.59999990
v 53.34999847 1.39999998 4.59999990
v 55.15000153 1.39999998 4.59999990
v 58.95000076 1.39999998 4.59999990
v 60.75000000 1.39999998 4.59999990
v 58.04999924 1.39999998 4.59999990
v 59.84999847 1.39999998 4.59999990
v 62.54999924 1.39999998 4.59999990
v 61.65000153 1.39999998 4.59999990
v 55.15000153 0.00000000 5.59999990
v 54.25000000 0.00000000 5.59999990
v 58.04999924 0.00000000 5.59999990
v 56.04999924 0.00000000 5.59999990
v 55.15000153 1.39999998 5.59999990
v 58.04999924 1.39999998 5.59999990
v 54.25000000 1.39999998 5.59999990
v 56.04999924 1.39999998 5.59999990
v 59.84999847 0.00000000 5.59999990
v 58.95000076 0.00000000 5.59999990
v 61.65000153 0.00000000 5.59999990
v 60.75000000 0.00000000 5.59999990
v 59.84999847 1.39999998 5.59999990
v 61.65000153 1.39999998 5.59999990
v 58.95000076 1.39999998 5.59999990
v 60.75000000 1.39999998 5.59999990
v 62.54999924 1.39999998 5.59999990
v 65.25000000 1.39999998 5.59999990
v 63.45000076 1.39999998 5.59999990
v 64.34999847 1.39999998 5.59999990
v 66.15000153 1.39999998 5.59999990
v 64.34999847 1.39999998 4.59999990
v 66.15000153 1.39999998 4.59999990
v 63.45000076 1.39999998 4.59999990
v 65.25000000 1.39999998 4.59999990
v 63.45000076 0.00000000 5.59999990
v 62.54999924 0.00000000 5.59999990
v 65.25000000 0.00000000 5.59999990
v 64.34999847 0.00000000 5.59999990
v 66.15000153 0.00000000 5.59999990
v 67.05000305 0.00000000 5.59999990
v 67.05000305 1.39999998 5.59999990
v 67.94999695 0.00000000 5.59999990
v 67.94999695 1.39999998 5.59999990
v 54.50000000 6.50000000 5.59999990
v 65.55000305 6.50000000 5.59999990
v 61.19687653 8.30312252 5.59999990
v 61.44765854 8.52305126 5.59999990
v 60.47181702 6.83284187 5.59999990
v 60.53688812 7.15998840 5.59999990
v 60.64410782 7.47584295 5.59999990
v 65.52818298 6.83284187 5.59999990
v 65.46311188 7.15998840 5.59999990
v 38.57096100 6.81978893 0.00000000
v 38.63348007 7.13410664 0.00000000
v 38.73649597 7.43757439 0.00000000
v 38.87823868 7.72499990 0.00000000
v 39.26758957 8.23241138 0.00000000
v 39.77500153 8.62176228 0.00000000
v 40.36589432 8.86651802 0.00000000
v 40.68021011 8.92903996 0.00000000
v 49.83493805 7.75000000 0.00000000
v 43.42903900 6.81978893 0.00000000
v 50.01661682 8.02190399 0.00000000
v 49.52138901 6.82631540 0.00000000
v 49.58518600 7.14704752 0.00000000
v 49.69029999 7.45670843 0.00000000
v 43.36651993 7.13410664 0.00000000
v 50.23223114 8.26776695 0.00000000
v 43.26350403 7.43757439 0.00000000
v 50.75000000 8.66506386 0.00000000
v 50.47809601 8.48338318 0.00000000
v 51.04329300 8.80969906 0.00000000
v 51.35295105 8.91481495 0.00000000
v 43.12176132 7.72499990 0.00000000
v 42.94371414 7.99146557 0.00000000
v 42.73241043 8.23241138 0.00000000
v 43.42903900 6.81978893 5.59999990
v 43.36651993 7.13410664 5.59999990
v 43.26350403 7.43757439 5.59999990
v 43.12176132 7.72499990 5.59999990
v 42.94371414 7.99146557 5.59999990
v 39.50853348 8.44371605 5.59999990
v 40.06242371 8.76350498 5.59999990
v 40.68021011 8.92903996 5.59999990
v 41.93757629 8.76350498 0.00000000
v 42.22499847 8.62176228 0.00000000
v 42.22499847 8.62176228 5.59999990
v 41.31978989 8.92903996 0.00000000
v 41.31978989 8.92903996 5.59999990
v 41.00000000 8.94999981 0.00000000
v 41.63410568 8.86651802 0.00000000
v 41.63410568 8.86651802 5.59999990
v 41.93757629 8.76350498 5.59999990
v 42.73241043 8.23241138 5.59999990
v 42.49146652 8.44371605 0.00000000
v 42.49146652 8.44371605 5.59999990
v 41.00000000 8.94999981 5.59999990
v 49.83493805 7.75000000 5.59999990
v 50.01661682 8.02190399 5.59999990
v 50.23223114 8.26776695 5.59999990
v 50.47809601 8.48338318 5.59999990
v 50.75000000 8.66506386 5.59999990
v 51.04329300 8.80969906 5.59999990
v 51.35295105 8.91481495 5.59999990
v 52.95670700 8.80969906 0.00000000
v 53.25000000 8.66506386 0.00000000
v 53.25000000 8.66506386 5.59999990
v 52.64704895 8.91481495 0.00000000
v 52.64704895 8.91481495 5.59999990
v 52.32631683 8.97861195 0.00000000
v 52.95670700 8.80969906 5.59999990
v 51.67368317 8.97861195 0.00000000
v 51.67368317 8.97861195 5.59999990
v 52.00000000 9.00000000 0.00000000
v 52.00000000 9.00000000 5.59999990
v 52.32631683 8.97861195 5.59999990
v 60.47181702 6.83284187 0.00000000
v 60.53688812 7.15998840 0.00000000
v 60.64410782 7.47584295 0.00000000
v 60.79163361 7.77500010 0.00000000
v 60.97694778 8.05234146 0.00000000
v 61.19687653 8.30312252 0.00000000
v 61.44765854 8.52305126 0.00000000
v 61.72499847 8.70836449 0.00000000
v 62.02415848 8.85589314 0.00000000
v 54.30970001 7.45670843 0.00000000
v 54.16506195 7.75000000 0.00000000
v 53.98338318 8.02190399 0.00000000
v 65.35589600 7.47584295 0.00000000
v 65.20836639 7.77500010 0.00000000
v 65.02304840 8.05234146 0.00000000
v 54.47861099 6.82631540 5.59999990
v 54.41481400 7.14704752 5.59999990
v 54.30970001 7.45670843 5.59999990
v 54.16506195 7.75000000 5.59999990
v 53.98338318 8.02190399 5.59999990
v 53.76776886 8.26776695 0.00000000
v 60.79163361 7.77500010 5.59999990
v 60.97694778 8.05234146 5.59999990
v 53.76776886 8.26776695 5.59999990
v 53.52190399 8.48338318 0.00000000
v 53.52190399 8.48338318 5.59999990
v 61.72499847 8.70836449 5.59999990
v 62.02415848 8.85589314 5.59999990
v 65.35589600 7.47584295 5.59999990
v 65.20836639 7.77500010 5.59999990
v 62.34001160 8.96311092 0.00000000
v 62.34001160 8.96311092 5.59999990
v 64.27500153 8.70836449 0.00000000
v 64.27500153 8.70836449 5.59999990
v 63.97584152 8.85589314 0.00000000
v 63.97584152 8.85589314 5.59999990
v 63.65998840 8.96311092 0.00000000
v 65.02304840 8.05234146 5.59999990
v 64.80312347 8.30312252 0.00000000
v 64.80312347 8.30312252 5.59999990
v 64.55234528 8.52305126 0.00000000
v 64.55234528 8.52305126 5.59999990
v 62.66716003 9.02818394 0.00000000
v 62.66716003 9.02818394 5.59999990
v 63.00000000 9.05000019 0.00000000
v 63.33283997 9.02818394 0.00000000
v 63.33283997 9.02818394 5.59999990
v 63.00000000 9.05000019 5.59999990
v 63.65998840 8.96311092 5.59999990
v 67.94999695 1.39999998 4.59999990
v 67.05000305 1.39999998 4.59999990
f 1 2 3
f 1 4 5
f 1 6 4
f 1 7 6
f 1 3 7
f 1 8 2
f 1 9 8
f 1 10 9
f 1 11 10
f 1 12 11
f 1 13 12
f 14 15 16
f 14 16 17
f 15 18 16
f 19 18 15
f 14 17 20
f 19 15 21
f 22 21 23
f 23 24 25
f 24 26 27
f 26 28 29
f 30 28 31
f 19 21 22
f 22 23 25
f 24 27 25
f 26 29 27
f 29 28 30
f 30 31 32
f 3 2 33
f 5 4 34
f 6 7 35
f 6 36 4
f 5 37 38
f 38 39 40
f 40 41 42
f 42 43 44
f 3 45 7
f 2 8 46
f 8 9 47
f 9 10 48
f 10 11 49
f 11 12 50
f 12 13 51
f 44 52 53
f 53 54 55
f 55 56 14
f 19 57 18
f 19 22 58
f 14 59 15
f 15 60 21
f 21 61 23
f 23 62 24
f 24 63 26
f 26 64 28
f 22 25 65
f 25 27 66
f 27 29 67
f 29 30 68
f 30 32 69
f 32 70 71
f 1 5 72
f 5 38 72
f 38 40 72
f 40 42 72
f 42 44 72
f 44 53 72
f 53 55 72
f 55 14 72
f 14 20 72
f 1 72 73
f 74 75 76
f 74 76 77
f 75 78 76
f 75 79 78
f 80 81 79
f 75 80 79
f 80 82 81
f 82 83 84
f 82 85 81
f 82 84 85
f 83 86 84
f 83 87 86
f 87 88 89
f 90 88 91
f 87 89 86
f 89 88 90
f 90 91 92
f 93 94 95
f 94 96 97
f 96 98 99
f 98 100 101
f 100 102 103
f 102 104 105
f 20 106 107
f 17 108 20
f 17 16 109
f 16 18 110
f 107 111 112
f 112 113 114
f 114 115 116
f 116 117 118
f 118 119 120
f 120 121 74
f 74 122 75
f 75 123 80
f 80 124 82
f 82 125 83
f 83 126 87
f 87 127 88
f 79 81 128
f 81 85 129
f 76 78 130
f 76 131 77
f 77 132 133
f 79 134 78
f 133 135 136
f 136 137 138
f 138 139 140
f 140 141 142
f 142 143 144
f 144 145 146
f 85 84 147
f 84 86 148
f 86 89 149
f 89 90 150
f 90 92 151
f 92 152 153
f 146 154 93
f 93 155 94
f 94 156 96
f 96 157 98
f 98 158 100
f 100 159 102
f 1 73 160
f 1 160 161
f 73 162 163
f 73 163 164
f 73 164 160
f 162 165 163
f 161 160 166
f 164 163 167
f 164 166 160
f 163 165 167
f 164 167 166
f 161 45 33
f 161 166 41
f 166 167 41
f 161 37 34
f 161 39 37
f 161 41 39
f 161 34 36
f 161 36 35
f 161 35 45
f 162 168 165
f 162 169 168
f 169 170 168
f 165 168 171
f 170 171 168
f 165 129 167
f 167 111 106
f 167 113 111
f 1 161 172
f 3 33 45
f 5 34 37
f 6 35 36
f 4 36 34
f 38 37 39
f 40 39 41
f 42 41 43
f 44 43 52
f 7 45 35
f 2 46 33
f 8 47 46
f 9 48 47
f 10 49 48
f 11 50 49
f 12 51 50
f 53 52 54
f 55 54 56
f 14 56 59
f 18 57 110
f 19 58 57
f 15 59 60
f 21 60 61
f 23 61 62
f 24 62 63
f 26 63 64
f 64 173 28
f 22 65 58
f 25 66 65
f 27 67 66
f 29 68 67
f 30 69 68
f 32 71 69
f 161 33 46
f 161 46 47
f 161 47 48
f 161 48 49
f 161 49 50
f 161 50 51
f 161 51 174
f 161 174 175
f 167 67 41
f 41 67 43
f 43 67 52
f 52 67 54
f 167 109 110
f 167 106 108
f 167 108 109
f 167 110 57
f 167 57 58
f 167 58 65
f 167 65 66
f 167 66 67
f 54 67 56
f 56 68 59
f 59 68 60
f 60 69 61
f 61 69 62
f 62 71 63
f 63 176 64
f 56 67 68
f 60 68 69
f 62 69 71
f 63 71 176
f 73 72 162
f 162 72 169
f 169 177 178
f 179 180 181
f 169 178 170
f 179 181 182
f 177 179 183
f 177 184 178
f 179 182 183
f 180 185 181
f 177 183 184
f 184 183 186
f 170 178 187
f 182 181 188
f 178 184 187
f 182 186 183
f 184 186 187
f 170 187 171
f 182 188 186
f 181 185 188
f 180 189 190
f 180 190 185
f 185 190 191
f 165 171 134
f 171 187 135
f 165 134 128
f 165 128 129
f 185 192 188
f 187 186 193
f 186 188 193
f 171 132 131
f 171 135 132
f 187 137 135
f 187 139 137
f 189 194 195
f 196 197 198
f 189 195 199
f 196 198 200
f 201 202 203
f 201 203 204
f 189 199 190
f 194 205 195
f 194 196 206
f 197 201 207
f 196 200 206
f 197 208 198
f 194 206 205
f 197 207 208
f 205 206 209
f 208 207 210
f 199 195 211
f 200 198 212
f 199 191 190
f 195 205 211
f 199 211 191
f 200 209 206
f 198 208 212
f 205 209 211
f 208 210 212
f 200 212 209
f 201 204 207
f 202 213 203
f 202 214 213
f 204 203 215
f 204 210 207
f 203 213 215
f 204 215 210
f 185 191 192
f 209 212 216
f 213 217 215
f 212 210 218
f 210 215 219
f 191 211 220
f 211 209 220
f 17 109 108
f 20 108 106
f 16 110 109
f 107 106 111
f 112 111 113
f 114 113 115
f 116 115 117
f 118 117 119
f 120 119 121
f 74 121 122
f 75 122 123
f 80 123 124
f 82 124 125
f 83 125 126
f 87 126 127
f 127 221 88
f 79 128 134
f 81 129 128
f 76 130 131
f 77 131 132
f 133 132 135
f 78 134 130
f 136 135 137
f 138 137 139
f 140 139 141
f 142 141 143
f 144 143 145
f 146 145 154
f 85 147 129
f 84 148 147
f 86 149 148
f 89 150 149
f 90 151 150
f 92 153 151
f 93 154 155
f 94 155 156
f 96 156 157
f 98 157 158
f 100 158 159
f 159 222 102
f 167 148 113
f 167 129 147
f 167 147 148
f 171 131 130
f 171 130 134
f 113 149 115
f 115 149 117
f 117 149 119
f 119 149 121
f 121 149 122
f 122 151 123
f 123 151 124
f 113 148 149
f 122 149 150
f 122 150 151
f 124 153 125
f 125 223 126
f 126 223 127
f 124 151 153
f 125 153 223
f 187 193 139
f 188 192 224
f 191 225 192
f 188 224 226
f 188 226 193
f 139 227 141
f 141 227 143
f 143 227 145
f 145 227 154
f 154 228 155
f 155 228 156
f 156 229 157
f 157 229 158
f 158 230 159
f 1 231 13
f 13 231 232
f 232 231 233
f 233 231 234
f 234 231 235
f 235 231 236
f 236 231 237
f 32 31 238
f 238 239 70
f 239 240 241
f 240 242 241
f 242 243 244
f 244 243 245
f 246 245 247
f 32 238 70
f 239 241 70
f 242 244 241
f 244 245 246
f 248 249 246
f 246 247 250
f 251 248 246
f 251 246 250
f 248 252 249
f 248 253 252
f 248 254 253
f 248 255 254
f 248 256 255
f 13 232 174
f 232 233 175
f 233 234 257
f 234 235 258
f 235 236 259
f 236 237 260
f 1 172 231
f 237 261 262
f 261 263 264
f 263 265 266
f 265 267 268
f 267 269 270
f 251 250 271
f 269 272 273
f 272 248 274
f 251 275 248
f 28 173 31
f 31 276 238
f 238 277 239
f 239 278 240
f 240 279 242
f 242 280 243
f 70 241 176
f 241 244 281
f 244 246 282
f 246 249 283
f 249 252 284
f 252 253 285
f 245 243 286
f 245 287 247
f 247 288 250
f 253 254 289
f 254 255 290
f 237 231 261
f 261 231 263
f 263 231 265
f 265 231 267
f 267 231 269
f 269 231 272
f 272 231 248
f 248 231 256
f 231 291 256
f 231 292 291
f 231 293 292
f 231 294 295
f 231 295 293
f 231 296 294
f 92 91 297
f 92 297 298
f 299 152 298
f 92 298 152
f 299 300 152
f 299 301 300
f 301 302 300
f 302 303 304
f 305 304 306
f 303 306 304
f 302 304 300
f 294 307 304
f 294 296 307
f 231 308 296
f 231 309 308
f 305 294 304
f 104 310 311
f 310 312 313
f 314 315 312
f 314 316 317
f 88 221 91
f 91 318 297
f 297 319 298
f 299 298 320
f 299 321 301
f 301 322 302
f 255 256 323
f 256 291 324
f 291 292 325
f 305 326 294
f 292 293 327
f 295 328 293
f 295 294 329
f 302 330 303
f 303 331 306
f 305 306 332
f 152 300 223
f 300 304 333
f 304 307 334
f 307 296 335
f 296 308 336
f 308 309 337
f 102 222 104
f 104 338 310
f 310 339 312
f 314 312 340
f 314 341 316
f 316 342 343
f 309 344 345
f 344 346 347
f 346 348 349
f 348 350 351
f 350 352 353
f 352 354 355
f 354 356 357
f 358 359 360
f 356 360 361
f 343 362 363
f 363 364 365
f 358 365 366
f 231 344 309
f 231 346 344
f 231 348 346
f 231 350 348
f 231 352 350
f 231 367 352
f 13 174 51
f 232 175 174
f 233 257 175
f 234 258 257
f 235 259 258
f 236 260 259
f 237 262 260
f 261 264 262
f 263 266 264
f 265 268 266
f 267 270 268
f 251 271 275
f 269 273 270
f 272 274 273
f 248 275 274
f 31 173 276
f 238 276 277
f 239 277 278
f 240 278 279
f 242 279 280
f 243 280 286
f 70 176 71
f 241 281 176
f 244 282 281
f 246 283 282
f 249 284 283
f 252 285 284
f 245 286 287
f 247 287 288
f 250 288 271
f 253 289 285
f 254 290 289
f 161 175 172
f 175 257 172
f 257 258 172
f 258 259 172
f 259 260 172
f 64 281 173
f 173 282 276
f 276 283 277
f 277 284 278
f 278 285 279
f 279 289 280
f 64 176 281
f 173 281 282
f 276 282 283
f 277 283 284
f 278 284 285
f 279 285 289
f 280 323 286
f 280 289 290
f 280 290 323
f 286 323 324
f 286 324 325
f 260 262 172
f 262 264 172
f 264 266 172
f 266 268 172
f 275 271 172
f 268 270 172
f 270 273 172
f 273 274 172
f 275 172 274
f 91 221 318
f 297 318 319
f 298 319 320
f 299 320 321
f 301 321 322
f 302 322 330
f 255 323 290
f 256 324 323
f 291 325 324
f 292 327 325
f 295 329 328
f 293 328 327
f 294 326 329
f 303 330 331
f 306 331 332
f 305 332 326
f 152 223 153
f 300 333 223
f 304 334 333
f 307 335 334
f 296 336 335
f 308 337 336
f 104 222 338
f 310 338 339
f 314 340 341
f 312 339 340
f 316 341 342
f 343 342 362
f 309 345 337
f 344 347 345
f 346 349 347
f 348 351 349
f 350 353 351
f 352 355 353
f 358 366 359
f 354 357 355
f 356 361 357
f 360 359 361
f 363 362 364
f 365 364 366
f 127 333 221
f 221 334 318
f 318 335 319
f 127 223 333
f 221 333 334
f 318 334 335
f 319 336 320
f 321 320 345
f 321 347 322
f 319 335 336
f 320 336 337
f 320 337 345
f 322 351 330
f 321 345 347
f 322 347 349
f 322 349 351
f 330 351 353
f 159 368 222
f 222 369 338
f 338 370 339
f 339 371 340
f 341 340 372
f 341 373 342
f 231 172 374
f 287 374 288
f 288 374 271
f 287 286 374
f 286 325 374
f 271 374 172
f 20 107 72
f 107 112 72
f 112 114 72
f 114 116 72
f 116 118 72
f 118 120 72
f 120 74 72
f 74 77 72
f 77 133 72
f 133 136 72
f 136 138 72
f 138 140 72
f 140 142 72
f 142 144 72
f 144 146 72
f 93 375 72
f 376 72 375
f 376 377 72
f 377 378 72
f 378 379 72
f 379 380 72
f 380 381 72
f 381 382 72
f 93 95 375
f 94 383 95
f 94 97 383
f 96 384 97
f 96 99 384
f 98 101 99
f 100 103 101
f 104 311 105
f 102 105 103
f 310 385 311
f 146 93 72
f 386 387 388
f 389 390 387
f 382 391 72
f 391 392 72
f 392 386 72
f 386 389 387
f 389 393 394
f 389 394 390
f 393 395 394
f 393 396 397
f 393 398 395
f 393 397 398
f 393 399 396
f 393 400 399
f 393 401 400
f 97 216 383
f 97 384 220
f 384 99 225
f 376 217 377
f 95 219 375
f 95 383 218
f 376 375 402
f 377 403 378
f 378 404 379
f 379 405 380
f 380 406 381
f 381 407 382
f 382 408 391
f 99 101 192
f 101 103 224
f 103 105 226
f 105 311 193
f 311 385 227
f 385 409 228
f 391 410 392
f 392 411 386
f 386 412 389
f 389 413 393
f 393 414 415
f 416 417 418
f 418 419 420
f 420 421 422
f 390 423 387
f 390 394 424
f 394 395 425
f 388 387 426
f 416 388 427
f 422 428 429
f 429 430 431
f 397 432 398
f 395 398 433
f 397 396 434
f 396 399 435
f 399 400 436
f 400 401 437
f 386 388 72
f 416 418 72
f 416 72 388
f 418 420 72
f 420 422 72
f 422 429 72
f 429 431 72
f 72 431 438
f 72 438 439
f 72 439 440
f 72 441 442
f 72 442 443
f 72 443 444
f 72 444 445
f 72 445 446
f 72 446 447
f 72 447 448
f 72 448 449
f 72 449 450
f 72 450 451
f 72 440 452
f 72 452 453
f 72 453 454
f 72 454 455
f 72 455 456
f 72 456 457
f 72 457 458
f 441 458 459
f 459 458 460
f 460 458 461
f 461 458 462
f 462 458 463
f 463 458 464
f 464 458 465
f 465 458 466
f 72 458 441
f 72 451 467
f 72 467 468
f 72 468 469
f 72 469 470
f 72 470 471
f 72 471 472
f 72 472 473
f 431 474 438
f 438 475 439
f 439 476 440
f 441 459 477
f 459 460 478
f 460 461 479
f 461 462 480
f 440 481 452
f 452 482 453
f 453 483 454
f 454 484 455
f 455 485 456
f 462 463 486
f 463 464 487
f 464 465 488
f 465 466 489
f 466 490 491
f 442 492 443
f 444 493 445
f 443 494 444
f 445 495 446
f 441 496 442
f 446 497 447
f 447 498 448
f 448 499 449
f 449 500 450
f 450 501 451
f 72 367 502
f 451 503 467
f 467 504 468
f 468 505 469
f 469 506 470
f 470 507 471
f 169 72 177
f 177 72 179
f 179 72 180
f 180 72 189
f 189 72 194
f 194 72 196
f 196 72 197
f 197 72 201
f 201 72 202
f 202 72 508
f 72 509 508
f 72 510 509
f 72 511 510
f 72 512 511
f 72 513 512
f 72 514 513
f 72 515 514
f 508 509 516
f 508 516 517
f 510 511 518
f 512 513 519
f 514 515 520
f 510 518 521
f 512 519 522
f 514 520 523
f 202 508 214
f 509 510 524
f 508 517 214
f 509 525 516
f 510 521 524
f 213 214 526
f 509 524 525
f 525 524 527
f 517 516 528
f 517 526 214
f 516 525 528
f 521 527 524
f 525 527 528
f 517 528 526
f 511 512 529
f 511 530 518
f 512 522 529
f 513 514 531
f 513 532 519
f 514 523 531
f 515 533 520
f 511 529 530
f 530 529 534
f 513 531 532
f 532 531 535
f 521 518 536
f 522 519 537
f 523 520 538
f 518 530 536
f 522 534 529
f 530 534 536
f 521 536 527
f 522 537 534
f 519 532 537
f 523 535 531
f 520 533 538
f 532 535 537
f 523 538 535
f 213 526 435
f 213 403 217
f 213 404 403
f 215 217 402
f 215 402 219
f 526 528 434
f 528 527 434
f 527 536 432
f 536 534 432
f 539 540 541
f 539 541 542
f 543 544 545
f 546 547 548
f 543 545 549
f 546 548 550
f 515 539 551
f 539 542 551
f 515 551 533
f 533 551 552
f 542 541 553
f 542 552 551
f 542 553 552
f 540 543 554
f 540 555 541
f 543 549 554
f 544 556 545
f 544 546 557
f 547 558 559
f 546 550 557
f 547 560 548
f 540 554 555
f 544 557 556
f 555 554 561
f 547 559 560
f 556 557 562
f 560 559 563
f 549 545 564
f 550 548 565
f 541 555 553
f 549 561 554
f 545 556 564
f 555 561 553
f 556 562 564
f 549 564 561
f 550 562 557
f 548 560 565
f 560 563 565
f 550 565 562
f 533 423 538
f 533 552 421
f 534 537 433
f 537 535 425
f 535 538 424
f 533 426 423
f 552 553 421
f 553 561 421
f 561 564 421
f 564 562 421
f 562 565 421
f 565 563 421
f 533 417 427
f 533 419 417
f 533 427 426
f 533 421 419
f 97 220 216
f 384 225 220
f 99 192 225
f 376 402 217
f 95 218 219
f 375 219 402
f 383 216 218
f 377 217 403
f 378 403 404
f 379 404 405
f 380 405 406
f 381 406 407
f 382 407 408
f 101 224 192
f 105 193 226
f 103 226 224
f 311 227 193
f 385 228 227
f 391 408 410
f 392 410 411
f 386 411 412
f 389 412 413
f 393 413 414
f 414 566 415
f 416 427 417
f 418 417 419
f 420 419 421
f 387 423 426
f 390 424 423
f 394 425 424
f 395 433 425
f 388 426 427
f 422 421 428
f 429 428 430
f 431 430 474
f 398 432 433
f 397 434 432
f 396 435 434
f 399 436 435
f 400 437 436
f 209 216 220
f 191 220 225
f 212 218 216
f 210 219 218
f 213 435 404
f 139 193 227
f 154 227 228
f 156 228 229
f 404 437 405
f 538 423 424
f 535 424 425
f 537 425 433
f 534 433 432
f 526 434 435
f 527 432 434
f 405 437 406
f 406 437 407
f 407 437 408
f 408 437 410
f 404 435 436
f 404 436 437
f 410 567 411
f 411 567 412
f 412 568 413
f 410 437 569
f 410 569 567
f 72 539 515
f 72 540 539
f 72 543 540
f 72 544 543
f 72 546 544
f 72 547 546
f 72 558 547
f 72 570 558
f 72 571 570
f 72 572 571
f 72 573 572
f 72 574 573
f 72 575 574
f 72 576 575
f 72 577 576
f 72 578 577
f 72 579 578
f 72 580 579
f 72 581 580
f 72 582 581
f 72 583 582
f 72 584 583
f 72 502 584
f 558 570 585
f 571 572 586
f 558 585 587
f 571 586 588
f 573 574 589
f 575 576 590
f 573 589 591
f 575 590 592
f 577 593 594
f 570 571 595
f 558 587 559
f 570 596 585
f 571 588 595
f 572 573 597
f 572 598 586
f 570 595 596
f 596 595 599
f 572 597 598
f 598 597 600
f 587 585 601
f 588 586 602
f 587 563 559
f 585 596 601
f 588 599 595
f 596 599 601
f 587 601 563
f 588 602 599
f 586 598 602
f 598 600 602
f 574 575 603
f 573 591 597
f 574 604 589
f 575 592 603
f 576 577 605
f 576 606 590
f 577 594 605
f 574 603 604
f 604 603 607
f 576 605 606
f 606 605 608
f 591 589 609
f 592 590 610
f 591 600 597
f 589 604 609
f 592 607 603
f 604 607 609
f 591 609 600
f 590 606 610
f 594 608 605
f 606 608 610
f 592 610 607
f 594 611 608
f 421 563 601
f 421 601 599
f 421 599 602
f 421 602 600
f 421 600 609
f 421 609 607
f 421 607 610
f 421 612 428
f 428 612 430
f 421 610 608
f 421 608 611
f 421 611 613
f 421 613 614
f 421 614 612
f 612 615 474
f 577 578 593
f 579 580 616
f 581 582 617
f 579 616 618
f 581 617 619
f 578 579 620
f 578 621 593
f 579 618 620
f 580 581 622
f 580 623 616
f 581 619 622
f 582 624 617
f 578 620 621
f 621 620 613
f 580 622 623
f 582 625 624
f 623 622 612
f 594 593 611
f 618 616 614
f 619 617 615
f 593 621 611
f 618 613 620
f 621 613 611
f 618 614 613
f 616 623 614
f 619 612 622
f 617 624 615
f 623 612 614
f 624 626 615
f 619 615 612
f 582 583 625
f 624 625 626
f 502 627 584
f 502 628 627
f 615 626 493
f 493 626 628
f 502 495 493
f 502 497 495
f 502 498 497
f 502 499 498
f 502 493 628
f 502 500 499
f 502 501 500
f 502 503 501
f 438 474 475
f 439 475 476
f 441 477 496
f 459 478 477
f 460 479 478
f 461 480 479
f 440 476 481
f 452 481 482
f 453 482 483
f 454 483 484
f 455 484 485
f 485 629 456
f 462 486 480
f 463 487 486
f 464 488 487
f 465 489 488
f 466 491 489
f 443 492 494
f 444 494 493
f 445 493 495
f 446 495 497
f 442 496 492
f 447 497 498
f 448 498 499
f 449 499 500
f 450 500 501
f 451 501 503
f 467 503 504
f 468 504 505
f 469 505 506
f 470 506 507
f 507 630 471
f 430 612 474
f 615 475 474
f 615 493 475
f 475 492 496
f 475 493 494
f 475 494 492
f 475 496 477
f 475 477 478
f 475 478 479
f 475 479 480
f 475 631 476
f 476 631 481
f 481 632 482
f 475 480 486
f 475 486 487
f 475 487 488
f 475 488 489
f 475 489 491
f 475 491 633
f 475 633 634
f 475 634 635
f 502 504 503
f 502 505 504
f 502 506 505
f 502 507 506
f 502 630 507
f 502 636 630
f 502 637 636
f 310 409 385
f 310 638 409
f 310 639 638
f 310 640 639
f 310 641 640
f 310 313 641
f 312 642 313
f 312 315 642
f 314 643 315
f 314 317 643
f 316 644 317
f 316 645 644
f 393 415 646
f 415 647 648
f 393 649 401
f 393 650 649
f 393 651 650
f 393 646 651
f 647 652 653
f 652 654 655
f 415 648 646
f 647 653 648
f 652 656 653
f 652 655 656
f 654 657 655
f 654 658 657
f 316 343 367
f 654 659 367
f 659 660 367
f 660 661 367
f 409 638 229
f 638 639 230
f 639 640 368
f 640 641 369
f 641 313 370
f 415 566 647
f 647 662 652
f 652 663 654
f 654 664 659
f 659 665 660
f 660 666 661
f 313 642 371
f 642 315 667
f 315 643 372
f 643 317 668
f 317 644 373
f 644 645 669
f 670 671 672
f 673 674 675
f 673 676 677
f 670 678 676
f 661 679 680
f 680 681 671
f 645 675 682
f 401 649 569
f 649 650 567
f 650 651 568
f 651 646 683
f 646 648 684
f 648 653 685
f 653 656 686
f 656 655 687
f 655 657 688
f 657 658 689
f 690 691 692
f 693 694 695
f 693 690 696
f 658 697 698
f 697 699 700
f 699 695 701
f 358 367 365
f 352 367 354
f 354 367 356
f 356 367 360
f 358 360 367
f 343 363 367
f 363 365 367
f 316 367 645
f 645 367 675
f 661 680 367
f 680 671 367
f 670 367 671
f 670 676 367
f 673 675 367
f 673 367 676
f 231 374 367
f 466 458 490
f 458 702 490
f 458 703 702
f 458 704 703
f 458 705 704
f 458 706 705
f 458 707 706
f 458 708 707
f 458 709 708
f 458 710 709
f 711 712 367
f 712 713 367
f 458 711 367
f 72 473 367
f 458 367 710
f 473 714 367
f 714 715 367
f 715 716 367
f 456 629 457
f 457 717 458
f 458 718 711
f 711 719 712
f 712 720 713
f 713 721 722
f 490 702 633
f 702 703 634
f 703 704 635
f 704 705 723
f 705 706 724
f 722 725 726
f 726 727 691
f 706 707 631
f 707 708 632
f 708 709 728
f 709 710 729
f 471 630 472
f 473 637 714
f 472 636 473
f 714 730 715
f 715 731 716
f 710 732 733
f 734 735 736
f 736 737 738
f 716 739 740
f 740 741 742
f 734 742 743
f 732 744 745
f 746 747 748
f 744 746 749
f 747 738 750
f 654 367 658
f 713 722 367
f 722 726 367
f 726 691 367
f 658 367 697
f 697 367 699
f 699 367 695
f 693 695 367
f 690 367 691
f 693 367 690
f 710 367 732
f 732 367 744
f 747 367 738
f 734 736 367
f 736 738 367
f 744 367 746
f 746 367 747
f 716 740 367
f 740 742 367
f 734 367 742
f 409 229 228
f 638 230 229
f 639 368 230
f 640 369 368
f 641 370 369
f 313 371 370
f 647 566 662
f 652 662 663
f 659 664 665
f 654 663 664
f 660 665 666
f 642 667 371
f 315 372 667
f 643 668 372
f 317 373 668
f 644 669 373
f 645 682 669
f 670 672 678
f 673 677 674
f 676 678 677
f 661 666 679
f 680 679 681
f 671 681 672
f 675 674 682
f 401 569 437
f 649 567 569
f 650 568 567
f 651 683 568
f 646 684 683
f 648 685 684
f 653 686 685
f 656 687 686
f 655 688 687
f 657 689 688
f 658 698 689
f 690 692 696
f 693 696 694
f 697 700 698
f 699 701 700
f 695 694 701
f 158 229 230
f 159 230 368
f 222 368 369
f 338 369 370
f 339 370 371
f 340 371 667
f 340 667 372
f 341 372 668
f 341 668 373
f 342 373 669
f 413 683 414
f 414 684 566
f 566 685 662
f 412 567 568
f 413 568 683
f 662 686 663
f 663 688 664
f 414 683 684
f 566 684 685
f 662 685 686
f 663 686 687
f 663 687 688
f 664 688 689
f 342 374 362
f 664 374 665
f 665 374 666
f 666 374 679
f 330 374 331
f 326 374 329
f 326 332 374
f 331 374 332
f 325 327 374
f 328 374 327
f 328 329 374
f 330 353 374
f 359 366 374
f 353 355 374
f 355 357 374
f 357 361 374
f 359 374 361
f 362 374 364
f 364 374 366
f 342 669 374
f 669 682 374
f 679 374 681
f 681 374 672
f 678 672 374
f 678 374 677
f 674 374 682
f 674 677 374
f 457 629 717
f 458 717 718
f 711 718 719
f 712 719 720
f 713 720 721
f 490 633 491
f 702 634 633
f 703 635 634
f 704 723 635
f 705 724 723
f 722 721 725
f 726 725 727
f 691 727 692
f 706 631 724
f 707 632 631
f 708 728 632
f 709 729 728
f 472 630 636
f 473 636 637
f 714 637 730
f 715 730 731
f 716 731 739
f 710 733 729
f 738 737 750
f 736 735 737
f 740 739 741
f 742 741 743
f 734 743 735
f 732 745 733
f 744 749 745
f 746 748 749
f 747 750 748
f 502 367 374
f 475 635 723
f 475 723 724
f 475 724 631
f 481 631 632
f 482 632 728
f 482 728 729
f 482 374 483
f 483 374 484
f 484 374 485
f 485 374 629
f 629 374 717
f 719 374 720
f 720 374 721
f 717 374 718
f 718 374 719
f 502 374 637
f 482 729 374
f 637 374 730
f 730 374 731
f 731 374 739
f 664 689 374
f 721 374 725
f 725 374 727
f 727 374 692
f 689 698 374
f 698 700 374
f 700 701 374
f 694 374 701
f 696 692 374
f 694 696 374
f 729 733 374
f 733 745 374
f 748 750 374
f 735 374 737
f 737 374 750
f 745 749 374
f 749 748 374
f 739 374 741
f 741 374 743
f 735 743 374
f 751 583 584
f 752 583 751
f 752 625 583
f 751 584 627
f 752 751 628
f 752 626 625
f 751 627 628
f 752 628 626

