  0
SECTION
  2
HEADER
  9
$ACADVER
  1
AC1024
  9
$ACADMAINTVER
 70
6
  9
$DWGCODEPAGE
  3
ANSI_1252
  9
$LASTSAVEDBY
  1
ezdxf
  9
$INSBASE
 10
0.0
 20
0.0
 30
0.0
  9
$EXTMIN
 10
1e+20
 20
1e+20
 30
1e+20
  9
$EXTMAX
 10
-1e+20
 20
-1e+20
 30
-1e+20
  9
$LIMMIN
 10
0.0
 20
0.0
  9
$LIMMAX
 10
420.0
 20
297.0
  9
$ORTHOMODE
 70
0
  9
$REGENMODE
 70
1
  9
$FILLMODE
 70
1
  9
$QTEXTMODE
 70
0
  9
$MIRRTEXT
 70
1
  9
$LTSCALE
 40
1.0
  9
$ATTMODE
 70
1
  9
$TEXTSIZE
 40
2.5
  9
$TRACEWID
 40
1.0
  9
$TEXTSTYLE
  7
Standard
  9
$CLAYER
  8
0
  9
$CELTYPE
  6
ByLayer
  9
$CECOLOR
 62
256
  9
$CELTSCALE
 40
1.0
  9
$DISPSILH
 70
0
  9
$DIMSCALE
 40
1.0
  9
$DIMASZ
 40
2.5
  9
$DIMEXO
 40
0.625
  9
$DIMDLI
 40
3.75
  9
$DIMRND
 40
0.0
  9
$DIMDLE
 40
0.0
  9
$DIMEXE
 40
1.25
  9
$DIMTP
 40
0.0
  9
$DIMTM
 40
0.0
  9
$DIMTXT
 40
2.5
  9
$DIMCEN
 40
2.5
  9
$DIMTSZ
 40
0.0
  9
$DIMTOL
 70
0
  9
$DIMLIM
 70
0
  9
$DIMTIH
 70
0
  9
$DIMTOH
 70
0
  9
$DIMSE1
 70
0
  9
$DIMSE2
 70
0
  9
$DIMTAD
 70
1
  9
$DIMZIN
 70
8
  9
$DIMBLK
  1

  9
$DIMASO
 70
1
  9
$DIMSHO
 70
1
  9
$DIMPOST
  1

  9
$DIMAPOST
  1

  9
$DIMALT
 70
0
  9
$DIMALTD
 70
3
  9
$DIMALTF
 40
0.03937007874
  9
$DIMLFAC
 40
1.0
  9
$DIMTOFL
 70
1
  9
$DIMTVP
 40
0.0
  9
$DIMTIX
 70
0
  9
$DIMSOXD
 70
0
  9
$DIMSAH
 70
0
  9
$DIMBLK1
  1

  9
$DIMBLK2
  1

  9
$DIMSTYLE
  2
ISO-25
  9
$DIMCLRD
 70
0
  9
$DIMCLRE
 70
0
  9
$DIMCLRT
 70
0
  9
$DIMTFAC
 40
1.0
  9
$DIMGAP
 40
0.625
  9
$DIMJUST
 70
0
  9
$DIMSD1
 70
0
  9
$DIMSD2
 70
0
  9
$DIMTOLJ
 70
0
  9
$DIMTZIN
 70
8
  9
$DIMALTZ
 70
0
  9
$DIMALTTZ
 70
0
  9
$DIMUPT
 70
0
  9
$DIMDEC
 70
2
  9
$DIMTDEC
 70
2
  9
$DIMALTU
 70
2
  9
$DIMALTTD
 70
3
  9
$DIMTXSTY
  7
Standard
  9
$DIMAUNIT
 70
0
  9
$DIMADEC
 70
0
  9
$DIMALTRND
 40
0.0
  9
$DIMAZIN
 70
0
  9
$DIMDSEP
 70
44
  9
$DIMATFIT
 70
3
  9
$DIMFRAC
 70
0
  9
$DIMLDRBLK
  1

  9
$DIMLUNIT
 70
2
  9
$DIMLWD
 70
-2
  9
$DIMLWE
 70
-2
  9
$DIMTMOVE
 70
0
  9
$DIMFXL
 40
1.0
  9
$DIMFXLON
 70
0
  9
$DIMJOGANG
 40
0.785398163397
  9
$DIMTFILL
 70
0
  9
$DIMTFILLCLR
 70
0
  9
$DIMARCSYM
 70
0
  9
$DIMLTYPE
  6

  9
$DIMLTEX1
  6

  9
$DIMLTEX2
  6

  9
$DIMTXTDIRECTION
 70
0
  9
$LUNITS
 70
2
  9
$LUPREC
 70
4
  9
$SKETCHINC
 40
1.0
  9
$FILLETRAD
 40
10.0
  9
$AUNITS
 70
0
  9
$AUPREC
 70
2
  9
$MENU
  1
.
  9
$ELEVATION
 40
0.0
  9
$PELEVATION
 40
0.0
  9
$THICKNESS
 40
0.0
  9
$LIMCHECK
 70
0
  9
$CHAMFERA
 40
0.0
  9
$CHAMFERB
 40
0.0
  9
$CHAMFERC
 40
0.0
  9
$CHAMFERD
 40
0.0
  9
$SKPOLY
 70
0
  9
$TDCREATE
 40
2461262.7457060185
  9
$TDUCREATE
 40
2458532.153996898
  9
$TDUPDATE
 40
2461262.7457060185
  9
$TDUUPDATE
 40
2458532.1544311
  9
$TDINDWG
 40
0.0
  9
$TDUSRTIMER
 40
0.0
  9
$USRTIMER
 70
1
  9
$ANGBASE
 50
0.0
  9
$ANGDIR
 70
0
  9
$PDMODE
 70
0
  9
$PDSIZE
 40
0.0
  9
$PLINEWID
 40
0.0
  9
$SPLFRAME
 70
0
  9
$SPLINETYPE
 70
6
  9
$SPLINESEGS
 70
8
  9
$HANDSEED
  5
37
  9
$SURFTAB1
 70
6
  9
$SURFTAB2
 70
6
  9
$SURFTYPE
 70
6
  9
$SURFU
 70
6
  9
$SURFV
 70
6
  9
$UCSBASE
  2

  9
$UCSNAME
  2

  9
$UCSORG
 10
0.0
 20
0.0
 30
0.0
  9
$UCSXDIR
 10
1.0
 20
0.0
 30
0.0
  9
$UCSYDIR
 10
0.0
 20
1.0
 30
0.0
  9
$UCSORTHOREF
  2

  9
$UCSORTHOVIEW
 70
0
  9
$UCSORGTOP
 10
0.0
 20
0.0
 30
0.0
  9
$UCSORGBOTTOM
 10
0.0
 20
0.0
 30
0.0
  9
$UCSORGLEFT
 10
0.0
 20
0.0
 30
0.0
  9
$UCSORGRIGHT
 10
0.0
 20
0.0
 30
0.0
  9
$UCSORGFRONT
 10
0.0
 20
0.0
 30
0.0
  9
$UCSORGBACK
 10
0.0
 20
0.0
 30
0.0
  9
$PUCSBASE
  2

  9
$PUCSNAME
  2

  9
$PUCSORG
 10
0.0
 20
0.0
 30
0.0
  9
$PUCSXDIR
 10
1.0
 20
0.0
 30
0.0
  9
$PUCSYDIR
 10
0.0
 20
1.0
 30
0.0
  9
$PUCSORTHOREF
  2

  9
$PUCSORTHOVIEW
 70
0
  9
$PUCSORGTOP
 10
0.0
 20
0.0
 30
0.0
  9
$PUCSORGBOTTOM
 10
0.0
 20
0.0
 30
0.0
  9
$PUCSORGLEFT
 10
0.0
 20
0.0
 30
0.0
  9
$PUCSORGRIGHT
 10
0.0
 20
0.0
 30
0.0
  9
$PUCSORGFRONT
 10
0.0
 20
0.0
 30
0.0
  9
$PUCSORGBACK
 10
0.0
 20
0.0
 30
0.0
  9
$USERI1
 70
0
  9
$USERI2
 70
0
  9
$USERI3
 70
0
  9
$USERI4
 70
0
  9
$USERI5
 70
0
  9
$USERR1
 40
0.0
  9
$USERR2
 40
0.0
  9
$USERR3
 40
0.0
  9
$USERR4
 40
0.0
  9
$USERR5
 40
0.0
  9
$WORLDVIEW
 70
1
  9
$SHADEDGE
 70
3
  9
$SHADEDIF
 70
70
  9
$TILEMODE
 70
1
  9
$MAXACTVP
 70
64
  9
$PINSBASE
 10
0.0
 20
0.0
 30
0.0
  9
$PLIMCHECK
 70
0
  9
$PEXTMIN
 10
1e+20
 20
1e+20
 30
1e+20
  9
$PEXTMAX
 10
-1e+20
 20
-1e+20
 30
-1e+20
  9
$PLIMMIN
 10
0.0
 20
0.0
  9
$PLIMMAX
 10
420.0
 20
297.0
  9
$UNITMODE
 70
0
  9
$VISRETAIN
 70
1
  9
$PLINEGEN
 70
0
  9
$PSLTSCALE
 70
1
  9
$TREEDEPTH
 70
3020
  9
$CMLSTYLE
  2
Standard
  9
$CMLJUST
 70
0
  9
$CMLSCALE
 40
20.0
  9
$PROXYGRAPHICS
 70
1
  9
$MEASUREMENT
 70
1
  9
$CELWEIGHT
370
-1
  9
$ENDCAPS
280
0
  9
$JOINSTYLE
280
0
  9
$LWDISPLAY
290
0
  9
$INSUNITS
 70
4
  9
$HYPERLINKBASE
  1

  9
$STYLESHEET
  1

  9
$XEDIT
290
1
  9
$CEPSNTYPE
380
0
  9
$PSTYLEMODE
290
1
  9
$FINGERPRINTGUID
  2
{BEEEE416-E969-4405-91E1-5BF1AF83F13B}
  9
$VERSIONGUID
  2
{A9818328-0656-4E60-8AC5-1E410997B4C3}
  9
$EXTNAMES
290
1
  9
$PSVPSCALE
 40
0.0
  9
$OLESTARTUP
290
0
  9
$SORTENTS
280
127
  9
$INDEXCTL
280
0
  9
$HIDETEXT
280
1
  9
$XCLIPFRAME
280
1
  9
$HALOGAP
280
0
  9
$OBSCOLOR
 70
257
  9
$OBSLTYPE
280
0
  9
$INTERSECTIONDISPLAY
280
0
  9
$INTERSECTIONCOLOR
 70
257
  9
$DIMASSOC
280
2
  9
$PROJECTNAME
  1

  9
$CAMERADISPLAY
290
0
  9
$LENSLENGTH
 40
50.0
  9
$CAMERAHEIGHT
 40
0.0
  9
$STEPSPERSEC
 40
24.0
  9
$STEPSIZE
 40
100.0
  9
$3DDWFPREC
 40
2.0
  9
$PSOLWIDTH
 40
0.005
  9
$PSOLHEIGHT
 40
0.08
  9
$LOFTANG1
 40
1.570796326795
  9
$LOFTANG2
 40
1.570796326795
  9
$LOFTMAG1
 40
0.0
  9
$LOFTMAG2
 40
0.0
  9
$LOFTPARAM
 70
7
  9
$LOFTNORMALS
280
1
  9
$LATITUDE
 40
37.795
  9
$LONGITUDE
 40
-122.394
  9
$NORTHDIRECTION
 40
0.0
  9
$TIMEZONE
 70
-8000
  9
$LIGHTGLYPHDISPLAY
280
1
  9
$TILEMODELIGHTSYNCH
280
1
  9
$CMATERIAL
347
20
  9
$SOLIDHIST
280
0
  9
$SHOWHIST
280
1
  9
$DWFFRAME
280
2
  9
$DGNFRAME
280
2
  9
$REALWORLDSCALE
290
1
  9
$INTERFERECOLOR
 62
256
  9
$CSHADOW
280
0
  9
$SHADOWPLANELOCATION
 40
0.0
  0
ENDSEC
  0
SECTION
  2
CLASSES
  0
CLASS
  1
ACDBDICTIONARYWDFLT
  2
AcDbDictionaryWithDefault
  3
ObjectDBX Classes
 90
0
 91
0
280
0
281
0
  0
CLASS
  1
SUN
  2
AcDbSun
  3
SCENEOE
 90
1153
 91
0
280
0
281
0
  0
CLASS
  1
VISUALSTYLE
  2
AcDbVisualStyle
  3
ObjectDBX Classes
 90
4095
 91
0
280
0
281
0
  0
CLASS
  1
MATERIAL
  2
AcDbMaterial
  3
ObjectDBX Classes
 90
1153
 91
0
280
0
281
0
  0
CLASS
  1
SCALE
  2
AcDbScale
  3
ObjectDBX Classes
 90
1153
 91
0
280
0
281
0
  0
CLASS
  1
TABLESTYLE
  2
AcDbTableStyle
  3
ObjectDBX Classes
 90
4095
 91
0
280
0
281
0
  0
CLASS
  1
MLEADERSTYLE
  2
AcDbMLeaderStyle
  3
ACDB_MLEADERSTYLE_CLASS
 90
4095
 91
0
280
0
281
0
  0
CLASS
  1
DICTIONARYVAR
  2
AcDbDictionaryVar
  3
ObjectDBX Classes
 90
0
 91
0
280
0
281
0
  0
CLASS
  1
CELLSTYLEMAP
  2
AcDbCellStyleMap
  3
ObjectDBX Classes
 90
1152
 91
0
280
0
281
0
  0
CLASS
  1
MENTALRAYRENDERSETTINGS
  2
AcDbMentalRayRenderSettings
  3
SCENEOE
 90
1024
 91
0
280
0
281
0
  0
CLASS
  1
ACDBDETAILVIEWSTYLE
  2
AcDbDetailViewStyle
  3
ObjectDBX Classes
 90
1025
 91
0
280
0
281
0
  0
CLASS
  1
ACDBSECTIONVIEWSTYLE
  2
AcDbSectionViewStyle
  3
ObjectDBX Classes
 90
1025
 91
0
280
0
281
0
  0
CLASS
  1
RASTERVARIABLES
  2
AcDbRasterVariables
  3
ISM
 90
0
 91
0
280
0
281
0
  0
CLASS
  1
ACDBPLACEHOLDER
  2
AcDbPlaceHolder
  3
ObjectDBX Classes
 90
0
 91
0
280
0
281
0
  0
CLASS
  1
LAYOUT
  2
AcDbLayout
  3
ObjectDBX Classes
 90
0
 91
0
280
0
281
0
  0
ENDSEC
  0
SECTION
  2
TABLES
  0
TABLE
  2
VPORT
  5
8
330
0
100
AcDbSymbolTable
 70
1
  0
VPORT
  5
23
330
8
100
AcDbSymbolTableRecord
100
AcDbViewportTableRecord
  2
*Active
 70
0
 10
0.0
 20
0.0
 11
1.0
 21
1.0
 12
0.0
 22
0.0
 13
0.0
 23
0.0
 14
0.5
 24
0.5
 15
0.5
 25
0.5
 16
0.0
 26
0.0
 36
1.0
 17
0.0
 27
0.0
 37
0.0
 40
1000.0
 41
1.34
 42
50.0
 43
0.0
 44
0.0
 50
0.0
 51
0.0
 71
0
 72
1000
 73
1
 74
3
 75
0
 76
0
 77
0
 78
0
281
0
 65
0
146
0.0
  0
ENDTAB
  0
TABLE
  2
LTYPE
  5
2
330
0
100
AcDbSymbolTable
 70
3
  0
LTYPE
  5
24
330
2
100
AcDbSymbolTableRecord
100
AcDbLinetypeTableRecord
  2
ByBlock
 70
0
  3

 72
65
 73
0
 40
0.0
  0
LTYPE
  5
25
330
2
100
AcDbSymbolTableRecord
100
AcDbLinetypeTableRecord
  2
ByLayer
 70
0
  3

 72
65
 73
0
 40
0.0
  0
LTYPE
  5
26
330
2
100
AcDbSymbolTableRecord
100
AcDbLinetypeTableRecord
  2
Continuous
 70
0
  3

 72
65
 73
0
 40
0.0
  0
ENDTAB
  0
TABLE
  2
LAYER
  5
1
330
0
100
AcDbSymbolTable
 70
2
  0
LAYER
  5
27
330
1
100
AcDbSymbolTableRecord
100
AcDbLayerTableRecord
  2
0
 70
0
 62
7
  6
Continuous
370
-3
390
13
347
21
  0
LAYER
  5
28
330
1
100
AcDbSymbolTableRecord
100
AcDbLayerTableRecord
  2
Defpoints
 70
0
 62
7
  6
Continuous
290
0
370
-3
390
13
347
21
  0
ENDTAB
  0
TABLE
  2
STYLE
  5
5
330
0
100
AcDbSymbolTable
 70
1
  0
STYLE
  5
29
330
5
100
AcDbSymbolTableRecord
100
AcDbTextStyleTableRecord
  2
Standard
 70
0
 40
0.0
 41
1.0
 50
0.0
 71
0
 42
2.5
  3
txt
  4

  0
ENDTAB
  0
TABLE
  2
VIEW
  5
7
330
0
100
AcDbSymbolTable
 70
0
  0
ENDTAB
  0
TABLE
  2
UCS
  5
6
330
0
100
AcDbSymbolTable
 70
0
  0
ENDTAB
  0
TABLE
  2
APPID
  5
3
330
0
100
AcDbSymbolTable
 70
3
  0
APPID
  5
2A
330
3
100
AcDbSymbolTableRecord
100
AcDbRegAppTableRecord
  2
ACAD
 70
0
  0
APPID
  5
34
330
3
100
AcDbSymbolTableRecord
100
AcDbRegAppTableRecord
  2
HATCHBACKGROUNDCOLOR
 70
0
  0
APPID
  5
35
330
3
100
AcDbSymbolTableRecord
100
AcDbRegAppTableRecord
  2
EZDXF
 70
0
  0
ENDTAB
  0
TABLE
  2
DIMSTYLE
  5
4
330
0
100
AcDbSymbolTable
 70
1
100
AcDbDimStyleTable
  0
DIMSTYLE
105
2B
330
4
100
AcDbSymbolTableRecord
100
AcDbDimStyleTableRecord
  2
Standard
 70
0
 40
1.0
 41
2.5
 42
0.625
 43
3.75
 44
1.25
 45
0.0
 46
0.0
 47
0.0
 48
0.0
 49
2.5
140
2.5
141
2.5
142
0.0
143
0.03937007874
144
1.0
145
0.0
146
1.0
147
0.625
148
0.0
 69
0
 70
0
 71
0
 72
0
 73
0
 74
0
 75
0
 76
0
 77
1
 78
8
 79
3
170
0
171
3
172
1
173
0
174
0
175
0
176
0
177
0
178
0
179
2
271
2
272
2
273
2
274
3
275
0
276
0
277
2
278
44
279
0
280
0
281
0
282
0
283
0
284
8
285
0
286
0
288
0
289
3
290
0
371
-2
372
-2
  0
ENDTAB
  0
TABLE
  2
BLOCK_RECORD
  5
9
330
0
100
AcDbSymbolTable
 70
2
  0
BLOCK_RECORD
  5
17
330
9
100
AcDbSymbolTableRecord
100
AcDbBlockTableRecord
  2
*Model_Space
340
1A
 70
0
280
1
281
0
  0
BLOCK_RECORD
  5
1B
330
9
100
AcDbSymbolTableRecord
100
AcDbBlockTableRecord
  2
*Paper_Space
340
1E
 70
0
280
1
281
0
  0
ENDTAB
  0
ENDSEC
  0
SECTION
  2
BLOCKS
  0
BLOCK
  5
18
330
17
100
AcDbEntity
  8
0
100
AcDbBlockBegin
  2
*Model_Space
 70
0
 10
0.0
 20
0.0
 30
0.0
  3
*Model_Space
  1

  0
ENDBLK
  5
19
330
17
100
AcDbEntity
  8
0
100
AcDbBlockEnd
  0
BLOCK
  5
1C
330
1B
100
AcDbEntity
  8
0
100
AcDbBlockBegin
  2
*Paper_Space
 70
0
 10
0.0
 20
0.0
 30
0.0
  3
*Paper_Space
  1

  0
ENDBLK
  5
1D
330
1B
100
AcDbEntity
  8
0
100
AcDbBlockEnd
  0
ENDSEC
  0
SECTION
  2
ENTITIES
  0
LWPOLYLINE
  5
2F
330
17
100
AcDbEntity
  8
0
100
AcDbPolyline
 90
63
 70
1
 10
-46.91959925851055
 20
25.201164230864492
 10
-46.91959925851055
 20
-41.786335769135505
 10
-46.84668259184389
 20
-41.85925243580217
 10
-44.41959925851055
 20
-44.286335769135505
 10
-44.416181276072585
 20
-44.286335769135505
 10
-44.41581958521534
 20
-44.286335769135505
 10
-44.31959935387798
 20
-44.286335769135505
 10
-44.31959935387798
 20
-42.36192930713144
 10
-44.31959935387798
 20
-42.32628987545804
 10
-44.31959935387798
 20
-42.286335769135505
 10
-44.89692120071635
 20
-42.286335769135505
 10
-44.91959925851055
 20
-42.286335769135505
 10
-44.91959925851055
 20
-40.05906304186278
 10
-44.91959925851055
 20
-33.466335769135505
 10
-44.91959925851055
 20
20.713664230864495
 10
-38.89959925851055
 20
20.713664230864495
 10
-37.91959925851055
 20
20.713664230864495
 10
-37.91959925851055
 20
26.73366423086449
 10
-37.91959925851055
 20
27.713664230864495
 10
-34.76959925851055
 20
27.713664230864495
 10
13.330400741489449
 20
27.713664230864495
 10
17.180400741489443
 20
27.713664230864495
 10
18.58040074148945
 20
27.713664230864495
 10
22.430400741489443
 20
27.713664230864495
 10
23.83040074148945
 20
27.713664230864495
 10
27.680400741489443
 20
27.713664230864495
 10
29.08040074148945
 20
27.713664230864495
 10
32.93040074148944
 20
27.713664230864495
 10
36.08040074148945
 20
27.713664230864495
 10
36.08040074148945
 20
21.6936642308645
 10
36.08040074148945
 20
20.713664230864495
 10
42.100400741489445
 20
20.713664230864495
 10
43.08040074148945
 20
20.713664230864495
 10
43.08040074148945
 20
18.709118776319052
 10
43.08040074148945
 20
-42.286335769135505
 10
43.059892879458125
 20
-42.286335769135505
 10
43.05772273776396
 20
-42.286335769135505
 10
42.480402267368355
 20
-42.286335769135505
 10
42.480402267368355
 20
-44.21074223113957
 10
42.480402267368355
 20
-44.24638166281297
 10
42.480402267368355
 20
-44.286335769135505
 10
42.48331888953022
 20
-44.286335769135505
 10
42.58040074148945
 20
-44.286335769135505
 10
42.65331740815612
 20
-44.21341910246884
 10
45.08040074148945
 20
-41.786335769135505
 10
45.08040074148945
 20
-39.7738357691355
 10
45.08040074148945
 20
27.213664230864495
 10
45.00748407482278
 20
27.286580897531167
 10
42.58040074148945
 20
29.713664230864495
 10
41.80540074148944
 20
29.713664230864495
 10
37.15540074148945
 20
29.713664230864495
 10
33.30540074148944
 20
29.713664230864495
 10
31.90540074148945
 20
29.713664230864495
 10
28.055400741489443
 20
29.713664230864495
 10
26.65540074148945
 20
29.713664230864495
 10
22.805400741489443
 20
29.713664230864495
 10
21.40540074148945
 20
29.713664230864495
 10
17.555400741489443
 20
29.713664230864495
 10
-38.994599258510554
 20
29.713664230864495
 10
-44.41959925851055
 20
29.713664230864495
 10
-46.84668259184389
 20
27.286580897531167
 10
-46.91959925851055
 20
27.213664230864495
 10
-46.91959925851055
 20
25.201164230864492
  0
LWPOLYLINE
  5
30
330
17
100
AcDbEntity
  8
0
100
AcDbPolyline
 90
97
 70
1
 10
-38.88887901435208
 20
22.981087777069675
 10
-38.922414028255425
 20
22.812495407622308
 10
-38.93233146389977
 20
22.783278972371974
 10
-38.98758574685284
 20
22.6205016942434
 10
-39.001231790001
 20
22.59283054313049
 10
-39.077259742824516
 20
22.43866270498559
 10
-39.09440088838849
 20
22.413009362911623
 10
-39.189901554195366
 20
22.27008360342309
 10
-39.21024450585268
 20
22.246886926439117
 10
-39.32358380517193
 20
22.117648300688714
 10
-39.3467804821559
 20
22.0973053490314
 10
-39.4760191079063
 20
21.98396604971215
 10
-39.50167259510462
 20
21.966825121834702
 10
-39.64459916314312
 20
21.871325668852776
 10
-39.672270604504746
 20
21.8576793354559
 10
-39.826440059749565
 20
21.781649765532464
 10
-39.85565591450248
 20
21.771732547574658
 10
-40.018429958431206
 20
21.716479477446526
 10
-40.04869027317069
 20
21.710459719180164
 10
-40.21728345116802
 20
21.676921066801995
 10
-40.24807063988017
 20
21.67490325776305
 10
-40.41959925851055
 20
21.663661179106683
 10
-40.4503864472227
 20
21.66567898814563
 10
-40.62191506585308
 20
21.676921066801995
 10
-40.65217538059257
 20
21.682940825068357
 10
-40.8207685585899
 20
21.716479477446526
 10
-40.84998441334281
 20
21.726396695404333
 10
-41.01275845727154
 20
21.781649765532464
 10
-41.040429898633164
 20
21.79529609892934
 10
-41.19459935387798
 20
21.871325668852776
 10
-41.2202528410763
 20
21.888466596730225
 10
-41.3631794091148
 20
21.98396604971215
 10
-41.38637608609877
 20
22.004309001369464
 10
-41.515614711849175
 20
22.117648300688714
 10
-41.53595766350649
 20
22.140844977672685
 10
-41.64929696282574
 20
22.27008360342309
 10
-41.66643810838971
 20
22.295736945497055
 10
-41.76193877419659
 20
22.43866270498559
 10
-41.77558481734475
 20
22.4663338560985
 10
-41.851612770168266
 20
22.6205016942434
 10
-41.86153020581261
 20
22.649718129493735
 10
-41.91678448876568
 20
22.812495407622308
 10
-41.92280359397244
 20
22.84275557723744
 10
-41.956338607875786
 20
23.011347946684808
 10
-41.958356562039086
 20
23.042135207959134
 10
-41.969599449245415
 20
23.213664230864495
 10
-41.967581495082115
 20
23.244451492138822
 10
-41.956338607875786
 20
23.415980515044183
 10
-41.950319502669025
 20
23.446240684659315
 10
-41.91678448876568
 20
23.614833054106683
 10
-41.90686705312133
 20
23.644049489357016
 10
-41.851612770168266
 20
23.80682676748559
 10
-41.8379667270201
 20
23.8344979185985
 10
-41.76193877419659
 20
23.9886657567434
 10
-41.74479762863261
 20
24.014319098817367
 10
-41.64929696282574
 20
24.1572448583059
 10
-41.628954011168425
 20
24.180441535289873
 10
-41.515614711849175
 20
24.309680161040276
 10
-41.4924180348652
 20
24.33002311269759
 10
-41.3631794091148
 20
24.44336241201684
 10
-41.33752592191648
 20
24.460503339894288
 10
-41.19459935387798
 20
24.556002792876214
 10
-41.16692791251636
 20
24.56964912627309
 10
-41.01275845727154
 20
24.645678696196526
 10
-40.983542602518625
 20
24.655595914154333
 10
-40.8207685585899
 20
24.710848984282464
 10
-40.79050824385041
 20
24.716868742548826
 10
-40.62191506585308
 20
24.750407394926995
 10
-40.591127877140934
 20
24.75242520396594
 10
-40.41959925851055
 20
24.763667282622308
 10
-40.388812069798405
 20
24.76164947358336
 10
-40.21728345116802
 20
24.750407394926995
 10
-40.187023136428536
 20
24.744387636660633
 10
-40.018429958431206
 20
24.710848984282464
 10
-39.98921410367829
 20
24.700931766324658
 10
-39.826440059749565
 20
24.645678696196526
 10
-39.79876861838794
 20
24.63203236279965
 10
-39.64459916314312
 20
24.556002792876214
 10
-39.6189456759448
 20
24.538861864998765
 10
-39.4760191079063
 20
24.44336241201684
 10
-39.45282243092233
 20
24.423019460359527
 10
-39.32358380517193
 20
24.309680161040276
 10
-39.303240853514616
 20
24.286483484056305
 10
-39.189901554195366
 20
24.1572448583059
 10
-39.17276040863139
 20
24.131591516231936
 10
-39.077259742824516
 20
23.9886657567434
 10
-39.06361369967635
 20
23.96099460563049
 10
-38.98758574685284
 20
23.80682676748559
 10
-38.97766831120849
 20
23.777610332235255
 10
-38.922414028255425
 20
23.614833054106683
 10
-38.916394923048664
 20
23.58457288449155
 10
-38.88285990914532
 20
23.415980515044183
 10
-38.88084195498202
 20
23.385193253769856
 10
-38.86959906777569
 20
23.213664230864495
 10
-38.87161702193899
 20
23.18287696959017
 10
-38.88285990914532
 20
23.011347946684808
 10
-38.88887901435208
 20
22.981087777069675
  0
LWPOLYLINE
  5
31
330
17
100
AcDbEntity
  8
0
100
AcDbPolyline
 90
97
 70
1
 10
39.49832802685689
 20
21.966825121834702
 10
39.355402267368355
 20
21.871325668852776
 10
39.32773111625544
 20
21.8576793354559
 10
39.17356327811054
 20
21.781649765532464
 10
39.14434684286021
 20
21.771732547574658
 10
38.981569564731636
 20
21.716479477446526
 10
38.9513093951165
 20
21.710459719180164
 10
38.782717025669136
 20
21.676921066801995
 10
38.75192976439481
 20
21.67490325776305
 10
38.58040074148945
 20
21.663661179106683
 10
38.54961348021512
 20
21.66567898814563
 10
38.37808445730976
 20
21.676921066801995
 10
38.34782428769463
 20
21.682940825068357
 10
38.17923191824726
 20
21.716479477446526
 10
38.15001548299693
 20
21.726396695404333
 10
37.987238204868355
 20
21.781649765532464
 10
37.95956705375544
 20
21.79529609892934
 10
37.80539921561054
 20
21.871325668852776
 10
37.77974587353658
 20
21.888466596730225
 10
37.63682011404804
 20
21.98396604971215
 10
37.61362343706407
 20
22.004309001369464
 10
37.48438481131367
 20
22.117648300688714
 10
37.464041859656355
 20
22.140844977672685
 10
37.350702560337105
 20
22.27008360342309
 10
37.333561632459656
 20
22.295736945497055
 10
37.23806217947773
 20
22.43866270498559
 10
37.22441584608085
 20
22.4663338560985
 10
37.14838627615742
 20
22.6205016942434
 10
37.13846905819961
 20
22.649718129493735
 10
37.08321598807148
 20
22.812495407622308
 10
37.07719622980512
 20
22.84275557723744
 10
37.04365757742695
 20
23.011347946684808
 10
37.041639768388
 20
23.042135207959134
 10
37.030397689731636
 20
23.213664230864495
 10
37.03241549877058
 20
23.244451492138822
 10
37.04365757742695
 20
23.415980515044183
 10
37.04967733569331
 20
23.446240684659315
 10
37.08321598807148
 20
23.614833054106683
 10
37.093133206029286
 20
23.644049489357016
 10
37.14838627615742
 20
23.80682676748559
 10
37.162032609554295
 20
23.8344979185985
 10
37.23806217947773
 20
23.9886657567434
 10
37.25520310735518
 20
24.014319098817367
 10
37.350702560337105
 20
24.1572448583059
 10
37.37104551199442
 20
24.180441535289873
 10
37.48438481131367
 20
24.309680161040276
 10
37.50758148829764
 20
24.33002311269759
 10
37.63682011404804
 20
24.44336241201684
 10
37.66247345612201
 20
24.460503339894288
 10
37.80539921561054
 20
24.556002792876214
 10
37.833070366723454
 20
24.56964912627309
 10
37.987238204868355
 20
24.645678696196526
 10
38.01645464011869
 20
24.655595914154333
 10
38.17923191824726
 20
24.710848984282464
 10
38.209492087862394
 20
24.716868742548826
 10
38.37808445730976
 20
24.750407394926995
 10
38.40887171858409
 20
24.75242520396594
 10
38.58040074148945
 20
24.763667282622308
 10
38.611188002763775
 20
24.76164947358336
 10
38.782717025669136
 20
24.750407394926995
 10
38.81297719528427
 20
24.744387636660633
 10
38.981569564731636
 20
24.710848984282464
 10
39.01078599998197
 20
24.700931766324658
 10
39.17356327811054
 20
24.645678696196526
 10
39.201234429223454
 20
24.63203236279965
 10
39.355402267368355
 20
24.556002792876214
 10
39.38105560944232
 20
24.538861864998765
 10
39.523981368930855
 20
24.44336241201684
 10
39.547178045914826
 20
24.423019460359527
 10
39.67641667166523
 20
24.309680161040276
 10
39.69675962332254
 20
24.286483484056305
 10
39.81009892264179
 20
24.1572448583059
 10
39.82723985051924
 20
24.131591516231936
 10
39.92273930350117
 20
23.9886657567434
 10
39.936385636898045
 20
23.96099460563049
 10
40.01241520682148
 20
23.80682676748559
 10
40.022332424779286
 20
23.777610332235255
 10
40.07758549490742
 20
23.614833054106683
 10
40.08360525317378
 20
23.58457288449155
 10
40.11714390555195
 20
23.415980515044183
 10
40.119161714590895
 20
23.385193253769856
 10
40.13040379324726
 20
23.213664230864495
 10
40.128385984208315
 20
23.18287696959017
 10
40.11714390555195
 20
23.011347946684808
 10
40.11112414728559
 20
22.981087777069675
 10
40.07758549490742
 20
22.812495407622308
 10
40.06766827694961
 20
22.783278972371974
 10
40.01241520682148
 20
22.6205016942434
 10
39.9987688734246
 20
22.59283054313049
 10
39.92273930350117
 20
22.43866270498559
 10
39.90559837562372
 20
22.413009362911623
 10
39.81009892264179
 20
22.27008360342309
 10
39.78975597098448
 20
22.246886926439117
 10
39.67641667166523
 20
22.117648300688714
 10
39.65321999468126
 20
22.0973053490314
 10
39.523981368930855
 20
21.98396604971215
 10
39.49832802685689
 20
21.966825121834702
  0
LWPOLYLINE
  5
32
330
17
100
AcDbEntity
  8
0
100
AcDbPolyline
 90
18
 70
1
 10
-3.138176177852621
 20
-44.286335769135505
 10
1.4804022673683548
 20
-44.286335769135505
 10
1.4804022673683548
 20
-42.36192930713144
 10
1.4804022673683548
 20
-42.32628987545804
 10
1.4804022673683548
 20
-42.286335769135505
 10
1.4804022673683548
 20
-36.26633576913551
 10
1.4804022673683548
 20
-35.286335769135505
 10
-2.647600357143361
 20
-35.286335769135505
 10
-3.3196007843894577
 20
-35.286335769135505
 10
-3.3196007843894577
 20
-41.3063357691355
 10
-3.3196007843894577
 20
-42.286335769135505
 10
-3.3196007843894577
 20
-44.006335769135504
 10
-3.3196007843894577
 20
-44.16966910246884
 10
-3.3196007843894577
 20
-44.21074223113957
 10
-3.3196007843894577
 20
-44.24638166281297
 10
-3.3196007843894577
 20
-44.286335769135505
 10
-3.155537366595617
 20
-44.286335769135505
 10
-3.138176177852621
 20
-44.286335769135505
  0
LWPOLYLINE
  5
33
330
17
100
AcDbEntity
  8
0
100
AcDbPolyline
 90
97
 70
1
 10
0.5223324247792931
 20
-37.72239242512743
 10
0.5775854949074173
 20
-37.88516646905616
 10
0.5836046726763584
 20
-37.91542678379564
 10
0.6171400908546829
 20
-38.084019961792976
 10
0.6191578998936293
 20
-38.11480715050512
 10
0.6303999785499954
 20
-38.286335769135505
 10
0.628382169511049
 20
-38.31712295784765
 10
0.6171400908546829
 20
-38.488651576478034
 10
0.6111209130857418
 20
-38.51891189121751
 10
0.5775854949074173
 20
-38.68750506921485
 10
0.567668276949604
 20
-38.71672092396776
 10
0.5124152068214798
 20
-38.87949496789649
 10
0.4987688734246021
 20
-38.90716640925812
 10
0.4227393035011673
 20
-39.06133586450294
 10
0.40559837562372536
 20
-39.086989351701256
 10
0.3100989226417923
 20
-39.22991591973975
 10
0.2897559709844799
 20
-39.253112596723724
 10
0.17641667166522979
 20
-39.38235122247413
 10
0.15321999468125824
 20
-39.40269417413144
 10
0.023981368930854785
 20
-39.51603347345069
 10
-0.0016719731431109608
 20
-39.533174619014666
 10
-0.14459773263164521
 20
-39.62867528482154
 10
-0.1722694642419782
 20
-39.642321327969704
 10
-0.32644053658672334
 20
-39.71834928079322
 10
-0.355656391339636
 20
-39.72826671643757
 10
-0.518430435268364
 20
-39.78352099939063
 10
-0.5486906048834896
 20
-39.78954010459739
 10
-0.717282974330864
 20
-39.82307511850074
 10
-0.7480702356051836
 20
-39.82509307266404
 10
-0.9195992585105515
 20
-39.83633595987037
 10
-0.9503865197848711
 20
-39.83431800570707
 10
-1.121915542690239
 20
-39.82307511850074
 10
-1.1521757123053646
 20
-39.81705601329398
 10
-1.320768081752739
 20
-39.78352099939063
 10
-1.3499839365056516
 20
-39.773603563746285
 10
-1.5127579804343796
 20
-39.71834928079322
 10
-1.5404297120447126
 20
-39.704703237645056
 10
-1.6946007843894577
 20
-39.62867528482154
 10
-1.7202541264634235
 20
-39.611534139257564
 10
-1.8631798859519577
 20
-39.51603347345069
 10
-1.8863765629359293
 20
-39.49569052179338
 10
-2.0156151886863327
 20
-39.38235122247413
 10
-2.035958140343645
 20
-39.359154545490156
 10
-2.149297439662895
 20
-39.22991591973975
 10
-2.166438367540337
 20
-39.204262432541434
 10
-2.26193782052227
 20
-39.06133586450294
 10
-2.275584153919148
 20
-39.03366442314131
 10
-2.3516137238425827
 20
-38.87949496789649
 10
-2.361530941800396
 20
-38.85027911314358
 10
-2.41678401192852
 20
-38.68750506921485
 10
-2.4228031896974613
 20
-38.65724475447537
 10
-2.456338607875786
 20
-38.488651576478034
 10
-2.4583564169147323
 20
-38.45786438776589
 10
-2.4695984955710983
 20
-38.286335769135505
 10
-2.467580686532152
 20
-38.25554858042336
 10
-2.456338607875786
 20
-38.084019961792976
 10
-2.4503194301068447
 20
-38.0537596470535
 10
-2.41678401192852
 20
-37.88516646905616
 10
-2.406866793970707
 20
-37.85595061430325
 10
-2.3516137238425827
 20
-37.69317657037452
 10
-2.337967390445705
 20
-37.66550512901289
 10
-2.26193782052227
 20
-37.51133567376807
 10
-2.2447968926448283
 20
-37.485682186569754
 10
-2.149297439662895
 20
-37.34275561853126
 10
-2.128954488005583
 20
-37.319558941547285
 10
-2.0156151886863327
 20
-37.19032031579688
 10
-1.9924185117023612
 20
-37.16997736413957
 10
-1.8631798859519577
 20
-37.05663806482032
 10
-1.837526543877992
 20
-37.039496919256344
 10
-1.6946007843894577
 20
-36.94399625344947
 10
-1.6669290527791247
 20
-36.930350210301306
 10
-1.5127579804343796
 20
-36.85432225747779
 10
-1.483542125681467
 20
-36.84440482183344
 10
-1.320768081752739
 20
-36.78915053888038
 10
-1.2905079121376133
 20
-36.78313143367362
 10
-1.121915542690239
 20
-36.74959641977027
 10
-1.0911282814159193
 20
-36.74757846560697
 10
-0.9195992585105515
 20
-36.73633557840064
 10
-0.8888119972362318
 20
-36.73835353256394
 10
-0.717282974330864
 20
-36.74959641977027
 10
-0.6870228047157383
 20
-36.75561552497703
 10
-0.518430435268364
 20
-36.78915053888038
 10
-0.4892145805154513
 20
-36.799067974524725
 10
-0.32644053658672334
 20
-36.85432225747779
 10
-0.29876880497639036
 20
-36.867968300625954
 10
-0.14459773263164521
 20
-36.94399625344947
 10
-0.11894439055767947
 20
-36.961137399013445
 10
0.023981368930854785
 20
-37.05663806482032
 10
0.04717804591482633
 20
-37.07698101647763
 10
0.17641667166522979
 20
-37.19032031579688
 10
0.19675962332254215
 20
-37.21351699278085
 10
0.3100989226417923
 20
-37.34275561853126
 10
0.3272398505192342
 20
-37.368409105729576
 10
0.4227393035011673
 20
-37.51133567376807
 10
0.436385636898045
 20
-37.5390071151297
 10
0.5124152068214798
 20
-37.69317657037452
 10
0.5223324247792931
 20
-37.72239242512743
  0
ENDSEC
  0
SECTION
  2
OBJECTS
  0
DICTIONARY
  5
A
330
0
100
AcDbDictionary
281
1
  3
ACAD_COLOR
350
B
  3
ACAD_GROUP
350
C
  3
ACAD_LAYOUT
350
D
  3
ACAD_MATERIAL
350
E
  3
ACAD_MLEADERSTYLE
350
F
  3
ACAD_MLINESTYLE
350
10
  3
ACAD_PLOTSETTINGS
350
11
  3
ACAD_PLOTSTYLENAME
350
12
  3
ACAD_SCALELIST
350
14
  3
ACAD_TABLESTYLE
350
15
  3
ACAD_VISUALSTYLE
350
16
  3
EZDXF_META
350
2D
  0
DICTIONARY
  5
B
330
A
100
AcDbDictionary
281
1
  0
DICTIONARY
  5
C
330
A
100
AcDbDictionary
281
1
  0
DICTIONARY
  5
D
330
A
100
AcDbDictionary
281
1
  3
Model
350
1A
  3
Layout1
350
1E
  0
DICTIONARY
  5
E
330
A
100
AcDbDictionary
281
1
  3
ByBlock
350
1F
  3
ByLayer
350
20
  3
Global
350
21
  0
DICTIONARY
  5
F
330
A
100
AcDbDictionary
281
1
  3
Standard
350
2C
  0
DICTIONARY
  5
10
330
A
100
AcDbDictionary
281
1
  3
Standard
350
22
  0
DICTIONARY
  5
11
330
A
100
AcDbDictionary
281
1
  0
ACDBDICTIONARYWDFLT
  5
12
330
A
100
AcDbDictionary
281
1
  3
Normal
350
13
100
AcDbDictionaryWithDefault
340
13
  0
ACDBPLACEHOLDER
  5
13
330
12
  0
DICTIONARY
  5
14
330
A
100
AcDbDictionary
281
1
  0
DICTIONARY
  5
15
330
A
100
AcDbDictionary
281
1
  0
DICTIONARY
  5
16
330
A
100
AcDbDictionary
281
1
  0
LAYOUT
  5
1A
330
D
100
AcDbPlotSettings
  1

  4
A3
  6

 40
7.5
 41
20.0
 42
7.5
 43
20.0
 44
420.0
 45
297.0
 46
0.0
 47
0.0
 48
0.0
 49
0.0
140
0.0
141
0.0
142
1.0
143
1.0
 70
1024
 72
1
 73
0
 74
5
  7

 75
16
 76
0
 77
2
 78
300
147
1.0
148
0.0
149
0.0
100
AcDbLayout
  1
Model
 70
1
 71
0
 10
0.0
 20
0.0
 11
420.0
 21
297.0
 12
0.0
 22
0.0
 32
0.0
 14
1e+20
 24
1e+20
 34
1e+20
 15
-1e+20
 25
-1e+20
 35
-1e+20
146
0.0
 13
0.0
 23
0.0
 33
0.0
 16
1.0
 26
0.0
 36
0.0
 17
0.0
 27
1.0
 37
0.0
 76
1
330
17
  0
LAYOUT
  5
1E
330
D
100
AcDbPlotSettings
  1

  4
A3
  6

 40
7.5
 41
20.0
 42
7.5
 43
20.0
 44
420.0
 45
297.0
 46
0.0
 47
0.0
 48
0.0
 49
0.0
140
0.0
141
0.0
142
1.0
143
1.0
 70
0
 72
1
 73
0
 74
5
  7

 75
16
 76
0
 77
2
 78
300
147
1.0
148
0.0
149
0.0
100
AcDbLayout
  1
Layout1
 70
1
 71
1
 10
0.0
 20
0.0
 11
420.0
 21
297.0
 12
0.0
 22
0.0
 32
0.0
 14
1e+20
 24
1e+20
 34
1e+20
 15
-1e+20
 25
-1e+20
 35
-1e+20
146
0.0
 13
0.0
 23
0.0
 33
0.0
 16
1.0
 26
0.0
 36
0.0
 17
0.0
 27
1.0
 37
0.0
 76
1
330
1B
  0
MATERIAL
  5
1F
102
{ACAD_REACTORS
330
E
102
}
330
E
100
AcDbMaterial
  1
ByBlock
  2

 70
0
 40
1.0
 71
1
 41
1.0
 91
-1023410177
 42
1.0
 72
1
  3

 73
1
 74
1
 75
1
 44
0.5
 73
0
 45
1.0
 46
1.0
 77
1
  4

 78
1
 79
1
170
1
 48
1.0
171
1
  6

172
1
173
1
174
1
140
1.0
141
1.0
175
1
  7

176
1
177
1
178
1
143
1.0
179
1
  8

270
1
271
1
272
1
145
1.0
146
1.0
273
1
  9

274
1
275
1
276
1
 42
1.0
 72
1
  3

 73
1
 74
1
 75
1
 94
63
  0
MATERIAL
  5
20
102
{ACAD_REACTORS
330
E
102
}
330
E
100
AcDbMaterial
  1
ByLayer
  2

 70
0
 40
1.0
 71
1
 41
1.0
 91
-1023410177
 42
1.0
 72
1
  3

 73
1
 74
1
 75
1
 44
0.5
 73
0
 45
1.0
 46
1.0
 77
1
  4

 78
1
 79
1
170
1
 48
1.0
171
1
  6

172
1
173
1
174
1
140
1.0
141
1.0
175
1
  7

176
1
177
1
178
1
143
1.0
179
1
  8

270
1
271
1
272
1
145
1.0
146
1.0
273
1
  9

274
1
275
1
276
1
 42
1.0
 72
1
  3

 73
1
 74
1
 75
1
 94
63
  0
MATERIAL
  5
21
102
{ACAD_REACTORS
330
E
102
}
330
E
100
AcDbMaterial
  1
Global
  2

 70
0
 40
1.0
 71
1
 41
1.0
 91
-1023410177
 42
1.0
 72
1
  3

 73
1
 74
1
 75
1
 44
0.5
 73
0
 45
1.0
 46
1.0
 77
1
  4

 78
1
 79
1
170
1
 48
1.0
171
1
  6

172
1
173
1
174
1
140
1.0
141
1.0
175
1
  7

176
1
177
1
178
1
143
1.0
179
1
  8

270
1
271
1
272
1
145
1.0
146
1.0
273
1
  9

274
1
275
1
276
1
 42
1.0
 72
1
  3

 73
1
 74
1
 75
1
 94
63
  0
MLINESTYLE
  5
22
102
{ACAD_REACTORS
330
10
102
}
330
10
100
AcDbMlineStyle
  2
Standard
 70
0
  3

 62
256
 51
90.0
 52
90.0
 71
2
 49
0.5
 62
256
  6
BYLAYER
 49
-0.5
 62
256
  6
BYLAYER
  0
MLEADERSTYLE
  5
2C
102
{ACAD_REACTORS
330
F
102
}
330
F
100
AcDbMLeaderStyle
179
2
170
2
171
1
172
0
 90
2
 40
0.0
 41
0.0
173
1
 91
-1056964608
 92
-2
290
1
 42
2.0
291
1
 43
8.0
  3
Standard
 44
4.0
300

342
29
174
1
175
1
176
0
178
1
 93
-1056964608
 45
4.0
292
0
297
0
 46
4.0
 94
-1056964608
 47
1.0
 49
1.0
140
1.0
294
1
141
0.0
177
0
142
1.0
295
0
296
0
143
3.75
271
0
272
9
273
9
  0
DICTIONARY
  5
2D
330
A
100
AcDbDictionary
280
1
281
1
  3
CREATED_BY_EZDXF
350
2E
  3
WRITTEN_BY_EZDXF
350
36
  0
DICTIONARYVAR
  5
2E
330
2D
100
DictionaryVariables
280
0
  1
1.4.4 @ 2026-08-09T12:23:49.218722+00:00
  0
DICTIONARYVAR
  5
36
330
2D
100
DictionaryVariables
280
0
  1
1.4.4 @ 2026-08-09T12:23:49.224708+00:00
  0
ENDSEC
  0
EOF
