  0
SECTION
  2
HEADER
  9
$ACADVER
  1
AC1024
  9
$ACADMAINTVER
 70
6
  9
$DWGCODEPAGE
  3
ANSI_1252
  9
$LASTSAVEDBY
  1
ezdxf
  9
$INSBASE
 10
0.0
 20
0.0
 30
0.0
  9
$EXTMIN
 10
1e+20
 20
1e+20
 30
1e+20
  9
$EXTMAX
 10
-1e+20
 20
-1e+20
 30
-1e+20
  9
$LIMMIN
 10
0.0
 20
0.0
  9
$LIMMAX
 10
420.0
 20
297.0
  9
$ORTHOMODE
 70
0
  9
$REGENMODE
 70
1
  9
$FILLMODE
 70
1
  9
$QTEXTMODE
 70
0
  9
$MIRRTEXT
 70
1
  9
$LTSCALE
 40
1.0
  9
$ATTMODE
 70
1
  9
$TEXTSIZE
 40
2.5
  9
$TRACEWID
 40
1.0
  9
$TEXTSTYLE
  7
Standard
  9
$CLAYER
  8
0
  9
$CELTYPE
  6
ByLayer
  9
$CECOLOR
 62
256
  9
$CELTSCALE
 40
1.0
  9
$DISPSILH
 70
0
  9
$DIMSCALE
 40
1.0
  9
$DIMASZ
 40
2.5
  9
$DIMEXO
 40
0.625
  9
$DIMDLI
 40
3.75
  9
$DIMRND
 40
0.0
  9
$DIMDLE
 40
0.0
  9
$DIMEXE
 40
1.25
  9
$DIMTP
 40
0.0
  9
$DIMTM
 40
0.0
  9
$DIMTXT
 40
2.5
  9
$DIMCEN
 40
2.5
  9
$DIMTSZ
 40
0.0
  9
$DIMTOL
 70
0
  9
$DIMLIM
 70
0
  9
$DIMTIH
 70
0
  9
$DIMTOH
 70
0
  9
$DIMSE1
 70
0
  9
$DIMSE2
 70
0
  9
$DIMTAD
 70
1
  9
$DIMZIN
 70
8
  9
$DIMBLK
  1

  9
$DIMASO
 70
1
  9
$DIMSHO
 70
1
  9
$DIMPOST
  1

  9
$DIMAPOST
  1

  9
$DIMALT
 70
0
  9
$DIMALTD
 70
3
  9
$DIMALTF
 40
0.03937007874
  9
$DIMLFAC
 40
1.0
  9
$DIMTOFL
 70
1
  9
$DIMTVP
 40
0.0
  9
$DIMTIX
 70
0
  9
$DIMSOXD
 70
0
  9
$DIMSAH
 70
0
  9
$DIMBLK1
  1

  9
$DIMBLK2
  1

  9
$DIMSTYLE
  2
ISO-25
  9
$DIMCLRD
 70
0
  9
$DIMCLRE
 70
0
  9
$DIMCLRT
 70
0
  9
$DIMTFAC
 40
1.0
  9
$DIMGAP
 40
0.625
  9
$DIMJUST
 70
0
  9
$DIMSD1
 70
0
  9
$DIMSD2
 70
0
  9
$DIMTOLJ
 70
0
  9
$DIMTZIN
 70
8
  9
$DIMALTZ
 70
0
  9
$DIMALTTZ
 70
0
  9
$DIMUPT
 70
0
  9
$DIMDEC
 70
2
  9
$DIMTDEC
 70
2
  9
$DIMALTU
 70
2
  9
$DIMALTTD
 70
3
  9
$DIMTXSTY
  7
Standard
  9
$DIMAUNIT
 70
0
  9
$DIMADEC
 70
0
  9
$DIMALTRND
 40
0.0
  9
$DIMAZIN
 70
0
  9
$DIMDSEP
 70
44
  9
$DIMATFIT
 70
3
  9
$DIMFRAC
 70
0
  9
$DIMLDRBLK
  1

  9
$DIMLUNIT
 70
2
  9
$DIMLWD
 70
-2
  9
$DIMLWE
 70
-2
  9
$DIMTMOVE
 70
0
  9
$DIMFXL
 40
1.0
  9
$DIMFXLON
 70
0
  9
$DIMJOGANG
 40
0.785398163397
  9
$DIMTFILL
 70
0
  9
$DIMTFILLCLR
 70
0
  9
$DIMARCSYM
 70
0
  9
$DIMLTYPE
  6

  9
$DIMLTEX1
  6

  9
$DIMLTEX2
  6

  9
$DIMTXTDIRECTION
 70
0
  9
$LUNITS
 70
2
  9
$LUPREC
 70
4
  9
$SKETCHINC
 40
1.0
  9
$FILLETRAD
 40
10.0
  9
$AUNITS
 70
0
  9
$AUPREC
 70
2
  9
$MENU
  1
.
  9
$ELEVATION
 40
0.0
  9
$PELEVATION
 40
0.0
  9
$THICKNESS
 40
0.0
  9
$LIMCHECK
 70
0
  9
$CHAMFERA
 40
0.0
  9
$CHAMFERB
 40
0.0
  9
$CHAMFERC
 40
0.0
  9
$CHAMFERD
 40
0.0
  9
$SKPOLY
 70
0
  9
$TDCREATE
 40
2461262.7457060185
  9
$TDUCREATE
 40
2458532.153996898
  9
$TDUPDATE
 40
2461262.7457060185
  9
$TDUUPDATE
 40
2458532.1544311
  9
$TDINDWG
 40
0.0
  9
$TDUSRTIMER
 40
0.0
  9
$USRTIMER
 70
1
  9
$ANGBASE
 50
0.0
  9
$ANGDIR
 70
0
  9
$PDMODE
 70
0
  9
$PDSIZE
 40
0.0
  9
$PLINEWID
 40
0.0
  9
$SPLFRAME
 70
0
  9
$SPLINETYPE
 70
6
  9
$SPLINESEGS
 70
8
  9
$HANDSEED
  5
36
  9
$SURFTAB1
 70
6
  9
$SURFTAB2
 70
6
  9
$SURFTYPE
 70
6
  9
$SURFU
 70
6
  9
$SURFV
 70
6
  9
$UCSBASE
  2

  9
$UCSNAME
  2

  9
$UCSORG
 10
0.0
 20
0.0
 30
0.0
  9
$UCSXDIR
 10
1.0
 20
0.0
 30
0.0
  9
$UCSYDIR
 10
0.0
 20
1.0
 30
0.0
  9
$UCSORTHOREF
  2

  9
$UCSORTHOVIEW
 70
0
  9
$UCSORGTOP
 10
0.0
 20
0.0
 30
0.0
  9
$UCSORGBOTTOM
 10
0.0
 20
0.0
 30
0.0
  9
$UCSORGLEFT
 10
0.0
 20
0.0
 30
0.0
  9
$UCSORGRIGHT
 10
0.0
 20
0.0
 30
0.0
  9
$UCSORGFRONT
 10
0.0
 20
0.0
 30
0.0
  9
$UCSORGBACK
 10
0.0
 20
0.0
 30
0.0
  9
$PUCSBASE
  2

  9
$PUCSNAME
  2

  9
$PUCSORG
 10
0.0
 20
0.0
 30
0.0
  9
$PUCSXDIR
 10
1.0
 20
0.0
 30
0.0
  9
$PUCSYDIR
 10
0.0
 20
1.0
 30
0.0
  9
$PUCSORTHOREF
  2

  9
$PUCSORTHOVIEW
 70
0
  9
$PUCSORGTOP
 10
0.0
 20
0.0
 30
0.0
  9
$PUCSORGBOTTOM
 10
0.0
 20
0.0
 30
0.0
  9
$PUCSORGLEFT
 10
0.0
 20
0.0
 30
0.0
  9
$PUCSORGRIGHT
 10
0.0
 20
0.0
 30
0.0
  9
$PUCSORGFRONT
 10
0.0
 20
0.0
 30
0.0
  9
$PUCSORGBACK
 10
0.0
 20
0.0
 30
0.0
  9
$USERI1
 70
0
  9
$USERI2
 70
0
  9
$USERI3
 70
0
  9
$USERI4
 70
0
  9
$USERI5
 70
0
  9
$USERR1
 40
0.0
  9
$USERR2
 40
0.0
  9
$USERR3
 40
0.0
  9
$USERR4
 40
0.0
  9
$USERR5
 40
0.0
  9
$WORLDVIEW
 70
1
  9
$SHADEDGE
 70
3
  9
$SHADEDIF
 70
70
  9
$TILEMODE
 70
1
  9
$MAXACTVP
 70
64
  9
$PINSBASE
 10
0.0
 20
0.0
 30
0.0
  9
$PLIMCHECK
 70
0
  9
$PEXTMIN
 10
1e+20
 20
1e+20
 30
1e+20
  9
$PEXTMAX
 10
-1e+20
 20
-1e+20
 30
-1e+20
  9
$PLIMMIN
 10
0.0
 20
0.0
  9
$PLIMMAX
 10
420.0
 20
297.0
  9
$UNITMODE
 70
0
  9
$VISRETAIN
 70
1
  9
$PLINEGEN
 70
0
  9
$PSLTSCALE
 70
1
  9
$TREEDEPTH
 70
3020
  9
$CMLSTYLE
  2
Standard
  9
$CMLJUST
 70
0
  9
$CMLSCALE
 40
20.0
  9
$PROXYGRAPHICS
 70
1
  9
$MEASUREMENT
 70
1
  9
$CELWEIGHT
370
-1
  9
$ENDCAPS
280
0
  9
$JOINSTYLE
280
0
  9
$LWDISPLAY
290
0
  9
$INSUNITS
 70
4
  9
$HYPERLINKBASE
  1

  9
$STYLESHEET
  1

  9
$XEDIT
290
1
  9
$CEPSNTYPE
380
0
  9
$PSTYLEMODE
290
1
  9
$FINGERPRINTGUID
  2
{AAE19351-3719-4CEB-B995-BB01749D21EC}
  9
$VERSIONGUID
  2
{6757A52A-3251-48B7-A11F-EB5335228EC3}
  9
$EXTNAMES
290
1
  9
$PSVPSCALE
 40
0.0
  9
$OLESTARTUP
290
0
  9
$SORTENTS
280
127
  9
$INDEXCTL
280
0
  9
$HIDETEXT
280
1
  9
$XCLIPFRAME
280
1
  9
$HALOGAP
280
0
  9
$OBSCOLOR
 70
257
  9
$OBSLTYPE
280
0
  9
$INTERSECTIONDISPLAY
280
0
  9
$INTERSECTIONCOLOR
 70
257
  9
$DIMASSOC
280
2
  9
$PROJECTNAME
  1

  9
$CAMERADISPLAY
290
0
  9
$LENSLENGTH
 40
50.0
  9
$CAMERAHEIGHT
 40
0.0
  9
$STEPSPERSEC
 40
24.0
  9
$STEPSIZE
 40
100.0
  9
$3DDWFPREC
 40
2.0
  9
$PSOLWIDTH
 40
0.005
  9
$PSOLHEIGHT
 40
0.08
  9
$LOFTANG1
 40
1.570796326795
  9
$LOFTANG2
 40
1.570796326795
  9
$LOFTMAG1
 40
0.0
  9
$LOFTMAG2
 40
0.0
  9
$LOFTPARAM
 70
7
  9
$LOFTNORMALS
280
1
  9
$LATITUDE
 40
37.795
  9
$LONGITUDE
 40
-122.394
  9
$NORTHDIRECTION
 40
0.0
  9
$TIMEZONE
 70
-8000
  9
$LIGHTGLYPHDISPLAY
280
1
  9
$TILEMODELIGHTSYNCH
280
1
  9
$CMATERIAL
347
20
  9
$SOLIDHIST
280
0
  9
$SHOWHIST
280
1
  9
$DWFFRAME
280
2
  9
$DGNFRAME
280
2
  9
$REALWORLDSCALE
290
1
  9
$INTERFERECOLOR
 62
256
  9
$CSHADOW
280
0
  9
$SHADOWPLANELOCATION
 40
0.0
  0
ENDSEC
  0
SECTION
  2
CLASSES
  0
CLASS
  1
ACDBDICTIONARYWDFLT
  2
AcDbDictionaryWithDefault
  3
ObjectDBX Classes
 90
0
 91
0
280
0
281
0
  0
CLASS
  1
SUN
  2
AcDbSun
  3
SCENEOE
 90
1153
 91
0
280
0
281
0
  0
CLASS
  1
VISUALSTYLE
  2
AcDbVisualStyle
  3
ObjectDBX Classes
 90
4095
 91
0
280
0
281
0
  0
CLASS
  1
MATERIAL
  2
AcDbMaterial
  3
ObjectDBX Classes
 90
1153
 91
0
280
0
281
0
  0
CLASS
  1
SCALE
  2
AcDbScale
  3
ObjectDBX Classes
 90
1153
 91
0
280
0
281
0
  0
CLASS
  1
TABLESTYLE
  2
AcDbTableStyle
  3
ObjectDBX Classes
 90
4095
 91
0
280
0
281
0
  0
CLASS
  1
MLEADERSTYLE
  2
AcDbMLeaderStyle
  3
ACDB_MLEADERSTYLE_CLASS
 90
4095
 91
0
280
0
281
0
  0
CLASS
  1
DICTIONARYVAR
  2
AcDbDictionaryVar
  3
ObjectDBX Classes
 90
0
 91
0
280
0
281
0
  0
CLASS
  1
CELLSTYLEMAP
  2
AcDbCellStyleMap
  3
ObjectDBX Classes
 90
1152
 91
0
280
0
281
0
  0
CLASS
  1
MENTALRAYRENDERSETTINGS
  2
AcDbMentalRayRenderSettings
  3
SCENEOE
 90
1024
 91
0
280
0
281
0
  0
CLASS
  1
ACDBDETAILVIEWSTYLE
  2
AcDbDetailViewStyle
  3
ObjectDBX Classes
 90
1025
 91
0
280
0
281
0
  0
CLASS
  1
ACDBSECTIONVIEWSTYLE
  2
AcDbSectionViewStyle
  3
ObjectDBX Classes
 90
1025
 91
0
280
0
281
0
  0
CLASS
  1
RASTERVARIABLES
  2
AcDbRasterVariables
  3
ISM
 90
0
 91
0
280
0
281
0
  0
CLASS
  1
ACDBPLACEHOLDER
  2
AcDbPlaceHolder
  3
ObjectDBX Classes
 90
0
 91
0
280
0
281
0
  0
CLASS
  1
LAYOUT
  2
AcDbLayout
  3
ObjectDBX Classes
 90
0
 91
0
280
0
281
0
  0
ENDSEC
  0
SECTION
  2
TABLES
  0
TABLE
  2
VPORT
  5
8
330
0
100
AcDbSymbolTable
 70
1
  0
VPORT
  5
23
330
8
100
AcDbSymbolTableRecord
100
AcDbViewportTableRecord
  2
*Active
 70
0
 10
0.0
 20
0.0
 11
1.0
 21
1.0
 12
0.0
 22
0.0
 13
0.0
 23
0.0
 14
0.5
 24
0.5
 15
0.5
 25
0.5
 16
0.0
 26
0.0
 36
1.0
 17
0.0
 27
0.0
 37
0.0
 40
1000.0
 41
1.34
 42
50.0
 43
0.0
 44
0.0
 50
0.0
 51
0.0
 71
0
 72
1000
 73
1
 74
3
 75
0
 76
0
 77
0
 78
0
281
0
 65
0
146
0.0
  0
ENDTAB
  0
TABLE
  2
LTYPE
  5
2
330
0
100
AcDbSymbolTable
 70
3
  0
LTYPE
  5
24
330
2
100
AcDbSymbolTableRecord
100
AcDbLinetypeTableRecord
  2
ByBlock
 70
0
  3

 72
65
 73
0
 40
0.0
  0
LTYPE
  5
25
330
2
100
AcDbSymbolTableRecord
100
AcDbLinetypeTableRecord
  2
ByLayer
 70
0
  3

 72
65
 73
0
 40
0.0
  0
LTYPE
  5
26
330
2
100
AcDbSymbolTableRecord
100
AcDbLinetypeTableRecord
  2
Continuous
 70
0
  3

 72
65
 73
0
 40
0.0
  0
ENDTAB
  0
TABLE
  2
LAYER
  5
1
330
0
100
AcDbSymbolTable
 70
2
  0
LAYER
  5
27
330
1
100
AcDbSymbolTableRecord
100
AcDbLayerTableRecord
  2
0
 70
0
 62
7
  6
Continuous
370
-3
390
13
347
21
  0
LAYER
  5
28
330
1
100
AcDbSymbolTableRecord
100
AcDbLayerTableRecord
  2
Defpoints
 70
0
 62
7
  6
Continuous
290
0
370
-3
390
13
347
21
  0
ENDTAB
  0
TABLE
  2
STYLE
  5
5
330
0
100
AcDbSymbolTable
 70
1
  0
STYLE
  5
29
330
5
100
AcDbSymbolTableRecord
100
AcDbTextStyleTableRecord
  2
Standard
 70
0
 40
0.0
 41
1.0
 50
0.0
 71
0
 42
2.5
  3
txt
  4

  0
ENDTAB
  0
TABLE
  2
VIEW
  5
7
330
0
100
AcDbSymbolTable
 70
0
  0
ENDTAB
  0
TABLE
  2
UCS
  5
6
330
0
100
AcDbSymbolTable
 70
0
  0
ENDTAB
  0
TABLE
  2
APPID
  5
3
330
0
100
AcDbSymbolTable
 70
3
  0
APPID
  5
2A
330
3
100
AcDbSymbolTableRecord
100
AcDbRegAppTableRecord
  2
ACAD
 70
0
  0
APPID
  5
33
330
3
100
AcDbSymbolTableRecord
100
AcDbRegAppTableRecord
  2
HATCHBACKGROUNDCOLOR
 70
0
  0
APPID
  5
34
330
3
100
AcDbSymbolTableRecord
100
AcDbRegAppTableRecord
  2
EZDXF
 70
0
  0
ENDTAB
  0
TABLE
  2
DIMSTYLE
  5
4
330
0
100
AcDbSymbolTable
 70
1
100
AcDbDimStyleTable
  0
DIMSTYLE
105
2B
330
4
100
AcDbSymbolTableRecord
100
AcDbDimStyleTableRecord
  2
Standard
 70
0
 40
1.0
 41
2.5
 42
0.625
 43
3.75
 44
1.25
 45
0.0
 46
0.0
 47
0.0
 48
0.0
 49
2.5
140
2.5
141
2.5
142
0.0
143
0.03937007874
144
1.0
145
0.0
146
1.0
147
0.625
148
0.0
 69
0
 70
0
 71
0
 72
0
 73
0
 74
0
 75
0
 76
0
 77
1
 78
8
 79
3
170
0
171
3
172
1
173
0
174
0
175
0
176
0
177
0
178
0
179
2
271
2
272
2
273
2
274
3
275
0
276
0
277
2
278
44
279
0
280
0
281
0
282
0
283
0
284
8
285
0
286
0
288
0
289
3
290
0
371
-2
372
-2
  0
ENDTAB
  0
TABLE
  2
BLOCK_RECORD
  5
9
330
0
100
AcDbSymbolTable
 70
2
  0
BLOCK_RECORD
  5
17
330
9
100
AcDbSymbolTableRecord
100
AcDbBlockTableRecord
  2
*Model_Space
340
1A
 70
0
280
1
281
0
  0
BLOCK_RECORD
  5
1B
330
9
100
AcDbSymbolTableRecord
100
AcDbBlockTableRecord
  2
*Paper_Space
340
1E
 70
0
280
1
281
0
  0
ENDTAB
  0
ENDSEC
  0
SECTION
  2
BLOCKS
  0
BLOCK
  5
18
330
17
100
AcDbEntity
  8
0
100
AcDbBlockBegin
  2
*Model_Space
 70
0
 10
0.0
 20
0.0
 30
0.0
  3
*Model_Space
  1

  0
ENDBLK
  5
19
330
17
100
AcDbEntity
  8
0
100
AcDbBlockEnd
  0
BLOCK
  5
1C
330
1B
100
AcDbEntity
  8
0
100
AcDbBlockBegin
  2
*Paper_Space
 70
0
 10
0.0
 20
0.0
 30
0.0
  3
*Paper_Space
  1

  0
ENDBLK
  5
1D
330
1B
100
AcDbEntity
  8
0
100
AcDbBlockEnd
  0
ENDSEC
  0
SECTION
  2
ENTITIES
  0
LWPOLYLINE
  5
2F
330
17
100
AcDbEntity
  8
0
100
AcDbPolyline
 90
157
 70
1
 10
-43.55376448180225
 20
-35.811710781020096
 10
-40.47376453425433
 20
-35.811710781020096
 10
-37.39376458670642
 20
-35.811710781020096
 10
-37.39376458670642
 20
-6.71171037570851
 10
-37.39376458670642
 20
22.388290029603077
 10
-33.41251430060412
 20
22.388290029603077
 10
-29.431264014501828
 20
22.388290029603077
 10
-29.431264014501828
 20
5.631227117615772
 10
-29.431264014501828
 20
-11.125835794371532
 10
-28.957669348974484
 20
-10.892284768980907
 10
-28.48407468344714
 20
-10.658733743590282
 10
-27.957649798650998
 20
-10.480037111205029
 10
-27.431224913854855
 20
-10.301340478819775
 10
-26.88598069693591
 20
-10.19288482086079
 10
-26.340736480016965
 20
-10.084429162901806
 10
-25.786000342626828
 20
-10.048069375914501
 10
-25.23126420523669
 20
-10.011709588927197
 10
-24.676528067846554
 20
-10.048069375914501
 10
-24.121791930456418
 20
-10.084429162901806
 10
-23.576546759863156
 20
-10.19288482086079
 10
-23.031301589269894
 20
-10.301340478819775
 10
-22.504878134985226
 20
-10.480037111205029
 10
-21.97845468070056
 20
-10.658733743590282
 10
-21.479859442968625
 20
-10.904613870543407
 10
-20.98126420523669
 20
-11.150493997496532
 10
-20.519027800817746
 20
-11.459350007933544
 10
-20.0567913963988
 20
-11.768206018370556
 10
-19.638823600073117
 20
-12.134754556578564
 10
-19.220855803747433
 20
-12.501303094786572
 10
-18.854308219213742
 20
-12.919270891112255
 10
-18.48776063468005
 20
-13.337238687437939
 10
-18.17890462424304
 20
-13.799474138182568
 10
-17.870048613806027
 20
-14.261709588927197
 10
-17.624168486852902
 20
-14.76030482665913
 10
-17.378288359899777
 20
-15.258900064391064
 10
-17.199591727514523
 20
-15.785324472350048
 10
-17.02089509512927
 20
-16.311748880309032
 10
-16.91243848349597
 20
-16.856993097227978
 10
-16.803981871862668
 20
-17.402237314146923
 10
-16.76762303854968
 20
-17.95697345153706
 10
-16.73126420523669
 20
-18.511709588927197
 10
-16.76762303854968
 20
-19.066445726317333
 10
-16.803981871862668
 20
-19.62118186370747
 10
-16.91243848349597
 20
-20.16642751113789
 10
-17.02089509512927
 20
-20.71167315856831
 10
-17.199591727514523
 20
-21.238096612852978
 10
-17.378288359899777
 20
-21.764520067137646
 10
-17.624168486852902
 20
-22.26311530486958
 10
-17.870048613806027
 20
-22.761710542601513
 10
-18.17890462424304
 20
-23.22394694702046
 10
-18.48776063468005
 20
-23.686183351439404
 10
-18.854308219213742
 20
-24.104151147765087
 10
-19.220855803747433
 20
-24.52211894409077
 10
-19.638823600073117
 20
-24.888666528624462
 10
-20.0567913963988
 20
-25.255214113158154
 10
-20.519027800817746
 20
-25.564070600432323
 10
-20.98126420523669
 20
-25.872927087706493
 10
-21.479859442968625
 20
-26.11880721465962
 10
-21.97845468070056
 20
-26.364687341612743
 10
-22.504878134985226
 20
-26.543383973997997
 10
-23.031301589269894
 20
-26.72208060638325
 10
-23.576546759863156
 20
-26.830536264342236
 10
-24.121791930456418
 20
-26.93899192230122
 10
-24.676528067846554
 20
-26.975351232451366
 10
-25.23126420523669
 20
-27.011710542601513
 10
-25.786000342626828
 20
-26.975351232451366
 10
-26.340736480016965
 20
-26.93899192230122
 10
-26.88598069693591
 20
-26.830536264342236
 10
-27.431224913854855
 20
-26.72208060638325
 10
-27.957649798650998
 20
-26.543383973997997
 10
-28.48407468344714
 20
-26.364687341612743
 10
-28.957669348974484
 20
-26.13113631622212
 10
-29.431264014501828
 20
-25.897585290831493
 10
-29.431264014501828
 20
-30.854648035925795
 10
-29.431264014501828
 20
-35.811710781020096
 10
-10.51251468207385
 20
-35.811710781020096
 10
8.40623465035413
 20
-35.811710781020096
 10
8.40623465035413
 20
-6.71171037570851
 10
8.40623465035413
 20
22.388290029603077
 10
12.387485413293582
 20
22.388290029603077
 10
16.368736176233035
 20
22.388290029603077
 10
16.368736176233035
 20
5.631226163941456
 10
16.368736176233035
 20
-11.125837701720165
 10
16.84233084176038
 20
-10.892285722655224
 10
17.315925507287723
 20
-10.658733743590282
 10
17.84235182259534
 20
-10.480037111205029
 10
18.368778137902957
 20
-10.301340478819775
 10
18.91402044747327
 20
-10.19288482086079
 10
19.459262757043582
 20
-10.084429162901806
 10
20.013997940759403
 20
-10.048069375914501
 10
20.568733124475223
 20
-10.011709588927197
 10
21.123470215539676
 20
-10.048069375914501
 10
21.67820730660413
 20
-10.084429162901806
 10
22.22344961617444
 20
-10.19288482086079
 10
22.768691925744754
 20
-10.301340478819775
 10
23.29511633370374
 20
-10.480037111205029
 10
23.821540741662723
 20
-10.658733743590282
 10
24.320136933068973
 20
-10.904613870543407
 10
24.818733124475223
 20
-11.150493997496532
 10
25.280967621545535
 20
-11.459350007933544
 10
25.743202118615848
 20
-11.768206018370556
 10
26.161170868615848
 20
-12.134754556578564
 10
26.579139618615848
 20
-12.501303094786572
 10
26.945686249475223
 20
-12.919270891112255
 10
27.312232880334598
 20
-13.337238687437939
 10
27.621089844445926
 20
-13.799474138182568
 10
27.929946808557254
 20
-14.261709588927197
 10
28.17582693551038
 20
-14.76030482665913
 10
28.421707062463504
 20
-15.258900064391064
 10
28.60040274117444
 20
-15.785324472350048
 10
28.77909841988538
 20
-16.311748880309032
 10
28.88755789254163
 20
-16.856993097227978
 10
28.99601736519788
 20
-17.402237314146923
 10
29.03237524483655
 20
-17.95697345153706
 10
29.068733124475223
 20
-18.511709588927197
 10
29.03237524483655
 20
-19.066445726317333
 10
28.99601736519788
 20
-19.62118186370747
 10
28.88755789254163
 20
-20.16642751113789
 10
28.77909841988538
 20
-20.71167315856831
 10
28.60040274117444
 20
-21.238096612852978
 10
28.421707062463504
 20
-21.764520067137646
 10
28.17582693551038
 20
-22.26311530486958
 10
27.929946808557254
 20
-22.761710542601513
 10
27.621089844445926
 20
-23.22394694702046
 10
27.312232880334598
 20
-23.686183351439404
 10
26.945686249475223
 20
-24.104151147765087
 10
26.579139618615848
 20
-24.52211894409077
 10
26.161170868615848
 20
-24.888666528624462
 10
25.743202118615848
 20
-25.255214113158154
 10
25.280967621545535
 20
-25.564070600432323
 10
24.818733124475223
 20
-25.872927087706493
 10
24.320136933068973
 20
-26.11880721465962
 10
23.821540741662723
 20
-26.364687341612743
 10
23.29511633370374
 20
-26.543383973997997
 10
22.768691925744754
 20
-26.72208060638325
 10
22.22344961617444
 20
-26.830536264342236
 10
21.67820730660413
 20
-26.93899192230122
 10
21.123470215539676
 20
-26.975351232451366
 10
20.568733124475223
 20
-27.011710542601513
 10
20.013997940759403
 20
-26.975351232451366
 10
19.459262757043582
 20
-26.93899192230122
 10
18.91402044747327
 20
-26.830536264342236
 10
18.368778137902957
 20
-26.72208060638325
 10
17.84235182259534
 20
-26.543383973997997
 10
17.315925507287723
 20
-26.364687341612743
 10
16.84233084176038
 20
-26.13113583938496
 10
16.368736176233035
 20
-25.897584337157177
 10
16.368736176233035
 20
-30.854647559088633
 10
16.368736176233035
 20
-35.811710781020096
 10
30.10748281929944
 20
-35.811710781020096
 10
43.84622946236585
 20
-35.811710781020096
 10
43.84622946236585
 20
-1.1117138089360523
 10
43.84622946236585
 20
33.588283163148
 10
0.14623249028179686
 20
33.588283163148
 10
-43.55376448180225
 20
33.588283163148
 10
-43.55376448180225
 20
-1.1117138089360523
 10
-43.55376448180225
 20
-35.811710781020096
  0
LWPOLYLINE
  5
30
330
17
100
AcDbEntity
  8
0
100
AcDbPolyline
 90
97
 70
1
 10
-38.01133594061877
 20
28.726272207337452
 10
-38.05472669150378
 20
28.63828621490581
 10
-38.10923060919787
 20
28.556716543274952
 10
-38.163734526891965
 20
28.475146871644093
 10
-38.22841939475085
 20
28.401385885315968
 10
-38.29310426260974
 20
28.327624898987843
 10
-38.36686334158923
 20
28.26293907745464
 10
-38.44062242056872
 20
28.198253255921436
 10
-38.522193522711056
 20
28.14375076873882
 10
-38.60376462485339
 20
28.089248281556202
 10
-38.691752047796506
 20
28.045859914856983
 10
-38.77973947073962
 20
28.002471548157764
 10
-38.87263783957507
 20
27.970935445862843
 10
-38.96553620841052
 20
27.93939934356792
 10
-39.06175574805285
 20
27.92026100738628
 10
-39.15797528769519
 20
27.90112267120464
 10
-39.25586995627429
 20
27.894706350403858
 10
-39.35376462485339
 20
27.888290029603077
 10
-39.45165929343249
 20
27.894706350403858
 10
-39.54955396201159
 20
27.90112267120464
 10
-39.64577338244464
 20
27.92026100738628
 10
-39.74199280287768
 20
27.93939934356792
 10
-39.83489117171313
 20
27.970935445862843
 10
-39.92778954054858
 20
28.002471548157764
 10
-40.015776963491696
 20
28.045859914856983
 10
-40.10376438643481
 20
28.089248281556202
 10
-40.185335488577145
 20
28.14375076873882
 10
-40.26690659071948
 20
28.198253255921436
 10
-40.34066566969897
 20
28.26293907745464
 10
-40.414424748678464
 20
28.327624898987843
 10
-40.47910961653735
 20
28.401385885315968
 10
-40.54379448439624
 20
28.475146871644093
 10
-40.59829840209033
 20
28.556716543274952
 10
-40.65280231978442
 20
28.63828621490581
 10
-40.69619307066943
 20
28.726272207337452
 10
-40.73958382155444
 20
28.814258199769093
 10
-40.77111849333789
 20
28.907157522278858
 10
-40.802653165121335
 20
29.000056844788624
 10
-40.82179245497729
 20
29.09627876861675
 10
-40.84093174483325
 20
29.192500692444874
 10
-40.84734806563403
 20
29.290393453675343
 10
-40.85376438643481
 20
29.38828621490581
 10
-40.84734806563403
 20
29.48617897613628
 10
-40.84093174483325
 20
29.58407173736675
 10
-40.82179245497729
 20
29.680293661194874
 10
-40.802653165121335
 20
29.776515585023
 10
-40.77111849333789
 20
29.869414907532764
 10
-40.73958382155444
 20
29.96231423004253
 10
-40.69619307066943
 20
30.05030022247417
 10
-40.65280231978442
 20
30.13828621490581
 10
-40.59829840209033
 20
30.21985588653667
 10
-40.54379448439624
 20
30.30142555816753
 10
-40.47910961653735
 20
30.375186544495655
 10
-40.414424748678464
 20
30.44894753082378
 10
-40.34066566969897
 20
30.513633352356983
 10
-40.26690659071948
 20
30.578319173890186
 10
-40.185335488577145
 20
30.632823568421436
 10
-40.10376438643481
 20
30.687327962952686
 10
-40.015776963491696
 20
30.730716329651905
 10
-39.92778954054858
 20
30.774104696351124
 10
-39.83489117171313
 20
30.805640798646046
 10
-39.74199280287768
 20
30.837176900940968
 10
-39.64577338244464
 20
30.856315237122608
 10
-39.54955396201159
 20
30.87545357330425
 10
-39.45165929343249
 20
30.88186989410503
 10
-39.35376462485339
 20
30.88828621490581
 10
-39.25586995627429
 20
30.88186989410503
 10
-39.15797528769519
 20
30.87545357330425
 10
-39.06175574805285
 20
30.856315237122608
 10
-38.96553620841052
 20
30.837176900940968
 10
-38.87263783957507
 20
30.805640798646046
 10
-38.77973947073962
 20
30.774104696351124
 10
-38.691752047796506
 20
30.730716329651905
 10
-38.60376462485339
 20
30.687327962952686
 10
-38.522193522711056
 20
30.632823568421436
 10
-38.44062242056872
 20
30.578319173890186
 10
-38.36686334158923
 20
30.513633352356983
 10
-38.29310426260974
 20
30.44894753082378
 10
-38.22841939475085
 20
30.375186544495655
 10
-38.163734526891965
 20
30.30142555816753
 10
-38.10923060919787
 20
30.21985588653667
 10
-38.05472669150378
 20
30.13828621490581
 10
-38.01133594061877
 20
30.05030022247417
 10
-37.96794518973376
 20
29.96231423004253
 10
-37.936410517950314
 20
29.869414907532764
 10
-37.90487584616687
 20
29.776515585023
 10
-37.88573655631091
 20
29.680293661194874
 10
-37.86659726645495
 20
29.58407173736675
 10
-37.86018094565417
 20
29.48617897613628
 10
-37.85376462485339
 20
29.38828621490581
 10
-37.86018094565417
 20
29.290393453675343
 10
-37.86659726645495
 20
29.192500692444874
 10
-37.88573655631091
 20
29.09627876861675
 10
-37.90487584616687
 20
29.000056844788624
 10
-37.936410517950314
 20
28.907157522278858
 10
-37.96794518973376
 20
28.814258199769093
 10
-38.01133594061877
 20
28.726272207337452
  0
LWPOLYLINE
  5
31
330
17
100
AcDbEntity
  8
0
100
AcDbPolyline
 90
97
 70
1
 10
1.0593794867799105
 20
-30.921680826109814
 10
1.1331385657594026
 20
-30.9863656939687
 10
1.2068976447388948
 20
-31.051050561827587
 10
1.2715815589234651
 20
-31.12480964080708
 10
1.3362654731080355
 20
-31.19856871978657
 10
1.3907698676392855
 20
-31.280139821928906
 10
1.4452742621705355
 20
-31.36171092407124
 10
1.488664536218387
 20
-31.449698347014355
 10
1.5320548102662386
 20
-31.53768576995747
 10
1.5635890052125276
 20
-31.63058413879292
 10
1.5951232001588167
 20
-31.72348250762837
 10
1.6142634436890901
 20
-31.819701928061413
 10
1.6334036872193636
 20
-31.915921348494457
 10
1.6398200080201448
 20
-32.01381601707356
 10
1.646236328820926
 20
-32.11171068565266
 10
1.6398200080201448
 20
-32.20960535423176
 10
1.6334036872193636
 20
-32.30750002281086
 10
1.6142634436890901
 20
-32.4037195624532
 10
1.5951232001588167
 20
-32.49993910209553
 10
1.5635890052125276
 20
-32.59283747093098
 10
1.5320548102662386
 20
-32.68573583976643
 10
1.488664536218387
 20
-32.773723262709545
 10
1.4452742621705355
 20
-32.86171068565266
 10
1.3907698676392855
 20
-32.943281787794994
 10
1.3362654731080355
 20
-33.02485288993733
 10
1.2715815589234651
 20
-33.09861196891682
 10
1.2068976447388948
 20
-33.17237104789631
 10
1.1331385657594026
 20
-33.2370559157552
 10
1.0593794867799105
 20
-33.301740783614086
 10
0.9778079078004183
 20
-33.35624470130818
 10
0.8962363288209261
 20
-33.41074861900227
 10
0.8082484290406526
 20
-33.45413936988728
 10
0.7202605292603792
 20
-33.49753012077229
 10
0.6273631140992464
 20
-33.52906479255574
 10
0.5344656989381136
 20
-33.560599464339184
 10
0.4382456824586214
 20
-33.57973875419514
 10
0.3420256659791292
 20
-33.5988780440511
 10
0.24413099740002764
 20
-33.60529436485188
 10
0.14623632882092608
 20
-33.61171068565266
 10
0.04834166024182451
 20
-33.60529436485188
 10
-0.04955300833727705
 20
-33.5988780440511
 10
-0.14577302481676924
 20
-33.57973875419514
 10
-0.24199304129626142
 20
-33.560599464339184
 10
-0.33489045645739424
 20
-33.52906479255574
 10
-0.42778787161852705
 20
-33.49753012077229
 10
-0.5157757713988005
 20
-33.45413936988728
 10
-0.6037636711790739
 20
-33.41074861900227
 10
-0.6853352501585661
 20
-33.35624470130818
 10
-0.7669068291380583
 20
-33.301740783614086
 10
-0.8406659081175505
 20
-33.2370559157552
 10
-0.9144249870970427
 20
-33.17237104789631
 10
-0.979108901281613
 20
-33.09861196891682
 10
-1.0437928154661833
 20
-33.02485288993733
 10
-1.0982972099974333
 20
-32.943281787794994
 10
-1.1528016045286833
 20
-32.86171068565266
 10
-1.1961918785765349
 20
-32.773723262709545
 10
-1.2395821526243864
 20
-32.68573583976643
 10
-1.2711163475706755
 20
-32.59283747093098
 10
-1.3026505425169645
 20
-32.49993910209553
 10
-1.321790786047238
 20
-32.4037195624532
 10
-1.3409310295775114
 20
-32.30750002281086
 10
-1.3473473503782927
 20
-32.20960535423176
 10
-1.353763671179074
 20
-32.11171068565266
 10
-1.3473473503782927
 20
-32.01381601707356
 10
-1.3409310295775114
 20
-31.915921348494457
 10
-1.321790786047238
 20
-31.819701928061413
 10
-1.3026505425169645
 20
-31.72348250762837
 10
-1.2711163475706755
 20
-31.63058413879292
 10
-1.2395821526243864
 20
-31.53768576995747
 10
-1.1961918785765349
 20
-31.449698347014355
 10
-1.1528016045286833
 20
-31.36171092407124
 10
-1.0982972099974333
 20
-31.280139821928906
 10
-1.0437928154661833
 20
-31.19856871978657
 10
-0.979108901281613
 20
-31.12480964080708
 10
-0.9144249870970427
 20
-31.051050561827587
 10
-0.8406659081175505
 20
-30.9863656939687
 10
-0.7669068291380583
 20
-30.921680826109814
 10
-0.6853352501585661
 20
-30.867176908415722
 10
-0.6037636711790739
 20
-30.81267299072163
 10
-0.5157757713988005
 20
-30.76928223983662
 10
-0.42778787161852705
 20
-30.72589148895161
 10
-0.33489045645739424
 20
-30.694356817168163
 10
-0.24199304129626142
 20
-30.662822145384716
 10
-0.14577302481676924
 20
-30.64368285552876
 10
-0.04955300833727705
 20
-30.624543565672802
 10
0.04834166024182451
 20
-30.61812724487202
 10
0.14623632882092608
 20
-30.61171092407124
 10
0.24413099740002764
 20
-30.61812724487202
 10
0.3420256659791292
 20
-30.624543565672802
 10
0.4382456824586214
 20
-30.64368285552876
 10
0.5344656989381136
 20
-30.662822145384716
 10
0.6273631140992464
 20
-30.694356817168163
 10
0.7202605292603792
 20
-30.72589148895161
 10
0.8082484290406526
 20
-30.76928223983662
 10
0.8962363288209261
 20
-30.81267299072163
 10
0.9778079078004183
 20
-30.867176908415722
 10
1.0593794867799105
 20
-30.921680826109814
  0
LWPOLYLINE
  5
32
330
17
100
AcDbEntity
  8
0
100
AcDbPolyline
 90
97
 70
1
 10
39.64623251412366
 20
30.88828621490581
 10
39.74412527535413
 20
30.88186989410503
 10
39.8420180365846
 20
30.87545357330425
 10
39.93823996041272
 20
30.856315237122608
 10
40.03446188424085
 20
30.837176900940968
 10
40.127361206750614
 20
30.805640798646046
 10
40.22026052926038
 20
30.774104696351124
 10
40.30824652169202
 20
30.730716329651905
 10
40.39623251412366
 20
30.687327962952686
 10
40.47780218575452
 20
30.632823568421436
 10
40.55937185738538
 20
30.578319173890186
 10
40.633132843713504
 20
30.513633352356983
 10
40.70689383004163
 20
30.44894753082378
 10
40.77157965157483
 20
30.375186544495655
 10
40.836265473108035
 20
30.30142555816753
 10
40.890769867639285
 20
30.21985588653667
 10
40.945274262170535
 20
30.13828621490581
 10
40.988662628869754
 20
30.05030022247417
 10
41.03205099556897
 20
29.96231423004253
 10
41.063587097863895
 20
29.869414907532764
 10
41.09512320015882
 20
29.776515585023
 10
41.11426153634046
 20
29.680293661194874
 10
41.1333998725221
 20
29.58407173736675
 10
41.13981619332288
 20
29.48617897613628
 10
41.14623251412366
 20
29.38828621490581
 10
41.13981619332288
 20
29.290393453675343
 10
41.1333998725221
 20
29.192500692444874
 10
41.11426153634046
 20
29.09627876861675
 10
41.09512320015882
 20
29.000056844788624
 10
41.063587097863895
 20
28.907157522278858
 10
41.03205099556897
 20
28.814258199769093
 10
40.988662628869754
 20
28.726272207337452
 10
40.945274262170535
 20
28.63828621490581
 10
40.890769867639285
 20
28.556716543274952
 10
40.836265473108035
 20
28.475146871644093
 10
40.77157965157483
 20
28.401385885315968
 10
40.70689383004163
 20
28.327624898987843
 10
40.633132843713504
 20
28.26293907745464
 10
40.55937185738538
 20
28.198253255921436
 10
40.47780218575452
 20
28.14375076873882
 10
40.39623251412366
 20
28.089248281556202
 10
40.30824652169202
 20
28.045859914856983
 10
40.22026052926038
 20
28.002471548157764
 10
40.127361206750614
 20
27.970935445862843
 10
40.03446188424085
 20
27.93939934356792
 10
39.93823996041272
 20
27.92026100738628
 10
39.8420180365846
 20
27.90112267120464
 10
39.74412527535413
 20
27.894706350403858
 10
39.64623251412366
 20
27.888290029603077
 10
39.54833975289319
 20
27.894706350403858
 10
39.45044699166272
 20
27.90112267120464
 10
39.3542250678346
 20
27.92026100738628
 10
39.25800314400647
 20
27.93939934356792
 10
39.16510382149671
 20
27.970935445862843
 10
39.07220449898694
 20
28.002471548157764
 10
38.9842185065553
 20
28.045859914856983
 10
38.89623251412366
 20
28.089248281556202
 10
38.8146628424928
 20
28.14375076873882
 10
38.73309317086194
 20
28.198253255921436
 10
38.65933218453382
 20
28.26293907745464
 10
38.58557119820569
 20
28.327624898987843
 10
38.52088537667249
 20
28.401385885315968
 10
38.456199555139285
 20
28.475146871644093
 10
38.401695160608035
 20
28.556716543274952
 10
38.347190766076785
 20
28.63828621490581
 10
38.30380239937757
 20
28.726272207337452
 10
38.26041403267835
 20
28.814258199769093
 10
38.228877930383426
 20
28.907157522278858
 10
38.197341828088504
 20
29.000056844788624
 10
38.178203491906864
 20
29.09627876861675
 10
38.15906515572522
 20
29.192500692444874
 10
38.15264883492444
 20
29.290393453675343
 10
38.14623251412366
 20
29.38828621490581
 10
38.15264883492444
 20
29.48617897613628
 10
38.15906515572522
 20
29.58407173736675
 10
38.178203491906864
 20
29.680293661194874
 10
38.197341828088504
 20
29.776515585023
 10
38.228877930383426
 20
29.869414907532764
 10
38.26041403267835
 20
29.96231423004253
 10
38.30380239937757
 20
30.05030022247417
 10
38.347190766076785
 20
30.13828621490581
 10
38.401695160608035
 20
30.21985588653667
 10
38.456199555139285
 20
30.30142555816753
 10
38.52088537667249
 20
30.375186544495655
 10
38.58557119820569
 20
30.44894753082378
 10
38.65933218453382
 20
30.513633352356983
 10
38.73309317086194
 20
30.578319173890186
 10
38.8146628424928
 20
30.632823568421436
 10
38.89623251412366
 20
30.687327962952686
 10
38.9842185065553
 20
30.730716329651905
 10
39.07220449898694
 20
30.774104696351124
 10
39.16510382149671
 20
30.805640798646046
 10
39.25800314400647
 20
30.837176900940968
 10
39.3542250678346
 20
30.856315237122608
 10
39.45044699166272
 20
30.87545357330425
 10
39.54833975289319
 20
30.88186989410503
 10
39.64623251412366
 20
30.88828621490581
  0
ENDSEC
  0
SECTION
  2
OBJECTS
  0
DICTIONARY
  5
A
330
0
100
AcDbDictionary
281
1
  3
ACAD_COLOR
350
B
  3
ACAD_GROUP
350
C
  3
ACAD_LAYOUT
350
D
  3
ACAD_MATERIAL
350
E
  3
ACAD_MLEADERSTYLE
350
F
  3
ACAD_MLINESTYLE
350
10
  3
ACAD_PLOTSETTINGS
350
11
  3
ACAD_PLOTSTYLENAME
350
12
  3
ACAD_SCALELIST
350
14
  3
ACAD_TABLESTYLE
350
15
  3
ACAD_VISUALSTYLE
350
16
  3
EZDXF_META
350
2D
  0
DICTIONARY
  5
B
330
A
100
AcDbDictionary
281
1
  0
DICTIONARY
  5
C
330
A
100
AcDbDictionary
281
1
  0
DICTIONARY
  5
D
330
A
100
AcDbDictionary
281
1
  3
Model
350
1A
  3
Layout1
350
1E
  0
DICTIONARY
  5
E
330
A
100
AcDbDictionary
281
1
  3
ByBlock
350
1F
  3
ByLayer
350
20
  3
Global
350
21
  0
DICTIONARY
  5
F
330
A
100
AcDbDictionary
281
1
  3
Standard
350
2C
  0
DICTIONARY
  5
10
330
A
100
AcDbDictionary
281
1
  3
Standard
350
22
  0
DICTIONARY
  5
11
330
A
100
AcDbDictionary
281
1
  0
ACDBDICTIONARYWDFLT
  5
12
330
A
100
AcDbDictionary
281
1
  3
Normal
350
13
100
AcDbDictionaryWithDefault
340
13
  0
ACDBPLACEHOLDER
  5
13
330
12
  0
DICTIONARY
  5
14
330
A
100
AcDbDictionary
281
1
  0
DICTIONARY
  5
15
330
A
100
AcDbDictionary
281
1
  0
DICTIONARY
  5
16
330
A
100
AcDbDictionary
281
1
  0
LAYOUT
  5
1A
330
D
100
AcDbPlotSettings
  1

  4
A3
  6

 40
7.5
 41
20.0
 42
7.5
 43
20.0
 44
420.0
 45
297.0
 46
0.0
 47
0.0
 48
0.0
 49
0.0
140
0.0
141
0.0
142
1.0
143
1.0
 70
1024
 72
1
 73
0
 74
5
  7

 75
16
 76
0
 77
2
 78
300
147
1.0
148
0.0
149
0.0
100
AcDbLayout
  1
Model
 70
1
 71
0
 10
0.0
 20
0.0
 11
420.0
 21
297.0
 12
0.0
 22
0.0
 32
0.0
 14
1e+20
 24
1e+20
 34
1e+20
 15
-1e+20
 25
-1e+20
 35
-1e+20
146
0.0
 13
0.0
 23
0.0
 33
0.0
 16
1.0
 26
0.0
 36
0.0
 17
0.0
 27
1.0
 37
0.0
 76
1
330
17
  0
LAYOUT
  5
1E
330
D
100
AcDbPlotSettings
  1

  4
A3
  6

 40
7.5
 41
20.0
 42
7.5
 43
20.0
 44
420.0
 45
297.0
 46
0.0
 47
0.0
 48
0.0
 49
0.0
140
0.0
141
0.0
142
1.0
143
1.0
 70
0
 72
1
 73
0
 74
5
  7

 75
16
 76
0
 77
2
 78
300
147
1.0
148
0.0
149
0.0
100
AcDbLayout
  1
Layout1
 70
1
 71
1
 10
0.0
 20
0.0
 11
420.0
 21
297.0
 12
0.0
 22
0.0
 32
0.0
 14
1e+20
 24
1e+20
 34
1e+20
 15
-1e+20
 25
-1e+20
 35
-1e+20
146
0.0
 13
0.0
 23
0.0
 33
0.0
 16
1.0
 26
0.0
 36
0.0
 17
0.0
 27
1.0
 37
0.0
 76
1
330
1B
  0
MATERIAL
  5
1F
102
{ACAD_REACTORS
330
E
102
}
330
E
100
AcDbMaterial
  1
ByBlock
  2

 70
0
 40
1.0
 71
1
 41
1.0
 91
-1023410177
 42
1.0
 72
1
  3

 73
1
 74
1
 75
1
 44
0.5
 73
0
 45
1.0
 46
1.0
 77
1
  4

 78
1
 79
1
170
1
 48
1.0
171
1
  6

172
1
173
1
174
1
140
1.0
141
1.0
175
1
  7

176
1
177
1
178
1
143
1.0
179
1
  8

270
1
271
1
272
1
145
1.0
146
1.0
273
1
  9

274
1
275
1
276
1
 42
1.0
 72
1
  3

 73
1
 74
1
 75
1
 94
63
  0
MATERIAL
  5
20
102
{ACAD_REACTORS
330
E
102
}
330
E
100
AcDbMaterial
  1
ByLayer
  2

 70
0
 40
1.0
 71
1
 41
1.0
 91
-1023410177
 42
1.0
 72
1
  3

 73
1
 74
1
 75
1
 44
0.5
 73
0
 45
1.0
 46
1.0
 77
1
  4

 78
1
 79
1
170
1
 48
1.0
171
1
  6

172
1
173
1
174
1
140
1.0
141
1.0
175
1
  7

176
1
177
1
178
1
143
1.0
179
1
  8

270
1
271
1
272
1
145
1.0
146
1.0
273
1
  9

274
1
275
1
276
1
 42
1.0
 72
1
  3

 73
1
 74
1
 75
1
 94
63
  0
MATERIAL
  5
21
102
{ACAD_REACTORS
330
E
102
}
330
E
100
AcDbMaterial
  1
Global
  2

 70
0
 40
1.0
 71
1
 41
1.0
 91
-1023410177
 42
1.0
 72
1
  3

 73
1
 74
1
 75
1
 44
0.5
 73
0
 45
1.0
 46
1.0
 77
1
  4

 78
1
 79
1
170
1
 48
1.0
171
1
  6

172
1
173
1
174
1
140
1.0
141
1.0
175
1
  7

176
1
177
1
178
1
143
1.0
179
1
  8

270
1
271
1
272
1
145
1.0
146
1.0
273
1
  9

274
1
275
1
276
1
 42
1.0
 72
1
  3

 73
1
 74
1
 75
1
 94
63
  0
MLINESTYLE
  5
22
102
{ACAD_REACTORS
330
10
102
}
330
10
100
AcDbMlineStyle
  2
Standard
 70
0
  3

 62
256
 51
90.0
 52
90.0
 71
2
 49
0.5
 62
256
  6
BYLAYER
 49
-0.5
 62
256
  6
BYLAYER
  0
MLEADERSTYLE
  5
2C
102
{ACAD_REACTORS
330
F
102
}
330
F
100
AcDbMLeaderStyle
179
2
170
2
171
1
172
0
 90
2
 40
0.0
 41
0.0
173
1
 91
-1056964608
 92
-2
290
1
 42
2.0
291
1
 43
8.0
  3
Standard
 44
4.0
300

342
29
174
1
175
1
176
0
178
1
 93
-1056964608
 45
4.0
292
0
297
0
 46
4.0
 94
-1056964608
 47
1.0
 49
1.0
140
1.0
294
1
141
0.0
177
0
142
1.0
295
0
296
0
143
3.75
271
0
272
9
273
9
  0
DICTIONARY
  5
2D
330
A
100
AcDbDictionary
280
1
281
1
  3
CREATED_BY_EZDXF
350
2E
  3
WRITTEN_BY_EZDXF
350
35
  0
DICTIONARYVAR
  5
2E
330
2D
100
DictionaryVariables
280
0
  1
1.4.4 @ 2026-08-09T12:23:49.170700+00:00
  0
DICTIONARYVAR
  5
35
330
2D
100
DictionaryVariables
280
0
  1
1.4.4 @ 2026-08-09T12:23:49.187251+00:00
  0
ENDSEC
  0
EOF
